<mxfile host="app.diagrams.net" modified="2021-09-09T16:55:49.584Z" agent="5.0 (X11; Linux x86_64) AppleWebKit/537.36 (KHTML, like Gecko) Chrome/93.0.4577.63 Safari/537.36" etag="iOfGzlyYyt85opIAT3RX" version="15.1.1" type="github">
  <diagram name="Page-1" id="c7558073-3199-34d8-9f00-42111426c3f3">
    <mxGraphModel dx="1372" dy="782" grid="1" gridSize="10" guides="1" tooltips="1" connect="1" arrows="1" fold="1" page="1" pageScale="1" pageWidth="1169" pageHeight="827" background="none" math="0" shadow="0">
      <root>
        <mxCell id="0" />
        <mxCell id="1" parent="0" />
        <mxCell id="10" value="&lt;p style=&quot;margin: 0px ; margin-top: 4px ; text-align: center ; text-decoration: underline&quot;&gt;&lt;strong&gt;&lt;strong&gt;Offenen Dienst erstellen (entsperrt)&lt;/strong&gt;&lt;br&gt;&lt;/strong&gt;&lt;/p&gt;&lt;hr&gt;&lt;p style=&quot;margin: 0px ; margin-left: 8px&quot;&gt;&lt;br&gt;&lt;/p&gt;" style="verticalAlign=middle;align=center;overflow=fill;fontSize=12;fontFamily=Helvetica;html=1;rounded=1;fontStyle=1;strokeWidth=3;fillColor=#dae8fc;strokeColor=#6c8ebf;" parent="1" vertex="1">
          <mxGeometry x="500" y="530.13" width="240" height="280" as="geometry" />
        </mxCell>
        <mxCell id="14" value="Schichtleitung" style="whiteSpace=wrap;align=center;verticalAlign=middle;fontStyle=1;strokeWidth=3;fillColor=#FFFFCC" parent="1" vertex="1">
          <mxGeometry x="360" y="740" width="90" height="60" as="geometry" />
        </mxCell>
        <mxCell id="87" value="" style="edgeStyle=elbowEdgeStyle;elbow=vertical;strokeWidth=2;strokeColor=none;startArrow=classic;startFill=1;endArrow=none;endFill=0;" parent="1" target="14" edge="1">
          <mxGeometry width="100" height="100" relative="1" as="geometry">
            <mxPoint x="300" y="789.31" as="sourcePoint" />
            <mxPoint x="200" y="839.31" as="targetPoint" />
            <Array as="points">
              <mxPoint x="187" y="749.31" />
            </Array>
          </mxGeometry>
        </mxCell>
        <mxCell id="6pbGGfXBaGJGcjd1V0Mg-104" value="" style="edgeStyle=elbowEdgeStyle;elbow=vertical;strokeWidth=2;startArrow=classic;startFill=1;endArrow=none;endFill=0;" parent="1" edge="1">
          <mxGeometry width="100" height="100" relative="1" as="geometry">
            <mxPoint x="500" y="750" as="sourcePoint" />
            <mxPoint x="450" y="750" as="targetPoint" />
            <Array as="points">
              <mxPoint x="470" y="750" />
            </Array>
          </mxGeometry>
        </mxCell>
        <mxCell id="6pbGGfXBaGJGcjd1V0Mg-105" value="Angebot" style="edgeLabel;html=1;align=center;verticalAlign=middle;resizable=0;points=[];" parent="6pbGGfXBaGJGcjd1V0Mg-104" vertex="1" connectable="0">
          <mxGeometry x="0.2974" relative="1" as="geometry">
            <mxPoint x="-1" y="-30" as="offset" />
          </mxGeometry>
        </mxCell>
        <mxCell id="6pbGGfXBaGJGcjd1V0Mg-106" value="Pool-Koordination" style="whiteSpace=wrap;align=center;verticalAlign=middle;fontStyle=1;strokeWidth=3;fillColor=#FFFFCC" parent="1" vertex="1">
          <mxGeometry x="360" y="211.9999999999999" width="90" height="60" as="geometry" />
        </mxCell>
        <mxCell id="6pbGGfXBaGJGcjd1V0Mg-107" value="" style="edgeStyle=elbowEdgeStyle;elbow=vertical;strokeColor=#990000;strokeWidth=2;exitX=-0.005;exitY=0.175;exitDx=0;exitDy=0;exitPerimeter=0;" parent="1" edge="1" source="10">
          <mxGeometry width="100" height="100" relative="1" as="geometry">
            <mxPoint x="415" y="589" as="sourcePoint" />
            <mxPoint x="410" y="273" as="targetPoint" />
            <Array as="points">
              <mxPoint x="450" y="579" />
            </Array>
          </mxGeometry>
        </mxCell>
        <mxCell id="6pbGGfXBaGJGcjd1V0Mg-108" value="Email: &lt;br&gt;Offener &lt;br&gt;Dienst &lt;br&gt;erfasst" style="edgeLabel;html=1;align=center;verticalAlign=middle;resizable=0;points=[];labelBackgroundColor=#F8CECC;" parent="6pbGGfXBaGJGcjd1V0Mg-107" vertex="1" connectable="0">
          <mxGeometry x="0.1625" y="2" relative="1" as="geometry">
            <mxPoint x="-3" y="42" as="offset" />
          </mxGeometry>
        </mxCell>
        <mxCell id="6pbGGfXBaGJGcjd1V0Mg-113" value="" style="edgeStyle=elbowEdgeStyle;elbow=vertical;strokeWidth=2;startArrow=classic;startFill=1;endArrow=none;endFill=0;exitX=0.75;exitY=1;exitDx=0;exitDy=0;entryX=0.591;entryY=0;entryDx=0;entryDy=0;entryPerimeter=0;" parent="1" source="6pbGGfXBaGJGcjd1V0Mg-146" edge="1" target="10">
          <mxGeometry width="100" height="100" relative="1" as="geometry">
            <mxPoint x="500.0000000000002" y="580.42" as="sourcePoint" />
            <mxPoint x="645" y="520" as="targetPoint" />
            <Array as="points" />
          </mxGeometry>
        </mxCell>
        <mxCell id="6pbGGfXBaGJGcjd1V0Mg-114" value="Freigabe" style="edgeLabel;html=1;align=center;verticalAlign=middle;resizable=0;points=[];" parent="6pbGGfXBaGJGcjd1V0Mg-113" vertex="1" connectable="0">
          <mxGeometry x="0.2974" relative="1" as="geometry">
            <mxPoint x="35" y="-6" as="offset" />
          </mxGeometry>
        </mxCell>
        <mxCell id="6pbGGfXBaGJGcjd1V0Mg-117" value="Privatwache" style="whiteSpace=wrap;align=center;verticalAlign=middle;fontStyle=1;strokeWidth=3;fillColor=#FFFFCC" parent="1" vertex="1">
          <mxGeometry x="630" y="211.9999999999999" width="90" height="60" as="geometry" />
        </mxCell>
        <mxCell id="6pbGGfXBaGJGcjd1V0Mg-118" value="v" style="edgeStyle=elbowEdgeStyle;elbow=vertical;strokeColor=#990000;strokeWidth=2;" parent="1" edge="1">
          <mxGeometry width="100" height="100" relative="1" as="geometry">
            <mxPoint x="706" y="528" as="sourcePoint" />
            <mxPoint x="706" y="271" as="targetPoint" />
            <Array as="points">
              <mxPoint x="578" y="318" />
              <mxPoint x="618" y="298" />
            </Array>
          </mxGeometry>
        </mxCell>
        <mxCell id="6pbGGfXBaGJGcjd1V0Mg-119" value="Email: Offene Dienste&amp;nbsp;07.00 Uhr" style="edgeLabel;html=1;align=center;verticalAlign=middle;resizable=0;points=[];labelBackgroundColor=#F8CECC;rotation=90;" parent="6pbGGfXBaGJGcjd1V0Mg-118" vertex="1" connectable="0">
          <mxGeometry x="0.1625" y="2" relative="1" as="geometry">
            <mxPoint x="3" y="22" as="offset" />
          </mxGeometry>
        </mxCell>
        <mxCell id="6pbGGfXBaGJGcjd1V0Mg-146" value="&lt;p style=&quot;margin: 0px ; margin-top: 4px ; text-align: center ; text-decoration: underline&quot;&gt;&lt;strong&gt;&lt;strong&gt;Angebot annehmen&lt;/strong&gt;&lt;br&gt;&lt;/strong&gt;&lt;/p&gt;&lt;hr&gt;&lt;p style=&quot;margin: 0px ; margin-left: 8px&quot;&gt;&lt;br&gt;&lt;/p&gt;" style="verticalAlign=middle;align=center;overflow=fill;fontSize=12;fontFamily=Helvetica;html=1;rounded=1;fontStyle=1;strokeWidth=3;fillColor=#d5e8d4;strokeColor=#82b366;glass=0;sketch=0;shadow=0;" parent="1" vertex="1">
          <mxGeometry x="500" y="320" width="190" height="160" as="geometry" />
        </mxCell>
        <mxCell id="6pbGGfXBaGJGcjd1V0Mg-150" value="" style="shape=image;verticalLabelPosition=bottom;labelBackgroundColor=#ffffff;verticalAlign=top;aspect=fixed;imageAspect=0;image=data:image/png,iVBORw0KGgoAAAANSUhEUgAAAYQAAAEPCAYAAABCyrPIAAAABHNCSVQICAgIfAhkiAAAABl0RVh0U29mdHdhcmUAZ25vbWUtc2NyZWVuc2hvdO8Dvz4AAAAldEVYdENyZWF0aW9uIFRpbWUARG8gMDkgU2VwIDIwMjEgMTA6NTM6MjPCC56pAAAgAElEQVR4nOzdf1yT5734/9ckifSTdIIySdtgI7AaN0BOwQ6qUzzNUUTOkVps+VbX4dHZ9ujaWu10rXZa+0NPq87Nnlrbrq7VDg+2wx1E64lH5INKJ/hFYMfYIaLEltho6ExWTIJ+/kj4/SsgqNj38/Hw0ZLcuX4lud73dV137us7V69evYoQQohvvUE3ugBCCCFuDhIQhBBCABIQhBBC+EhAEEIIAUhAEEII4SMBQQghBCABQQghhI8EBCGEEIAEBCGEED4SEIQQQgASEIQQQvhIQBBCCAFIQBBCCOEjAUEIIQQgAUEIIYSPBAQhhBCABAQhhBA+EhCEEEIAEhCEEL3QcOXKjS5CkytXer8L8M1Uj75yLe2h6MNyCCFuYe6GK/yh4HP2lJyhzlnPFxccN7pIANw57HaCNYNJvvduHp1wD4qArs9z3Q1X+Kjgc3KPnsbxjeumqUdfuXPY7dx+m4rUsXq/2qOl71y9erX34UQI8a3gbrjCQ6/l8eXXl2kYpGSQQnWji9TKFY+LgCtu7gwazCe/TCFgUMedoLvhCg++uhuL/TKDlKqbrh595YrHxRX3ZUYMDeSPz0/rtD3akikjIUS3/lDwOV9+fZmrKvVN2YkOUqi4qlLzRd1l/lDw106P21H4Vyz2yyhu09yU9egrgxQqFLfdzhdfX+bjw6f8f10/lkkIcYvYU1JNwyDljS5GtxoGKckrru70+d1HTzNIeesGgrauDFKRU1Tl9/ESEIQQXWq4cgW70zUgzqgHKVTYnZc7XCxuuHKFr/8+MOrRVwYpVPztm47bo8Pj+7k8QogBLmDQIL68cOlGF8NvX1y41OGcecCgQZyzDZx69JWarzpuj45IQBBCCAFIQBBCCOEjAUEIIQQgP0wbgFy4XN7/U6m+PYtjYgBT3EbU6KHouUz5CRtnPB0fEzd6KHd0dYzodzcsIDgqP+WDD3M5fPwUVqcblGpCR4zjyVefY9xQABdnD33Ah1mHOX6qBrsblOpgtGPmsnLVFEbcqIJfs+YOvYlKhV9du+sAv0x7lWK37291Eq/mvMDYvi2gEH1K8/1I3si4ixAaKNl1kMVl7a94GTzyHl7JuIMQGji86wBP/Vkiwo3Q+4Bw8Ti5WbkcKD7OqVo7zsYOO2w0MZMmMyN1HCM66eUuHnqFp1bmY235oNuJ9awDlwbAwfH/eIpf/rEGd6tD7NRcdKPpdaFvsIu5LH5kI2WdPK1UhzIiYjQxk1LJmDyGobfgAMDli4Yyuvl2uHtCAh9NCWIwAAHETf9H8qd39YoA7p9u5E/aP5P+p4u0PXcS/asXAcHF2U9f5/mN+VjdrZ9xO+3UmA9TYz7M7g8MPPjCKv5t7NA2Lz/OBxvbBINGQ0MJUwGVWWxsEwwaqUeEMrSDx28FbqeVU2VWTpXlk/tBPI+teoGM0QM2/LVxiF+lrORw45uqvJ+VeasYd0PLJPrXIG7XKHzBoGduv11ms2+EHra6i8pPFrPkLTPO7g51mvnj809hf/43vDCpRRd+9ihl9hbHKSOYPO9B4tVunCoDI4CLZcepaXlI6P089pMkgnHCiNE9K/IA5bYX897iJ6hZ9Rueawyqqggmz3iEiMaDNKMJvVEFFKJbV7hw+hwfK27r8Ssv1Xxzc40OFCH8akk8iaeP8S87zndQtkEkPjSR346+yOI1xzk4QGe8ehQQXJUf8GqbYKAMjWdy0lgitSocZ4+Sv+8wp5oOsJL/+iuMGb2OVC2AC5fdTqt7C45OZW7qJDSoUKkAl4uLF1uHG23ST5gxaYT/c+2dlf9mm65QxzP3uVTCAFwOrCcOk7vvMDWN1Xdb2ffK68T87jWmDAUYwaR5jzGuLxeVXS7vh/sa27bbbBztv0IuhwuXpn/zFTfWl389w29P9+JiRs9A61Gv8MX/VrP1KyfVfhb9nsn389FED6+u/jOf1Pdv6fzVg4Dg4NB7n7Q6c1fHPM1vXkttsVaQSsZjR/n1U79id41vbsBdxgcfHmfy5H3MXrIPe5tUKdvII9M2AvCD++7if/98rl3ONTueZNoOgAie/HAzM7S+J1y1HM39kKzco5yoseNGiTJYy+gx95P6kwwmjWicbrlI7uJH2Ng4ea9OYslr8ZzKal7UVqpDiRibSsbcGYzTdtBF+Z1XD2hCGTNuHE1jnklTmJFxiNefWsm+xjk1ZzEffnCcSc+MQeXPonIPynk26wnmvtd446tQpq18jsijWeQePsFZuxO3Uk3Y6HGkPjaXGWPaT9S5zh7ikx2fsO/oCWrs3kIpg8O8eT2SwaRIDXCIV1JWkt92/s99mFcfnAYouX9lHqtazB11fMHBaOJTM3gsdcwtO2V46xlE1OT72Tqu59+NS/97jCnbOzoTv3mdOXGaTSdudCmujf8BwXGU/OMtvtVKA489l9p+4VgzlmeeS6X4qT82rRPYj+7jxORrLmtrFw/x6yWvNAceANy47TWU5e+g7FA+h597gxcmadu/1pnPG0/lt3rI7bRizn+PlUeP8uRv1jGj5WVM15JXTw0dx9PPTeP4kt1N7Wc9fIATz4xhTHevvaZyWtm9cknrh9xOasr28daSoxx/fjOrWkz91R54hSWvd7CO1JhX/j72Pf0Gq1L9q7aXi8pPfsXzbxW3PnFwO7GeKmb3xmLyP32E116bxy2ztCJuEe2njFQhw1k47R4mj9QQgpsvbDb+sPsv/OG0kp8+PpGf+/qY51ckM/9YMf/ysQ0XoAkLY3FKOEl33IbK8w2f/7WadbvOUHEdRhH+j+VqT9GqnxkxjvjO+r/Rk4hvObltP8upi70pXidcJ3j3+bYdXxtuK/mvrySrsodpO8t4d2MuTcXtz7w6oRozifjgFg/YT3GqtpsX9Ws57Rze+BaHGuf6zmaxsoNg0PY1xRtX8kEP8rp44JX2waANp3kHv3r9ELfWlia3uEt1fHrsK6rd8EXVOf6r6jK4HRw+9iXl38ClL6381+cOLnOZkmPnKOnqAzBgqPn/HhrDo9+7xJbfH+LR35s5QgiLH/khEwO/4Q+//x8eP+QA6li34X9I3+UNBoSE8epPDSTWn2Xle4d4fNeXuL4/mjemD78uV1f6P0JwOlp/CYODuxi6BzNCA82XEjm5qH2SzR/+BNeJ93ji1fzmdQjDXN56IQkNoFGpcLhc1GQt4fndzdchhT34Bq/OCAVUDNXC2ayNfHKqRW+kNjD5sRncH+zkeO4H/LFx1dp9iqwdh5jxQvuFaGVYEvOefIT7w1TYj3/IK280X/nkLjvA4YuppA6Fs5/0NK9xfTAnHsqIUGjuGe3UOqCruZLelLMddQTTnnySGWNCoeYwb73+FsWNZXAeYt9xF+PGqajct4+WWQXHP8lzc+MJddeQ+x+v80dz47tbQ/6+29m87UPmOorZ+MTG5ukuZTxPb36aeJUKzVDAcZS33jrcIhgoCY2fwU8mR4D1MDs+yG86IbEf/pDcs+PIGLg/Rvl28Vzm85rL3BkNqro6yhVD+GePh+qav3HnyDu445KT8q+UJN0Dti/rcN1xF/fc6DJfK8Vt6IMDuFRjZd/pSzi4xGtZbqp/oMQBuOpdXPJcAa5w2eHC4QEYRNz94dyPjed3nOZgPVBziXVhw/no3ru4X3Geff28tNKDNYTWp4Pd3hm97QFKDUO1GrB6FxGbAoIqGK1W2xT9NIBD07pLVQ31HuNVyb59p5pLo4zgkdfWMW+09zXjxqqpebh5nt15/DAnaBsQgpn89AvM8M3BaLVPkpGbz0Zz4/M1VFqBob3Ja1z3Uzvd6iCkdHk23rtyBrdJJSz1eZ6Z4utltTOYOzmX4h2Nq0ZurDW1wAjcjtbn56Fj72dspBYYwbzH8tn3fHPAdzmvohmqRTM0uE2tVASP0NL4rjoOfcKhFmeGwfc/x29WTfLFwElEOE7xZFNZTnG07CIZI2Q1YUAIDmV+CgxWAvcaWEwAAA+l3O59LPhuFo8MYDAwZbIBlHBpoI8SPBf5Q8FXJE6OZufCuyipusiRE7V8XNDV1VMK7rnjNrjtNl5dkcyrrZ5zoQmE/h4aD7yLfS+aOdFyZdt9ih1PpfGJWoVGpUGlAUfLztNx0Xt23SUN6qFKmntdF05H7/Mac73nt3tZzrYBQdWm3EO16lZ/O3xXf4WNjkC5u7iptcxv/SsP545mdMxoxoyZzG92PMeIHv6q7tTxU61inv3wq8xO2YhK46uDq/WcmfWslS6HTOKmcfnLKh7dXMf8ZWO4ffcBVinv5U//+A1L3qgmbmECSZ//mUf/OoI/zbqN379xjEsPTWLxjS70NbvC54dL+JeyISTFhJI4MpSFP41kYU0lS35/moquzvS/Osvij2v4stVJ4BW+uA7zpD0ICK1P+bs8Ye3ogL66ttBR28Ecsxu3043d6aTdk+5ruE7heubVSgfpdDUku87l1Ex5knn7nuKtsqbrY7HXlHG4pozDu3cAaiKSMpj7ZAZtf5fYMRcOe/tPu9vtxG134uygdu1u/yFuWoPvCOej5b4RQvok/oR3NPDGci2DlQHwvfs4cF8Ag5WweMkkUAZw6X9vdKmvUZCWhQ8M5Ys/m/nk8NfsOwya6H/gvzL0PDTyDBV/7WjDGg+f276BaA3D7Jc4eAMWyvwPCGoNGlpOa9u5CJ0sdNg526oy6v67DUNwGIZQNW6nE4fLhcvhwOFy4XZ3G7Ju4rysnG31U+5gtD0ZdfR7OUcwY93vCPvkLT7IOoTZ3jZdJ6fy3+P548dZ8pvXmNLji6+UhEZEEIwbp8uBy+HC4XLgcrq7PxERNx+7lS0Fl0lKGYGq3MzHirt5/vsePt5n5c4Jo4j66gxbvgri5+NUHN53Bte9PyTpRpe5E4MVg9GHqLnc8kHPZc7Uteng669wx/dH8NAd4Pr0HJ9fUhIV811ud39Dtd177IU6D5dRc/+9IXz+v3VU1HkoOVhN+ejR/PwRA47/OUe1ZzD3jA4jiTM8v6//b+Xhf0AYEUGYkuYrjc4eorg2gxEdfdlPHKC4ZYcWPIKIPrgiEwCNlmBo/j2EKp6nf/tvRHZwqMvlwOUAlcbFvuuWV28yapPW8QPNi7kAwRHe9uvs09DLcnZ34VInpeNi5QlqnKCKSGXeqp8QTA0njh+n+GgxR8tqmteH7MW89+FRJj03tpsBogpNcKvTDcIefI3XpnTUmC4cDhednYqIm9EVXN/4Oky32/cxbvGY57JvURVc37hv6t8e3P6DH/LRD9o8+OVJHtp0pvVj9edZtbWcX04byeJZI7hd2YDtq4t89LGZP9i8h1woq+Ljf4jmoWn/gD6ohEfzLuKyneHn2+GXk/X88qd6bsfNF7aL7Nt/mevB/4CgGkvSWDWHD/u+7m4zH7z+CfGvzWj9WwTHcf5jY26rexUFj53cblm314YaiAiFsqaL9PfxVu4M1qW2jjiu2qPsOxHM5EmRqOjlNa+9yusaXTzExtd3t2q/0Psndd1+17WcJ3jv+SXsa+y71ZN59T+fY8rocUzJAMfR13ni+X3Nv0E5W8NFxtLh+YCLpqnEiDEt1yXcFH/4LsfHPdNmPcZB5af52Mem+jkVJW6sK1yq83A5+A4WZ/ge+lEsK33/m5nhexODRzctoP5zeizQwBdnb7JfKntsrFqzl1VdHHLm4wPEt/jbVXuOVe+d6/w19TbWv32A9W0edpw+wwtvn+nwJf2tB2sIGsb9JJWwozuaRgnOsrd44l+PMjl1LJEaFY6zx8nPz+dUq3sVxfDYT8b04e0JIklNjSD3vcZFSCdlG59icWUGk8cEo3LZOVV8gH2HzNiJQTlmne+2DzdhXg4rxw8c4qIKXC471hNH2dfy1hUA6nh+8lh37Xc92ySUiJaXxDoP8NbrEbhmxBCKnVP5p1qFX6VK7TuX16BpOQhwnyD3g0+ocbkIy8hg3NhUxqmLyW+su3U3v3rKSeqM+4lQu3BaT3BoXz7FNU5Cp0Xwu2dGyy0vBoAzh4sYd/hGl0L4q0dXGakiH+P5eSdY8lYZzbfbKWb3e8WdvCKUpOdeILWvpot8Rsx4mtR9i/lj0/yVnbLdb1G2u+2RZXyYdYJJ/9b7W8D1PK8edFTOYt57tbO2A5RhTH7hOb86796Us3e0TM5IImtlvq9vd1OT/xYr8zs6Vs2Y1LG+gBBBTISSfcXN5Sve8RbFBDN5XAbjxoxj7pPxHH2juOmz5azJZ8fG9glb933Agcdeu4agJoToSA/vOqUicsZr/GZJEmHd/RBBbeDBV9vc6bSvqEbzb2+8wLSIbgqhjmDMaHXXx9xMebWgDI3nyXUt7nTanetYTs2453j1yZh2l622yYiIB1/guab3X8OkjMneG/m1Yqe2xjum0E5ZxRtPxneTrpLgMWM63WtDCNF7vfgdgooRU17gd2Nn8OknueQXH+dU7UXsTlCqNWgjRhMzLpUZqWP790s7dBzPbN7GlNwssj4t5kRNLXanG6UymKEjIhiTNJkHUycRqQF6u4bQq7x6S4k6eCjaiDHEJ6UyY8ronl9lf13KCd4Tg3X8LuYAuX/MJf/4Kc5edOJ2K1GHaokYHc/kGRlMGd26Bqoxz/DGGyN4691POHrKihM1oRFjGBumapHua2yLP8QnO3LJP36iOd1gLWGj45kyYwaTx2hlukiIfvCdq1evXr3RhRBC3NzGPLUd5e3DbnQx/OK+dIHjv5nV4XMDqR59pav2aKsXNyoXQghxK5KAIIQQApCAIIToxpUrV7lz2O03uhh+u3PY7TRcaX9riCtXrqIL+e4NKNGNpQv5boft0REJCEKILg0a9B2C1YO54rmZf0PsdcXj4ntDbiNgUPuubdCg7zDk/6gGRD36yhWPiyC1qsP26IgEBCFEt5Lj7ibgys1/J6mAK24m/0PnG2X8830jGTQA6tFXBjW4mJ4Q7v/x/VgWIcQt4tEJ93BH0GC+43LelGfYVzwuvuNycmfQYB79cefb68wcF8ldQYMJcN+c9egrVzwuFJ6/c1dwIOmJHd3VrGNy2akQwi8NV67wh4K/kldczUXHZb68eOlGFwnwrhkM1QxmaryeR398D4MGfafL4xuuXGFPyRn+s/CvfHWpni9sN0c9+spdw27ne0Nu4+HxkUy9V99te7QkAUEI0WMNV674PS/d366lLDdTPfrKtdRJAoIQQghA1hCEEEL4SEAQQggBSEAQQgjhIwFBCCEEIAFBCCGEjwQEIYQQgAQEIYQQPhIQhBBCABIQhBBC+EhAEEIIAUhAEEII4SMBQQghBCABQQghhI8EBCGEEIAEBCGEED4SEIQQQgASEIQQQvhIQBBCCAFIQBBCCOEjAUEIIQQgAUEIIYSPBAQhhBCABAQhhBA+EhCEEEIAEhCEEEL4SEAQQggBSEAQQgjhIwFBCCEEIAFBCCGEjwQEIYQQgAQEIYQQPhIQhBBCABIQhBBC+EhAEEIIAUhAEEII4SMBQQghBCABQQghhI8EBCGEEIAEBCGEED4SEIQQQgASEIQQQvhIQBBCCAGA4lpe/Lcvv8Rs+zt/I4CQkO8x+g41g/uqZEIIIa6rXgQEJ6UHDrF+9+ccvdDQ6hnVd7WkTP4Rz07W8z1lH5VQCCHEdfGdq1evXvX76L9/yTvrclhf5fI9oOLOYYOBBi59/XcuebyP3h4Wy6bFE7lvSJ+XVwghRD/pQUC4SNaaHaw66Wp6RBX1T/x58Q8YjIf/+9Zm5v+5ecSgCr+frGVjGd3vI4V6SretZdepjp4bzA9nLSM90kbh5jfZzwMseGI8muKtrN1dx4/mPkOyrvc5eyqyWPOxA+PT80gIqmXvprep0P2UJWn63ifaK121wRDi5j5DqqaIdzea0Dy0jIyoa5op9PKYyVqzg2rDLJalR1Kd+wa/L9Hy0Auz6Yvkb1bVOW/we0sUjy9MRnujC9OW7z2pS1rAE+ND/HiB73PjmcbSzHgCe5pdxTZe+bieaYvnEa/pTYG7Vle4mY37ra0eC1APQx9lJNVoIOgW/pzdKH436VeF/8P6FsGg0WVgsO+/LbmqPmPVgQiyJg+9thL6664HmJseRdvPZaAGQEPk+Cko0KMBFPoEpkypRxvUlwUIwjB+CiGaPk20ZzpsA4WvDfQkTDGi0PbRt0ihJd74APoQb8cTEpXEAyEampN3UPTuOj4NfIgXZkdd22KVuCkptPFMmeJB19NI0hMBEUx7IpVIBYAHh6WI3JwdbK2fxcK0SPlc9TE/2/MiObvPcanNo66K/+bHP/sf7/97Gto828DxfaWUTv5HYq+5mH5QBBIUFNQuIHgFoo1KaD6jCzGQ4M8JVI8Eoo9NQN/XyfZEl22gJSqhL89pg4hMGE+k7y+NPp7x+j5MXtz8+uV71JYCTVBQ02ggKCiV9Npq3iwqwpwcSVR/BqNvIf8Cwtdn+L+1rR+6875JrBz/Xd9fl/lzzn/zblWboHDBwtEvIfaOay/otag1beLtYi2zlqU3dWCWvb/mvYpIfrokFb0ll1+/Z8EwTU9tYTE2fQZL0iLbpeOpLSYnJx+ztR7FsEji9Q6aa9zBlJGjmsLcXIoqL1CvGILWMJ7U1Pims2hHpYmcvaVUX3DC4GHoYo2kJRtoHGPUW4rIzS3EbHWCOpTIhGTSxut7PLQHoK71lJGtcDObi3Ukj6+nON+M1algyN2xpKYnE6nxp3webBV7yc2vwHLhMqiHoY9NJs0YicZTwbZXPsY7g/Uxr6zKZ9zjC4kq3cTbn11oV7S7pixmXoLGm2ZpLjn5FZz7GtTD9MQmp2GMbBvi6ijavJH8kEdYkm5AATiKt/LrvR6Sn2mcvqgm543fY4ldwMKkWra98jH1U55mXoKvdetL2bZ2F55pS8mMD8RWuJk3i7VMiXdQXFhNUOoSZkcpsFXkkrO3gnP1CoboYjG0/cZ08x43q6d46xuYNEaSAyvILz3H16i5KyqZ9LSopvecukpMuXsprb6AEzWhkQkkp41HH9icjqUol9zCSmxOD4ohOqKSUkmODWn+MtdVY9qWRXH1BTyBoRiS0kiL1/rxZa+nOnczvy/VMOWJed7Ovov6tZ4y8rN+frdX54J0WgIabNQ5gMCu0+z4fQVLUQ65hZVYnTB4iBZDUhqpLdqwvrqQnL1FVFqdTZ/tVGOktx6WXH691UJUahS2wiIqL9SjGKZnfFo64/t1uNT//Psdgu1vnGvzkOtrO+f4Lj+O1vPj6AjuCwno4IVOqmzXXMbrxEppsYeo5NlkJOnbP+2pJHfbbswYSPvpPGYn67FVtm2VlsfXYtq2jUJHJMmZC5iXkUBg5W625VbiAXAUszOriDpdMpkLFjA7WYejeCdZhb4Gqysma5uJWq2R2Y8vYLYxBFt+FjtLHX1W44avKyiujSJ94TKWLkhGa/uMnXvN/pXPYmLbxxVgSGfeggVkGnXUFWWxs9gBiigyli7ggbuAiOksXvoESVrQJs3m6aef9v5bMJdpEYNhcASxBm+H76jYydbcajQJs3l8QSbJegdFWVkU1bUteRD6yGFctlTiPU+pp9JsoaGhlopKX/vUVmJxDiHS0INT2K8rKK6NxJieSXJkIB6LiayPK6jXJ/PTeZmkRtVTWe1sPr6797h9i3PZXEylLpV5y5bydLqB+uM55BT7yuyxsHdbFsX13vQWZBrR2vLZtrWQxq9RXXEW20y1hCRlMG/BPNKiwLxrK7mVzTlazaV4olLJnPdTUvUe/rI7h3w/vof1lbnsLPEwKi3DGwz6vH49Ta+TctbV0RAQiEbjZ5pt3td6cw7bPq0lKCmTBQsySTV4qNi1DZPFd7ytkG3b8rFpjcxesIDM5Ejqi7PYttfSnGaDldLSeuJnL2TZ0nkkaSzs32nC0rawA4x/cVmpaPf7AtvJUl5Tfo8Ho4d28dsDBYOv1+WnZ3azbtXuFg8EMORHmTzj96qxGkNyKvH6jp/1mIupcA4jYXYqUVoALenGStZ8XN/x8ZX5FFtDGP90MlFBACGkji9lY34p1UQSWWejriEQXZQBXYgCQlJJD9RhUXjfkurCfM4ExjM3LRYdgDaV8RVvkFtRSX1sbMejhI7aIC6TZ1I7aYMAPUnJBkIUQGAsCQYTJyurqcWArpvyoU0i8+nxaII03g9RyHhii45TWF0L8ZEoAgN9Hy4FgYEK7/8HBhHkK7ijYi/5pxSMeiiN+CAAG0X5J/EYHiE9QY8C0CYbMVdsp9RcR0JC67UZrUHPkEMWqm2g01RitgQxahRU+9rHY7FQp9Zj0IHfvU1AJElpCU2jgOriCi6oo5iVFo9eAWjTSLZUst33re/2Pe4oD10CqbFa7/tnSMAwrIRiX5vVmwspvhBC0oJkokJ86aVZqH6viMLqBNL0NoqKzoDhEdLifW1kTMNhy8Jss9E4XzksNo3kWG8g1CYnUPqX3Vgs9RDSxdmro4KcHDOKMRmkRWn8qp++h/XrVXu1UW8rJbfwHIP104kMBI+56zSDoN37Wmer43JACIYoHSGBEJKcTmBINZ5AD6CgurCIc5pY5qbGolMAIcmk1VXzZn4h5qQMogBQY0gyEhkEoCU+Xo/pYwvVdaC7gcuI18q/gHBHCOEKON2TMA6gCGbM9ZouCh3HT9NjW82fK3q0wKtA0UVr2GptNAzWom81Dd/5C2wWG5e5wP6Nq9jf6hkNDg+giydplJncrE28G6lHH2kgKiqe+EAAB7W1Tvj6M95b9VnrhEPrqYeOA0JHbRDofxsoFArw1Hv7zy7LByjqsRXvJauiGpvjMg2+ubPBIR48XbYMUFdKTu5JFGNmNXU+eGqprYPLF3bwyl9aHz6kzgG0qYfWgF5dSmW1gwRNBdWBejISoDbLTGV9FIrKWhT6BHp6EVlzuR3U2pyg1XuDQbvn/XiPu/12KQhUgMfX5nUWGw1qHboWgxqFNhJtQAm2WgfoarFdgJAEXYukg4jPeIJ4AGPesbMAACAASURBVI93KKVo+eHwBeb6+i6+vGd2s3YdMHgUDyVHNn22uq1ft1rXr1ft1XCSHa+savFAAEMixpHh+5zXdpNm46emZdJBsUmMKd1J7qbNVETqiYyMIio2Ho0CoI5am5MArb7VNFaIToe6oRJLHb6AoGiVqCJQgQIPXTXzQODnCEFPSrSK/f9/81VGhpSH+X3aHb7RgYIfz/sZpoiPMf6hebFBFXEP46/XbxECgwgJCelkQfXaeTweUAT62WA+ARFMm5fcqkOBQN8CWQixGc9gqK2kotJMZXEu7+41EZsxj9TGU6W7HmBumqF156/QtO0aWyTdl23QVfkCsRVmkVXkISptHvOiQlDgvbS3sNt0bRTtzKVa8yNmp0a2C2zD4maR0WY00GFgV+gx6BTkVFZiVlhQ6NPR6SFSkYW5sprAWg86o77p/VJ0NKPZJQ94IEDRzZxwl+/xAHHXOOYmQW5WEYWFtRiMLdYb+rp+PU0v4G6mzGu8ykhBoCYITdu3pIs02802AmgMpC1cwvhKM+bKSipMWzGZDKRlpvtGGdfgWxEQGExKWgzvlBdj9lX4nLmcd3KqWh116dTfWvx1Oxkzf8D3+qac1yRQEwgeX/RurHEP37igkCCot1HX6vS880RCtCEENNiwEUJ8B9PY9dVFmMyBJCTHEq+NJH58kvcyzcIKjJHxaEPUUGmjPijEO2y9zrouXxSWSisN2mkYoxoX4upxtJk9a19sD7WmnZhqQ0iaZ2z9BVaEoA2C6joHmpD2gaI9BXqDDk9+MUUeiEzznjUbIhXkFBehceiIb1yJVQQSqABbmwJ2/RHQEBQUQEOdjTqgo5WI7t7jngrShRDwWS0WG+gb06utprZBjT5EAwotIcOgoroWT3xkU7tXFu6lOiQJoz9zLh1RBBESGU96UiWb83eSb3gCo07Rbf162vf1rr0CCQoJ8U5r9lGatcW5FBNLcnws4yNjGZ9UQdYbH1NYkUTU+BC0IWoaqqupJapphFlnseAMCPFOBw2YddGe8//mdiN+xLqZd3G7789LVSd4N6+41b8dJ//uezaAMelTeTbi5jhNCtLrGdZQTWmpjXpPPXWVhZjMX/coDY0hlgjFGfJzK7DVe6i3mTEVVtP2YttGCsN44ofVUZyTQ6nFhs1mwVy0k52FtXiAQEUdlZ/tJWdvBRabjdrKCirrQB3k7WD14xMIra8gd2cx1bU2bLWVFOdmYaru4mvoqaeurq7dv94MY7suXyBBIWqoM2OudeCoq6Z4Zw7FX4OnKa9AAgMDwGamwmLDAXiq97LzkI2geCNRgY7mMtZ7AC3x4yNQnDKxs7CSWpuN2upS9mblUtHJOnpgpAGd4xznPHoMegWgQB+lx3PmFDatgeaLk3RE6gdTZy6l2uHB46ildG9hNwuACiLjo1Bbi9hbXIvD46GuupB8c/OicnfvcY/b3JBA7DArhTl7MVts2Cyl5OQU4whNICFSAWhJSLgbj3kvOaXV2Gy1VBbuJCe/Eofi2seFIePTSAqpoyjHhMXT9/Xr6/R6m6ai3kLp3lxyS6uptdmorjBT2zCYoCBvG+rHJxDqKCUnp9T72TfvZWehlSGx4zEM7IuIutWDHltB+OQ0sv7Pf7P4o88xf9PZYbcz9dF/ZuWk7908N7rTJpE+zUZO/mbW7lUwTB/P+Ki7sFT0IA1NLOkZDnbm5rJ57ccohtxNVLyBYbYOB6Wg0JGcmYEiZy+mrW/iZDBDQvTEG32LsDojsx/ykJufy9bPLsPgIWgN05idqm9apM2crSB3bz7b3nbSEKAmVB9FUldD2nP7eW/j/jYPBjDqkWVk9PQnCN2UT5+Uxo9suex9ex171aEYxieT5NjO/noH9YAGBYakJO7OymfXtjqmzJuHtsLMBRrgs+1sbLk0EuH98VpQbAaZnlxyC3fy7n7vpaw6w3hiO/sSaiKJDIHaIINvSgEU+igiB/+FWn1ki6m1QKJS07HszGXbus9AHUpUUjwGs4murtlSRKYye1oOOfnvsm43qO+KIiEqFEt14wHdvMc9pdCTOvsRFLkmcrd+5rvsNInZqeObfkMTFJ/BbE8uuaZtvOn0XZqbPo+kSEUfTFdoSUhLouLd/eSYongiuev69Ti7vm6vXqYZMn42GfU5mEzbeNvZQIA6lMgHMkhr/FFDyHhmz4bcvSa2vum95Fof+wjpyfrel3OA6Nm9jBr9/StMB8rJOWbhhM3JJQYTEjKU++69h7TxPyBW7mEkhBADTu8CghBCiFuObJAjhBACkIAghBDCRwKCEEIIQAKCEEIIHwkIQgghAAkIQgghfCQgCCGEACQgCCGE8LnVf4ntN1tpDjtNFVidCn74yBLS222N1RdqMW16m2LdLJZ1sCObEELcSBIQAOor2Jt7HEfkNH6apCOos1srCiHELUx6PoD6OhwNAehiY9H3ZHNXIYS4hdwavV+9haKcHAorL1AfGErk+ASCinOxJDzDvPiuN2/3bhTu3Q7euuMVVg3+IbOWJWN7dx2fBk7nhdmxvkaqo3DzRvKDHmFZhgGFXxttO6jcu5PcUgtfewK5KyoKTdtbRHazQfjmYh3J4+spzjdjdSoYcncsqenJtNt3XgghrtEtsKhcT0XONj6tDiQqbS7zMpLQVeZTfKF5p4KuNm9XRGWw9PFxhBJAxPTFLF2S5tferkC3G23birLI+sxGSFIGc+elEx9oobrlNgx+bBDe8HUFxbVRpC9cxtIFyWhtn7Fzr3mgb8wkhLgJDfyA4KiguPIyoUnpJEfp0OoMjE9ParGXbuPm7cmkJ+jRhuiISjZiUJyj1FyHdxN47xm9IjCQwK42Vm6ncaPtQBSB3o22A772brQNtZQWn4OIZNITItFp9cQmpxI7rPnVTZuOpycTpQtBq08gdXwoTnMp1Y0HBehJSjYQEqggMCSWBIOay5ZqatuVRQghrs3AnzKyWbA1DCFK12YfXnwbePR08/Ye6WKjbY+N2joIide12g6yJ5u0d1QyhUIBvk3LhRCiLw38gOABDwq6O7H3e/P2xueusUzggQa6H3H0dINwIYToJwM/IASFEEQFtbX1oG08F/c0n0H3ePN2aNoPuN7j2w7Sm2aPKIIIUkNlbV1TCm319SbtQghxLQb+GkJIFLF3wSnTTgrNFmotZgp35nOm6YCeb94OCnSRWgJqSym11OPx1GEpNlFs7UnB9MRGDePrir0UVjvweBxYivMpvdAil2vedLye6tJCiiplLCGEuHYDf4RAEAkZGThy9lK48z3yFcOIjI/krlPHmyrX483bgaCENNJqc9i7dS37FUO4OyqJ+IhK8ntQMp0xg+n1OZi2rWM/akINCUTdXUlF4wHXvOl4HZWF+ynWaUmIvJa1ECGEuFX3VK4rZPPGfDQPLWN21C0Q84QQ4jq4NXpLRyVFpQ6CdEFocGDOL8I6WE+C/taonhBCXA+3Ro/pqMNiLqQw/2vvtIs2kimzU4mVX/MKIYTfbs0pIyGEED028K8yEkII0SckIAghhAAkIAghhPCRgCCEEAKQgCCEEMJHAoIQQghAAoIQQggfCQhCCCEACQhCCCF8JCAIIYQAJCAIIYTwkYAghBACkIAghBDCRwKCEEIIQAKCEEIIHwkIQgghAAkIQgghfCQgCCGEACQgCCGE8JGAIIQQApCAIIQQwkcCghBCCEACghBCCB8JCEIIIQAJCEIIIXwkIAghhAAkIAghhPCRgCCEEAKQgCCEEMJHAoIQQghAAoIQQggfCQhCCCEACQhCCCF8JCAIIYQAQOHPQS6Xq7/LIYQQop+oVCq/jpMRghBCCEACghBCCB8JCEIIIQAJCEIIIXwkIAghhAAkIAghhPCRgCCEEAKQgCCEEMJHAoIQQghAAoIQQggfCQhCCCEACQhCCCF8JCAIIYQAJCAIIYTwuUkCwhHWpk3j4bUlN7ogQgjxreXXfgh+K1nLwy8W4Ax6gNfef5aYjm7B7Sph/ZwX2V+nZsJL/8nSOIBQoidMQGkI9jsr65H32bK9gHLLeZwEMTLayJyFc4gLbZFVzUG2bsnmYLmFOlQMD49jeuZ80mK6zsdVY2LLm9kUmC24VMMJj5vO/AVpGDSt097y5kdNx+iiJzBnfuv8e1tuHGbytmwhu6iK8y4Vww0JzJo/H2O4ps0xW9lVYsZSB+rh4STMXMj8lHAaj7If3MT6XWbO2+3Y7XUMn7WZTTPDum/cbvIvWfswLxY4O3mxkoTlOaxI7PhZf9rWr/r3mJmc1VspsFqxnrdT54pjec4K2hXTvIU5i3dxvm2t7l3EttVGOivBjauX+DY6U/MK7w56jNV3+fF97oGAlStXruzuoIaGBv9S+/IQ2QfO4K4/j/v70xkfFtDuEMef3+PNfRbcqLh70kzG3wkQzPcTx5P4ff8Cgv3IWp5+2US94SEee2wGxh/Cyf1/YmeRk7gpcYQEANY8Xnjm15QExJExN4OUxHBcx3LZmVuOatwUfjiks8RNrPz5Bo4px5L55ByMMYFUfrqNrEMq7kv5IcEA9oO8+uy/c6g+ktR5c0mLU2Mx7eSjA1YMxkTu7GQvCr/KTQ05yxaz+a+hGOfNZdYkAw3luXz4STnBE4x8XwNQRfazz/FOVQjjZv2Ex6Ykcqe9iNw/7uGvoUb+Mfw2AOr/ZsPa8F10IW7OnDzPbbGppHRa8Ubd5//du0cRN86I0djy30QMzr9w1HonUzOmYOgoG3/a1q/698Y3WM//DVXI3Wj+dpIzf7uTCRkTaft1cv01jw8LHMSm/4QZkxK57777uO+++4iL/wE/vLOTtruh9RLfLvWcPPMzppX9gb21Bzh52z/x4JDuvtMQENC+L+5I344QAFCjVjs5kncER+LENmdUdorySnCqg1A73b1MvwbT9gLqRmayZsVM3xc6jmiVldkbTOwqn48hDszZ2yl3RbNo9bMYfXEm0QCWf32HvD1mZs43dJh6VU42x1zRLFj9LCnB3rTjgu3MeTGb7CPTWZqowpy9lSLnSDLXrMZ7wp1InM7N44t38b5pFnFpHQ0T/Cu3qySb7JMqEpYvZ36it/XiolVYZ28gO9tMykIDriPZZJ9WMWH5chY2HpMYhv3xn7Mr5yBWYxqhQHBMCnNiAHse5XvK8WffO3/y14TFENO2J63KZkuJi4RFK0jr5KTFn7b1J//eCWPizDlMBMrsJgosHR/ltNpxE8bEmWkY/eykb2y9xLdHPSfPPMn08k85C8Apdh5/FPiID8L6ZqTQD2sIwSRMiIbyPRTY2zxlPUJeOURPiKP1WKAnawhu1OEJPJCS0OrsTqMLIxgXDocDcEFoDAkpU4lumVFoGKFqcNo7m+6wYy63gC6u1etU0XGEK52Yy6sAK2bzedBNJKFFAVSGBOKCwFJi7qTj9afcYCk7SR3hJEa36I00ccSFw/kqM1bApRpO3ISpGFsew3DChwPO83RWO3/4k397NWSv3449bj4LJzY2nAPTijSmzdmEGfCvbXubf9+xnrdD0HCGa8DlcHT4XlpzFjJt2kKya2Cg1EsMdG2DQaO/8bX7cp/l0g8jBBeaxKnEFWwg76CVlBZnyzUFeZxUJbI8UcOWPb1NP5yUZ1eQ0uZRq9nMeUJJ8c3HGmYuZUXbl1aVUOVUEh4d3knadqxOIFjdemSj0qBRgdPhBNS4XYBKSeuZIQ1qDbidTpxA+1kj/8rtcDpAqUPZKgElGrUSLN7OPjRujm/tpQXXScqqQG2IZngntfOHP/m3ZTdtIdtiIHP1xBaBXoUuJpGEUANq71F+tG3v8u87Lux2O7ir2Pr4w5y0OEEZxCjjfJYunEjjJ1kVFseECW50moFSLzGwdRYMvsc/GbazIzyyz3LqhxGCC5c6jpQENaf35FHV9HgVe0ynCZowlTily6/pC79ZTWz66CRBCZlM7Wzk5Koie1MeluFGHjX6v3jdihsgFF2oEiwnqXK0ysAbKHpSs47K7Xt5Z3tid5y6g7KtW9jvHMnMWYmdLnz6pcf5V5GTfQy18VFaN6vKG5QXGtvN03eocQaxN/V3uXC1+Nd7TuxWN7hAN3UBy5f/gp8laqja8++8uKV55BccN4elS+eT6M/H6FrqJb5d3Oepa/dgN8EgMorAPixCv1x26nJpiEuZyHBLAXlm32NleRyx6DCmxKByu+jtCkI7jjK2rN7EMfUDPLuos87QzpFNq9lapSN96fyOr37ym4q4lAkMdxaw5U0TVXYHDqsZ0/oN5LW9NOWay+0fq2kta3fZic5cyszOBj/9xFWWg8kynERjTAejouvBgenFB3nwwcZ/c9hU1tu0lETPXMSil1bwbNpEEhMnkrb0JeaPUmIx7aJcem3RT+odO3g4/0ckHc3hTPOj1zUYQL9MGbm9Z0UxU0kZmUdOXgnzDdGU7zmCfeRMUsKBkj4KB64acl5+mV3nDSxY9yxxHfaqDszvr2DtfhcJv1jPHMM1dFtK739UcQtZscDJ2i0b+HmB94nh904geriFY52dAvpbbt/LXS46mndq95CjZD3LNpWjmbqC5Z2t5vZED/M3F5RQFxRH3LWuiSp7lz9oSFiwjnXO5iOCex0UNYQlth3RhBKdqIOtNdTY6fay4nZ6XS/xbVHv2MFjRxaRexmwLmLKUfj03mTqLdc3GEC/BITGUXIYxhQD27fmUWJ1YCpxYshsnoe9dnYObniRd8zDSV/zEimd9IU1eS/z4s7zGH62jqUTuxvjBxOqBhxOHNA8H+5y4HCBWqP2PaAiPGUFbxsdWC3ncamHExZaxfpZ+1Gqg1F3mLZ/5dZ4FyJ86xSNj7pxON2gHt4qbZf5fV5cvR9X3C9YszDu2qaKepE/VFFSXocyPIZR3absX9v2LH9fmcMM9M01OnbMR8pw6hKJC2vbRXfWZfdfvcS3QSWbji7zBgMALnPWuoik/HXwzak2Fxv0bzCAfv6lcvCEqURTwva12ZQQx9QJvZy7b8dB2ZZlbDgCD6xY3elZv/3IWl5808zw9JdYnhbmx1lYMAbDcLCUUN7iCilXeQlVbjWGtovRKg2h4eGEhWpwlZgor1MSnWjoIp/uy62LGUUQVRwpb7FA4SijxALDDYbmgFpjYvXqnVgMP2PN0r4LtH7nD+Co4qQVgsPC/QhG/rVtj/LvczWYNv07az9qeYmunfISCwTpCO8w84FQL3HzimRh7GJ+3OrU/DLWGxAMoJ9GCE00iaTFvcmLBacJemAOif6ewjoOsvrxN7Ea17BpTtvxv4uqnJd5eZeF4AkLSKSKkpZXq6p1RBtCcZm3sGJtAfaRU5kV4+Rkq4OCCY8LJ5gq8tZvp9wwi6Up3nzCZ87iXtMGtq5YD7MmEuwsI+/9/ThHpjMzrrkDrzmYTQk6wjQqHDUH2fXRfuwjM1nRFPTapu1fuVVxM5k5qoB3Nr3MFud04tR2jmRv5RjRLJjpOw+2l7D+xQ0cc48ifWoY58tLWvyyVknwqBh6++NXv/JvZKnC6obQ8I6ua3Jhzt5AtjWOTN/Csj9t26P8+5wB48Th7Nm1ntXD55ASo8Z+cDtby2FkZhoxvqPsJe+zxeRmwnzvwvLNXy9xMwsMXsiuH8H0z17l/3o6OuL6BAPo74CAirjpExheUEJiSpz/86RuJ846J2iUHTxppcRUjhNwFrzJywVtnh6ZyeZNM3EWHOG0Gzi9hw0vtr3GNZpFO9Zg1NgpLyriiNsIvoBAsJEVa2DLlu1sXbvfe3uJxExemj+T8KYKuLBXlbDHlI21zglBOgwTFrE+09jimLZp+1fuMMJIe2kNvLmFXVvWssulYnh4AgvWzCel8TSyykTReYCT7Pz3F9nZKqGubx3RPT/yb6qiHTtqDMEdRR8XlrIjFFnUzMTofcivtu1B/n1OhWH+Gl5SbuF90yZe3um9JUhc5kvMb7Fa76opoaAAwh/FO0d009dL3Ow6DwrXLxgAfOfq1atXuzvo2i7l6zlXyVpmr7Yz//019PYKUSGEGGjq7ZtaBIW+CwYqfy52od9HCL1jKatCbVxAny05CCHEANA8UniHwMjrNzJodFOOEIQQ4tus3l1PoLLvQoG/I4SbZD8EIYQQjfoyGPSEBAQhhBCABAQhhBA+EhCEEEIAEhCEEEL4SEAQQggB3KS/QxC3FvuRLWzKq4GwFBbOT+SW/HmJo4T3N+RQ5QrFuHAhE+XXx2IA+tYHBNfB1Tz872aMr21nYUz3x/dUTfZCntgKP/vdJtJCAfMm5izeg27RDlb7u2nvDVZjWs+Wg232Q1VpCA4NJ26CkYmGrrt4h6WMomOnwR5DJtyaAcFtpbzoGCcZSYz8bEcMUH0bEErW8vCLBa22A1SqhxMePYGZmbNIbHdLYQA7ecvm8GZVHL/43QomdtBHOsx5bNmaTZH5PE7UDA9PYPr8+aQZ/OlQu0+/P2nC45gwATqs+gDhrCrn2LGOdv8pYP+ubHZlvsSamZ3f5dXbBmEwXNcnt+huVJW3lvePOFDFzGTpzBu1QU8HbpqCCNEz/TBCUBKduYJHRynB7cZpLWFX9k5eXmZh+dsr2t/x1HoQU7kbKMFU5GBi27PmqmyWLdvK+fCpZC5NJNRl5WD2Vt5ZZoHfrqfbPWG6S99PjSOJCa9t59kejCSCO9r/eKAaOZ3l8xNQA263nRrTR2wtsHBy6wa2xr3N/E42pumvNnCYyzh2rA4lRpjZ9+n3joqObskoxEDQDwFBRXB4HDFNnWYccToHc35ZQF6Jg8Q2p+g1eXs4qRxFtK6KclMBdmNKqykFsymP09zLopcW0tiXx4U7qXpiK6YSK2lhXU/Wdpe+6AFNONExMU1n+XFxYdirfs5Oi4WSgzUw/Lx3Hp0YUqarKTeVYFUl8mBcFX9sXEOYCdmb8qhxBTNx4bMYG98+xxG2bPA9Pv9ZjGHgspZhyjNRbnHiUocSnTgVY2IYGqrIWf0+BWbvWNRdlc3qFQXE/PMErP9lwqoKI2Vh457HVeStfZ8jrnBmLppDjAZwmcleu50yl4bEOUu9N6N11VBi2sPBcitO1IRGT2S6MY7Qlmf7LislpjwOllu8x4yayNSUuHajP7f1CDm7jlBudaPWxZGSZqT1rJoLa4mJXQdLsDrVhBoSMU5N7PUty4XoK9dlDUGl0aAC3O12zjSzp8CCOnE5C6J38fM3TRy0pnjn2n0Mmb9lx6MqNC2/LBo1KsDl7m6ytvv0G7kseazfmk1RlR1XcDgTZi1koTEcFQ5Myx5hQ7n3uP2/nMb+oKm8tn2h9/74jirytmwiu6iK8y41uuiJZC6cT6Ivj3ZrCG1Zc1j4r+/Az37HphYHlKx9mBePxLE8ZymJVPH+4z9nT/gvWD6qiC3ZR7A4VQSHJzBr0UKMLXsk6xG2bNiCyWzHpdaROHM+CVUvs+H8fLatMfbplA0MJywYsIDL7Wwxj36MY0W+Q0YaSA5tsYYwPw6l5RjHLGAvmIlxpneI5yjKI6/oGO6gB0gLBYf5fZYt2+m9hblP0f48dj2wlPXPwsmSY5xsfK7uNMeOWVAZp6GuOsaxunKY8Kj35KPqILsKjmHhJJryWcQkqqCqgLyiY5xX3svE4Xj3l1i2mv2WFpkV7CcvbzovrZnvDSL2I6xftrb9MXseYOmaZ2m+2/hJtv7y5RZtVMD+ghKW/3apb3TsoGTTYlbvsTTvK160n115D7B8/bO+ICbEjdE/l526XLh8/xzWMrK3HMQ+fAIzE1p3R66yPA6eVxM3IY6wxAkYlCcxFdS0TkulQaNp3pDW5ajhyPZdVKmjSZnQ9XyRX+kDUMf+rXm4E2exYNF8UkKt7N+wgg1HHICGhEW/ZV1mNKAmYcE6frtmlm/LxhpyXnyWNwucGB5dxPJFaegseby8bBNl/bCw6Dyyha1Vccxf/VvWv/Qo4fb9bHh5O1XNFWbTspfZVaUmIXMRS+cbURdsYEOBkz7axbo1axEHqwCUhLbZTkw9cgLpP1vAgjkJaFs9E47ROBKA0weL8L4bDkoOluMGghKNxKlq2LPJGwzUo6azaPlyFk0dhRo35/dvJacqmsz161iQ4Nt4clQm6367nvlxUSTGqAE3VSUncQE1JUVYvK1HSYF3JzSr2ezdUCg8jmgNmLM3eTv6oHvJ/MVyli+YgE4J7tN5bDVZAQdHtmxoOiZ90XKWL0onOgjclv1s2l5Gy7dbqUsgc9FyfvGzB9ApgfMFbDd5979yHNnA2j0W3KgZNX0Ry3+Ryb3DgfPt0xHieuuHEYKTgpcfpNX+L+qRTF8+v/Vm8rgo2VNEnTqOCXEqUCUywbCFN00mqmbOoe10tMO0gkc2HPP+oRzOAyuWdrOxSE/SV3PvgjUs9U1nTUwMxTHnRfZnm8hMTCM0NJzw4WqUKFHrDIT74pDj4BY+OgnRC15iqa8wcaFWHl9sIvtIJjF9vYKtS2Pps0bfdothzJ9eQNE7JZTUzCE8DBxHsjGdV5PwizU868s7MTEM15wX2d8X+Vdl8/Iyk/f/XQ6sVac57waGT2BmQjDNUWc4xmeX0rjZXU1V62TCJhgZtfUdTp4+SJF1JmHqEgrK3cBwJhpjgCqUodFEa5TEZc7HaADiVJQUvEiB04qlRkXoRAM6tXe2XqkeTnh4OCpAnTAKZcEx6spLsKCj7KClKV9n2UHMrlHYS7wFGpkYRygurEod0dGhBE+Yz8yJYUA0ziMFbDjmxlplBYedvCNOQE3CwqXMSdQAiRhcJ5n9Zjl15pNYm3ZFHk7K0hV499OJQ1VewMtFbiwnqwAVBbtKcAJBCYt4aX4iGiDaXcbsDceoKymgipg+2h9aiJ7rl0Xle3+2hlmNn2qXnSrTdra8uBjXS+tYGOPrJB1HMJU4UccZ8e4yGMz/a+/+YdrIvgWOf18x04wLprEbU+AGN0ORaezGFHGDKfBKS1ZaUsBK8a4EW8BKgUiBAiI9QCIU5K4OBAAADspJREFUC9J7jvTiYon0fk4BjWlMgRu7cQpPgxtT4MZuhsLTzBT7irGJQ0j480J2f9nzkUDCmINt8D0z99y5J56Ikt0tUTiZYe7SuyIQy7C15YDToryf5e3GGpGtzxSVbxVfIdTf9Us1GTUHOCpZNNz0h/PIfeqVOg5REnH9/RbhYYOwckiz3oTRL/zW7k6V9ei6hoKN3V3W1ag28BSDRH/lXtUJfKlVL04Ty2r23aAwMJwkM99N9hcrU68prIZGSRo56tYp5XKLsVAJPx/E/cGfCOnlVeK1EqXSDi8PHDzX5qT7En/uKDowEieqvMNqn1CrBSmdAtowhl7HalqUTuq4DT/5jBj+P8/IzBqRsyqlyiEvX9p4nkurm8Q8PGg3/MRHGKNvZZueXOS/jA4EdAYvDoH6n7uKpmnAOXRcXM5onHWzZuuAjeUiquq/rgDYNi0XPtEiXIh7dy9F5cBglGjfWBgdCdGs/0rhTYmpEb+oa1cOqToaZiyC2+ngAophElFylAs1MtFLywgDg92YUaLD0Hi8Sf6gRvoTFw/cOv4lQT0AnuMPtlfe0aXTcQGL3cffsXvpuwOdr3fy73Y/244Dmo5+XwPK0PeszsX9Y2FVQw+GCN0p2+jEk1GylkW9VKAY8luLhhPJ7plbi+LaEtuVq5a6XhfaxAyDddqgmHNpApo5yXQwx29vm1Tf5FHPgQGDWBT8XtcrLL+yOP9UTNfrvsbqh/8Kqs7gYHfS3/7op67g4XbzwfmpxbvTj36R/8eUhCD+Il/pwrQww0GFg2aDFqDT4rhwgodHZfMxP1y+e+WQqjtCXIVW7ZgTZxAzHnlfEA2ECOlgtexPvH9uHv9THM8FFNRPHuqqfm1DMXhyUVPo+67+iTWYV0biYqC4O9U/2vTc+6kXAAQGGY5Gv0hhWo8lMRSLd/W3vKoDDJFMdl+z6h7ZShsY4MH0AjOxMBoW2d+2qTifCQpACNMMkzttclo/BfwaUlS3CL5t0rb81QHaSNz/m3XKvM5ZnKMQTGSYnzQIaVDe/oVXVi9kGB1o06Lp/wP7GgVe7p/A4CiZ5E2edbcI74Ax+wfrKR3X7eA6Hk6ng+OpBGWlkfgLfaWE0KTe9kD331iclSjWPYKJeebGgh9ML3j1N6zlqhTL/hLVVjHLZinC0z/W3l9UZjdo2qDHQ1cfTN0ivs+h1bbpe6dTrrYhnPjsUsCIOYxSatImQvqu5/m6jq5Ao2UDF2swse9whhEZjkDJolxzMUd6hXgb++9YqQzESJoa73oj/HCS3hoBt+MnerQR0hMmEbXDWbFK43Iy6D5Fz7GxOx00NUBAhUjcYOBt0z/iV4ZJGCoEEpjBAw7bAArDpuH/uGPjeAA68YkUIxHonOxT7V97oBskhqB+2qa4V2BsOcWg26Dweo+jd+coD0ZumBAGMWNhcm+bWPksx8Y8o4MBcE6oHBRwUwsf1c6E+JruISG42I0qNcUfhj2nTa2wR6Gp8eDpKCGgcVjglCGmf0xiXq4BRD0S+yuUihXs0STRVJJw6S27Kzs4k3FC7hnH+TdYqsHs2NVz9LeJ3ysFWq+X2LAniQVdGsU8B00FYzZ18QZVQyF0KlgHeYqeScyMoCdmmNhf4O3aCkxNYIag07IoFVuYi8vXFL17gU0SpkallCMfzxDTXRrHOfas63/0slByklj+BYcbK6hTYwyrNlYhT+kcuO4Cvq8uQDxpolVKOCgMJ+IX6VCNmkSUd9SdEmuPa2g4nDu98x4Pz/PPCwejEZTDd3j1V/z0Q56HvYsGI3FGtENKDijRUX/ZKFESxgCHR+dAhHhvhUNoBCMM9Wabg6VHHGsu5+fvz7Fcx8VlkNTcBIdLBzTf7fLLd30ThEqY1FSCAMUbPevI5CxjlRUOmyU2fymxqXBRjNdsk8Ty6BdeGizEzd3DslMPK7fCs2fPePbsGSsbWYp2mNTTLZZHdaBGodxGMVIkrxqkVJPUaBDPKlK2QY3OsL76BJMquY0VVrbfUA8kmF9/TurKQe528QFQDDLLkyjlPba3dzloaJhP1nneP6JHJ8k8HMKt7pF9fewvW1QjzKyvM2tCObfBysoGu/kT1HgK88abmwUYnX/OtGGTX/uVX5c2OHTGyNwom1wOFWdxbZ6HoRbF3U22Xxex45M8DMLf8fJZ1UwSGwCUKMn+3eBCaRYXJ3gQHgDnHEcJ82DiCWP+alVaJ34RVk9mmH84xIACykAIvVduVoeJGQqgEE2YF+d90VHTPwAYimNcrPePMPX8KWNGsJt4dIYS00wnggB4rSYtQI1m2Fp/wkMjjKYAikbYGGP25RaZ25wdBkaY21pn9qHhr5LyFLSBIR6MzbI6L8lA/LX+488///zzujtdrKAR/346x6z9tIkVW+VfC9/KHhpCiNtQ1ZsdtPzjdzv91tjlLFlLZzisE8CmVsxTcYJMpIy/+qEJIf7mJCF8Y1zXpVMr8KbQ2xnW4PvVDDOyuF0IcQ2ZMhJCiG/cTaeMpIWmEEIIQBKCEEKILkkIQgghAEkIQgghuiQhCCGEACQhCCGE6PrHJwT3eI30+BQ7tfuJf5afY3x8jv1W94aTHWbGx1kudu7nFwohxB192QvTqhs8WinRvymlogWJGAkmp6eIX+5GDoBNYWmG3YbJ0/9Z5qomY52TAtlcnspJ72KrGBOZDOnoTXZ+uT7+fQpETBIJPmrELoQQfzf30jHNmF7mx2EFPA+nVeUg/5YXS02e//cy8csDcuuYouUBVYqVDqPJS3do5FlaytGOjDG9GCfktjjO53i11ITfP9Mx7abxb8g9XuPR5gmJ3o6aN6SbMyzKFkJCiH8D99IxTY+YjFwMmiZmuMPMsxKFan8PAt9Z4ZC6MowRbmAVS9jJ1MXulAAnxQKnPGB+dY7eWG5GHBq/5ChWW6QHP78r6HXxhRBC+L5KDUENBFAB76NWXicclppo8UlmU1Gwihy3PrxHdPp3/vePZT44sO/1Fvau21Lj+vg9brPAy4UZHqXTpGcWeFlsdDdT7lBcGue7zQoe5xw9G2d8aoeLkkOnQeHlAjOP0oynp/h5OUu573d8VEO4rLXP3Pg4c5fuUN14xHh6gzIADV7/PM6jjWNq+xvMTaVJpx8xs/CS4tml16BVJrvUfR5Tc2zs1zh++Yj0UhGpWgghPud+EoLr4nY/Oq0a+ewxdjDBZOzDswO3VuC47bc4HIwniCp1iqWzD2OpAb9VZS9u54zy3gENzSCV+Px80Y3iA3DOUa6AF59idj5DKtTiaHuZ7XIHCBCb/52taQPQiM1u8ftFy8wz9lcW2C05RH+c5/l8mnCzwIulHWr3sP2TU86Sa5hk1n7n5eqPROwjtl/s0Xj/hNlZesFBQyM2Pc9iJolW2ma75NxfW00hxDfjHqaMHEovvqPUf5M2xMTzDOYH+cCleljhXDNJmCqocRLRLLvFIo3JmY9aCXaKy/yw/c7/QgnycHnxmo5kt4mv8WB2ncXudNZoPERnZoWjfJHpeJpQKEIkqKGgoIWjRLp5qHOc5U0djNlVFrsPxgy1+Pm3IvnyNCNfuoIdTrO4kOx2FhskM1Gi8qpK9WyGyCB0ynmKbY3Y03UWur87Hh/EnVnh6Ms+EiHEN+gezhAUHjzZYmur+/Gfz5mNQWHlN3ZqfZMWnTLFqoNmJjFVAJ14IorSLFE4+ThqIJbx460+5XvD5Whjjf2rDvbvFF8hpPcN3qrJqDkADYvGZ47065U6DlEScf3ijIiwQVjxaNab17xOd9CbKuvSdQ0FB7u7rKtRbeApBon+yr2qE5AVTkKIG7iXonJgMEq0r91xdCREs/4rhTclpkb8oq5dOaTqaJixCG6ngwsohklEyVEu1MhERz4Y/AgMdmNGiQ5D4/Em+YMa6bmrl/zcOv4lQT0AXnewvfKOLp2OC1jsPv6O3UvfHeh8vS3D3e5n23FA09ElAQgh7uArNcgJMxxUOGg2aAE6LY4LJ3h4VDYf88Plu1cOqbojxFVo1Y45cQYx45H3/WYDIUI6WC0bv936ZTeP/ymO5wIK6id7Eat+bUMxeHJRU+j7rn550uvTVMD9f0/yq6gq4LlSLxBC3MlXSghN6m0P9LC/5POsRLHuEUzMMzcW/KD/u1d/w1quSrHsL1FtFbNsliI8/WPt/UVldoOmDXo8dPXB+y3i+xxabRsuFqQ2KFfbEE4Q+UwZIGIOo5SatImQvmtHMl1HV6DRsoFeUaSDfYczjMhwBEoW5ZqLOdIrxNvY0t9ICHED95AQXOxGlZriD8Oe06ZW2KPQ1HjwdJQQ0DgscMoQ0z8mMS8vFIp6JPZXKBUr2KNJoqkk4dJbdld2cCbjhNwzjvNvsFSD2bHLx+W+28TXujdbr5fYsCeJBV0axTwHTQVjNnVRfFZDIXQqWAd5ip5JzIygJ2aY2F/g7doKTE1ghqDTsigVW5iLy9cUvXuBTRKmRqWUIx/PENNdGsc59qybvdr9QslJYvkXHG6soE6NMazaWIU8pXPgugv4hBD/ePeQEDys3ArPel8qGgPhYVJPM0yP6kCNQrmNYsySvGqQUk1So0GOCkXKdpJUdIb1VZ1s7oDcxiEOGuFogvmF6at//pbxkwCKQWZ5lJPsHtuNNmhDmE8Wme8f0aOTZB7W2CntkW11iJgRAmqEmfV1Qtkc+dwGBw5owQhmagrzJskAgACj889pb++SX/uVPTVINDFNJmXzonDTGL1QcRbX5tnZ2aO4u0lhYAgzPclD+xVHn5z6EkIIn/RU/tZ1jln7aRMrtsq/FmQPDSH+iW7aU/kr1RDE12KXs2QtneGwTgCbWjFPxQkykTL+6ocmhPibk4TwjXFdl06twJtCb2dYg+9XM8zctegthPjHkCkjIYT4xt10yugf3yBHCCGETxKCEEIIQBKCEEKILkkIQgghAEkIQgghuiQhCCGEACQhCCGE6JKEIIQQApCEIIQQoksSghBCCEASghBCiK4b7WUkhBDi2ydnCEIIIQBJCEIIIbokIQghhAAkIQghhOiShCCEEAKQhCCEEKJLEoIQQggA/g+CRXK871q+EAAAAABJRU5ErkJggg==;fillColor=#d5e8d4;strokeColor=#82b366;" parent="1" vertex="1">
          <mxGeometry x="508.38" y="350" width="173.24" height="121" as="geometry" />
        </mxCell>
        <mxCell id="6pbGGfXBaGJGcjd1V0Mg-151" value="Privatwache" style="whiteSpace=wrap;align=center;verticalAlign=middle;fontStyle=1;strokeWidth=3;fillColor=#FFFFCC" parent="1" vertex="1">
          <mxGeometry x="89.5" y="211.9999999999999" width="90" height="60" as="geometry" />
        </mxCell>
        <mxCell id="6pbGGfXBaGJGcjd1V0Mg-152" value="" style="edgeStyle=elbowEdgeStyle;elbow=vertical;strokeColor=#990000;strokeWidth=2;" parent="1" edge="1">
          <mxGeometry width="100" height="100" relative="1" as="geometry">
            <mxPoint x="99.5" y="530" as="sourcePoint" />
            <mxPoint x="99.0000000000002" y="272" as="targetPoint" />
            <Array as="points">
              <mxPoint x="56.99999999999997" y="320" />
              <mxPoint x="96.99999999999997" y="300" />
            </Array>
          </mxGeometry>
        </mxCell>
        <mxCell id="6pbGGfXBaGJGcjd1V0Mg-153" value="Email: Buchungsanfrage(n)" style="edgeLabel;html=1;align=center;verticalAlign=middle;resizable=0;points=[];labelBackgroundColor=#F8CECC;rotation=-90;" parent="6pbGGfXBaGJGcjd1V0Mg-152" vertex="1" connectable="0">
          <mxGeometry x="0.1625" y="2" relative="1" as="geometry">
            <mxPoint x="2" y="3" as="offset" />
          </mxGeometry>
        </mxCell>
        <mxCell id="6pbGGfXBaGJGcjd1V0Mg-156" value="&lt;p style=&quot;margin: 0px ; margin-top: 4px ; text-align: center ; text-decoration: underline&quot;&gt;&lt;strong&gt;&lt;strong&gt;Anfrage akzeptieren&lt;/strong&gt;&lt;br&gt;&lt;/strong&gt;&lt;/p&gt;&lt;hr&gt;&lt;p style=&quot;margin: 0px ; margin-left: 8px&quot;&gt;&lt;br&gt;&lt;/p&gt;" style="verticalAlign=middle;align=center;overflow=fill;fontSize=12;fontFamily=Helvetica;html=1;rounded=1;fontStyle=1;strokeWidth=3;fillColor=#d5e8d4;strokeColor=#82b366;" parent="1" vertex="1">
          <mxGeometry x="119.5" y="312.5" width="200" height="195" as="geometry" />
        </mxCell>
        <mxCell id="6pbGGfXBaGJGcjd1V0Mg-169" value="" style="edgeStyle=elbowEdgeStyle;elbow=vertical;strokeWidth=2;startArrow=classic;startFill=1;endArrow=none;endFill=0;entryX=0.135;entryY=1.008;entryDx=0;entryDy=0;entryPerimeter=0;exitX=0.75;exitY=0;exitDx=0;exitDy=0;" parent="1" target="6pbGGfXBaGJGcjd1V0Mg-117" edge="1" source="6pbGGfXBaGJGcjd1V0Mg-146">
          <mxGeometry width="100" height="100" relative="1" as="geometry">
            <mxPoint x="632" y="319" as="sourcePoint" />
            <mxPoint x="631" y="275" as="targetPoint" />
          </mxGeometry>
        </mxCell>
        <mxCell id="6pbGGfXBaGJGcjd1V0Mg-170" value="Annahme&lt;br&gt;auf Startseite" style="edgeLabel;html=1;align=center;verticalAlign=middle;resizable=0;points=[];rotation=0;" parent="6pbGGfXBaGJGcjd1V0Mg-169" vertex="1" connectable="0">
          <mxGeometry x="0.2974" relative="1" as="geometry">
            <mxPoint x="-37" y="1" as="offset" />
          </mxGeometry>
        </mxCell>
        <mxCell id="6pbGGfXBaGJGcjd1V0Mg-171" value="" style="edgeStyle=elbowEdgeStyle;elbow=vertical;strokeWidth=2;startArrow=classic;startFill=1;endArrow=none;endFill=0;entryX=0.75;entryY=1;entryDx=0;entryDy=0;" parent="1" edge="1">
          <mxGeometry width="100" height="100" relative="1" as="geometry">
            <mxPoint x="169.5" y="310" as="sourcePoint" />
            <mxPoint x="169.5" y="271" as="targetPoint" />
          </mxGeometry>
        </mxCell>
        <mxCell id="6pbGGfXBaGJGcjd1V0Mg-172" value="Bestätigung &lt;br&gt;auf Startseite" style="edgeLabel;html=1;align=center;verticalAlign=middle;resizable=0;points=[];rotation=0;" parent="6pbGGfXBaGJGcjd1V0Mg-171" vertex="1" connectable="0">
          <mxGeometry x="0.2974" relative="1" as="geometry">
            <mxPoint x="50" y="6" as="offset" />
          </mxGeometry>
        </mxCell>
        <mxCell id="6pbGGfXBaGJGcjd1V0Mg-173" value="" style="edgeStyle=elbowEdgeStyle;elbow=vertical;strokeColor=#990000;strokeWidth=2;exitX=0.998;exitY=0.644;exitDx=0;exitDy=0;exitPerimeter=0;" parent="1" source="6pbGGfXBaGJGcjd1V0Mg-156" edge="1">
          <mxGeometry width="100" height="100" relative="1" as="geometry">
            <mxPoint x="269.5000000000002" y="521.49" as="sourcePoint" />
            <mxPoint x="383" y="270" as="targetPoint" />
            <Array as="points">
              <mxPoint x="340" y="438" />
            </Array>
          </mxGeometry>
        </mxCell>
        <mxCell id="6pbGGfXBaGJGcjd1V0Mg-174" value="Email: &lt;br&gt;Buchungs-&lt;br&gt;anfrage &lt;br&gt;akzeptiert" style="edgeLabel;html=1;align=center;verticalAlign=middle;resizable=0;points=[];labelBackgroundColor=#F8CECC;" parent="6pbGGfXBaGJGcjd1V0Mg-173" vertex="1" connectable="0">
          <mxGeometry x="0.1625" y="2" relative="1" as="geometry">
            <mxPoint x="-21" y="-33" as="offset" />
          </mxGeometry>
        </mxCell>
        <mxCell id="6pbGGfXBaGJGcjd1V0Mg-175" value="" style="edgeStyle=elbowEdgeStyle;elbow=vertical;strokeColor=#990000;strokeWidth=2;exitX=0;exitY=0.75;exitDx=0;exitDy=0;entryX=0.817;entryY=1.02;entryDx=0;entryDy=0;entryPerimeter=0;" parent="1" source="6pbGGfXBaGJGcjd1V0Mg-146" target="6pbGGfXBaGJGcjd1V0Mg-106" edge="1">
          <mxGeometry width="100" height="100" relative="1" as="geometry">
            <mxPoint x="600" y="410" as="sourcePoint" />
            <mxPoint x="441" y="280" as="targetPoint" />
            <Array as="points">
              <mxPoint x="490" y="440" />
              <mxPoint x="490" y="346" />
              <mxPoint x="570" y="410" />
              <mxPoint x="590" y="410" />
            </Array>
          </mxGeometry>
        </mxCell>
        <mxCell id="6pbGGfXBaGJGcjd1V0Mg-176" value="Email: &lt;br&gt;Offener&lt;br&gt;Dienst &lt;br&gt;akzeptiert" style="edgeLabel;html=1;align=center;verticalAlign=middle;resizable=0;points=[];labelBackgroundColor=#F8CECC;" parent="6pbGGfXBaGJGcjd1V0Mg-175" vertex="1" connectable="0">
          <mxGeometry x="0.1625" y="2" relative="1" as="geometry">
            <mxPoint x="18" y="-41" as="offset" />
          </mxGeometry>
        </mxCell>
        <mxCell id="NHgpnorcBEsm9mYt4aco-88" value="" style="shape=image;verticalLabelPosition=bottom;labelBackgroundColor=#ffffff;verticalAlign=top;aspect=fixed;imageAspect=0;image=data:image/png,iVBORw0KGgoAAAANSUhEUgAAAbgAAAHxCAYAAAAfnakXAAAABHNCSVQICAgIfAhkiAAAABl0RVh0U29mdHdhcmUAZ25vbWUtc2NyZWVuc2hvdO8Dvz4AAAAldEVYdENyZWF0aW9uIFRpbWUARG8gMDkgU2VwIDIwMjEgMTc6MjM6MjFbgh0bAAAgAElEQVR4nOzdd3yO9/7H8dc9sveQRGKLvQkxI4itKKql7dFTbR3UKGp1t0ZLh3GOqqI9PcapammLn9qbkFitEIJIZMiSRNa9f3/kuCuVSCKJcOfzfDw8HnKN7/d7j+t6X9/vdd3XpTCZTCaEEEIIC6Os7AYIIYQQFUF9OfEOU/4dRlJmHgoUld2eKs+ECS9nW5aOCaChjxM6nY5r166RmZmJ0Wis7OaJUlIqlTg7O1OvXj2srKwA5DN9DBT2uQjLo+j38T5TcqYGTCD59hj43+dQzdmG/5vVg8jISOzt7XF1dUWplA73k8ZoNJKenk5OTg6NGjUCkM/0MVDY5yIsjzIpM0/C7XGiAEyQlJkHQGZmpuwIn2BKpRJXV1cyMzPN0+QzrXyFfS7C8igVKCTcHjcKzMPFRqNRdoRPOKVSWWAoUj7Tx8NfPxdheWQrE0IIYZEk4IQQQlgkCTghhBAWSQJOCCGERZKAE0IIYZEk4IQQQlgkCTghhBAWSQJOCCGERVKXV0F+7vYMbOPLqr1R5mlvP92cj3+5gN4gDyx4XKWmphIREUGdOnWoWbNmZTdHlNAvv/zCjh070Ol0BaY3bNiQyZMnY2dnV0ktE+LxUeYenFKpoHVtNwa09mVQGz+6NqpG10bVCGrixdCAGoQ098Hf26k82lrh9r7Vi5Mf9QVgZMdahM3vx9ge9Su5VRVn//79jB49mn/+85+89NJLbNy4sbKbVEB4eDjdu3dn4cKFpV5337599O3bl23btlVAyyrXzZs3+fzzz+nevTvPP/+8+d9zzz3HxYsX2bx5c2U3sUhZWVl0796dMWPGVHZTRBVQph6cQgFL/9aO+t6O5OmMeDha81ov//x5/7vV1N+61cPP3Y5vDl7j24PXHlheTQ97tkwLKnTeuNUnCb+eVqr2NfZ1JqiJF+HX0kq9rqXbt28fCxYsYPr06fTv359Tp04xe/Zshg0bho2NTaHrxMXFMXr0aPPf1tbWeHt707dvX55//vnH6vZTDg4OeHp64uzsDMChQ4e4du0affv2pXr16pXcurKJi4vDysqKUaNG3TfvypUrJCQklLisefPmsXv3bj788EO6d+9+3/yJEydSu3ZtZs6cybJlyzh37hxr1qwpU/uFeFTKFHC+bva0qu1GnwX7aFnLldf7NuRvK44DoFQoOP5hH15bHUpjX2feHdai2IC7KyNHx6+n4wpMu5WRd99yCgU86HGtjX2dea2nP6uIkoC7x/79+1mwYAEzZ86kT58+ANStWxe9Xk9OTk6RAXeXs7Mzffr0QavVcvToUVavXo1KpSoQfmVV1nsEBgYGsn79evPfhw4dYvfu3bRu3fqJDbgffviBPXv2kJycjFarZfny5fcts3PnTrKysti+fTvDhw8nMDCQwMDAh66zd+/euLu7A9ChQ4cn9r0TVVOZAs5GrSRXoydPZyD8ehqzNpw1zzOaTAz74jBZeXrSsrTYqEt+dJ+apWHJ/126b/qa1wJpVduNTSdiGNTWjyn/DiMxPY9Zg5vSpo4beoOJ0KspfLrtIv1a+jJtYGMAXuvpT4uarkz6NoxaHva8+VRTWtR0JTM3P0jXHLiK0fjg84QONmqm9m9Et8ZeqJQKjl/JryczV8d/JnSmsa8z/z50jUFt/bBWK1l/NJo1+6+W+DU/KnfDbfbs2YSEhACg1WpZuHAhbdu2xc3Nrdgy3N3dmTRpEgAdO3Zk7ty5/P777wCYTCY2bdrEzz//TFpaGg0bNmTatGnUqVMHo9HId999x44dO0hPT6d27dqMHz+etm3bEh4ezrRp0+jUqROJiYm4u7vz/PPPA/lDcuPGjePGjRu0bNmS2bNn4+7u/sC6tmzZwpIlSxg7diyRkZEcOXIEgClTpvDaa6/x/PPPExoayurVq4mNjcXHx4eXX36ZoKAgjh07xpw5cwgKCiItLY2rV69Su3Zt3n33Xfz8/CriYykRjUbDpUv528XgwYPRarX3LdOzZ08OHjxIRkYGSUlJ6PX6MtXp7u7Ov//9bxYsWIC3tzfPPvused7Zs2dZsWIF0dHR5oOeV155BaVSye3bt/niiy84e/YsCoWCoKAgJkyYYF5Xq9WyaNEiDhw4gJubG9OmTaNdu3YAT9znIh5fZR5TsrZS0rVRNTo18KS+t6P5HFzXRtWoW82Bro2q0a6ue6nKdHPIH+q8+69b42oF5vdtWZ0z19NIz9bx7vDmdG7oyaq9UfwQGkOfFtV5a2hzjlxO5qdTsQDsu3CLbw5ew85axcqxHWhX151fT8dxMy2Hcb38GdGh+IsrPhjRgqfb1+R0dBqHLiYxoLUvbz/d3DxfoYBang6s3n8Vrd7I+JAG1PJ0KNXrrmhFhducOXNITU3lvffeK1E5BoOBtLQ0EhISOH48v8d+95laP/74IytWrMDV1ZUhQ4Zw+fJlZsyYgUajYcuWLXzzzTc0btyY1157jZiYGObOnUtubq657OPHj2NjY0PLli3N0y5dukSTJk1o3bo1oaGhfP7558XWda/nnnuOFi1aADBmzBi6du3KlStXmD17Nrdv32bYsGHodDree+89rl7986DkzJkzBAcH06NHDy5dusTatWtL+5aXqxdeeIGBAwcyevRopk+f/sB/ANOmTaNLly4PXd+5c+d45513yM7OZujQoRgMBj755BP279+PRqNh9uzZpKWlMXXqVJo0acL69ev58ccfAXj77bc5dOgQ3bt3p2XLlvzyyy+sXLnSXHZ8fDw6nY4uXbpw8+ZNFi1aBPBEfi7i8VXmqyjtrNTFXohha6UqVZluDta81tPf/PdPJ2M5fCnZ/PfEb05xKT7/OU5OtlZggiyNnt2/J3I0MhmN3khMSjYRNzMY1r4mUbfucPp6Gv1b+eLlYsumEzEs/y0SWysVu+b0ZGAbPzadiCmyPV7OtgQ39Sbq1h3e35zfU6nr5UiPpt4FXtsnv0aQekdDQx8nhnWoSR1PB2JSskv12ivKgQMHWLBgAXPmzKFnz55AwXBbsmQJrq6uJSorNjaWp59+2vx3/fr1GTlyJAA//fQTSqWSDz74ABcXF5RKJRs2bODs2bN069aNVq1a4efnh52dHadPn+bo0aPExPz53nfu3Nl8UUl4eDgAPXr0YOrUqRiNRoYNG8bRo0cxGAwPrOteLVq0wMfHh99//522bdtSu3ZtFi9ejNFoZOLEiXTp0oWWLVsya9Ysdu/ebQ7XHj168Mwzz5CWlsaOHTsKtPNx8fXXX/PCCy9w7NgxfHx8aNasWbmVvXXrVgBmzZpFmzZt6NevH2PGjGHLli0EBASg0WhwcXHBzc2NyZMn89xzz+Hm5kZ0dDR//PEHgYGBTJ8+HZPJxLx581Ao/nwuV506dXjrrbcAuHDhAnFxceTm5rJ161aL+FzE46HMAZeRo+XvK088cJl6Xo58+XL7Epd5LSmLkUuPFDk/M/fPS6M//OkP5gxpyjv/6039EZvOol8vFrpeDQ97IP8KyZEda5mnV3d98CXVNdzz1/P3duLYB30KzPNxtb1vef3/hjutSjEsW5EOHDjA/PnzmTt3Lj169ADyw23u3LmlDjcAHx8fpk2bBuQfTW/cuJFFixbx3nvvkZCQgNFoZMSIEQXWSUxMpHnz5mzYsIHw8HBu375t7rndO4x296KQe6lU+QcRSqUSHx8fbt++ze3btx9YV3Hi4vLP8b7//vsFpt+6davI+gsbEqxsGzZsICQkhAMHDtCgQYNyDbi7F6vc/flIrVr528ytW7dwcnLi3Xff5auvvmL27Nmo1Wo6d+7MjBkziI3NHzmpVi1/5EWhUPDOO+8A+VdR/pWVlRWQ//5ayuciHg/l9ju4ymCtVuLrZsfn2y+RkJ5Lt8ZezBnclHeGNWfU8qP89axaYnr+DnXX+QQ2HrsB5IdQrvbB5ykSM/LXi0nJ5r3/9eAUClApFSSk33/xy+Pk4MGDzJ8/n7ffftt8ldzdcEtJSSl1uAHY2tqaL1xo0qQJGzdu5Ny5cygUCry8vEhKSmLRokXY2+cfGOj1emrVqsWyZcvYuXMnr7/+Ol26dGHJkiWEhoYWW5/BYADyz+/dunXL/DTmB9V14MCBAmXc23sA8Pb2BuAf//iHuWeg1+vx8PCQHsH/eHt7c/HiReLi4vD09DS/L97e3iQnJ6NWq/n0008xGAxs3bqVn376iWrVqjF48GAg/9zpXRs3bsTW1pbevXsXWyfI5yLKx2MZcO6O1kzq27DAtK1hN+9bTmcwMqVfI9wdrflqTxQ6Q/6Vd9ma/MBKz84/suvdwof0bC07zsYzvncDejTzJlujJ1tjIKS5D+uOXOdiXNGPro+/ncuRyGS6NqrGy8H1ibp1h/b13Em+o+HN9WfK62WXu7vh9s477xAUlP/zi7vhlpyczNKlS0sdbgC3b9/mq6++wmg0mocDmzfP70E//fTTfPnll6xcuZJOnTpx48YNoqKiWLVqFRkZGQBcu3aNrKwsLly4UKL69u/fj6OjI8nJyaSlpdGlSxfUavUD6/orFxcXANatW4dGo2HIkCHs2rWL77//nvT0dHJycjh48OBD/ebOEuzevdt8AQtAQEAAQ4YM4cCBAyxcuJDg4GDz+dahQ4ei0+n44IMP8PPzK3DhiYODA3Xq1KFp06acO3eOzz77jOzsbPbu3cugQYOKDTj5XER5eiwDztXemjFB9QpMC41KvW85kwmmfhfO9IFNeK2XPyZMHLmczKfb8ocoj19J4dClJALre9DR35NNJ2IYt/okb/RvTI9m3lirVZyNTuPYlZRi2/TW9+eY2KchQY29CPT34FpSFltO3R+6jwuj0chHH33E3LlzC4TbW2+9RXJy8kP13O7KyMhgw4YNKJVK3NzcGDBgAOPHjwdg5MiRWFlZ8fPPP/P999/j4eHB0KFDcXJyYsKECdy5c4e9e/dSt25d2rRpw+HDh4mLi8PDw6PI+oKDg7l06RLR0dF06NDBfBHFg+r6q6FDh3LmzBnOnz9Pu3btGDVqFJ9++imrV6/m559/xtramu7du1OvXj3OnHl8D1r+ql69ejg5OeHr64uPj89Dl3P48OECf9vY2PDSSy/x4Ycf8u9//5stW7bg7e3N9OnTzedw58+fz9dff82SJUtwcHDg6aef5sUXXwTyf1+3ZMkSDh48CMBTTz3FxIkTzb3xojRt2tQiPhfxeFC0m/t/D30fLV83O/47qQu9F+5Hoyv6i9uurjvvDGvO0M8OPWxVVVLY/H6Ehoaae0elkZaWxtNPP83OnTuxs7Mzh1tSUhJLliwp0c8BRPm5e9EF8NCfKcCiRYtwcXFh3LhxRS5z8OBB3n33XbZs2WL+DZso3L2fi7A8ZerBxd/OJexaGjtmBpNyR1PoMgoF+LnZsey3y2WpSpRSeno6SqWSGzdukJqaypYtW8w9Nwm3J5eLiwuXLl0iIiKiyDvHhIeHo1arcXB4vH6mIsSjVuYhyunrT9OwujMONkUXlZieS/zt3CLni/JnNBoxGo28/vrruLq6Urt2bQk3CzBy5Ejef/9981WshbG3t2fq1KnF3pFGCEtX5oAzmSAyvugLNETl8Pf3Z9euXbKTszBubm4sXbq0spshxBPh8fihlqgQEm5CiKpMAk4IIYRFkoATQghhkSTghBBCWCQJOCGEEBZJAk4IIYRFkoATQghhkSTghBBCWCQJOCGEEBZJAk4IIYRFUpw4ceKhnyYghBBCPI4CAwPz70Upj4sQQghhKUJDQwEZohRCCGGhJOCEEEJYJAk4IYQQFkkCTgghhEWSgBNCCGGRJOCEEEJYJAk4IYQQFkkCTgghhEWSgBNCCGGRJOCEEEJYJAk4IYQQFkkCTgghhEWSgBNCCGGR1JXdgCeVwWBEp9ejNxgwGIyYTH8+dUihUKBSKVGrVFip1ahUchxR1UTEphGfegdrJbjZqXC0VZnnZeUZuJ1rQGsEXw8nmtZ0r8SWisoi+5CKJwFXSnq9gTytFqPRhLWVGltra1QqJQqFwryMyWTCYDCiNxjIzs1DqVRga22NWq16QMnCEoRHJZGdk4tSYeLcjQz+iLtDTFoeGbl68zIudmpqudvS3M8JW5WJQ7fv4GBvRzt/r0psuXhUZB/y6EjAlUJOnga93oCtjTXWVkW/dQqFArVahVqtwtbGGq1OT06eBrVahb2tzSNssXiUdp+Jxk4NP51O5MiV9CKXy8jV83tcFr/HZbHxZAJdG7gyop0Pu89E07tNnUfXYPHIyT7k0ZKAKwGTCbJzc1EqlDg72pd6fWsrNdZWanJyNWTl5OJgZ8c9B2viCZeRo+VcVALRSVl8dehmqdc/ciWdI1fSGRdUg0Pnb9DKvzou9tYV0FJRWWQfUjlkYLcEsnNzUatU2NuV7cjJ3s4GtUpFdm5uObVMPA7ORSVw6nr6Q4Xbvb46dJNT19M5F5VQTi0TjwvZh1QOCbhi5ORpUCqU2NqUzxG1rY01SoWSnDxNuZQnKtfuM9FEJtxh48nyCaWNJxOITLjD7jPR5VKeqHyyD6k8EnAPoNcb0OsNZT7q+it7Oxtz2eLJFR6VhJ2aMvfc/uqrQzexU+eXL55ssg+pXHIO7gHytNoSHXXl5eURFRVFZGQk3bp1w8ur+KvhbG2sydNqcVTblUdTRSXIzsnlp9OJxS7XsYEn/+jlTz0vR7I0eg5eTOKfv10mW6Mvcp3N4YkMa1u9PJsrKkFJ9iEmk4kLFy5w4cIFsrOzcXZ2pnXr1vj7+z9wPdmHFE8CrggGg9F8Ge+D7N27l+joaGxsbMjJySlx+dZWavI0WgwGo/zG5QkUEZuGUmF64NWSAC1rubJsTDu+3neVD378A193O94b1gIXeyvm/vdckesduZLOiHY+RMSmye/knlAl3Yf8/vvvhIeHExQUhKenJ3Fxcezfvx9bW1tq1KhR5HqyDymevCtF0On1xX4xAezt7XnqqacYOHBgqeuwtlKj0xd9FC8eX/Gpdwi9llHsciM71ubsjdt8vS+K68lZHI1M5ttD1whu4o1S+eDL4EKvZRCfeqe8miwesZLuQy5evEiTJk2oX78+Li4uNG3aFG9vb65du1bsurIPeTDpwRVBbzBga1388GSnTp0AuH37dqnrUKtU5Gm1pV5PVD5rJfwRV3z4bDkVS4624A4oT2fAaDIVuHNFYf6Iu0P7uq5laqeoPCXdhwwfPhylsmBfQ6lUoi9BcMk+5MGkB1eER9HtV6mUGAzGCq1DVAw3OxUxaXnFLhd+PY2LcZnmv5UKBUMDarD790SKyTdi0vJws5M7VzypSroPUavV5oAzmUxcu3aNxMREmjRpUuy6sg95MOnBFcFkMhW4dU5FUCgUxR7Fi8eTo62qwO23SmpC7wb4utnxxn9OF7tsRq6+wD0sxZOltPuQn3/+meTkZIxGIx06dKB69eIvMpJ9yIOVKeBS0zKLX+gJpVI/us6tJb+PKanFn6d6Elnbln7Tebp9TUZ3qcPEb06Reqfkv2GKvBJb6rqeFJ4eLpXdhApT2n1ISEgIGo2GuLg4Tp48iYODAw0aNCjRupa8D/Fwd37odcsUcGWp+HGXcSe7wntxd8u35PfRUl/b71du4mKnLnEvrnsTL2Y+1YS5/z3HmeiSna91sVOTlWegRYOaZWmqqCSl3Yc4ODjg4OCAu7s7aWlpnD9/vtiAqwr7kLKQc3BFeBRj23J575Prdq6BWu62JVq2dW03FjzbioU/R7A/4laJ66jlbsvtXPkh75OqpPuQ77//nsjIyALT8h+XU/zwtOxDHkzemSKoVSr0horduegNBtQl+BKLx4/WCM39nIpdrp6XI5+/2JYfT8VyIioFLxdb8z/HYoY5m/s5oZXrB55YJd2HeHp6EhYWRmxsLHfu3OHq1atERUUV+0NvkH1IceQikyJYqdVk5+aV2/3jCqPV6XGwK1kvQDxefD3yn+VW3D0oRwTWwtnOitGd6zC6c50C8zYeu8Fn2y8WuW5gPRfcXYsPUfF4Kuk+JDg4mDNnznDkyBFyc3NxcnIiMDCQZs2aFVuH7EMeTHHixAlTYGBgZbfjsZSVk4u1lVWJfqxZWlqdHq1Oh6O93GbnSXXo/A1+Op1Q7N1MHkbXBq4Ma1udoJa1y71s8ejIPqRyhIaGEhgYKEOUD2JrbU2epmJ+RJmn0ZboR6Di8eVgb8eIdj4VUvaIdj44yI7riSf7kMolAfcAd5+om5Nbvo+lyMnVmMsWT652/l7k6mFcUNH3C3wY44JqkKvPL1882WQfUrkk4Iphb2uD0WQst6OwPI0Wo8koj523EL3b1KFRdSdGdSifO/+P6lCdRtWd6N2mTrmUJyqf7EMqj1xkUgIOdnZk5+aSk6sp03OdcnI1GE1GHOxk6MmStPLPDzdnW1WZng03LqgGjao7mcsTlkP2IZVDenAloFCQfyJXAZlZOWh1pbtFk1anJzMrB/5XTgXfAUw8Yi721gS1rE0dL0eWPNeYrg1Kd4Pkrg1cWfJcY+p4ORLUsjYu9nJexdLIPqRySA+uFOxt85+im6fVkqfRYm2lRq1SoVIpC9ytwGQyYTAY0RsMaHV6lEoF9rY2Ml5u4Xq3qUN4VBLD2lZnRDsfQq9l8EfcHWLS8grc8cTFTk0td1ua+zkRWM8Fo0mBnZ0dXeWcm8WTfcijJQFXSmq1Cke1HQaDEZ1eT542/4GD997wNP8uBErUKhUOdrZyp4Eq5O6FIRGxabSqraB9XVfc7FQFbpqclWfgdq4BrRHcXZ3kgaZVjOxDHh0JuIekUilRqWQoSRSuaU13CS7xQLIPqXhyWCCEEMIiScAJIYSwSBJwQgghLJIEnBBCCIskASeEEMIiScAJIYSwSBJwQgghLJIEnBBCCIskASeEEMIiScAJIYSwSBJwjwmdTsfhw4fJy8srdH5sbCznz59/xK0S9zKZTIwePZphw4ah0+kqrB6DwUBAQABPPfVUhdUhHj/JycmcPn2as2fPVnZTLEaVvBfl5cuXSU9Pp0OHDpXdFPGY2bp1K/PmzSt0XlhYGF5eXmg0GpRKOTasqvLy8jh16pT5b4VCga2tLT4+PtSoUfTT3WNiYsjNzaVRo0ZcvHgRJycn8/I6nY7IyEgaNWqEi4tLhb+GqqLKBZxeryc5ORmlUklaWhru7nJDXHG/hg0bFnoAtGTJkkpojXgctW/fHhsbG0wmE3fu3OHixYsoFAr8/PwKXd7b2xuDwQBA7dq1Uav/3P3m5uZiMpmoVq3aI2l7VVHlAu7WrVvY29vj5uZGQkJCgYALCwujVq1aeHnlP/IkJiaGjIwMWrRoAcDNmzeJi4vDYDDg6OhIgwYNsLOzIzw8nBo1auDt7Q3AqVOn8PX1NX/Rz5w5g6+vL97e3qSkpHDjxg00Gg22trbUr1+/wBFbSkoKiYmJaLVaPDw8aNiwYYHnRIlHo3Xr1kydOvW+6b169eLOnTucPHmSJUuWsG7dOp555hlCQ0NJTk6mU6dOzJs3D2tra+Lj45k3bx5//PEHdevWxcXFhWPHjvHdd9/RtGlT9uzZw+rVq4mNjcXDw4MXXniBkSNHmuvSaDTMnDmTEydOUKNGDebMmWP+Lh47dowVK1Zw48YNfH19+cc//kGPHj0e2fsj8ntud/+5uLjg6elJRkYGfn5+hIeH4+DgQGZmJm5ubri6uhIdHU379u0BsLe35/Dhw7Rq1QqdTsfly5cBzJ+1jY1NgeUB8/LOzs6Eh4fj6upKVlYWeXl52Nra0rhxY2xs8p8WnpKSwvXr19Hr9Xh4eJCdnW3eB1UlVW6cJTExEW9vb7y9vUlLS0Oj0ZRovfT0dGJiYmjZsiWdOnXC3t6eyMhIADw8PLh9+zYA2dnZaDQaUlNTgfweY1ZWFm5ubmRnZxMZGUnDhg3p3LkzHh4eXLx4sUA9d+7coXXr1rRp04a0tDRSUlLK8dWLkvrjjz9YtWqV+d/Vq1eLXPbcuXM8//zzNGzYkH379rF9+3ZMJhNvvvkmJ0+epGPHjjRp0oTQ0FDzOpGRkcydOxeFQsGMGTOwsrJi0aJFnD592rxMWloaRqORAQMGEBUVxYwZM9BqtURGRjJ16lTS0tJ49tln0el0zJo1iytXrlToeyIKZzKZyMrKIi0tDScnJ/N0rVZLq1at8Pf3f+D6Hh4eNGvWDICOHTs+cJjzXnfu3KF58+Z06NABtVpNTEwMkN8bvHTpErVr1yYwMBB3d3eys7Mf8tU92apUDy4jI4Pc3FyqVauGlZUVTk5OJCYmUrt27WLXVSqVmEwmcnNzsbW1pV69euYLDdzd3YmIiAAgNTUVPz8/EhMT0ev1ZGRk4OjoiLW1NUqlkrZt22JnZweAl5cXMTEx6PV/Pu25bt26qNVq1Go1jo6O5ObmVsA7IYoTERFh/kwB6tSpQ/369Qtd9qWXXqJPnz44OTlx7tw5oqOjuX79OpGRkbRo0YJFixYBkJCQwNGjRwGoXr0669atw8PDAw8PD3Jycvjiiy+IiIigVatWQP7349NPPwXyD7D27NnD+fPn2blzJ0ajkTfeeIPu3bvTpk0bpkyZwv/93//RoEGDinxbxD1OnjwJ5PfkrK2t8fLyKhBOXl5e5h5VRfDx8UGlyn+QrrOzs/kgOyUlBWdnZ/NIlKenJ7a2thXWjsdZlQq4hIQE3NzcsLKyAvK/gLGxsdSqVavYYUBnZ2caN25MXFwckZGRuLi4UKdOHQCcnJwwmUxkZ2eTkpJCw4YNzb24rKwsPDw8AFCr1SQlJREZGYlerzc/wffeJ/neS6FQYDQay+nVi9IYOXIkM2fOLNU6d3c2Op2O5ORkIP+A5a57v2NOTk788ssv7Ny5k6SkJPMR9r0HO3fLA/D19QXyD6Bu3rwJwJw5cwrUn5iYWKr2irLp0KFDhQZYad3dj9w9/SGqUMDpdDpSUlIwmUwcPny4wLzU1MVGQDcAACAASURBVFQ8PT3NvbTC5OXl4eDgQIsWLTAajcTExPDHH3/QoUMHFAoFbm5u5l6bo6Mjnp6eJCUlma+agvzLgOPi4mjZsiU2Njb3XY0lLMfdiwVu3Lhhnnbvd2vbtm0sWbKE/v37M2/ePHbv3s1XX31VoIy7FyTAn+Hl4eGBj48PAJMnT6ZNmzZA/vfb09OzYl6MKDOFQlHkvqU8lr+XjY0N6enpD7WupakyAXfr1i2srKzMgXRXZGQkCQkJeHp6YmdnZw673Nxcbt26ZT4Sun37Njdv3qRFixbY2tpiZWVV4Avo4eHBpUuXzBeWuLu7c+XKFZRKJY6OjkD+mDzk7+i0Wi3x8fHmv+VCksfL+fPnWb58eYFpEydOLPH6devWpXHjxpw7d465c+fi6OjI8ePHzfPv7oBu3brFwYMH2bVrF0CBHntSUhIzZszAy8uLPXv24O7uTsuWLbG1tWXHjh2sW7eO27dvk52dzb59+/jiiy/K8pJFBbK3t0ej0ZCZmYm9vb152y+v5e/l6enJjRs3SE5Oxt3dndTU1Cp7qqPKBFxCQgJ+fn73BUmNGjU4ffo0ubm51KlTh8jISE6cOIG9vT1OTk7m82zVq1dHo9Fw7tw59Ho9Dg4ONGnSxFyOm5sbgPkoWqlU4uLiUuBS4OrVq3Pnzh1Onz6NlZUVvr6+2NraotVqH6uhDgGXLl3i0qVLBaZNmDChxOsrFAoWLVrERx99xJEjR/D396devXpERUWhUCgYMWIEFy9e5MiRIyQkJNC5c2euX79OXFycuYymTZuiVqvZtm0b9evXZ86cOVhbW9O8eXP++c9/smLFCjZv3oyNjQ09e/Ys8hyhqHz29vbUrl2bCxcuoFAoqFatWoEh6LIufy87OzsaN27M9evXiYqKwsPDo8ruXxQnTpwwBQYGVnY7hLA46enp5kvITSYTw4cPJyYmhp07d8pwoqhQfx0VOn78OI0aNaoyv/sNDQ0lMDCw6vTghHjUVqxYQXh4OIMHDyYiIoKYmBhat24t4SYqlE6n48KFCzRq1AhbW1vzqICzs3Mlt+zRk4ATooL07t2b6Oho1q5di52dHYMHD+b111+v7GYJC2dlZUW1atX4448/0Ol02Nvb06xZswKnS6qKqveKhXhE2rdvX+BOFEI8Kn5+fkXeMqwqqXJ3MhFCCFE1SMAJIYSwSBJwQgghLJIEnBBCCIskASeEEMIiScAJIYSwSBJwQgghLJIEnBBCCIskASeEEMIiScAJIYSwSBJwQgghLJIEnBBCCIskASeEEMIiScAJIYSwSBJwQgghLJIEnBBCCIskDzwVQghRabRaHRERN0hNzcBkyp+mUICHhwtNm9bG2trqocuWHpwQQohKExFxg5SUP8MNwGSClJQMIiJulKlsCTghhBCVJjU146HmlYQEnBBCiEpzb8+tNPNKQgJOCCGERZKAE0IIYZEk4IQQQlgkCTghhBAWSQJOCCGERZKAE0IIYZEk4IQQQlgkCTghhBAW6ZEE3IYNG+jduzeDBw8G4NSpUwwbNozOnTsTGxv7KJpQKk899RTvv/9+ZTdDCCFEGZT5Zsvx8fF8+umnnDp1CoVCQYcOHZg2bRq+vr4AJCUlsWTJEvr06cPw4cMBWLhwITY2NixatAgfH5+yNqFUtFotnTt3Nv/t5OREx44dmTp1Kt7e3gBMnz4dd3f3Cqk/JyeHdevWERwcTMOGDSukDiGEEGXswWk0GiZMmMCNGzeYM2cOs2fPJjo6mldeeYWMjPx7iCUmJmI0GhkyZAht2rQB8kOxe/fudO3aFSurh79TdEkYjcZCp48cOZLVq1czffp0Lly4wCuvvMKdO3cACA4OpmXLlhXSntzcXFatWkVkZGSFlC+EECJfmQJu27ZtxMXF8cUXXzBgwAAGDBjAsmXLSE1N5aeffiI8PJyXX34ZgPHjx7NgwQICAgLQ6/WsXr3a3KPLzMxk7ty5BAcHM3z4cA4ePAjAmjVrCAkJ4ZtvviE4OJhBgwZx9OhRc/1Xr17l5ZdfJigoiLFjx3L9+nUAJk2axOuvv87EiROZNWtWoW2vXr06rVu3ZtCgQSxdupRbt26xdetWoOAQpdFoZOXKlfTt25f+/fuzatUqTP+7QVqHDh344osv+Nvf/kbXrl2ZOXMmWq0WgLNnzzJ69Gi6dOnCs88+y4kTJ0hKSqJv374AfPDBB3z22WdlefuFEEI8QJkCLioqCk9PT2rVqmWe5uvri5+fH1FRUTRv3pwFCxYA8NFHHzF+/Hi2bNmCUqnk2Wef5V//+pd53smTJ3nrrbdo2bIlc+bMISkpCYD09HRMJhOrV6/G19fXXF5eXh6TJk3CaDQyb9489Ho9c+fONYfPyZMnad68OS+++GKxr6Nu3bpUr16dy5cv3zdv06ZNrFmzhjFjxvDCCy+watUq9u/fb55//PhxZsyYwTvvvMO+ffvYuXMnALNmzcLb25uvvvqK+vXrM3PmTJydnfnmm28AmDx5MmPHji31ey6EEKJkyhRwubm52NjY3Dfd1tYWnU6HjY0NXl5eAHh5eeHm5kbNmjUBcHFxwcfHh8zMTPbv38+oUaPo3bs3b7zxBlqtllOnTpnLGzNmDP7+/vTq1Ytbt26Rk5PD8ePHSUpKYurUqQQFBTFmzBiuXLnCrVu3AGjevDnjx48v8VCjg4MDGo3mvuk///wz7du3Z/To0Tz//PP4+/tz5MgR8/y7w5l9+/bF2dmZa9euYTKZ0Ov1KBQK3N3deeutt/jmm29Qq9Xmc5Nubm64urqW8J0WQghRWmW6yMTOzq7QUMjLyyvxubW7gfT111+zZs0a8/SUlJT7llWr85ur1WrN602YMAH481zb3fUUCkVJXwYA2dnZhYb1rVu3uHr1qvnCFJ1OZw7twtqn1WpRKBR8/vnnLFu2jKFDh1KzZk3GjRtH/fr1S9UmIYQQD69MAefv78/mzZuJiYkxD1PGx8cTFxfHoEGDSlTG3SsXX3rpJfr162ee7u7uzg8//FDkendD5pNPPjH3CgFzD6k0oqOjSUhIYMSIEYXW06xZM6ZPn26eZm9v/8DysrOz0Wg0LFu2DK1Wy8qVK3n77bdp1apVhV9UI4QQIl+ZhigHDhxI9erVeeONN9ixYwc7duxg8uTJuLm5MWzYsBKV4ezsTLdu3di+fTtXr14lNjaWrVu3FtqbulfHjh3x9PRkw4YNxMfHc/nyZfbt24e1tXWJ6k1ISODs2bNs376dKVOm4OXlxdChQ+9bbtCgQYSFhXHy5EkSExPZu3cv6enpDyzbYDAwbdo0li5dSnJysvm1qNVqHB0dUSqVHD58mOjo6BK1VQghROmVqQdna2vLihUr+Oyzz1i4cCEA7du354033ijV+aX333+fxYsXM3/+fKytrQkMDCx06PNe9vb2LF++nEWLFjFr1iw8PT3p379/ievctGkTmzZtwtHRkU6dOjF16lScnJzuW2706NFkZ2fz7bffkpubS5MmTejevfsDy3Z2dmbx4sUsW7aMbdu24ePjw7x58/Dw8ADye6sbNmygTp065iFWIYQQ5Utx4sQJU2BgYGW3QwghRBW0Z0/4A+eHhLQrdZmhoaEEBgbKvSiFEEJYJgk4IYQQFkkCTgghhEWSgBNCCGGRJOCEEEJYJAk4IYQQFkkCTgghhEWSgBNCCGGRJOCEEEJYJAk4IYQQFkkCTgghhEUq082WtVotYWFhxMfHo9PpyqtNQgghLIiVlRW+vr4EBASU+Ikv5aFMARcWFoanpyeBgYGoVKryapMQQggLYjAYuHr1KmFhYeaHRz8KZRqijI+Pp379+hJuQgghiqRSqahfvz7x8fGPtN4yBZxOp5NwE0IIUSyVSvXIT2XJRSZCCCEskgScEEIIiyQBJ4QQwiJJwAkhhLBIEnBCCCEskgScEEIIiyQBJ4QQwiI9sQG3aNEi3nnnnYdef9euXTz11FPl2CIhhBCPkwoLuNjYWAICAvj2228LTM/JySEgIICIiIiKqhqAffv2cfTo0RItazQaGTRoEGfOnKnQNq1fv55r164VOm/r1q0EBASY/wUFBfG3v/2NQ4cOAfDtt9/y97//vcA67777Lq+//nqBaa+88gorV66smBcghKgSsrOz0ev1xS5nMBjIzc19BC16OBXeg/vqq6+4fPlyRVdzn/3795c44JRKJR999BFNmjSp0DatX7+e69evFzm/evXqhIaGEhoayvbt2xk+fDgzZ87k0qVLtG/fnoiICPOXyWg0cvToUc6ePWueptVqiYiIICAgoEJfhxDCsq1Zs4Z169ah0WiKXEan07FhwwbWrFnzCFtWOhUecJ06deLtt99Gq9UWOj8jI4O33nqLkJAQQkJCWLhwIQaDAQCTycSqVavo27cvQUFBTJo0qcC9zO7cucPcuXMJDg7m6aef5uTJkwAMGzaMvXv38ssvv/D8888DkJmZyezZswkODuaZZ54hNDS0QDsmTpzIhQsXgPygWLRoET179qR///4sWbLE3KaRI0fy6aef8uqrrzJgwADGjh1LYmKiuZzvvvuOAQMGEBQUxLhx44iOjubatWv06dOHlJQU5s2bx6JFi4p8v1QqFSqVCicnJ4YMGUKtWrU4e/YsTZo0wc7OjvPnzwNw7tw57O3tadSokfl1321/y5YtS/jpCCHE/bp3705cXBwbNmwoNOS0Wi0bN24kJiaGLl26VEILS6bCA27SpEkYjUb++c9/Fjp//vz5mEwmtm/fzrp16zh48CBbtmwBYMeOHWzevJmvv/6avXv3Uq9ePWbNmmVeNzw8nCFDhvDbb78RFBTExx9/DMBPP/1Er169GDx4MOvXrwfyz9klJyezadMmli5dys2bN4ts8+LFi4mMjGTz5s385z//4dixY/zwww/m+RcuXGDp0qVs27YNR0dH1q5dC8CpU6dYvXo1K1euZO/evdSpU4f33nuPevXqsWvXLjw9PXn77beZOXNmse9bXl4e+/btIyYmhiZNmqBUKmnbti3h4eEAHD58mG7dutGlSxeOHDkCwJkzZ2jVqtUjfRyFEMLytGrVioEDBxIfH39fyN0Nt9jYWAYOHEibNm0qsaUPVuEBZ2Njw4cffsgPP/xAWFjYffNff/115s6di42NDT4+PrRt29Y8jPfzzz8zatQoatWqhZWVFa+99hohISHm3lRwcDCBgYHY2NjQo0cPbt68idFovK8Oo9HInj17mDBhAl5eXvj6+jJ8+PBC26vVatm2bRvjx4/H3d0dT09PnnnmGXbv3m1eZsiQIdjb26NUKmnVqhU3btwA8p95ZDQauXHjBiaTiWnTpvHJJ5+U+L1KSEgwn4MLCQnh66+/5t1336VVq1YABAQEcPr0aQAOHjxIcHAw3bp1Mw/Fnj17lvbt25e4PiGEKErr1q3NIbd+/Xry8vLQaDRs2LCBmzdvMnDgQFq3bl3ZzXygMj0PrqSaNm3Kyy+/zPvvv2/u7dxr4cKFREVFodfrSUlJYeDAgQAkJibi5+dnXs7BwYExY8YUWodKpcJoNGIyme6bl5aWhl6vp0aNGsW2NTU1FZ1Ox/Tp01EoFEB+QHp6eha6vFKpNJ+Mbd26NfPmzWPjxo289957tG3blgkTJhRb513Vq1fn119/LXJ+QEAAy5cv58qVK9y+fZt27dqZhzQvXrzIuXPneOWVV0pcnxBCPMjdANu+fTvr169HqVQSHx//RIQbPKKAAxg7dixHjx5l8eLFBaZPnTqVoUOH8tFHH6FUKgtc+u/j40NCQoL5b61Wy9mzZ0t9EYWbmxtWVlbEx8fj7e39wGU9PDxQKpWsWrWKRo0alaqe+Ph4GjRowIoVK9BqtaxevZopU6Y8MLRKo0GDBjg4OPDNN9/QtWtX86OKunXrxsaNGzGZTDRr1qxc6hJCCMgPOZPJxI4dOwAYNGiQeVTpcffIfgenVCr58MMPOX78uHmayWTi9u3bGI1GcnJyOH36NKdPnzb3iJ566ik2btzIzZs30ev1fPvtt3z22WcolcU3287OjuTkZDQaDSqVit69e7Ny5UqSk5OJj49n8+bNha5nbW1tvrAkNTUVjUbDzz//XOTy9zp27BgTJ04kLi4OtVqNq6ureTj1bpsSExMf+plICoWCdu3asX//foKDg83Tu3Xrxp49e2jdurU8n08IUe7atGnD8OHDGTFixBMTbvCIf+hdq1Ytpk6dav5boVDwwQcf8MsvvzBgwAC+++47unfvTl5eHpB/pDB69GgmTpxIr169uHDhAl988UWJ6ho0aBC///47zzzzDABvvvkmbm5ujBgxgilTptC4ceMi1501axb16tXjhRdeoHfv3uzZs4eOHTsWW+ewYcPo06cPr776Kt27d+e3334zX/gC8Oyzz/LVV18xf/78Er2GwrRv3x6FQkGnTp3M09q1a4darZbzb0KICtO4ceNSj2pVNsWJEydMgYGBD7Xyxo0bGTVqVDk3SQghhCUqLDP27Al/4DohIe1KXU9oaCiBgYFP7q26hBBCiAeRgBNCCGGRJOCEEEJYJAk4IYQQFkkCTgghhEWSgBNCCGGRJOCEEEJYJAk4IYQQFqlMAWdlZVXgVlRCCCFEYQwGA1ZWVo+0zjIFnK+vL1evXpWQE0IIUSSDwcDVq1fx9fV9pPWW6WkCAQEBhIWFcf78+Ye+gbAQQgjLZmVlha+vb6mfBFNWZQo4a2trOnfuXF5tEUIIIcqNXGQihBDCIknACSGEsEgScEIIISySBJwQQgiLJAEnhBDCIknACSGEsEgScEIIISySBJwQQgiLJAEnhBDCIknACSGEsEgScEIIISySBJwQQgiLVKabLWu1WsLCwoiPj5enCYgq4d67oltbWz9UGbLdiKqmPLabh1GmgAsLC8PT05PAwEBUKlV5tUmIx9bd51qFhYU99JM0ZLsRVU15bDcPo0xDlPHx8dSvX182UlFlqFQq6tevT3x8/EOXIduNqGrKY7t5GGUKOJ1OJxupqHJUKlWZhhZluxFVUVm3m4chF5kIIYSwSBJwQgghLJIEnBBCCIskASeEEMIiScAJIYSwSBJwQgghLJIEnBBCCIskASeEEMIilelWXcXZunUr//nPf0hKSsLHx4dXX32VPn36AJCUlMTixYs5ffo0AIGBgcycORNXV9f7yomJiWHx4sX8/vvvODk5MWzYMF566SUUCgUA69atY9OmTWRkZNCsWTPefPNN6tatW5EvTYgKkZOTw5IlSzhw4AAmk4muXbsybdo0nJycmDx5MmFhYQWW1+v1dOvWjc8+++y+so4fP87y5cu5efMmvr6+TJgwgaCgoGLrEcJSVFgP7tixYyxdupQPPviAgwcPMm7cON555x1u3LgBwJtvvomLiwu//vorP/74I8nJyXz++eeFljV9+nT8/Pz47bff+OKLL9i4cSO//vorALt27WLt2rUsXryY3bt34+/vz5QpUzAajRX10oSoMEuXLuXy5cv897//5YcffuDmzZt8+umnACxbtoxjx46Z/x09epT69eszaNCg+8pJTExk2rRpvPDCC+zbt49XX32VN998k5iYmGLrEcJSVFjAxcbG8uKLL9K8eXOUSiUhISF4eHgQHR1NTk4ONjY2jBs3Dnt7e1xdXRk0aBBRUVEAnDlzhn79+pGTk8PNmze5fv06r776KjY2Nvj7+9OvXz+OHDkCwJEjRwgJCaFRo0ZYW1szbtw44uPjuXbtWkW9NCEqzOHDhxk9ejTu7u64urry4osvcvjw4UKXPXDgAHq9nuDgYAC+/fZbJk2aBEBoaCi+vr4MGDAAtVpNr1698Pf35/jx46WuR4gnVYUNUT777LMF/r5+/TpZWVm0aNECe3t7Vq1aVWB+aGgo7du3B6BRo0bMnTsXe3t7Ll++jEqlwsPDw7ysj48Pv//+OwApKSkEBASY5zk4OODg4EBycjL+/v4V9fKEqBApKSl4e3ub//b29iYzMxOtVnvfY0ZWr15dYKi+T58+tG3bttBy7paVnJxc6nqEeFI9kotMMjMzmTlzJjNmzMDd3f2++T/++CNXr15l3LhxANjb25vPFRgMhvtuTKtWq9Hr9UD+OQilUlnkfCGeJEajscD3Wa3OPwb96/f50KFDZGZm0q9fP/M0X19fWrZsCRS/3ZS0HiGeZBV6kQlAVlYWEydOJDg4mMGDB983f/v27axZs4bVq1djb29/fwP/t1GaTCbzkaper8fKyqrA/HvdO1+IJ4lKpSrwfb77/79+n1evXs2LL75Y5FMJitsuSlqPEE+yCu3B5eTkMGnSJAICApg4ceJ983/77TdWrFjBypUr8fX1LbSMatWqYTQazUMrkP88LU9PT/P8hIQE87zMzEyys7PN84V4kvz1+xwfH4+zs3OB4Dl27BiJiYkMGTKkyHI8PT0LlAOQkJBQ5HZTWD1CPOkqLOByc3OZPHkyrVu3ZsqUKffN37dvH8uXL+fLL7+kVq1aBebl5ORw6NAhIH/Yxd/fn1WrVpGXl0dUVBS//fabeQize/fu7N27l4iICLRaLatXr8bPz4969epV1EsTosJ0796djRs3kpKSQnp6OuvXr6d79+4Fllm9ejWjRo3CxsamwPT4+HjOnz8PQKdOnUhKSuKXX35Bp9OxZ88erl27Zn6acknqEeJJV2FDlFu2bOHs2bNERETw/fffm6c3btyYtWvX8uGHH5KTk8Nzzz1XYL1PP/0UW1tbFixYQIcOHbC1teWzzz7jk08+oV+/fjg6OjJ69GgGDhwIQM+ePUlKSmL27NlkZGTQtGlTlixZct95OSGeBK+//jpLly5l9OjRGI1GunXrxrRp08zzQ0NDuXr1KsuWLbtv3V27dnH69GmWLVtGtWrVWLJkCUuXLmXx4sX4+vqyePFiatasWaJ6hLAEihMnTpgCAwMfauWNGzcyatSocm6SEI+/snz3ZbsRVVVh3/09e8IfuE5ISLtS1xMaGkpgYKDcqksIIYRlkoATQghhkSTghBBCWCQJOCGEEBZJAk4IIYRFkoATQghhkSTghBBCWCQJOCGEEBapTAFnZWWFwWAor7YI8UQwGAxlumejbDeiKirrdvMwyhRwvr6+XL16VTZWUWUYDAauXr1a5M3BS0K2G1HVlMd28zDKdC/KgIAAwsLCOH/+PDqdrrzaJMRjy8rKCl9f3wIP2S0t2W5EVVMe283DKFPAWVtbm+9OLoQoGdluhHg05CITIYQQFkkCTgghhEWSgBNCCGGRJOCEEEJYJAk4IYQQFkkCTgghhEWSgBNCCGGRJOCEEEJYJAk4IYQQFkkCTgghhEWSgBNCCGGRJOCEEEJYJAk4IYQQFkkCTgghhEWSgBNCCGGRyvQ8uOjkbCasPcmtzDwUKEq1rgkT3s62rHi5A3WqOZSlGUIIIcR9ytSDm7D2JEmZGhSm0oUbgMKkIClTw4S1J8vShBIbOXIkW7dufSR1CSGEqHxlCrhbmXlgglJ23vIpANP/ynhIRqORQYMGcebMmYcuAyAzM5NVq1aRl/fwbXkc7du3j6NHj1Z2M4QQolKUKeAUKB4u3P4soNRDm/dSKpV89NFHNGnSpAyNgIyMjCc24Ewm033TjEYjAPv375eAE0JUWWU6B/dX7o7WpGVpi5xvb61CqVSQlacvcZmLFi0iMTERlUpFVFQUAHPmzKFDhw4ATJw4keXLl9OuXTuysrJYuHAhR44cwdramh49ejB9+nRsbGwAuHbtGmPHjuXy5cs0bNiQ+fPnc/z4cf71r38B+cOY06ZNo1+/fgXakJmZyfz58wkNDaVatWoEBQWxa9cufv31VwASExNZuHAhp0+fplq1arz88ssMGjQIgGPHjrF06VLi4uLw9fVl0qRJdOvWjfT0dEJCQnjxxRc5cuQIGRkZ9OzZk+nTp2NlZQXADz/8wHfffUd2djZt2rTh7bffxs3Njb1797J48WJatWrF4cOH+eWXX5gwYQL+/v6cP3+ezp07ExYWRmJiIkqlknPnzrF+/foSv+dCCGEJyu0qSmc7K3bO7sHzXeoUOt/dwZpvx3diav/GpS773LlzTJgwgS1btjB48GA+/vjjQpf7/PPPSUtLY9u2bWzevJno6Gi+/PJL8/xjx47x/vvvs337dpRKJWvXruXpp5/mm2++AWDTpk33hRvA4sWLSUlJYdOmTaxcuZILFy6Y5xmNRiZNmkSNGjXYu3cvH3zwAR9//DGXL18mNzeXGTNmMHbsWA4dOsRLL73ErFmzyMzM/PN9c3bm+++/5/vvv+fUqVPmINq5cyerVq3is88+Y8eOHdjb27NgwQLzeqmpqfTs2ZO9e/fi4eEBQEpKCmvXrmXmzJn89NNP9OrVi8GDB0u4CSGqpHILuMxcHR//HMHU/o0Z/ZeQc3OwZuUr+T2uFbsul7rszp07U7duXQDatWvHzZs3zcNwd+n1erZv38748eNxcnLCxcWFWbNm0aBBA/MyL7zwAjVr1sTZ2ZmOHTty48aNYus2Go3s3buXCRMm4OXlhYeHB8OGDTPPDw8PJy4ujsmTJ2NtbU2LFi3o2rUre/bsQalUYmVlRXx8PFlZWfTv35/NmzdjZ2dnXj8kJASlUombmxvPPPMMe/fuBeDHH39kxIgRNGzYEFtbW/7+979z8OBBdDodANWqVaNv377Y2dmhUOQP8w4YMAAvLy/U6nLtmAshxBOpXPeEP52KBWDOkGZggg3HovPDbWx+uP1j9UnSsosewiwJhUKB0Wi879xTSkoKBoMBPz8/87T69etTv379QstRqVTo9cUPlWZkZKDVaqlRo0ah82/duoVer6dv377maQaDAUdHR2xsbPj666/597//zfDhw6lZsyZ///vf8fX1LbQsb29vUlJSzOX+5z//YePGjeb5arXaPF8IIcSDlfuh/r0h52CrJqS5DwpF+YTbg3h4eKBSqUhIwxuq+wAAIABJREFUSDAP2aWmppKYmEizZs0eulwXFxesra2Jj4/H29v7vvleXl44Ojqae2z3ysjIAGD+/PkYjUaOHDnCjBkz+PHHH3F0dLyvrNjYWKpVqwbk99Cee+45Ro8efd9yERERD/16hBCiqqiQO5n8dCqW5bsiGdfLH1d7qwoPNwArKyv69+/Pl19+SVZWFpmZmXz00Uds37692HXt7e0BSEhIuK9Xp1QqCQkJYeXKlSQnJxMfH8/mzZvN81u3bo2rqyvLli1Do9GQkZHBsmXLOH/+PCkpKbz00kuEhYWhUCjw8PDAZDIVGF794YcfyM7O5vr163z//feEhIQAMGTIENatW0dkZCRGo5Hw8HAWLVpUqvfEzs6O5ORkNBpNqdYTQghLUCEB5+5gzaA2fiT9f3t3HtfUlbcB/EkCYRERZRFpxQW10/ZVqFLjwiYgCOICigvWjtZqbV3Hpe6tVrGVcRvfjlutba1Ip9KxrnUBZ2yrRY3W4ugrVlFQEAQEZBFCkvP+Qc2I7AQE4vP9fGY+E+695/7uuZk83pOTe3OL0MbCBIGvVTwkV9/ef/99tG3bFiEhIQgJCYG9vT1mzZpV7XbW1tYICAjApEmTKgzE+fPnw8rKCiNHjsSsWbPKDFfK5XJ8+umnSE5ORkBAAIKDg5Gfn4+uXbvCyckJy5cvxyeffAJ3d3csWbIES5cuhaOjo257IQRGjx6NSZMmwcPDA2PHjgUADB06FBMmTMCiRYvg4eGBdevWwcPDo1b9ERQUhMuXLyM0NLRW2xERGQJJXFycUCgUddrYdcnRcn9r88SEkqk7zsHrlbZYNOxV/O3oNez++XaF7SjDy89cbEq0Wm2Z4cc9e/bg6NGj2LVrV53bfPwzgX379qF9+/b1USYRUbMTE3OhyuW+vr1q3ebZs2ehUCjq+XdwT4XbgwJV2YknQKUh15Rt3rwZLVq0wPjx43H//n1ER0dX+HMCIiJqOuot4MzksnLh9tiTIVeo0uCf5+7U126fiaFDh2Ljxo3w9fWFqakp/P39MXHixMYui4iIqlBvASeRSPDr7Wxsi/m9wgkl/zx/B0UlGv1u7dVIHB0dsX79+npt08rKCkqlsl7bJCKi/9Ir4ARE6ZMEJEBhsRof779S5fpHLqU+3QCEpPy9FImIiPSl1yzKtpamuqcC1NofTyFoa2mqTwlEREQV0ivgNr/VG3aWJnW6ChMSATtLE2x+q7c+JRAREVVIryHKjrYtcGTBgPqqhYiIqN40yA+9iYiIGhsDjoiIDBIDjoiIDBIDjoiIDBIDjoiIDBIDjoiIDBIDjoiIDBIDjoiIDBIDjoiIDBIDjoiIDBIDjoiIDBIDjoiIDJJeN1tWqVRQKpVITU1FSUlJfdVE1GQZGxvDwcEBrq6ukMvljV0OEVVBr4BTKpWwsbGBQqGATCarr5qImiyNRoObN29CqVSiX79+jV0OUbMnkQCikieuSST6ta3XEGVqaiqcnJwYbvTckMlkcHJyQmpqavUrE1G1rK1b1WlZTegVcCUlJQw3eu7IZDIOyRPVk1de6QAbm1ZlrtYkEsDGphVeeaWDXm3rNURJRESkD7ncGC4uXRqkbc6iJCIig8SAIyIig8SAIyIig8SAIyIig8SAIyIig8SAIyIig8SAqwcRERFYtmxZY5dBRERPaLCAu3PnDlxdXXX/6du3L0JCQvDVV19BVHJfloSEBAQEBKCoqEivfUdGRiIxMVGvNoiIqHlr8B96f//992jXrh1KSkpw9epVLFy4EHK5HGPHji2znhACnTp1Qnh4OExNTfXaZ2RkJOzt7dG5c2e92qHmr6SkBCqVCi1atKh23by8PLRs2fIZVEVEz0KDD1FKpVLIZDKYmpqiZ8+e8PHxwcWLF5GTkwNXV1esWrUK3t7eOH78OBISEjBlyhQAQHh4OD744ANdOykpKejduzeysrKQm5uLJUuWwNfXF76+vvj444+h0WiQmJgIPz8/ZGZmYtWqVYiIiEBERAQ+/PBDXTsfffQR5s2bp3u9YcMG3fLK2gVKA3j79u3w9/eHh4cHZsyYUeZ+hHl5eVi8eDG8vLwQHByMc+fO6ZalpaVh1qxZcHd3R0hICA4dOtQwnU3lHDlyBJ999hkyMjKqXC8mJgabNm1Cbm7uM6qMiBraM/sOTq1W49q1a/j555/xyiuv6P5ubm6OAwcOwNfXt8z6gwcPxqlTp6BSqQCUfgD16dMH1tbWCA8PhxAChw8fxu7du3Hq1Cns27cPnTt3xvHjx2FjY4OlS5fi/fffh7u7uy5stFotfv75Z5w/f143DHr+/Hm4ubkBQKXtAqUflNHR0fjss88QGxuLzp07Y8GCBbp6L1y4gGHDhuHYsWPw8PDAJ598otvnjBkz8OKLLyI2NhYrVqzAJ598guvXrzdQT9OTFAoFNBoNdu/ejfv371e4zokTJ3D27Fl0794dlpaWz7hCImooDT5EOXTo0NIdGRnBzs4OgwYNwptvvom8vDwAQGhoKCwsLMpt5+LiAisrK8TFxcHDwwOxsbEICwsDAEyfPh1t2rSBiYkJ7O3t0bNnT9y6davC/ffq1Qv5+flITExETk4OOnToALlcjri4ON12ffv2rbbd/fv3Y+zYsXB0dAQATJkyBdHR0borPC8vLygUCgDAgAEDEBUVBa1WiwsXLiAlJQUzZ86EXC5H9+7d4ebmhpiYGHTr1q2+upkqYW9vj3HjxiEyMhKRkZEYN24c7OzsdMuPHz+O8+fPo0ePHggKCoJE3+dzEFGT0eABd+DAATg4ONRp28GDB+PEiRPo0qULbt++DS8vL92yjz/+GDdu3IBarUZmZiYGDx5cYRtyuRy9e/fGuXPnkJKSggEDBsDU1BT//ve/odVq0aNHjzIBW1m7aWlpeOGFF3TrtWjRAn/+858r3KdMJoNWq4UQAunp6VCr1fD399ct12g0FYY6NQx7e3uEhYVhz5492L17N8aNG4e2bdvi2LFjUCqVDDciA9WknyYQGBiIcePGoVOnTvD29tZNPpk9ezaGDx+OlStXQiqVVjtF383NDT/99BNu3LiBrVu3wtTUFFu3boVcLtcNT1bXrr29Pe7du6d7rVKpcOnSJbi6ula5bzs7O1hYWCAmJgZSKX+V0VjatWunC7nIyEh06tQJV69ehbOzMwYPHsxwIzJATfoT98UXX4STkxN27tyJwMBAAKWTPbKzs6HValFYWIiLFy/i4sWLUKvVuu3MzMyQlpame2aXm5sbTp8+jZYtW8LBwQFt2rRBx44dcejQIbi7u9eo3SFDhiAqKgp3796FWq3Gl19+iXXr1lUbWo+HWjdt2oTi4mLk5uZi06ZNiI+Pb4guoyo8DjkhBMON6DnQpAMOAIKCgmBpaam7UpJIJFixYgUOHDiAwMBA7Nq1C56enmV+Ozd69Ghs27YN4eHhAABbW1t06dIF3t7eunW8vb1ha2uLjh071qjdoKAghIWFYdq0afDx8cGVK1ewYcOGauuXy+X49NNPkZycjICAAAQHByM/Px9du3atry6iWmjXrh3eeOMN+Pr6MtyIDJwkLi5OPJ4cUVtRUVHlfs9G9Dzge5+o6Tp79iwUCkXTv4IjIiKqCwYcEREZJAYcEREZJAYcEREZJAYcEREZJAYcEREZJAYcEREZJAYcEREZJL0CztjYWHc3faLnhUajgbGxcWOXQUTV0CvgHBwccPPmTYYcPTc0Gg1u3rxZ5ydkENGzo9fTBFxdXaFUKhEfH6+7sTGRITM2NoaDg0O1T5EgosanV8DJ5XL069evvmohIiKqN5xkQkREBokBR0REBokBR0REBokBR0REBokBR0REBokBR0REBokBR0REBokBR0REBokBR0REBokBR0REBokBR0REBokBR0REBokBR0REBkmvpwmoVCoolUqkpqbycTlERFShJx8zJZfLn9l+9Qo4pVIJGxsbKBQKyGSy+qqJiIgMyOMHBSuVymf6iDW9hihTU1Ph5OTEcCMiokrJZDI4OTkhNTX1me5Xr4ArKSlhuBERUbVkMtkz/yqLk0yIiMggMeCIiMggMeCIiMggMeCIiMggMeCIiMggMeCIiMggNVjAxcbGIjAwsKGabzKqO85+/frhwoULeu0jIiICy5Yt06uNxlJd/8yYMQPbt29/hhUR0fOiyV3B7d27FzNnzqzTtnfu3MG8efPg5eUFd3d3jB8/HidPnqznCpuekydP4vTp041awwcffICdO3cCAMaNG1enfn/48CG2b9+OoqKi+i6PiJ5Det2qqyH4+PjA2dm51tsVFRVh6tSpUCgU+Oabb9CqVSucPn0aH3zwASwsLNC7d+8GqLZp+Ne//oWWLVuif//+jVbDxIkT0aJFCwDAokWL0KFDh1q3kZubi+3bt2PUqFEwNTWt7xKJqIYKCgpgYmICI6OqI0Kj0UClUsHMzOwZVVY7z+QKTq1WY9asWXjvvfegUqmgUqkQEREBb29vBAQEYOPGjdBoNACAAwcOYO3atQBKh7eGDh2K9evXY8yYMfD390dkZGSF+9i/fz+kUimWLFkCe3t7mJmZwdfXF6tWrSqz3t69ezFkyBB4e3tj7ty5yM7O1i3btWsXAgMD4eHhgXfeeQe3b9/WLTt58iRGjBiB/v37IywsDOfOndMt02q12LZtGwYNGgRfX99Ka6zquIUQ2L59O/z9/eHh4YEZM2aUua1NXl4eFi9eDC8vLwQHB+v2HxISgtjYWBw4cADjxo2rcL8nTpxAcHAwvL29sXz5cowfPx4HDx6ssqaTJ08iKChI18aRI0fg4+MDrVYLAPjxxx91y7VaLY4dO4YJEybA09MT27dvx6NHj2rVP/v27cPEiRMBAKNGjcLRo0crPBYianiff/45du/ejeLi4krXKSkpwZ49e/D5558/w8pqp8EDTqvVYvHixcjLy8O6desgl8vx17/+FQkJCYiOjsbXX3+NM2fOYO/evRVuf+/ePfzP//wPvvnmG/z1r3/F3/72N9y/f7/cetevX0ePHj3K3TrMy8tLd/V29OhRbN++HevWrcORI0dgbm6O1atXAwDOnz+PHTt2YOvWrYiNjUXHjh3x4YcfAigd+ly6dClmzZqFn376CZMmTcK8efOQlZUFAMjMzISZmRn279+PxYsXV1pjVcd95MgRREdH47PPPkNsbCw6d+6MBQsW6La9cOEChg0bhmPHjsHDwwOffPIJAOCf//wnfHx8MHTo0AqDIzk5GUuXLsWUKVNw5MgR9O/fH9evX6+2pj59+iArKwvJyckASq8SHz16hF9//RVA6Y223dzcAADR0dGIiYnBrl27cPToUWi1WmzYsEG3j5r0T3BwML744gsAwLfffotBgwaVOxYiejY8PT2RkpKCPXv2VBhyKpUKUVFRSE5ObtSRo+o0eMCtWrUKd+/exaZNm2BmZgaVSoVDhw7h3XffRZs2bWBjY4PQ0FCcOHGiwu1tbW3h5+cHAOjRowekUinu3r1bbr0HDx6gVatWutfjx4+Hq6srXF1d8f777wMAvvvuO4wcORLdunWDqakpJk6ciFOnTqGkpATGxsbQarVISkqCEAJz5szBmjVrAJSGT8+ePeHh4QGpVAofHx/MmjVL912RnZ0d3nzzTZiYmGDAgAEV1ljdce/fvx9jx46Fo6MjjI2NMWXKFPj6+uqu8Ly8vKBQKHT7uHv3ru5qqioxMTFwdnZGQEAATE1NMXDgQLz44ovV1mRubo7XXnsNZ8+eRXFxMS5evIhx48bh3//+N4DSfxA8DjgvLy9s2bIFNjY2MDMzw4ABA3Dr1i1dDTXpHyJqOpydnTF48GCkpqaWC7nH4Xbnzh0MHjwYr732WiNWWrUG/Q7u/v37iImJgY2NDaTS0izNyspCSUkJ5s6dC4lEAqD0Ks/GxqZGbUqlUqjV6nJ/Nzc3111RAcDXX38NAFi9ejVycnIAAOnp6fj6668RFRWlW8/IyAiZmZlwcXHBqlWrEBUVhQ8//BA9e/bEe++9p9vOwcGhzP5GjBgBALh27VqZv0skkgprrO6409LS8MILL+jWb9GiBf785z9X2AcymQxarRZCiMq6SScjI0MXaE+rriY3NzecO3cOtra2cHZ2RlBQEGbMmIFJkybhzp07eP311wEAFhYW2LZtG86dOweVSoX8/Pwy/9ioSf8QUdPi4uICADh8+DAiIyMRFhYGiUSCqKgopKSkYPDgwbp1mqoGDbgWLVogOjoaixcvxqpVq7B69WpYW1tDKpVi+/bteOmll+ptXz169MDnn3+OoqKiSico2NraYsyYMQgLCyu3LDU1FV27dsXmzZuhUqmwY8cOzJo1CwcPHkTbtm1x5cqVMuvHx8fD0dGxxvVVd9z29va4d++e7rVKpcKlS5fg6upa431UxNbWFufPn69TTW5ubvjss89gamoKb29vdOjQAaamptizZw9cXV1hYmICANiwYQNyc3Px+eefw9zcHN9//z327NmjV91E1PieDjmpVIrU1NRmEW5AAw9RtmjRAra2tli9ejWUSiWio6Mhl8t1kxmysrJQXFyM/fv3Izo6Wq99DRkyBC1btsTChQtx+/ZtlJSU4MaNG7h8+TIsLS0BAMOGDcPu3buRkJAArVaLCxcuICIiAgBw5swZTJs2DSkpKTAyMoKVlZVueDAgIABKpRI///wztFotzpw5gxkzZlT5BezTqjvuIUOGICoqCnfv3oVarcaXX36JdevW6a58q2JmZoaMjIwK6/H19cWlS5dw/PhxFBQU4PDhw7hz506NanJ0dETr1q0RGxsLDw8PAKWzXHfv3g13d3fdPh48eACtVguVSoWkpCQcO3ZM13e1YW5uDqD0e1de4RE1DS4uLggMDERaWhpSU1MRFBTULMINeEazKG1tbbFq1Sps3LgR165dw4IFC9C5c2e88cYbGDhwIGJiYtCnTx+99mFubo4dO3agTZs2mDx5Mjw8PDB79mwoFArMmzcPADB06FBMmDABixYtgoeHB9atW6f74A4JCYGfnx8mT54MT09PHDt2TDeRw9HREWvXrsXmzZvh5eWFv//971i7di3atm1bqxqrOu6goCCEhYVh2rRp8PHxwZUrV8pM1KhKUFAQLl++jNDQ0HLLHB0dsXLlSmzZsgVBQUE4f/487OzsalQTUHoV5+LiovtHgre3N1Qqle77NwCYOXMmHjx4gKCgICxduhSurq6QSqW1Djlra2sEBARg0qRJOHz4cK22JaKG89prr2HEiBEYOXJknX7G1VgkcXFxQqFQ1GnjqKgojB07tp5Lovqm1Wp1V4JCCPj4+OCjjz4qE1JERA3tWWXG2bNnoVAomt6dTKh+ZWdn46233kJSUhI0Gg127doFAOjevXsjV0ZE1LCa3J1MqH61bt0afn5+mD17NrKystC5c2ds3Lix0lmORESGggH3HAgLC6tw5igRkSHjECURERkkBhwRERkkBhwRERkkBhwRERkkBhwRERkkvQLO2Ni4TrdkIiKi54tGo4GxsfEz3adeAefg4ICbN28y5IiIqFIajQY3b94s91SWhqbX7+BcXV2hVCoRHx+PkpKS+qqJiIgMiLGxMRwcHPR+Okpt6RVwcrkc/fr1q69aiIiI6g0nmRARkUFiwBERkUFiwBERkUFiwBERkUFiwBERkUFiwBERkUFiwBERkUFiwBERkUFiwBERkUFiwBERkUFiwBERkUFiwBERkUFiwBERkUFiwBERkUHS63E5KpUKSqUSqamptX4e3JPPB5LL5fqUQUREVI5eAadUKmFjYwOFQgGZTFarbR8/4VWpVFb5TLmIiAjk5eVh5cqV+pRKBiwnJwe+vr7Yt28f2rdv39jl6M3Qjoeoseg1RJmamgonJ6dahxsAyGQyODk5ITU1VZ8SqnTt2jXs3bu3wmVarRZBQUH49ddf69T2oUOHMGrUKPTt2xeBgYHYtGkTVCqVPuXWib7H8djDhw+xfft2FBUVAQASEhIQEBCge90YFi1ahK+++qpB97F3717MnDlT9zoyMhKJiYkNus+G9PR5O3nyJE6fPl2jbZ9+DxA1d3oFXElJSZ3C7TGZTFbroc3aqCrgpFIpVq5ciZdffrnW7e7duxfr16/H22+/jYMHD2L16tU4c+YMli1bVuH6Wq221vuoKX2O40m5ubllPtw6deqE8PBwmJqa1keZdfL2228jICCgQffh4+OD6dOn615HRkbi1q1bDbrPquj7Xnn6vP3rX/+qccA9/R4gau6axSSTvLw8LF68GF5eXggODsa5c+d0y65fv44pU6bA09MTQ4YMQXR0NABgxYoV2LBhA5KSkuDn51fhleK0adNw5coVAMCoUaOwdu1aTJ48GYGBgZg0aRLS0tLKbaPVarFt2zbMmDEDfn5+sLGxgYuLC1avXo2TJ0/i999/17W3ePFiBAUF4ZNPPgEAnDhxAsHBwfD29sby5csxfvx4HDx4EEDph8uSJUvg6+sLX19ffPzxx9BoNABKh2nnzJmD+fPnIzg4uFwfPHkcycnJePfdd+Hh4YHAwEDs3Lmz2r7at28fJk6cqKv76NGjSEhIwJQpU3Tb3r9/H3PmzIG3tzeGDBmC7du36+qLjY3F0KFDsX79eowZMwb+/v6IjIzUbVtVTWlpaZg1axbc3d0REhKCQ4cO6ZZt3LgR33//fY36ACj9MB8xYgQ8PDywbNkyXX0qlQoRERHw9vZGQEAANm7cqFt24MABrF27FomJifDz80NmZiZWrVqFiIiICs/95s2b4efnh8DAQHzxxRd4/fXXde+tqo6lsr5/fGxTpkzBm2++idGjR+v+vn//fgwdOhQ+Pj5YvXp1mRGCvXv3YsiQIfD29sbcuXORnZ0NAGXOW0hICGJjY3HgwAGMGzeuyr6o6D1A1OzFxcWJutqzZ0+dt61pG2vWrBFubm4iLi5OFBUVifXr14vg4GAhhBBqtVr4+fmJqKgoodFoRFxcnHB1dRU3b94UQgixb98+ERoaWmnbffv2FUqlUgghRGhoqJgwYYIoKCgQGo1GzJw5U4SHh5fb5tatW6JXr14iNTW13LKAgADx3Xff6dqbPHmySE9PFyUlJSIpKUn07t1bHDlyRDx69EgcP35c9O7dWxw4cEAIIcT8+fPFokWLRFFRkbh3757w9/cXe/fu1fWBt7e3SExMFEIIsXPnTl0fPH0cb7/9tlizZo1Qq9Xi999/F56enuL06dPV9lVycrLo1auXyM7OFkIIER8fL3r16iWEEEKj0YgxY8aINWvWiIKCApGcnCxGjBghtm/fLoQQIiYmRri6uopjx44JIYT47bffxOuvvy7S09OrrEmj0YiRI0eKiIgIUVxcLOLj40X//v1FQkKCEEKI6dOni23btlXbB9nZ2aJXr15iwYIFIjc3VyQlJYkBAwaIo0ePCiGEWLVqlXjrrbdEVlaWyMjIEKGhoSIqKkoIIcQXX3whJk+eXOYcxsTEVPh+2bdvnxg4cKD4z3/+IwoKCsTGjRtFr169REpKSpXHUl3fr1mzRgwcOFBcvXpVFBcX645nxYoVIi8vTyQmJoqhQ4eKHTt2CCGE+OGHH4Svr69ISEgQjx49EkuXLhXz5s0rd96EEGLp0qVizZo1utdV9cXT7wGi5upxrjWLKzgvLy8oFAqYmJhgwIABuHv3LrRaLYQQ2Lx5M0JDQyGVSqFQKNC6dWvcvn27TvsZNmwYzM3NIZVK4ezsjKSkpHLr5OfnAwDatGlTblmbNm2Ql5enex0YGAg7OzsYGRkhJiYGzs7OCAgIgKmpKQYOHIgXX3xRt+706dOxePFimJiYwN7eHj179iwzVNavXz906tQJANCrVy9dHzzN2NgY2dnZSE9PR5cuXRAdHQ1nZ2e9+uq3335DSkoKZs+eDXNzc7Rv3x5Tp04tM/xra2sLPz8/AECPHj0glUpx9+7dKmu6cOECUlJSMHPmTMjlcnTv3h1ubm6IiYmpsI7q+mDatGmwtLSEo6Mj/vSnPyEpKQkqlQqHDh3Cu+++izZt2sDGxgahoaE4ceJEtcf9tOPHj2PkyJF49dVXYW5ujjfeeEO3rKpjqUnfKxQKvPzyy2VmFE+cOBEWFhbo1KkTxo4di9jYWADAd999h5EjR6Jbt24wNTXFxIkTcerUqWqH++uzL4iaA71mUTYGmUymCzcjIyNkZGRg/fr1uH//PrRaLXJzcyGE0Hs/UqkUarW63N9btGgBAHjw4AHatWtXZtmDBw90y5+WkZFRJtAq8vHHH+PGjRtQq9XIzMzE4MGDK1xPIpHo+uBp4eHh+OKLLzB16lQYGRlh+PDhGD9+PCQSSZ376t69e2jbtm2ZD98OHTrgwYMHKC4urnCbJ/uvsprS09OhVqvh7++v206j0cDCwqLamqrqA6D0faJWq5GVlYWSkhLMnTsXEokEQOlQo42NTbX7eFpmZmal57CqY6mP96mDgwMyMzN1+/r6668RFRWlW25kZKRbXpn67Aui5qDZBdyT0tLS8Je//AVbt26Fs7MzgNKrpobUoUMHtGrVCnFxcQgODtb9PSkpCRkZGejevXuF29na2uL8+fOVtjt79mwMHz4cK1euhFQqrXTCSlXUajXu3r2LGTNmYM6cOUhMTMT06dPRunVrvP7663XuK3t7e6Snp0OlUulC7s6dO2jTpg1MTEzqXFPbtm1hYWGBmJgYSKUNM5hgbW0NqVSK7du346WXXtKrLVtb20pn/drZ2VV6LPXxPr13754uiGxtbTFmzBiEhYWVW6+qkKvPviBqDprFEGVlHj58CI1GA7Vajby8PBw6dAhZWVm6CQTm5uZ4+PAh8vPz620mo1QqxdSpU/G///u/iImJQU5ODq5cuYIlS5bAw8Oj0g8OX19fXLp0CcePH0dBQQEOHz6MO3fuAACEEMjOzoZWq0VhYSEuXryIixcvVnj8sbsTAAAa6klEQVQFWV1t8+fPR2RkJNRqNVq1agVTU1Notdoa9RVQ+kH69H5dXFzQrl07/O1vf0NhYSFSUlKwbds2jBw5Uq+aXFxcYGVlhU2bNqG4uBi5ubnYtGkT4uPja3XcVZHL5brJFFlZWSguLsb+/fvLTPJ4kpmZGdLS0ioc7vP390d0dDSuXbuGnJwcfPnll7plVR1LdX1fmR07diA/Px+3bt3Cnj17dFeHw4YNw+7du5GQkACtVosLFy5UOCnm8fFkZGSguLi42r6o6j1A1Bw164Dr1q0b3nnnHSxcuBAhISG4evUqFAoFcnJyAAB9+vRBmzZtMGjQICQnJ9fbfkNDQzFnzhxs374dgwYNwrx58+Dq6oqPP/640m0cHR2xcuVKbNmyBUFBQTh//jzs7OwAlA63rVixAgcOHEBgYCB27doFT0/PWk/Xlkql2LhxI37++Wd4e3tj7NixcHNzw5AhQ6rtK2trawQEBGDSpEk4fPhwuXY3bdqEe/fuISgoSDcbcNKkSXrVJJfL8emnnyI5ORkBAQEIDg5Gfn4+unbtWqvjrs6CBQvQuXNnvPHGGxg4cCBiYmLQp0+fCtcdPXo0tm3bhvDw8HLLgoKCMHToUMycORNjx44t8xOZqo6lur6vTJcuXRAWFoZJkyahX79+uiu2oUOHYsKECVi0aBE8PDywbt06eHh4VNhGUFAQLl++jNDQ0Gr7oqr3AFFzJImLixMKhaJOG0dFRWHs2LF6FVAfbTQXWq1WN3wlhICPjw8++ugjuLm5NXJlVFNPnsPr169j3LhxOHXqlO7qh4ga39mzZ6FQKJr3FVxzkp2djbfeegtJSUnQaDTYtWsXAFT6nR01Pb/88gsWLlyIhw8forCwEJ999hlee+01hhtRE9WsJ5k0J61bt4afnx9mz56NrKwsdO7cGRs3bkSrVq0auzSqIRcXF5w6dQqhoaEoKSlBr169sGrVqsYui4gqwYB7hsLCwiqc+UbNg5mZGRYuXIiFCxc2dilEVAN6DVEaGxtXOxOsKhqNBsbGxvqUQEREVCG9As7BwQE3b96sU8g9flyOg4ODPiUQERFVSK8hSldXVyiVSsTHx+v1wFMiIqL6plfAyeXyKh9WSkRE1Fj4MwEiIjJIDDgiIjJIDDgiIjJIDDgiIjJIDDgiIjJIDDgiIjJIDDgiIjJIDDgiIjJIDDgiIjJIDDgiIjJIDDgiIjJIDDgiIjJIDDgiIjJIDDgiIjJIej0uR6VSQalUIjU1Va/nwcnlcn3KICIiKkevgFMqlbCxsYFCoYBMJqvVto+f6K1UKqt8plxERATy8vKwcuVKfUp9Lq1evRoqlQrLly9/bvtx1KhRCAsLw/Dhwxu7lEbxvJ53IkDPIcrU1FQ4OTnVOtwAQCaTwcnJCampqfqUUKVr165h7969FS7TarUICgrCr7/+Wqe2v/nmG4SEhKBv374IDAzEypUrkZOTo0+5TdLT/VRVn9ZGQkICAgICUFRUpHdN+oiMjERiYqLe7Rgafc87+5WaAr0CrqSkpE7h9phMJqv10GZtVPV/SqlUipUrV+Lll1+udbvffvstdu7ciXnz5uHkyZPYsWMHsrKyMH/+fH1LbnKe7qf6CrhOnTohPDwcpqamtdpOq9Xqde6eFhkZiVu3bundTlMjhNBre33Pu6H2KzUvzWKSSV5eHhYvXgwvLy8EBwfj3LlzumXXr1/HlClT4OnpiSFDhiA6OhoAsGLFCmzYsAFJSUnw8/Or8Epx2rRpuHLlCoDSoay1a9di8uTJCAwMxKRJk5CWllZuGyEEtm3bhvfeew/9+vWDmZkZHBwc8MEHH8DDw0N3RZKWloZZs2bB3d0dISEhOHTokK6N5ORkvPvuu/Dw8EBgYCB27typWzZixAgcOXJE9/rzzz/He++9B6B0uGnOnDmYP38+goODy/XFzZs3MXHiRHh4eOCdd94pd8xV9WNV9T7up8r6dNeuXQgMDNTt9/bt27ptL1y4gHHjxsHd3R1vvvkm/u///g9A6RXclClTAAA5OTlwdXXFzp07MX78ePj5+WHZsmXQaDS6454yZQrefPNNjB49uty5y8/Px5IlS+Dp6YmBAwdi9erVKC4u1tWQmJiISZMmwd3dXXdeExMT4efnh8zMTKxatQoRERF69/+NGzcwYcIEXT8sW7YMy5cvL/ceAoATJ04gODgY3t7eWL58OcaPH4+DBw/qlu/duxdDhgyBt7c35s6di+zsbAClAb9161YEBgbC09MTM2fOxP379wEAsbGxGDRoEBYsWID+/fsjMzMTAJCVlYVZs2bBw8MDY8aMwcWLF+vlvFd0bivrV6JGERcXJ+pqz549dd62pm2sWbNGuLm5ibi4OFFUVCTWr18vgoODhRBCqNVq4efnJ6KiooRGoxFxcXHC1dVV3Lx5UwghxL59+0RoaGilbfft21colUohhBChoaFiwoQJoqCgQGg0GjFz5kwRHh5ebpv09HTRq1cvkZSUVGm7Go1GjBw5UkRERIji4mIRHx8v+vfvLxISEoQQQrz99ttizZo1Qq1Wi99//114enqK06dPCyGECAkJEYcPH9a1tWPHDvHuu+/q+sLb21skJiYKIYTYuXOnri9KSkrEkCFDREREhMjNzRXx8fFi0KBB4sMPP6y2H6ur98l+erpPz507J9zd3UVSUpJQqVRi9erV4s033xRCCJGcnCz69+8vjh07JlQqlfjHP/4h/P39dfvo1auXEEKI7Oxs0atXLxERESE0Go3Izc0Vfn5+4ujRo7raBw4cKK5evSqKi4vL1bRixQoxdepU8fDhQ5GTkyMmT54sNmzYoDuvI0aMEMnJySI3N1e8/fbbZc5rQECAiImJ0b2uj/5/+PChSEhIKNP/T0pKShK9e/cWR44cEY8ePRLHjx8XvXv3FgcOHBBCCPHDDz8IX19fkZCQIB49eiSWLl0q5s2bJ4QQ4h//+IcYMWKEyMjIEIWFhWLatGli4cKFQgghYmJihKurqzh69KgoLCwUWq1WrFmzRnh5eYlLly6JgoICsWPHDjFgwADd+7yu572qc1tRvxI9S49zrVlcwXl5eUGhUMDExAQDBgzA3bt3odVqIYTA5s2bERoaCqlUCoVCgdatW5e5gqiNYcOGwdzcHFKpFM7OzkhKSiq3TlZWFgDA0tISAPDTTz/B1dVV95+bN2/iwoULSElJwcyZMyGXy9G9e3e4ubkhJiYGQOkM0uzsbKSnp6NLly6Ijo6Gs7NzjWrs168fOnXqBADo1auXri/i4+ORlZWFmTNnwtLSEt27d4e7u3uN+rG6eqtibGwMrVaLpKQkCCEwZ84crFmzBgBw+PBhvPLKK/Dz84OxsTFCQ0Oh1Wpx6dKlCtsaM2YMpFIpLC0t0aVLlzL9r1Ao8PLLL5ebcatWq3H48GG8++67aNmyJVq1aoUFCxaga9euunXeeOMNtG/fHpaWlujTp0+F57WmKuv/K1eu6Pq/ZcuW6NatW7n+fywmJgbOzs4ICAiAqakpBg4ciBdffFG3/LvvvsPIkSPRrVs3mJqaYuLEiTh16hRKSkrg5eWFLVu2wMbGBmZmZhgwYECZoUBbW1v4+/vDzMwMEokEAODm5gZnZ2eYm5tj4sSJkEqlOHfunF7nvbbnlqgx6DWLsjHIZDJduBkZGSEjIwPr16/H/fv3odVqkZubq/f3D0DpdxBqtbrc31u0aAEAePDgAaysrODu7g6lUomsrCz4+/sDANLT06FWq3WvgdJZoxYWFgCA8PBwfPHFF5g6dSqMjIwwfPhwjB8/vtY1SiQSXV9kZGTAxsYGJiYmNdr2yX6srt6quLi4YNWqVYiKisKHH36Inj176ob00tPTcfnyZXh5eenWLykpQWZmJtq3b19lu5X1/9MyMzOh0Wjwwgsv6P7m5OQEJyenCteXyWQ1arcm6tr/GRkZZQLtaenp6fj6668RFRWl+5uRkREyMzPRqlUrbNu2DefOnYNKpUJ+fj5atWpV45qlUins7e2RmZmJ/Pz8Op/3qs4tUVPR7ALuSWlpafjLX/6CrVu36q6AAgMDG3SfL774Ilq3bo1ffvkFnTt3rnAdOzs7WFhYICYmBlJp2YtktVqNu3fvYsaMGZgzZw4SExMxffp0tG7dGkOGDIGxsbHuu6fasLW1RVZWFlQqVa1/V1hVvdVJTU1F165dsXnzZqhUKuzYsQOzZs3CwYMHYWtri759+2L9+vXltrt8+XKt9lMZa2tryGQy3Lt3D9bW1gBKr7LT0tLw6quv1rq9uva/nZ1djfvf1tYW58+fr3L5mDFjEBYWVm5ZeHg4cnNz8fnnn8Pc3Bzff/899uzZU+M6tVot0tPTYWtrCzMzszqf96rOLVFT0SyGKCvz8OFDaDQaqNVq5OXl4dChQ8jKytJ9QJmbm+Phw4fIz8+HVqutl31KpVJMmzYN27Ztw5EjR5Cfn4/8/Hz88MMPkMlkMDc3h4uLC6ysrLBp0yYUFxcjNzcXmzZtQnx8PKRSKebPn4/IyEio1Wq0atUKpqamuvo6duyIH3/8EQUFBUhISCjzpX9VevToAWtra2zevBl5eXmIj4/Hjz/+WKNtq6r3aU/36ZkzZzBt2jSkpKTAyMgIVlZWuv4PDAzEuXPnEBMTA61Wi+TkZHz00Uf1+nMKY2NjBAQEYMuWLcjPz8fDhw+xcuVKHD58uEbbm5mZIS0tTTebt679/+qrr5br/1OnTlW4rq+vLy5duoTjx4+joKAAhw8fxp07d3TLhw0bht27dyMhIUE3hPx4ssaDBw+g1WqhUqmQlJSEY8eOVRvIP/30E3799VcUFhZi586dEELg9ddf1+u8V3dun+5XosbQrAOuW7dueOedd7Bw4UKEhITg6tWrUCgUuv+T9enTB23atMGgQYOQnJxcb/sdPnw4PvjgA+zZswcDBw7E4MGD8eOPP+Lvf/872rVrB7lcjk8//RTJyckICAhAcHAw8vPz0bVrV0ilUmzcuBE///wzvL29MXbsWLi5uWHIkCEAgPfeew8ZGRnw9/fHypUr8corr9SoJiMjI2zYsAG//fYbBg8ejE8//RQuLi412raqep/2dJ+GhITAz88PkydPhqenJ44dO4ZPPvkEQGlYbNiwAbt27YKXlxfee+89dOnSBVZWVjXs6Zp5//330bZtW4SEhCAkJAT29vaYNWtWjbYdPXo0tm3bhvDwcAB173+ZTIb169fj0qVLGDx4MP7+979X2H8A4OjoiJUrV2LLli0ICgrC+fPnYWdnp1s+dOhQTJgwAYsWLYKHhwfWrVsHDw8PAMDMmTPx4MEDBAUFYenSpXB1dYVUKq0y5Pr27YuvvvoKgwYNQmxsLNavXw9zc3O9znt15/bpfiVqDJK4uDihUCjqtHFUVBTGjh2rVwH10QZRU/D4N3qPzZ07F46OjhWG7ZPrCiHg4+ODjz76CG5ubs+sXiJDdfbsWSgUiuZ9BUfUlEyfPh2nT5+GEALnz5/HL7/8gv79+5dbLzs7G2+99RaSkpKg0Wiwa9cuAED37t2fdclEBq1ZTzIhakrGjx+PLVu2YOHChbC1tcXChQvh6upabr3WrVvDz88Ps2fPRlZWFjp37oyNGzfWajYkEVWPAUdUT/r27Yu+ffvWaN2wsLAKZ0kSUf3Ra4iyrlOqH9NoNDA2NtanBCIiogrpFXAODg64efNmnULu8eNyHBwc9CmBiIioQnoNUbq6ukKpVCI+Pl6vB54SERHVN70CTi6XV/mwUiIiosbCnwkQEZFBYsAREZFBYsAREZFBYsAREZFBYsAREZFBYsAREZFBYsAREZFBYsAREZFBYsAREZFBYsAREZFBYsAREZFBYsAREZFB0utmyyqVCkqlEqmpqbV+mgARET0fnnx6jFwuf2b71SvglEolbGxsoFAoIJPJ6qsmIiIyII+f/6lUKp/pE2j0GqJMTU2Fk5MTw42IiColk8ng5OSE1NTUZ7pfvQKupKSE4UZERNWSyWTP/KssvQJu7Nix9VUHEREZuGedGZxFSUREBskIANKzixq7DiIionrFKzgiIjJIDDgiIjJIDDgiIjJIDDgiIjJIDDgiIjJIDDgiIjJIDDgiIjJIDDgiIjJIDDgiIjJItX5czp0HhVjy7W/IzC+GpCEqaiYEABsLE4SPckb7NuaNXQ4RNQEPC0sQezUNhSpNY5diUMzlMvi8Yg9Lc+NabVfrK7gl3/6GrPxiSERttzQsEgFk5Rdjybe/NXYpRNRE6MLtOf98rFcCKFRpEHs1rdab1jrgMvOLS0/e83z5BpQev/ijP4iIgP+G2/P++Vif/visrctVca0DTqL7L4KEXUFET+GHQv2rY59ykgkRERkkBhwRERkkBhwRERkkBhwRERkkBhwRERkkBhwRERmk5y/gpC0xefpAbHKVczYvERmMQBcH9OrUpkbrju7TAS+1s2zgihpfrW/VVVem3V/DyTFtIX96gVDjh8iTWPZ/2lq2KEF3v/74q81NjP3mAfqH9UNY2kWMj8kFb5JDRM2JBMDovh3we1oeLtx6UGZZ9/ZWcOnQGpGnb0MranaLlFdfaAVHmxb44bfUatf1/R97ZOYV41JSdl1Kb9KeWcAV/ecS3JY98Xs9iRFe81dgrVMGvkusZbhJAAiB68or+ECej1ytGqdj45FclMdwI6JmRwBIuPcQL7WzLBdw3exb4vq9vBqHGwAkZuQjLbeoRutevPUAxerafQb/cXORJu+ZBRyEgPaJHmn9p5ewtGcJvtjxOy4Vl17hHfcpwNRN13FVC8CoLcIX/wnZu37E2mQLTH6vDwZkp6OkfVvYXbuIUTcdcdinAFM3ZUMLIDvDCPMWu8Nv149Ye1tAYmqFMUNfxriXWqINVLh25SbWHL6DhJKyZbXu8id8OtoGl6PPIyKhGLW9jiQiqg8JqXlw7WSNtpamSH9YGk6tW8hh3dIEMf8pvQ+jtYUJ+nWzgU1LExSXaHEpKRtXU3LLtfVSO0u0tzbHwYspAIDOdhbo7WQNU2MZbmcUQCb97xc0fbraID23SBesDlZm6NvVBq3M5cguUOHnhPvIyCtGZzsL9Otmi/ScR3C0aYGoM0koVmvQp4sNuti3hEYjcCM9D+duZkErBEIVjkjJfgQbCxO0NDNCfpEasVfSkF+kbuiu1GmU7+CkVg5YPMwOSccuY3daTSNFAnuzAmza+i8MP/gAJVWuKseAoS4YL0/BvLUn4LH+Ek5ZdUWEXxuYPLFay45dsWG0HW7sVzLciKhRFarUSM4qQNd2LXV/69bOEvdyHiH3UQmkEgkCXRxw634Bvjx1Cz9euw+3l2zRukW5L37KsDKXw+dVe1xIfIA9Z24jJbsQ5iYVX9u0MjPGIBcHXErOwVc/JuJ62kP4OzvoAtFcLsOtjALs+ukWHqnU6N/NFjYtTfDtL0n45/k7aG9tjldeaKVrz87SBD/8loo9Z5KgUmvxWseafUdYX559wMksMHrEy3j51lWsVBbWYkhR4D+X7uBijhrFmqovjiWmNgj6kwZH/n0H1x4JqAtysOfQFXybooXpH/9wMW3XCWvHvYCMo0qs+k8Rw42IGt211IdwsmsJmUQCCSTo2rYlrqU81C0//GsKrqbkQkDg7oNCPFJpYGVedcA5tbVAWu4j/J6eB5Vai9/T8pD3qOJLhK7tLJHxsAg30/OgEQJX7+ZCIgHsW5kBAAqK1biRnocSjRZSqQTd2rXE+cQsPCrRoFClxtW7uXBqa1HmeEo0WgghkJb7CFa1fNyNvp7dECUAQIZXvbrjnZb38P6eNGQ20CCupIUJ2kiKEZf337+V3E9H5H0A0pYApHitd3sUlmjxmwwMNyJqEpKzCqHWatHepgU0Gi1kMgkSM/IBAFohYG5ihL5dbdHCVAYJJDA1lkFSzXRwcxMjPKwk0J5mYWKEtq1MMcGjs+5vMqkE5iYyaLRlP7DN5UaQSiTw79EOj78elEiAwuKKL1uEAKTVFVvPnmnAWXZ5CSv6AXu+SMC5R2WXCSFqdXf+qtYXBSo8EHLYWgD4Y3ha2qIlXmutxtVUANDi9x+VmJv8AjaP6oGJKeexI4XTU4iocQkhcP1eHrrat4RGK3AjLU8XLBamRhjk3A6HLqYiLbf0A3Rc/47VtllYrEY7K7Ma7b+gWI07WYU4Fn+v3LLOdhZlXheq1BACOHgxBZl5TfOxYc9siFLa0h7vB7dDRuxl7LxbPkzU2YVIt7SGZ3s5TOSm6NH7BfSsIn6rWl8UZeBwgjEGe7VHN1MJZGaWGDm8F5a7ttAFYmZ2IdISruGDX6QYF/oSetfs/BMRNahrqQ/haG2OTrYtcC31v8OTJkYySCQSSCWl/7tbO0uYy40gqeaq6EZ6PuytTOFk1xJymRTd7C1haVbxUOHvaXl4oY05OttZQCKRoJWZMTxftoOpsazcuhpt6aSSPl1sYC43gpFUij85WJb5Dq6xPaMrOAlsXnGEj5UxjAe7IW7wk8sEEv/1C8bG3sa6M5ZY+KYXxkuKcfU/D3Cnin8UaFKrWF+ocPLAr7Af+jI2vv8SLNRFuPKf3zH3WCYK0fLJVnD5X79hq6MCHw7LxsR/3MP95jD3lYgMVl5RCdJyiiA3kiLriQcqZ+UX40LiA/h2twcA3EzPx90HhTA1rvo6JbdQhZNX0tHbyRruf7JFUmYBsgtVFa6bU6jCsd/uobeTNTxftkNxiRaX7+SgqKTiEa6fEzLQ28kaIa+3h7GRBOm5Rfg5IaOOR17/JHFxcaJjN+cabzB47b8brppm6vA8r8YugYiagMgztxu7BIM2rl/HGq13+/pvUCgUz+GtuoiI6LnAgCMiIoPEgCMiIoPEgCMiIoPEgCMiIoPEgCMiIoPEgCMiIoNU64ATuv8iCHYFET2FHwr1r459WuuAs7EwaT5Pu2tIAoDkj/4gIkLp42T4+VjP/visNZeXv11YdWodcOGjnGFtYQLxbG8K3eQISenDB8NH1fwuMERk2Hxesf9vyFH9+CPcfF6xr/Wmtb4XZfs25tg1tW+td0REZOgszY0R7Nq+scugP3CSCRERGSQGHBERGSQGHBERGSQGHBERGSQGHBERGSQGHBERGSQGHBERGSSpTFb7X4cTERE1VY9zTWplZdXIpRAREdWfx7kmKSkpEbdv30ZOTg40Gk0jl0VERFQ3MpkMVlZW6NixI4yMjPD/G325taw6eUQAAAAASUVORK5CYII=;" vertex="1" parent="1">
          <mxGeometry x="512.53" y="560.26" width="212.47" height="240" as="geometry" />
        </mxCell>
        <mxCell id="NHgpnorcBEsm9mYt4aco-90" value="&lt;p style=&quot;margin: 0px ; margin-top: 4px ; text-align: center ; text-decoration: underline&quot;&gt;&lt;strong&gt;&lt;strong&gt;Buchungsanfrage erstellen&lt;/strong&gt;&lt;br&gt;&lt;/strong&gt;&lt;/p&gt;&lt;hr&gt;&lt;p style=&quot;margin: 0px ; margin-left: 8px&quot;&gt;&lt;br&gt;&lt;/p&gt;" style="verticalAlign=middle;align=center;overflow=fill;fontSize=12;fontFamily=Helvetica;html=1;rounded=1;fontStyle=1;strokeWidth=3;fillColor=#dae8fc;strokeColor=#6c8ebf;" vertex="1" parent="1">
          <mxGeometry x="70" y="530.13" width="240" height="280" as="geometry" />
        </mxCell>
        <mxCell id="NHgpnorcBEsm9mYt4aco-93" value="" style="shape=image;verticalLabelPosition=bottom;labelBackgroundColor=#ffffff;verticalAlign=top;aspect=fixed;imageAspect=0;image=data:image/png,iVBORw0KGgoAAAANSUhEUgAAAboAAAHzCAYAAABWoNghAAAABHNCSVQICAgIfAhkiAAAABl0RVh0U29mdHdhcmUAZ25vbWUtc2NyZWVuc2hvdO8Dvz4AAAAldEVYdENyZWF0aW9uIFRpbWUARG8gMDkgU2VwIDIwMjEgMTc6NDY6MjHjHBiJAAAgAElEQVR4nOzdd3hUVf7H8ffMZNJDKglJgAABEmooiYEAIUJAqSpgY3V1dZUVGzZc29pwC7gKuo+rLKg/pbhIUSkrEEA6gRB6CRDSC2mkT6b//oiZJZsOk8LwfT0Pj+aWc86dcj/3nHvnXoXZbDYjhBBC2ChlezdACCGEaE0SdEIIIWyaXc3/XMgt4/n/SyCvtAoFivZskwDMmPHt5MiSR8Lp28UNk8nE1atX0Wq1yGjzzUehUODg4ICnpydKZfXxpbyn7a++90XYHkXNObpJf9tFfqkWzCA51wH8+j507uTAf169ncLCQtRqNY6OjigU8gbdbMxmM1VVVej1ery9vQHkPe0A6ntfhO2xHMLklVZJyHUkCsD86/sCaLVa2SHexBQKBY6Ojmi1Wss0eU/bX33vi7A9lqBToJCQ62gUWIaRzWaz7BBvcgqFotYQpbynHcP/vi/C9sigtBBCCJsmQSeEEMKmSdAJIYSwaRJ0QgghbJoEnRBCCJsmQSeEEMKmSdAJIYSwaRJ0QgghbJpd04u0TKCXM1OGBrB0xyXLtDfvGchffzqDwSg/yuyoKisryc/Px8PDA3d39/ZujmimpKQkLl68iNForDXd29ubyMhI1Gp1O7VMiI7DakGnVCoY3M2DiGBvpg4N5GxmiWX63eFdSbhcyKXcci5dKbNWla1mxxvjcXO047a3tnLfiO7Mn9aff8ZdZPmu5PZuWqtISUlh3759ODo6UllZybBhwxg0aFB7N8siOzubrVu30rt3b8aMGdOidWu2LTIykr59+7ZSC9tHaWkpBw8eZPjw4bi6ulqmm0wmTp06xdmzZwkLC2vHFjZMp9OxcuVKPDw8uOeee9q7OcLGWSXoFApY8tvhBPu5UqU34e1qz5Pje1fP+/UWVr8d04tALye+2n2Zr3dfbrS8bt7ObHgxut55c5Yd5mhKUYvaFxrQieh+vhy9XNTidW1dSkoKe/fuZeTIkfTp04esrCzi4uLo168fdnb1fzxKS0tZt26d5W+VSoWrqyvBwcEMHjy4Q93WSq1W4+zsjIODAwBpaWlcvXqV4OBg3Nzc2rl1N6a0tBSlUlnvQUlRURHl5eXNLmvPnj0kJydz++2306NHjzrzN2/ejIeHB6NGjSI+Pp7c3FzuuuuuG2m+EG3GKkEX4OlMWJAnE/+8k8HdPXjmjr789rODACgVCg6+N5Enl8UTGtCJP80Y1GTQ1Sip1LMxMavWtCslVXWWUyigsVvVhQZ04slxvVnKJQm6a9SE3KhRowgODgbA09MTk8mEXq9vMOhqODg4EBwcjNFoJCMjg8TExAZ3vNfrRu9B2LVrV7p27Wr5Oy0tjeTkZLp06XLTBt2ZM2e4fPkylZWVGI1G4uPj6yxz6dIldDodFy5coH///gQGBtZ6HVoqODgYJycnAAIDA2v1IIXo6KwSdA52SjRaA1V6I0dTinh11XHLPJPZzIyP91JeZaCoXIeDXfOvfyks17L4P+frTF/+ZCRhQZ6sOZTO1GGBPP9/CeQWV/Hq9P4M7eGJwWgmPrmADzed487BAbw4JRSAJ8f1ZlA3D579OoHu3s68Mq0/g7p5UKqpDtTlvyRjMjW+Y3VxsGPepBDGhPqiUio4eLG6nlKNnm/nRhEa0In/23OZqcMCsbdTsnJ/aocc8qwJudGjR9OrVy8AjEYje/fuxd/f37JTa4yTkxORkZEApKens2PHDq5cucKgQYMwm82cOXOGpKQkNBoN3t7ejBw5Eg8PD8xmMydOnODixYtUVVXh7u5OREQE/v7+lmHKbt26UV5ejpOTkyU4S0tL2bhxIyUlJfj5+TF69GicnJwarevcuXMcOnSIYcOGUVBQQHp6OgD/+c9/GD58OIMHDyYzM5PExERKS0txdXVl6NChBAUFkZGRQVxcHEFBQWg0Gq5evYq7uztjx46lU6dOrfTONM1oNFJQUABASEhInfNzAD179iQtLY2qqioqKiowmUw3VKeTkxPHjx9n7969uLi4MHDgQMu83Nxcjhw5QnFxseXgZ9iwYSgUCjQaDYcOHSI3NxeAoKAgIiIiam3L/v37SU1NxdHRkZEjRxIQEABw070vouOy2lWX9molo0M6M7KPD8F+rowO6Wz517OzC6NDOjO8p1eLyvR0qR4Crfk3JrRzrfl3DPbnWEoRxRV6/jRzIFF9fVi64xLfx6czcZA/b9w9kH0X8ll/JAOAnWeu8NXuyzjZq/j88dsY3tOLjYlZZBZVMmd8b2bd1q3JNr07axD3RHQjMbWIPefymDwkgDfv+e+XXqGA7j4uLNuVjM5g4qnYPnT3cWnRdre2hkIuLi4OjUZDTExMs8oxm81oNBrKysrIzMwEwMfHB4Bz585x5MgRHB0dCQkJobCwkG3btmEwGDh37hzHjh3Dx8eH4cOHU1JSwo4dO9Dr9ZayMzIyUKlU+Pn5WaYVFBTQuXNnunTpQmZmJgcPHmyyrmsNHDjQUt6QIUPo3r07hYWFxMXFUVVVRb9+/TAajezatYuiov/2/HNzc+nRowc9evSgoKCAY8eOtfAVt67BgwfTt29fBg0aRFRUVIP/Ro4cCcDIkSPp3r37ddeXm5vLzp070ev1hIaGYjab2bdvHykpKRgMBsvnZsSIEfj4+HDy5EnOnj0LwM6dO0lLSyMoKAg/Pz+SkpJISEiwlF1WVobRaKRbt26Ulpayf/9+gJvyfREdl9UuRnFS2/H47cGNLuOoVrWoTE8Xe54c19vy9/rDGew9n2/5++mvjnA+uxQAN0c1mKFca2D7qVz2J+WjNZhIL6jgbGYJMyK6celKGYkpRUwKC8DX3ZE1h9L5dGsSjmoV214bx5Shgaw5lN5ge3w7ORLT349LV8p4Z+0pAHr6unJ7f79a2/a3jWcpLNPSt4sbM27rRg8fF9ILKlq07a0lNTWVvXv3MmbMGHr27AnUDrk777wTR0fHZpVVUlLCd999Z/nby8uLAQMGANXho1AoiImJsTxz7dSpU+Tm5hIUFGQZOlSr1eTk5JCenk5JSYmlrG7duhEbGwtUX4wC1b2UESNGYDab+fe//016ejomk6nRuq7l5+eHq6srV65cwd/fHw8PD/bv34/ZbCYiIoLu3bvj5+fH9u3buXz5siUUe/TowYABA9BoNFy8eLFWOzuKo0ePMnjwYDIyMnB1dcXX19dqZZ8/Xz2qMmrUKPz9/enduzcbNmzg/PnzBAQEYDAYcHBwwNHRkcjISAYOHIiTkxPFxcXk5eXRtWtXoqKiMJvN7Nmzp9Y5XA8PD6Kjq8/H5+fnU1pail6v5/z58zbxvoiOwWpBV1Kp43efH2p0mV6+rvzzsYhGl7nW5bxy7luyr8H5pZr/9gDeW3+a1+7qz1u/9q5OZxSzcOO5etfr6u0MwH0junPfiP8e6fp7ND5c19Wrer3efm4ceHdirXldPOqGg+HXYVB1C4ZrW1Nqaip79uypE3I7duxoccgBuLq6WnoNubm5nDp1iv379zN27FjKysowm82sWbOm1jrl5eX4+vpy6tQpsrOzLU93BmoNr9VcPHKtmh2kQqHA1dUVjUZDVVVVo3U1pays+irgX375pc661/Ymr62/vqHC9nbq1Cl69epFamoq3t7eVg26mtex5mcnNf8tLy/HwcGBsWPHcvToUeLi4lAqlXTr1o2oqChL8Dg7V39vFAoFY8eOBaqvuvxfSmX198RoNNrM+yI6Bqv/jq492NspCfB04qPN58kp1jAm1JfXpvfnrRkDefDT/fzvWbfcYg0A207msPpAGlAdRhqdgcbkllSvl15Qwdu/9ugUClApFeQU171IpiOpCbno6GjLVXU1IVdZWdnikAOws7OzXODQuXNnSy9KoVDg4uJCRUUFEyZMsPyWy2Qy4e7uTnx8PJcuXeK2226je/fuHDp0yDL02ZiaC1PMZjPl5eWWp0M3VldqamqjZbq4VA8rh4eHW3agJpMJZ2dn6SH8ysXFxdLbuvZ1cXV1paKiAqVSycSJEzGZTJw/f55z587h4uJCSEgIUH1utcapU6ews7OzXPzUWJ0g74uwjg4ddF6u9jx7R+3fPv2QUHeHqDeaeP7OELxc7fki7hJ6Y3XPoEJbHVzFFdVHjxMGdaG4QseW49k8NaEPtw/wo0JroEJrJHZgF1bsS+FcVmmd8mtkX9WwLymf0SGdeSwmmEtXyojo5UV+mZZXVnbc8wM1w5Vjx44lKCgI+G/IVVRUMGnSpBaHHEBVVRUJCQmYzWbLMGFNT6Jfv34cOXKEhIQEunXrRnFxMUVFRUybNg2tVgvA1atX0el05OXlNau+lJQU7O3tqaioQKPR0L17d5RKZaN1/a+a7Tx58iQGg4HQ0FCSk5M5c+aMpXeZlpbG+PHjW/x62ILLly9bLnQBCAgIIDQ0lNTUVPbt20ePHj3IyKg+5x0aGorJZGL37t24ubnVukBFrVbj4eFB586duXLlCgcOHECv13P58mX69u3bZNDJ+yKsqUMHnYezPY9E96o1Lf5SYZ3lzGaY981RXprSjyfH98aMmX0X8vlwU/XQ5cGLBew5n0dksDcjevuw5lA6c5Yd5oVJodw+wA97OxXHU4s4cLGgTtn/641/n+DpiX2JDvUlsrc3l/PK2XCk6d5Ie6k5LzJmzJh6Q+56enI1qqqqOHXqFAqFAicnJ/r06WO5om7AgAEolUqSkpI4ffo0zs7OhIaG4uDgQEREBFqtlpSUFDw8PPD39yctLY2ysrJGr/asueiguLiYwMBAy7BpY3X9r9DQUHJycizn6QYNGsTEiRNJTEwkKSkJlUpFUFAQnp6edc7xdWSenp44ODjg5uZ2Q5f+p6Wl1frbzs6OIUOGcPvtt3PixAnOnTuHq6srUVFRluHvcePGkZiYyKFDh1Cr1fTr18/yQ/Vx48Zx6NAhS7khISFEREQ0+bORzp0728T7IjoGhfnXT1z4Gz9fdyEBnk589+woJvxlF1p9w+Pkw3t68daMgdz99z3XXdetKOGDO8nKyrqu8y4ajYbvvvuOhx56CLVaXSfkmvMzAmE9eXl5BAYGAlz3ewqwf/9+HBwcCA8Pb3CZ1NRUdu3axQMPPCDvcxOufV+E7bFKjy77qoaEy0VsmR9DQZm23mUUCgj0dOKTrResUaVopqqqKhQKBSUlJVRWVnL+/HkJORvg4OBAQUEB+fn5Dd6JJicnB6VSKfe7FLc8qw1dvrQykb7+nXBxaLjI3GIN2Vc11qpSNIPZbMZsNrNlyxYcHR1xd3eXkLMBAwYM4JdffmHr1q0NLqNWqxkxYkSTd7gRwtZZ7RtgNkNSdsMXcoj24eXlxcMPPyw7Oxvj5OTEpEmT2rsZQtwUOsYPvESrkpATQtzKJOiEEELYNAk6IYQQNk2CTgghhE2ToBNCCGHTJOiEEELYNAk6IYQQNk2CTgghhE2ToBNCCGHTJOiEEELYNMvTC+Lj49u7LUIIIYRVRUZG1r7XZWRkZHu1RQghhLCqmg6cDF0KIYSwaRJ0QgghbJoEnRBCCJsmQSeEEMKmSdAJIYSwaRJ0QgghbJoEnRBCCJsmQSeEEMKmSdAJIYSwaRJ0QgghbJoEnRBCCJsmQSeEEMKmSdAJIYSwaXZNLyIaYzSa0BsMGIxGjEYTvz71CACFQoFKpcROpUJtZ4dKJccVt5qzGUVkF5ZhrwRPJxWujirLvPIqI1c1RnQmCPB2o383r3ZsqWgvsg9pfRJ018lgMFKl02EymbFX2+Fob49KpUShUFiWMZvNGI0mDEYjFZoqlEoFjvb22NmpGilZ2IKjl/KoqNSgVJg5kVbC6awy0ouqKNEYLMu4O9nR3cuRgYFuOKrM7LlahouzE8N7+7Zjy0VbkX1I25Gguw6VVVoMBiOODvbYqxt+CRUKBXZ2KuzsVDg62KPTG6is0mJnp8LZ0aENWyza0vZjqTjZwfrEXPZdLG5wuRKNgVNZ5ZzKKmf14RxG9/Fg1vAubD+WyoShPdquwaLNyT6kbUnQtYDZDBUaDUqFkk6uzi1e315th73ajkqNlvJKDS5OTlxz8CZuciWVOk5cyiE1r5wv9mS2eP19F4vZd7GYOdFd2XMyjbDe/rg727dCS0V7kX1I+5AB3xao0GiwU6lwdrqxIylnJwfsVCoqNBortUx0BCcu5XAkpfi6Qu5aX+zJ5EhKMScu5VipZaKjkH1I+5Cga6bKKi1KhRJHB+scYTs62KNUKKms0lqlPNG+th9LJSmnjNWHrRNOqw/nkJRTxvZjqVYpT7Q/2Ye0Hwm6ZjAYjBgMxhs+Cvtfzk4OlrLFzevopTyc7Ljhntz/+mJPJk521eWLm5vsQ9qXnKNrhiqdrllHYVVVVVy6dImkpCTGjBmDr2/TV885OthTpdPhaudkjaaKdlBRqWF9Ym6Ty43o48Mfxveml68r5VoDu8/l8Y+tF6jQGhpcZ+3RXGYM87dmc0U7aM4+xGw2c+bMGc6cOUNFRQWdOnViyJAh9O7du9H1ZB/SNAm6JhiNJsvlv43ZsWMHqampODg4UFlZ2ezy7dV2VGl1GI0m+Y3MTehsRhFKhbnRqysBBnf34JNHhvOvncm8u+40AV5OvD1jEO7Oal7/7kSD6+27WMys4V04m1Ekv7O7STV3H3Lq1CmOHj1KdHQ0Pj4+ZGVlsWvXLhwdHenatWuD68k+pGnyqjRBbzA0+QEFcHZ2Ztq0aUyZMqXFddir7dAbGj6qFx1XdmEZ8ZdLmlzuvhFBHE+7yr92XiIlv5z9Sfl8vecyMf38UCobv2wu/nIJ2YVl1mqyaGPN3YecO3eOfv36ERwcjLu7O/3798fPz4/Lly83ua7sQxonPbomGIxGHO2bHrYcOXIkAFevXm1xHXYqFVU6XYvXE+3PXgmns5oOoQ1HMqjU1d4RVemNmMzmWnfCqM/prDIienrcUDtF+2nuPmTmzJkolbX7HkqlEkMzAkz2IY2THl0T2mI4QKVSYjSaWrUO0To8nVSkF1U1udzRlCLOZZVa/lYqFNwd3pXtp3JpIudIL6rC00nuhHGzau4+xM7OzhJ0ZrOZy5cvk5ubS79+/ZpcV/YhjZMeXRPMZnOtW/K0BoVC0eRRveiYXB1VtW7r1VxzJ/QhwNOJF75NbHLZEo2h1j0yxc2lpfuQH3/8kfz8fEwmE7fddhv+/k1fjCT7kMZZJegKi0qbXugmpbJru06vLb+OBYVNn8e6Gdk7tvwrdE9EN2aP6sHTXx2hsKz5v4FKupjR4rpuFj7e7u3dhFbT0n1IbGwsWq2WrKwsDh8+jIuLC3369GnWura8D/H26nTd61ol6G6kAR1dSVlFq/fqasq35dfRVrft1MVM3J3smt2rG9vPl/nT+vH6dyc4ltq887nuTnaUVxkZ1KfbjTRVtJOW7kNcXFxwcXHBy8uLoqIiTp482WTQ3Qr7kBsh5+ia0BZj33JZ8M3rqsZIdy/HZi07JMiTP98fxl9+PMuus1eaXUd3L0euauQHwTer5u5D/v3vf5OUlFRrWvVjepoetpZ9SOPklWmCnUqFwdi6OxmD0YhdMz7MouPRmWBgoFuTy/XydeWjh4ex7kgGhy4V4OvuaPnn2sTw58BAN3RyncFNq7n7EB8fHxISEsjIyKCsrIzk5GQuXbrU5A/GQfYhTZGLUZqgtrOjQlNltfvT1UenN+Di1LxegehYAryrnyXX1D0uZ0V2p5OTmtlRPZgd1aPWvNUH0vj75nMNrhvZyx0vj6bDVHRMzd2HxMTEcOzYMfbt24dGo8HNzY3IyEgGDBjQZB2yD2mcwvzrpTrx8fFERka2d3s6pPJKDfZqdbN+9NlSOr0BnV6Pq7PcvudmtedkGusTc5q8O8r1GN3HgxnD/IkeHGT1skXbkX1I+6jJNRm6bAZHe3uqtK3zY8wqra5ZPyYVHZeLsxOzhndplbJnDe+Ci+zAbnqyD2lfEnTNUPOE30qNdR+HUanRWsoWN6/hvX3RGGBOdMP3I7wec6K7ojFUly9ubrIPaV8SdM3k7OiAyWyy2lFZlVaHyWzC2dG6j+0Q7WPC0B6E+Lvx4G3WedLAg7f5E+LvxoShPaxSnmh/sg9pP3IxSgu4ODlRodFQqdHe0HOlKjVaTGYTLk4yJGVLwnpXh1wnR9UNPZtuTnRXQvzdLOUJ2yH7kPYhPboWUCioPuGrgNLySnT6lt36Sac3UFpeCb+W08p3FhNtzN3ZnujBQfTwdWXxA6GM7tOyGzGP7uPB4gdC6eHrSvTgINyd5byLrZF9SPuQHt11cHasfqpvlU5HlVaHvdoOO5UKlUpZ6+4HZrMZo9GEwWhEpzegVCpwdnSQ8XQbN2FoD45eymPGMH9mDe9C/OUSTmeVkV5UVesOKu5OdnT3cmRgoBuRvdwxmRU4OTkxWs7J2TzZh7QtCbrrZGenwtXOCaPRhN5goEpX/eDDa2+sWn1XAyV2KhUuTo5y54JbSM0FJGcziggLUhDR0wNPJ1WtmzOXVxm5qjGiM4GXh5s8WPUWI/uQtiNBd4NUKiUqlQwxifr17+YlASYaJfuQ1ieHB0IIIWyaBJ0QQgibJkEnhBDCpknQCSGEsGkSdEIIIWyaBJ0QQgibJkEnhBDCpknQCSGEsGkSdEIIIWyaBJ0QQgibJkHXwej1evbu3UtVVVW98zMyMjh58mQbt0pcy2w2M3v2bGbMmIFer2+1eoxGI+Hh4UybNq3V6hAdT35+PomJiRw/fry9m2Izbul7XV64cIHi4mJuu+229m6K6GB++OEHFixYUO+8hIQEfH190Wq1KJVyrHirqqqq4siRI5a/FQoFjo6OdOnSha5dG37afHp6OhqNhpCQEM6dO4ebm5tleb1eT1JSEiEhIbi7u7f6NtwqbtmgMxgM5Ofno1QqKSoqwstLbrwr6urbt2+9B0KLFy9uh9aIjigiIgIHBwfMZjNlZWWcO3cOhUJBYGBgvcv7+flhNBoBCAoKws7uv7thjUaD2Wymc+fObdL2W8UtG3RXrlzB2dkZT09PcnJyagVdQkIC3bt3x9e3+lEr6enplJSUMGjQIAAyMzPJysrCaDTi6upKnz59cHJy4ujRo3Tt2hU/Pz8Ajhw5QkBAgOUDf+zYMQICAvDz86OgoIC0tDS0Wi2Ojo4EBwfXOoIrKCggNzcXnU6Ht7c3ffv2rfWcKtE2hgwZwrx58+pMHz9+PGVlZRw+fJjFixezYsUK7r33XuLj48nPz2fkyJEsWLAAe3t7srOzWbBgAadPn6Znz564u7tz4MABvvnmG/r3709cXBzLli0jIyMDb29vHnroIe677z5LXVqtlvnz53Po0CG6du3Ka6+9ZvksHjhwgM8++4y0tDQCAgL4wx/+wO23395mr4+o7snV/HN3d8fHx4eSkhICAwM5evQoLi4ulJaW4unpiYeHB6mpqURERADg7OzM3r17CQsLQ6/Xc+HCBQDLe+3g4FBrecCyfKdOnTh69CgeHh6Ul5dTVVWFo6MjoaGhODhUP728oKCAlJQUDAYD3t7eVFRUWPZBt5JbdtwlNzcXPz8//Pz8KCoqQqvVNmu94uJi0tPTGTx4MCNHjsTZ2ZmkpCQAvL29uXr1KgAVFRVotVoKCwuB6h5keXk5np6eVFRUkJSURN++fYmKisLb25tz587VqqesrIwhQ4YwdOhQioqKKCgosOLWi+Y6ffo0S5cutfxLTk5ucNkTJ07wm9/8hr59+7Jz5042b96M2WzmlVde4fDhw4wYMYJ+/foRHx9vWScpKYnXX38dhULByy+/jFqtZuHChSQmJlqWKSoqwmQyMXnyZC5dusTLL7+MTqcjKSmJefPmUVRUxP33349er+fVV1/l4sWLrfqaiPqZzWbKy8spKirCzc3NMl2n0xEWFkbv3r0bXd/b25sBAwYAMGLEiEaHP69VVlbGwIEDue2227CzsyM9PR2o7h2eP3+eoKAgIiMj8fLyoqKi4jq37uZ2S/boSkpK0Gg0dO7cGbVajZubG7m5uQQFBTW5rlKpxGw2o9FocHR0pFevXpYLEry8vDh79iwAhYWFBAYGkpubi8FgoKSkBFdXV+zt7VEqlQwbNgwnJycAfH19SU9Px2D479One/bsiZ2dHXZ2dri6uqLRaFrhlRBNOXv2rOU9BejRowfBwcH1Lvvoo48yceJE3NzcOHHiBKmpqaSkpJCUlMSgQYNYuHAhADk5Oezfvx8Af39/VqxYgbe3N97e3lRWVvLxxx9z9uxZwsLCgOrPx4cffghUH2jFxcVx8uRJfv75Z0wmEy+88AJjx45l6NChPP/88/znP/+hT58+rfmyiGscPnwYqO7Z2dvb4+vrWyukfH19LT2s1tClSxdUquoH+nbq1MlysF1QUECnTp0sI1M+Pj44Ojq2Wjs6slsy6HJycvD09EStVgPVH8SMjAy6d+/e5PBgp06dCA0NJSsri6SkJNzd3enRowcAbm5umM1mKioqKCgooG/fvpZeXXl5Od7e3gDY2dmRl5dHUlISBoPB8kTha58sfC2FQoHJZLLS1ouWuO+++5g/f36L1qnZ6ej1evLz84HqA5ca137G3Nzc+Omnn/j555/Jy8uzHHFfe9BTUx5AQEAAUH0glZmZCcBrr71Wq/7c3NwWtVfcmNtuu61Vg6ylavYjNadFxC0YdHq9noKCAsxmM3v37q01r7CwEB8fH0uvrT5VVVW4uLgwaNAgTCYT6enpnD59mttuuw2FQoGnp6elF+fq6oqPjw95eXmWq6yg+vLhrKwsBg8ejIODQ52rt4TtqLmoIC0tzTLt2s/Wpk2bWLx4MZMmTWLBggVs376dL774olYZNRcuwH9DzNvbmy5dugDw3HPPMXToUKD68+3j49M6GyNumEKhaHDfYo3lr+Xg4EBxcfF1rWtrbrmgu3LlCmq12hJMNZKSksjJycHHxwcnJydL6Gk0Gq5cuWI5Mrp69S94ctQAACAASURBVCqZmZkMGjQIR0dH1Gp1rQ+it7c358+ft1yA4uXlxcWLF1Eqlbi6ugLVY/ZQvcPT6XRkZ2db/pYLTjqWkydP8umnn9aa9vTTTzd7/Z49exIaGsqJEyd4/fXXcXV15eDBg5b5NTuiK1eusHv3brZt2wZQqwefl5fHyy+/jK+vL3FxcXh5eTF48GAcHR3ZsmULK1as4OrVq1RUVLBz504+/vjjG9lk0YqcnZ3RarWUlpbi7Oxs+e5ba/lr+fj4kJaWRn5+Pl5eXhQWFt6yp0BuuaDLyckhMDCwTqB07dqVxMRENBoNPXr0ICkpiUOHDuHs7Iybm5vlPJy/vz9arZYTJ05gMBhwcXGhX79+lnI8PT0BLEfVSqUSd3f3WpcQ+/v7U1ZWRmJiImq1moCAABwdHdHpdB1qCETA+fPnOX/+fK1pc+fObfb6CoWChQsX8v7777Nv3z569+5Nr169uHTpEgqFglmzZnHu3Dn27dtHTk4OUVFRpKSkkJWVZSmjf//+2NnZsWnTJoKDg3nttdewt7dn4MCB/OMf/+Czzz5j7dq1ODg4MG7cuAbPIYr25+zsTFBQEGfOnEGhUNC5c+daQ9M3uvy1nJycCA0NJSUlhUuXLuHt7X3L7l8U5l+7I/Hx8URGRrZ3e4SwOcXFxZZLz81mMzNnziQ9PZ2ff/5ZhhlFq/rfUaKDBw8SEhJyy/xuuCbXbrkenRBt7bPPPuPo0aNMnz6ds2fPkp6ezpAhQyTkRKvS6/WcOXOGkJAQHB0dLaMEnTp1aueWtT0JOiFa2YQJE0hNTeXLL7/EycmJ6dOn88wzz7R3s4SNU6vVdO7cmdOnT6PX63F2dmbAgAG1TqPcKm69LRaijUVERNS6s4UQbSUwMLDBW5HdSm7ZO6MIIYS4NUjQCSGEsGkSdEIIIWyaBJ0QQgibJkEnhBDCpknQCSGEsGkSdEIIIWyaBJ0QQgibJkEnhBDCpknQCSGEsGkSdEIIIWyaBJ0QQgibJkEnhBDCpknQCSGEsGkSdEIIIWyaBJ0QQgibJg9eFUII0e50Oj1nz6ZRWFiC2Vw9TaEAb293+vcPwt5efd1lS49OCCFEuzt7No2Cgv+GHIDZDAUFJZw9m3ZDZUvQCSGEaHeFhSXXNa85JOiEEEK0u2t7ci2Z1xwSdEIIIWyaBJ0QQgibJkEnhBDCpknQCSGEsGkSdEIIIWyaBJ0QQgibJkEnhBDCpknQCSGEsGltEnTZ2dmEh4ezcePGtqjuhkybNo133nmnvZvRpCtXrvDEE08QFRV1U7yuQgjRXqxyU+cDBw7w3HPPAaBQKOjcuTN33HEHTz31FPb29nh6evLee+8RFhZmjerqSE5OZseOHTz44IO4ubk1uJxOpyMqKsryt5ubGyNGjGDevHn4+fkB8NJLL+Hl5dUq7aysrGTFihXExMTQt2/fGypr+fLlnD9/nvfff7/VXlchhLAFVn16wVtvvUXXrl05c+YMS5cuJS0tjY8++ggnJycmT55szapqSU5OZunSpUydOrXRoKtx3333MXHiRDIzM1m6dCm///3vWbVqFW5ubsTExLRaOzUaDUuXLsXf3/+Ggy4rK4vQ0FDGjx9fZ57JZEKplFFpIYQAKw9d9unTh+HDh/Pb3/6WF198kT179nD27Nk6Q5elpaW8/vrrxMTEMHPmTHbv3g3A8ePHCQ8PZ8WKFUyZMoVx48axfPlyS/nr169n6tSpjBkzhrlz55KVlcWWLVt4/fXXAZg+fTq//PJLk+309/dnyJAhTJ06lSVLlnDlyhV++OEHoPbQpclk4vPPP+eOO+5g0qRJLF26FLPZ3GQ7jx8/zuzZsxk1ahT3338/hw4dIi8vjzvuuAOAd999l7///e8AxMfH8+CDDzJq1Cgefvhhzpw5A1T32GJjY/nqq6+IiYlh6tSp7N+/H4Ann3yS+Ph4jh07Rnh4OIWFhURFRfG3v/2Nu+++m++++w6AVatWMWXKFKKjo3nhhRcoKioCoKqqijfffJPo6Ggef/xxFi1axOzZsxvdZiGEuFm12mH/qFGjALhw4UKdee+//z6HDx/mjTfeYPDgwbz22mvk5eVZ5p85c4aPP/6YqVOn8vnnn5OZmUlKSgp/+ctfmDx5Mp999hkFBQX8+c9/JiYmhpdeegmApUuXEhkZ2aJ29uzZE39//3rbuWbNGpYvX84jjzzCQw89xNKlS9m1a1ej7QR49dVX8fPz44svviA4OJj58+fTqVMnvvrqKwCee+45Hn/8ccrLy3nhhRcIDQ3l008/BeDNN9+0lF9cXIzZbGbZsmUEBATw5z//GYAFCxYwePBgBgwYwIYNG/D09ARgx44d3H///cTExHDo0CE++ugjHnroIT744AOOHTvGZ599BsCyZcuIi4vjqaeeYtKkSfz000/N3mYhhLjZtNqDV52dnYHq82LXKi0tZdeuXTz11FNMmDCByMhINm7cyJEjRwgMDATgnnvuoW/fvkyfPp1Vq1aRkpKCn58fZrMZOzs7goKC+Oyzz6isrMTZ2Rlvb28AunTpgpOTU4vb6uLiglarrTP9xx9/JCIiwtLb2bhxI/v27WP69OkNtjMwMBCDwYBCocDLy4s33niD3Nxc7OzsCAgIAMDT0xMPDw/0ej3//ve/6dy5M46OjsTGxvLpp5/WassjjzyCSqVi/PjxLFq0iMrKSnx9fXF0dMRgMNCtWzfLsnfffTcPPvggAJ06dWLDhg107doVhULB4MGDuXTpEgA7d+7k9ttvtyx7+PBhS0g3tM3jxo1r8esqhBAdQasFXWVlJQD29va1pl+5cgWAf/3rX7WG+woKCixBZ2mcXXXzdDodffv25U9/+hNff/01y5YtY8iQIbz44otWaWtFRQUODg51pl+5coXk5GTLBSx6vR5fX986y13bToVCwUcffcQnn3zC3XffTbdu3ZgzZw7BwcF11lOpVGzYsIFt27ZRVFSE0WgEsPy3oTpqDiIao9Pp+Mc//kFiYiIVFRUYDAZCQkIAyMvLIzY2tt71mrvNQghxs2i1oKs5n/S/F13UXN346KOPcuedd1qme3l5cfny5QbLy8nJISAggPXr15Oens4777zDa6+9xoYNG26onampqeTk5DBr1qw683x9fRkwYIBlaBSqe6rZ2dkNlldRUYFWq+WTTz5Bp9Px+eef8+abbxIWFoZaXftR8Js3b+abb75hyZIlREVFsWLFCpYsWXJD21Pjk08+4dixY3z99dcEBgYyb948CgsLAXB3d6egoKDe9RraZiGEuFlZ9RzdxYsXOXr0KN988w0ff/wx0dHR9O/fv9YynTp1YsyYMWzevJnk5GQyMjL44Ycf6u1RXSslJYU//OEPrF+/Ho1Gg729vSU43N3dgerguHr1KqWlpezdu5eysrJ6y8rJyeH48eNs3ryZ559/Hl9fX+6+++46y02dOpWEhAQOHz5Mbm4uO3bsoLi4uNF2Go1GXnzxRZYsWUJ+fr5lu+zs7HB1dUWpVLJ3715SU1MtQ5RGo5FTp06xadMmAKtc/KHValGpVFRUVLBz506OHTuGyWQCYMyYMWzbto3169ezfv16Dh48eEPbLIQQHZlVe3Tvv/8+CoUCHx8fZs2axVNPPVXvcu+88w6LFi3igw8+wN7ensjIyHrPkV0rKiqKF154geXLl1NcXExISAgLFiwAYPjw4URGRvLVV18xYMAAnJ2deeGFF/jqq68YNGhQnbLWrFnDmjVrcHV1ZeTIkcybN6/enyXMnj2biooKvv76azQaDf369WPs2LGNtrNTp04sWrSITz75hE2bNtGlSxcWLFhgOY/46KOPsmrVKnr06MGjjz7Knj17eO211+jZsyfjx48nOTmZ/Pz8Rutojscee4y33nqLRx99lOjoaEaPHs2RI0cAmDt3LgUFBSxZsoSQkBD69u2LRqO57m0WQoiOTGH+tfsQHx/f4isWO6qff/6ZhQsXsmnTJhl2a4Y5c+YA8MUXX7RzS4QQt6q4uKONzo+NHd7iMmtyrdXO0bWn06dPc//990vINaCyspJFixYRERFBTk4Ox44d4w9/+EN7N0sIIVqFTQbdyy+/3N5N6NDKysrIyMggLi4OV1dXHnjgAR5++OH2bpYQQrQKmww60Tg/Pz+WLVvW3s0QQog2ITdEFEIIYdMk6IQQQtg0CTohhBA2TYJOCCGETZOgE0IIYdMk6IQQQtg0CTohhBA2TYJOCCGETbPKD8Z1Oh0JCQlkZ2ej1+utUaQQQggbo1arCQgIIDw8vM6zSluTVYIuISEBHx8fIiMjUalU1ihSCCGEjTEajSQnJ5OQkGB5uHNbsMrQZXZ2NsHBwRJyQgghGqRSqQgODm704dWtwSpBp9frJeSEEEI0SaVStfkpLrkYRQghhE2ToBNCCGHTJOiEEELYNAk6IYQQNk2CTgghhE2ToBNCCGHTJOiEEELYtFsy6BYuXMhbb71l9XJPnTpFeHi41csVQghx/Vo96DIyMggPD7f8i4mJYe7cuVy4cKHOshs3biQiIoKMjIw683744QdmzJjBmDFjmD17NgcOHGiy7nfeeYdp06ZhMpla1OadO3eyf//+Zi37/fff89xzz7WofCGEuBlUVFRgMBiaXM5oNKLRaNqgRdenzXp069at48CBA6xfv55u3brx0ksv1buMm5sb69evrzX98OHDLFmyhAULFrB7924effRR5s+fT3FxcYP1lZaWsn37dioqKpoVitfatWtXs4Nu/PjxPPPMMy0qXwghbgbLly9nxYoVaLXaBpfR6/WsWrWK5cuXt2HLWqbNgk6tVmNvb4+Xlxd33XUXOTk5lJWVWeZfvHiRpKQkXnvtNTZu3IhOp7PMc3Bw4I033qB///4olUomTJiAwWAgNTW1wfo2b95McHAws2bNYt26dXXmFxYW8vzzzxMdHc0DDzxAYmIiADNmzGDHjh389NNP/OY3vwGqn86wcOFCxo0bx6RJk1i8eDFGoxGAn376iQ8//LDe8sPDw8nLy7NMmzt3ruXDsHDhQl588UVeeeUV7rnnHu655x4OHz5sWXb79u3cc889jBs3jnfeeYeHH36YjRs3NuelFkIIqxg7dixZWVmsWrWq3rDT6XSsXr2a9PR0Ro0a1Q4tbJ42P0dXXl7O2rVrGTBgAG5ubpbpa9euZfTo0YwfPx57e3t27NhhmRcWFkZsbCxQ/cKuWbMGb29vQkJCGqxn/fr1TJ48mSlTprB//35yc3NrzT937hyPPfYYP//8MxMmTODll1+msrKS9evXM378eKZPn87KlSsBWLRoEUlJSaxdu5Zvv/2WAwcO8P3339/wa3HixAnmzp3Lhg0bmD59On/9618BSE9P58033+TJJ59ky5YtjBo1qt6hXiGEaE1hYWFMmTKF7OzsOmFXE3IZGRlMmTKFoUOHtmNLG9dmQTdz5kyioqK4/fbbiYuL44UXXrDMq6ys5D//+Q9TpkxBqVRy55131tsL++Mf/8jo0aNZvHgxf/zjH3Fycqq3rsTERNLT07njjjsICgqiX79+bNiwodYyo0ePJiwsDGdnZ373u9+hVCpr9ahq6HQ6Nm3axFNPPYWXlxc+Pj7ce++9bN++/QZfEYiKiqJnz54ADB8+nMzMTEwmE3FxcYSFhTFp0iQcHR2ZMGECXbt2veH6hBCipYYMGWIJu5UrV1JVVYVWq2XVqlVkZmYyZcoUhgwZ0t7NbJRVnkfXHOvWrSMgIAC9Xs/WrVt57rnnWLduHZ07d+bnn39GrVYzevRoAKZOnco333zD5cuX6dWrl6WMv/71r+j1enbv3s0bb7zBt99+S1BQUL11jRo1Ck9PTwCmTJnCl19+yZNPPlnvUxaUSiVdunShoKCgzrzCwkL0ej0vvfQSCoUCAJPJhI+Pj1VelxoKhQKTyYTZbCY/P1+CTQjRYdQE2ebNm1m5ciVKpZLs7OybIuSgDYOuhlqtZurUqfztb3/jzJkzxMTEsH79ekpKShgxYkStZdeuXcv8+fM5fvw4er2eiIgI1Go1sbGx/POf/+TkyZN1gq64uJhdu3ah0+nqXOq/e/duxo0bV6dNJpOJK1eu0Llz5zrzvL29USqVLF26tNGh0vq2E2jWFUv/q3Pnzhw5cqTF6wkhRGsZMmQIZrOZLVu2ANUdkrCwsHZuVfO0+Tk6rVbLmjVrMBgM9O3bl7Nnz5KUlMSaNWtISEiw/HvrrbfYsmULVVVVZGRk8Pbbb3P58mVMJhPx8fHk5uYyYMCAOuX/9NNPeHh4cOjQoVrlTZ48mbVr11qW27t3L8eOHaOyspIvv/wSs9lMREQEAE5OTuTn56PVarG3t7dcgFJYWIhWq+XHH3+sVVZ9OnXqhKenJ3FxcVRWVvLLL79w4sSJZr1GsbGxHD9+nG3btlFRUcHmzZvr/cmFEEK0paFDhzJz5kxmzZp104QctGHQTZ8+nfDwcMaNG8emTZv48MMPCQgIYN26dURFRdUaogSYNGkSDg4ObN26lWnTpvHAAw8wb948oqOjWbx4Me+//36ddcxmMxs2bOCBBx7Azq52Z/Whhx7iyJEjpKenAzBy5Ej+7//+jzvvvJMdO3bw0Ucf4ezsDFQfqZw6dYp7770XgFdffZVevXrx0EMPMWHCBOLi4ur0Puvz9ttvs27dOu68805+/PFH+vbt26zXqnv37rz//vv885//ZOrUqRw5cgRfX99mrSuEEK0pNDS0RaNbHYHCbDabAeLj44mMjLyuQlavXs2DDz5o1Ybd6kwmE0pl9XGI2Wxm/PjxvPfee5bzmEIIcbOqLzPi4o42uk5s7PAW11OTa7fkLcA6uqtXr/LYY4+RlpaG0Wjkm2++AWDQoEHt3DIhhLj5tPnFKKJpnp6eTJw4kXnz5lFYWEivXr1YvHgx7u7u7d00IYS46UjQdVCzZ89m9uzZ7d0MIYS46cnQpRBCCJsmQSeEEMKmSdAJIYSwaRJ0QgghbJoEnRBCCJtmlaBTq9WW57MJIYQQDTEajZZ7AbcVqwRdQEAAycnJEnZCCCEaZDQaSU5OJiAgoE3rtcrv6MLDw0lISODkyZPo9XprFCmEEMLGqNVqAgIC6jxZprVZJejs7e2JioqyRlFCCCGEVcnFKEIIIWyaBJ0QQgibJkEnhBDCpknQCSGEsGkSdEIIIWyaBJ0QQgibJkEnhBDCpknQCSGEsGkSdEIIIWyaBJ0QQgibJkEnhBDCpknQCSGEsGlWuamzTqcjISGB7OxseXqBEEKIel379AJ7e/s2q9cqQZeQkICPjw+RkZGoVCprFCmEEMLG1DyPLiEhoU2feGOVocvs7GyCg4Ml5IQQQjRIpVIRHBxMdnZ2m9ZrlaDT6/USckIIIZqkUqna/BSXXIwihBDCpknQCSGEsGkSdEIIIWyaBJ0QQgibJkEnhBDCpknQCSGEsGkSdEIIIWzaTR90Cxcu5K233rru9bdt28a0adOs2CIhhBAdSasHXUZGBuHh4Xz99de1pldWVhIeHs7Zs2dbtf6dO3eyf//+Zi1rMpmYOnUqx44da9U2rVy5ksuXL9c774cffiA8PNzyLzo6mt/+9rfs2bMHgK+//prf/e53tdb505/+xDPPPFNr2u9//3s+//zz1tkAIcQtoaKiAoPB0ORyRqMRjUbTBi26Pm3Wo/viiy+4cOFCW1VnsWvXrmYHnVKp5P3336dfv36t2qaVK1eSkpLS4Hx/f3/i4+OJj49n8+bNzJw5k/nz53P+/HkiIiI4e/as5UNlMpnYv38/x48ft0zT6XScPXuW8PDwVt0OIYRtW758OStWrECr1Ta4jF6vZ9WqVSxfvrwNW9YybRZ0I0eO5M0330Sn09U7v6SkhDfeeIPY2FhiY2P5y1/+gtFoBMBsNrN06VLuuOMOoqOjefbZZ2vdK62srIzXX3+dmJgY7rnnHg4fPgzAjBkz2LFjBz/99BO/+c1vACgtLeWPf/wjMTEx3HvvvcTHx9dqx9NPP82ZM2eA6sBYuHAh48aNY9KkSSxevNjSpvvuu48PP/yQJ554gsmTJ/P444+Tm5trKeebb75h8uTJREdHM2fOHFJTU7l8+TITJ06koKCABQsWsHDhwgZfL5VKhUqlws3Njbvuuovu3btz/Phx+vXrh5OTEydPngTgxIkTODs7ExISYtnumvYPHjy4me+OEELUNXbsWLKysli1alW9YafT6Vi9ejXp6emMGjWqHVrYPG0WdM8++ywmk4l//OMf9c7/4IMPMJvNbN68mRUrVrB79242bNgAwJYtW1i7di3/+te/2LFjB7169eLVV1+1rHv06FHuuusutm7dSnR0NH/9618BWL9+PePHj2f69OmsXLkSqD6nl5+fz5o1a1iyZAmZmZkNtnnRokUkJSWxdu1avv32Ww4cOMD3339vmX/mzBmWLFnCpk2bcHV15csvvwTgyJEjLFu2jM8//5wdO3bQo0cP3n77bXr16sW2bdvw8fHhzTffZP78+U2+blVVVezcuZP09HT69euHUqlk2LBhHD16FIC9e/cyZswYRo0axb59+wA4duwYYWFhbfoYDCGE7QkLC2PKlClkZ2fXCbuakMvIyGDKlCkMHTq0HVvauDYLOgcHB9577z2+//57EhIS6sx/5plneP3113FwcKBLly4MGzbMMrz3448/8uCDD9K9e3fUajVPPvkksbGxlt5VTEwMkZGRODg4cPvtt5OZmYnJZKpTh8lkIi4ujrlz5+Lr60tAQAAzZ86st706nY5Nmzbx1FNP4eXlhY+PD/feey/bt2+3LHPXXXfh7OyMUqkkLCyMtLQ0oPqZSyaTibS0NMxmMy+++CJ/+9vfmv1a5eTkWM7RxcbG8q9//Ys//elPhIWFARAeHk5iYiIAu3fvJiYmhjFjxliGaI8fP05ERESz6xNCiIYMGTLEEnYrV66kqqoKrVbLqlWryMzMZMqUKQwZMqS9m9koqzyPrrn69+/PY489xjvvvGPp/VzrL3/5C5cuXcJgMFBQUMCUKVMAyM3NJTAw0LKci4sLjzzySL11qFQqTCYTZrO5zryioiIMBgNdu3Ztsq2FhYXo9XpeeuklFAoFUB2UPj4+9S6vVCotJ22HDBnCggULWL16NW+//TbDhg1j7ty5TdZZw9/fn40bNzY4Pzw8nE8//ZSLFy9y9epVhg8fbhnqPHfuHCdOnOD3v/99s+sTQojG1ATZ5s2bWblyJUqlkuzs7Jsi5KCNgw7g8ccfZ//+/SxatKjW9Hnz5nH33Xfz/vvvo1Qqa/1koEuXLuTk5Fj+1ul0HD9+vMUXW3h6eqJWq8nOzsbPz6/RZb29vVEqlSxdupSQkJAW1ZOdnU2fPn347LPP0Ol0LFu2jOeff77R8GqJPn364OLiwldffcXo0aMtj0gaM2YMq1evxmw2M2DAAKvUJYQQUB12ZrOZLVu2ADB16lTLKFNH1+a/o1Mqlbz33nscPHjQMs1sNnP16lVMJhOVlZUkJiaSmJho6SFNmzaN1atXk5mZicFg4Ouvv+bvf/87SmXTzXdyciI/Px+tVotKpWLChAl8/vnn5Ofnk52dzdq1a+tdz97e3nIBSmFhIVqtlh9//LHB5a914MABnn76abKysrCzs8PDw8MyzFrTptzc3Ot+JpNCoWD48OHs2rWLmJgYy/QxY8YQFxfHkCFD5PmAQgirGzp0KDNnzmTWrFk3TchBO/1gvHv37sybN8/yt0Kh4N133+Wnn35i8uTJfPPNN4wdO5aqqiqg+shh9uzZPP3004wfP54zZ87w8ccfN6uuqVOncurUKe69914AXnnlFTw9PZk1axbPP/88oaGhDa776quv0qtXLx566CEmTJhAXFwcI0aMaLLOGTNmMHHiRJ544gnGjh3L1q1bLRfIANx///188cUXfPDBB83ahvpERESgUCgYOXKkZdrw4cOxs7OT83NCiFYTGhra4lGu9qYw/3oyKz4+nsjIyOsqZPXq1Tz44INWbZgQQgjbVF9mxMUdbXSd2NjhLa6nJtdu+luACSGEEI2RoBNCCGHTJOiEEELYNAk6IYQQNk2CTgghhE2ToBNCCGHTJOiEEELYNAk6IYQQNs0qQadWq2vd4koIIYSoj9FoRK1Wt2mdVgm6gIAAkpOTJeyEEEI0yGg0kpycTEBAQJvWa5WnF4SHh5OQkMDJkyev+0bFQgghbJtarSYgIKDFT565UVYJOnt7e6KioqxRlBBCCGFVcjGKEEIImyZBJ4QQwqZJ0AkhhLBpEnRCCCFsmgSdEEIImyZBJ4QQwqZJ0AkhhLBpEnRCCCFsmgSdEEIImyZBJ4QQwqZJ0AkhhLBpEnRCCCFsmlVu6qzT6UhISCA7O1ueXiBuCdfehd3e3v66ypDvjbjVWON7cz2sEnQJCQn4+PgQGRmJSqWyRpFCdGg1z9VKSEi47id3yPdG3Gqs8b25HlYZuszOziY4OFi+rOKWoVKpCA4OJjs7+7rLkO+NuNVY43tzPawSdHq9Xr6s4pajUqluaMhRvjfiVnSj35vrIRejCCGEsGkSdEIIIWyaBJ0QQgibJkEnhBDCpknQCSGEsGkSdEIIIWyaBJ0QQgibJkEnhBDCplnlFmBN+eGHH/j222/Jy8ujS5cuPPHEE0ycOBGAvLw8Fi1aRGJiIgCRkZHMnz8fDw+POuWkp6ezaNEiTp06hZubGzNmzODRRx9FoVAAsGLFCtasWUNJSQkDBgzglVdeoWfPnm2xiUJYVWVlJYsXL+aXX37BbDYzevRoXnzxRdzc3HjuuedISEiotbzBYGDMmDH8/e9/r1PWwYMH+fTTT8nMzCQgIIC5c+cSHR3dZD1C2IpW79EdOHCAJUuW8O6777J7927mzJnDW2+9RVpaGgCvvPIK7u7ubNy4kXXr1pGfn89HH31Ub1kvvfQSgYGBbN26lY8//pjVq1ezceNGKnjILAAAIABJREFUALZt28aXX37JokWL2L59O7179+b555/HZDK19iYKYXVLlizhwoULfPfdd3z//fdkZmby4YcfAvDJJ59w4MABy7/9+/cTHBzM1KlT65STm5vLiy++yEMPPcTOnTt54okneOWVV0hPT2+yHiFsRasHXUZGBg8//DADBw5EqVQSGxuLt7c3qampVFZW4uDgwJw5c3B2dsbDw4OpU6dy6dIlAI4dO8add95JZWUlmZmZpKSk8MQTT+Dg4EDv3r2588472bdvHwD79u0jNjaWkJAQ7O3tmTNnDtnZ2Vy+fLm1N1EIq9u7dy+zZ8/Gy8sLDw8PHn74Yfbu3Vvvsr/88gsGg4GYmBgAvv76a5599lkA4uPjCQgIYPLk/2/vvsOjqhI+jn9nJjMJKQgkgSS0hIS+VCOhE2lSIu0VFRB93X1Wd1VgLcti210LFkRUdBUReRUJuIK6Ip0AooAEQguChoWAlJBAAumkTHn/iIxEQp8kcPl9nkeEe+495+Rm7vnNuXPn3kF4eXnRp08foqKi+P777y+7HZHrVaWfurzrrrvK/fvAgQPk5+fTpk0bfH19mTlzZrnyxMREbrnlFgCaN2/OU089ha+vL3v37sVisRAYGOheNyQkhF27dgGQmZlJdHS0u8zPzw8/Pz9OnDhBVFRUZf14IpUiMzOTevXquf9dr149cnNzKSkpOefxJrNmzSp3Cr9///507NixwnrO1HXixInLbkfkelWlF6Pk5uYyceJEnnjiCerUqXNO+eeff87+/ft58MEHAfD19XV/luBwOM65Aa6Xlxd2ux0o+4zCbDaft1zkeuJ0Osu9nr28yt6T/vb1/O2335Kbm8uAAQPcy8LCwmjbti1w8ePmUtsRuZ5VycUoAPn5+Tz88MPExsYyZMiQc8qXLFnChx9+yKxZs/D19T2n/MzB6XK53O9c7XY7Vqu1XPnZzi4XuZ5YLJZyr+czf//t63nWrFmMHTv2vE9BuNhxcantiFzPqmRGV1hYyLhx44iOjubhhx8+p3zFihW8++67zJgxg7CwsArrCA4Oxul0uk+5QNnzvIKCgtzlx44dc5fl5uZSUFDgLhe5nvz29ZyWlkbNmjXLBdDGjRtJT09n6NCh560nKCioXD0Ax44dO+9xU1E7Ite7Sg+606dPM378eNq3b8+ECRPOKV+zZg1vv/027733Ho0aNSpXVlhYyLfffguUnY6Jiopi5syZFBUVsW/fPlasWOE+tdmrVy9Wr17Nnj17KCkpYdasWdSvX58mTZpU9o8o4nG9evVi/vz5ZGZmkp2dTXx8PL169Sq3zqxZsxg1ahTe3t7llqelpZGcnAxAly5dOH78OIsWLaK0tJSEhARSU1PdT3e+lHZErneVfuryyy+/ZMeOHezZs4d///vf7uUtWrRg9uzZPP/88xQWFnL33XeX227q1Kn4+Pjw0ksv0alTJ3x8fHj99dd59dVXGTBgAP7+/owePZrBgwcD0Lt3b44fP86kSZPIycmhVatWvPnmm+d8bidyPXjkkUd46623GD16NE6nkx49evDYY4+5yxMTE9m/fz/Tp08/Z9uVK1eybds2pk+fTnBwMG+++SZvvfUWr732GmFhYbz22ms0bNjwktoRMQKTy+VyQdmBExMTc0WVzJ8/n1GjRnm0YyLXg6t57eu4kRtVRa/9hIStF9ymb9+bL7udM7mm6Y6IiBiagk5ERAxNQSciIoamoBMREUNT0ImIiKEp6ERExNAUdCIiYmgKOhERMTSPBJ3VasXhcHiiKpHrhsPhuKp7Quq4kRvR1R43V8IjQRcWFsb+/ft10MoNw+FwsH///vPehPxS6LiRG40njpsr4ZF7XUZHR5OUlERycjKlpaWeqFLkmma1WgkLCyv3sN/LpeNGbjSeOG6uhEeCzmazue+GLiKXRseNSNXQxSgiImJoCjoRETE0BZ2IiBiagk5ERAxNQSciIoamoBMREUNT0ImIiKEp6ERExNAUdCIiYmgKOhERMTQFnYiIGJqCTkREDM0jN3UuKSkhKSmJtLQ03YVdbghn34XdZrNVd3dE5AI8EnRJSUkEBQURExODxWLxRJUi17Qzz9VKSkrSEwhErnEeOXWZlpZGZGSkQk5uGBaLhcjISNLS0qq7KyJyER4JutLSUoWc3HAsFotO1YtcB3QxioiIGJqCTkREDE1BJyIihqagExERQ1PQiYiIoSnoRETE0BR0IiJiaAo6D5oyZQrPPvtsdXdDRETOUulBd/jwYaKjo93/denShREjRvDxxx/jcrkq3CYlJYWBAwdSVFR0VW3Hx8eTmpp6VXWIiMj1zSP3urwU//nPfwgNDaW0tJQ9e/YwadIkbDYbo0aNKreey+UiIiKCyZMn4+Pjc1VtxsfHExISQpMmTa6qHrn+lZaWUlJSgp+f30XXzcvLIyAgoAp6JSJVocpOXZrNZiwWCz4+PnTs2JE+ffqwbds2srOziY6O5sUXX6R3796sXLmSlJQUHnjgAQAmT57M3//+d3c9R48epVOnTmRlZZGTk8PTTz9N37596du3Ly+//DIOh4PU1FT69+9PZmYmL774IlOmTGHKlCn84x//cNfz/PPP88QTT7j//cYbb7jLz1cvlAXxzJkzue222+jZsyfjxo0rd7/DvLw8nnrqKWJjYxk+fDibN292l6WnpzNhwgR69OjBiBEjWLx4ceXsbDnH0qVL+eCDDzhx4sQF10tISGD69Onk5ORUUc9EpLJV+Wd0drudn376ifXr19OqVSv3cl9fXxYtWkTfvn3LrT948GDWrVtHSUkJUDYQde7cmcDAQCZPnozL5WLJkiXMnTuXdevW8eWXX9KkSRNWrlxJUFAQzzzzDBMnTqRHjx7u0HE6naxfv54tW7a4T49u2bKF7t27A5y3XigbMBcuXMgHH3zA6tWradKkCX/729/c/d26dStDhw5lxYoV9OzZk1deecXd5rhx42jQoAGrV6/mueee45VXXmHv3r2VtKflbDExMTgcDubOncvx48crXGfVqlUkJibSpk0batasWcU9FJHKUmWnLocMGVLWoJcXdevWZcCAAdx7773k5eUBMHLkSPz9/c/Zrn379tSqVYtNmzbRs2dPVq9ezejRowF45JFHqFOnDt7e3oSEhNCxY0cOHDhQYfs333wz+fn5pKamkp2dTePGjbHZbGzatMm9XZcuXS5a71dffcWoUaNo1KgRAA888AALFy50z/hiY2OJiYkB4NZbb2X+/Pk4nU62bt3K0aNHGT9+PDabjTZt2tC9e3cSEhJo1qyZp3aznEdISAhjxowhPj6e+Ph4xowZQ926dd3lK1euZMuWLbRt25a4uDhMJlM19lZEPKnKgm7RokWEhYVd0baDBw9m1apVREVFcfDgQWJjY91lL7/8Mvv27cNut5OZmcngwYMrrMNms9GpUyc2b97M0aNHufXWW/Hx8eGbb77B6XTStm3bckF7vnrT09OpX7++ez0/Pz/uu+++Ctu0WCw4nU5cLhcZGRnY7XZuu+02d7nD4agw3KVyhISEMHr0aObNm8fcuXMZM2YM9erVY8WKFSQlJSnkRAyqyoLuagwaNIgxY8YQERFB79693Rep/OUvf2HYsGG88MILmM3mi17a3717d7777jv27dvHjBkz8PHxYcaMGdhsNvdpy4vVGxISwrFjx9z/LikpYceOHURHR1+w7bp16+Lv709CQgJms77VUV1CQ0PdYRcfH09ERAR79uyhXbt2DB48WCEnUk1MJjjPhfhc7WF5XYy4DRo0IDIyktmzZzNo0CCg7KKQU6dO4XQ6KSwsZNu2bWzbtg273e7erkaNGqSnp7ufGda9e3c2bNhAQEAAYWFh1KlTh/DwcBYvXkyPHj0uqd7bb7+d+fPnc+TIEex2Ox999BGvv/76RcPrzCnY6dOnU1xcTE5ODtOnTyc5ObkydplcwJmwc7lcCjmRa0Rg4E1XVHYprougA4iLi6NmzZrumZPJZOK5555j0aJFDBo0iDlz5tCrV69y37276667eP/995k8eTIAwcHBREVF0bt3b/c6vXv3Jjg4mPDw8EuqNy4ujtGjR/Pwww/Tp08fdu/ezRtvvHHR/ttsNt555x0OHTrEwIEDGT58OPn5+TRt2tRTu0guQ2hoKPfccw99+/ZVyIlcA1q1akxQ0E3lZm8mEwQF3USrVo2vqm6T65dvbScmJrovorhc8+fPP+f7cCI3Ar32Ra5dZ3LtupnRiYiIXAkFnYiIGJqCTkREDE1BJyIihqagExERQ1PQiYiIoSnoRETE0BR0IiJiaB4JOqvV6r57v8iNwuFwYLVaq7sbInIRHgm6sLAw9u/fr7CTG4bD4WD//v1X/EQOEak6Hnl6QXR0NElJSSQnJ7tvoCxiZFarlbCwsIs+tUJEqp9Hgs5ms9G1a1dPVCUiIuJRuhhFREQMTUEnIiKGpqATERFDU9CJiIihKehERMTQFHQiImJoCjoRETE0BZ2IiBiagk5ERAxNQSciIoamoBMREUNT0ImIiKEp6ERExNA88vSCkpISkpKSSEtL02N6RESkQmc/3spms1VZux4JuqSkJIKCgoiJicFisXiiShERMZgzDyxOSkqq0ke7eeTUZVpaGpGRkQo5ERE5L4vFQmRkJGlpaVXarkeCrrS0VCEnIiIXZbFYqvwjLl2MIiIihqagExERQ1PQiYiIoSnoRETE0BR0IiJiaAo6ERExNAWdiIgYWqUHXW5uLjNnziQvL8+97OTJk8yZM4fdu3dXdvOVKjk5mVOnTlV3N0RE5AKqfEaXnZ3NkiVLaNu2La1bt67q5j1q165dVxR0LperEnojIiIV8ci9Li9VXl4eS5YsoXnz5rRv3969vKCggPXr15Oeno7VaqV58+Z06NABs9nMd999R15eHk6nk9zcXLy8vIiOjiY9PZ1Dhw5ht9tp3rw5t9xyCwCfffYZ9erVIysri8LCQmrWrEl0dDTJycmcPHkSk8lE586diYiIACA/P5/169eTlpaGn58fHTp0oFmzZgAsWLCA+vXrk5mZSV5eHgEBAfTu3ZvS0lIWL15MUVER3377LceOHaNbt25kZWWxceNGsrKysNlstG/fnlatWrnrqlOnDhkZGTRs2JAePXpU5a4XEblhVVnQFRQUsHbtWho3bkynTp3cy10uF8uWLSM0NJTRo0dz+vRpli9fjslkomPHjkDZ6c8hQ4bg6+vL1q1bSUhIoEePHnTt2pXc3FwWLFhAeHg4wcHBABQXFzN06FBMJhPLly9n2bJlDBs2jMDAQPbt28e6desIDw8HYOnSpTRo0IB+/fqRlZXF4sWLCQwMJDAwEIDjx48zePBgvLy8WLFiBdu3b6dHjx6MHTuW+Ph4unTpQpMmTXA6nSxbtoz27dsTFxfH0aNHWbp0KaGhodSuXRuAwsJChg4dSo0aNapqt4uI3PCq7NTlqlWrKCwsxGwu32RGRgZ5eXl07twZq9XqnoGd/fldSEgIvr6+ADRo0ACAFi1aAFCzZk38/f3Jyclxrx8eHo7FYsFsNhMaGkpwcLA7uMLCwigpKaGwsJBjx46Rl5dHp06dsFgs1K1bl0aNGpGamuquq0WLFlitVkwmE/Xq1SvXzm8NGjSIVq1aYTKZaNCgATVq1CA7O9td3rRpU/z8/M7ZByIiUnmqbEYXERFBixYtWLRoEUFBQe7Tg3l5efj5+ZW7KXStWrU4ffo0drv9nHpMJlO5/5/5u9PprLBdk8lUbt0znE4n+fn5OJ1O5s6dW255VFTUees6Xztms5nCwkI2bdpEfn4+UDaz1OdxIiLVq8qCrl27dgQEBNCrVy+++eYbateuTXBwMP7+/hQUFOBwONxhl5OTQ40aNfDyqtzu+fn5YbPZuPfeeysMw8uRn5/P8uXLiYuLIyQkBID4+HhPdFNERK5ClZ9Di4yM5He/+x0rV67k9OnThISEEBAQQGJiIqWlpeTm5rJ161b3RRyVKSQkBB8fHxITE7Hb7RQVFZGYmEhGRsYlbW+1Wt2zwjOzN6fTSUlJCXv37uX06dOa0YmIVLMqveryjE6dOpGVlcWqVauIi4tjwIABbNiwgXnz5mG1WmnatCkdOnSo9H5YLBYGDRrExo0b3bOvJk2auD/Pu5jWrVuzefNmTp48SWxsLDfffDMJCQlAWaDXr1+foqKiSuu/iIhcnMn1y5QjMTGRmJiYK6pk/vz5jBo1yqMdExERY6qqzDiTa7r8T0REDE1BJyIihqagExERQ1PQiYiIoSnoRETE0BR0IiJiaAo6ERExNAWdiIgYmoJOREQMTUEnIiKGpqATERFDU9CJiIihKehERMTQFHQiImJoCjoRETE0BZ2IiBiagk5ERAxNQSciIoamoBMREUNT0ImIiKEp6ERExNAUdCIiYmgKOhERMTQFnYiIGJqCTkREDE1BJyIihqagExERQ1PQiYiIoSnoRETE0BR0IiJiaAo6ERGpEp9//gVZWServF0FnYiIVLq5c+OpX78+gYF1qrxtBZ2IiFSquXPjiYqKonPnmGppX0EnIiKV5kzItW3bhldfnUJhYWGV90FBJyIileLskHv77Xfo1asXvr6+Vd4PBZ2IiHhcRSHXtGnTaumLgk5ERDyqopBr0KA+b7/9NpmZWVXeHwWdiIh4zPlCbtasD/n97+8nKCiwyvukoBMREY+4WMgVF5dcvxejWK1WHA6HJ6oSEZHr0Oeff+H+CsHZn8mdHXJffPEFDocDq9VapX0zuVwuF0BiYiIxMVf2HYeNGzcSFBREZGQkFovFox0UEZFrX1bWSfeXwQsLC91XV2ZmZhEUFEhhYSEOh4Njx46RmZlJ165dK71PZ3LNyxOVRUdHk5SURHJyMqWlpZ6oUkREDMZqtRIWFkZ0dHSVtuuRoLPZbFWSziIiIpdLF6OIiIihKehERMTQFHQiImJoCjoRETE0BZ2IiBiagk5ERAxNQSciIoamoBMREUNT0ImIiKEp6ERExNAUdCIiYmgKOhERMTQFnYiIGJqCTkREDE1BJyIihqagExERQ1PQiYiIoSnoRETE0K7ZoHO5XLzzzjuMGDGCadOmXVVdU6ZM4dlnn/VIv7Kzs4mOjubw4cMeqU9ERCqXR4Ju2LBhfPDBB+csnzdvHv3798fhcFx2nd988w1ffvklkydP5g9/+AMADz30EF9++SVOp5O4uDi2b99+1X2vKikpKQwcOJCioiIA1qxZw4YNG6q5VyIixueRoBsyZAhLly49Z/mSJUuIi4vDYrFccl1OpxOAAwcO0KxZM1q2bMlNN90EwPjx44mNjcVsNvPCCy/QsmVLT3T/svt2JSIiIpg8eTI+Pj4ArF27VkEnIlIFvDxRyZAhQ3j//ffZtWsXbdq0ASA1NZWUlBRefvllAEpKSnjzzTdZvnw53t7e3HbbbYwbNw6LxcKdd95JVFQUycnJdO3aFX9/fxYuXEhpaSn9+/dn6tSpLF68GIfD4T4FaTKZ6NmzJ5s3bwZg3759vPjii6SmptKyZUvq1q2LxWLhn//8JwBZWVlMmDCB7du3ExYWxsSJE+nYsSMAe/fuZerUqaSkpFCzZk3uu+8+7rjjDqDstOe+ffsoKiri9OnT58xcZ8+ezcKFC/nwww8JDQ1l69atTJs2jUOHDhEREcGTTz5Jy5YtSUlJ4YEHHiApKYkRI0aQnp6O2Wxm586dxMfHA7BgwQLmzJlDQUEBHTp04JlnnqF27dpMmTKF9PR0LBYL+/btA+DJJ5+kU6dOnvj1iYgYmkdmdEFBQXTr1q3crG7x4sV07NiRRo0aAfDaa6+RkpLCwoUL+eSTT9i4cSMLFixwr5+Zmcns2bOZOHEi48eP57777qNDhw6sXLmStm3bXrB9u93OY489RuvWrVmyZAmPP/44SUlJ5db58ccf+f3vf8/y5cvp168fTzzxBIWFhTgcDsaNG0fv3r1Zu3YtzzzzDK+++iqpqanubQ8ePMiTTz7pDqQz5s2bx6effsp7771HaGgohw8fZsKECdx3332sWbOGuLg4Hn30UUpKSspt98UXX9CnTx+GDBnirnP58uXMnDmT119/naVLl+Lr68tLL73k3mbnzp3uU7dDhgzhlVdeuZRfjYjIDc9jF6MMHz6clStXUlpaitPpZNmyZQwfPhwom80tXryYP//5z9SpU4egoCBGjhzJqlWr3NsPGjSIunXr4uV1+ZPM3bt3k5WVxfjx4wkICKBZs2b06NGj3Drdu3enXbt2+Pr6cv/992M2m9m8eTMul4t3332XkSNHYjabiYmJoXbt2hw8eNC9bUxMDC1btsRms7mXff3113zwwQe88847NG7cGCg7VduqVSv69++P1Wpl5MiROJ1OduzYcdGf4fPPP+eOO+6gWbNm+Pj4cP/997Nu3TpKS0sB6Nq1KxEREQDcfPPNHDly5KpOpYqI3Cg8cuoSoFu3bnh7e7Nhwwa8vb0pLi6mT58+QNlpw9LSUh5//HFMJhNQ9nlXUFCQR9o+ceIEQUFBeHt7X9L6ZrOZkJAQMjMz8fLy4sSJE0ybNo3jx4/jdDrJycnB5XJdsI5PP/30nItsMjIy2LVrF7Gxse5lpaWlZGZm0rBhwwvWl5GRwSeffML8+fPdy7y8vMjMzDxnXZPJhNPpvGgfRUTEg0FnNpu5/fbbWbp0KTabjYEDB7pnQIGBgZjNZmbOnEnz5s2vqH6r1XrOKcAz6tatS1ZWFiUlJeVmXefjdDrJyMggODiY9PR0Hn30UWbMmEG7du2Astnlxbz66qts27aNSZMmMXfuXHx9fQkODqZLly4Vfh1i165dF6wvODiYu+++m9GjR1+0bRERuXQe/R7d0KFDWb9+PWvXrmXYsGHu5WeC78033yQrK4vi4mK++uorFi5ceMl1h4eHs23bNo4fP05aWhpz5851l7Vu3ZrAwEDeffdd8vLySE5OZt26deW2/+6779i+fTuFhYXMnj0bl8vFLbfcQm5uLg6HA7vdTl5eHosXLyYrK+uiX4lo0KABf/7znwkKCuKFF14AygJy8+bNJCQk4HQ6OXToEM8//zzZ2dnnbF+jRg1OnDhBcXGxe9/NnTuXlJQUnE4nW7duZcqUKZe8f0REpGIeDbqwsDA6dOhAZGQkTZs2LVf2t7/9jSZNmnDPPffQr18/EhIS6Ny58yXXPXToUFq1asUdd9zBn/70J0JDQ91lFouFadOmsWPHDgYPHsy//vWvc9rv0qULH3/8MQMGDGD16tVMmzYNX19fmjVrxoMPPsikSZMYMWIEe/bsISYmpsJw+i2z2cxLL73E1q1b+eyzzwgPD+eNN95gzpw5xMbG8tBDDxEVFUWtWrXO2TYuLo5du3YxcuRIoOzK1f/93//lySefpGfPnrz++uv07NnzkvePiIhUzOT65YOexMREYmJiqrs/V8zpdGI2/5rbjz/+OI0aNWLChAnV2CsREakuZ3Ltmr0F2OV65JFH2LBhAy6Xiy1btvD999/TrVu36u6WiIhUM49djFLdxo4dy3vvvcekSZMIDg5m0qRJREdHV3e3RESkmhkm6Lp06UKXLl2quxsiInKNMcypSxERkYoo6ERExNAUdCIiYmgKOhERMTQFnYiIGJqCTkREDE1BJyIihqagExERQ1PQiYiIoZW7M0rGqaLq6oeIiEil0IxOREQMTUEnIiKGpqATERFDU9CJiIihKehERMTQFHQiImJoCjoRETE0BZ2IiBiagk5ERAzN6+KrVOzwyUKe/mwnmfnFmDzZo+uMCwjy92byne1oWMe3ursjItcAjY+edzVj7RXP6J7+bCdZ+cWYXFdagzGYXJCVX8zTn+2s7q6IyDVC46PnXc1Ye8VBl5lfXBaxN/rbFRPg+mV/iIig8bFSXMVYe8VBZ3L/IZi0K0TkVxofK8kVjrW6GEVERAxNQSciIoamoBMREUNT0ImIiKEp6ERExNAUdCIiYmg3btCZA/jjI/2YHm3TVcAiYgwmG0Pu68e83gFYLrauuSZ/Gt+PNzpaDT8GXvEtwK6UT5sOrLm7HrbfFrjsLItfw7M/Oi+zRhNt+nfjtaD9jPr0JN1Gd2V0+jbGJuTg8FCfRUSqhOUmHhkXQ9fk77lnTR6/joYmwrrcwmc9Cnjsjd1sLr2UykyEd+/E+83T+cPsnzlyobu0mLyJG2PcsbPKg67ohx10f/asL/2ZvOhwWwxTI0/weeplhpwJcLnYm7Sbv9vyyXHa2bA6mUNFeYb7RYnIDcCRy5LteYxqH0rzb/Jwv+83+9Kv/U1k7NzLtksKOQAXR5J/4u8Hijh2sVuRuUrKxs7Txhw7qzzocLlwnrXTa7dozjMdS/m/Wf9lR3HZjG9lnwL+NH0ve5yAVz0mP9WCU3O+Zeohf/74UGduPZVBacN61P1pG3fub8SSPgX8afopnMCpE1488VQP+s/5lqkHXZh8anH3kJaMaR5AHUr4afd+Xl1ymJTfvFhqR7XgnbuC2LVwC1NSirnceaWIyNVz8fPOoyT3CmdAw338+HPZSGSpF8qAevks+TwHO+BfvxFP3N6EnvWsmIvy2bj+R17ZmE1uubpM1G/fiqlNj/I/sw9x3GUhokMLnu0XSosaDlL3niDLRtlYZ7LSo39H7j68ibFr8nBgok5EBH8d2Iiudb0oysri08W7+ehACdbW7UmIs7I+3Ycu4cW8/9YWPi3wY+BtLflju1rUNZWwJ/m/TF6axs/OAP74UGdijvzMyZC6tKzjjeVkOtMX7GF5VtXdCLRaP6Mz1wrjqaF1+XnFLuamX2q0mAipUcD0GWsZ9vVJLvjmxmTj1iHtGWs7yhNTV9Fz2g7W1WrKlP518D5rtYDwprxxV132fZWkkBORauXMSWfRfiu929X+5SMeEy3bhlL/8FGWnnCBdzCPjonkph1buf35BIYvPEVk/zaMDbvwJ23VtNywAAAFl0lEQVReYU14aUgdUpd+T7/J63k62Umwf8XbWIIb88ro+hSv38LA59fyx01w553N6eFTVm7286F4x3aGv5zEglwvug7uyGMhJ3lh+mpi39jFDw1b8VxX/18CxkSTOqV89NEGbn91AzPy6/FYbFC5MbiyVV/QWfy5639a0vLAHl5IKryM6bKLH3YcZlu2nWLHhd8RmHyCiGvhYOk3h/nptAt7QTbzFu/ms6NOfH75/fqERjB1TH1OLE/ixR+KFHIiUr1cJazbehxry1CibYBXbQa2sbF5azoZLsCew+yPNvGPzXkUuFycOpjB5jxv6te6UNCZaNq6HvV/Psh7uwsosJfy849H+PZkRWOoiWbtG9Dy2EH+tauAQqeDQ9t+Zq0zmFsbl0WGM+cE//khn+wSJ07vIIa3NbFq9QG25zmxF5zi06QcIlsF08AM4OKH5KP8WOQCRzHJh09To3YNbqrCK2Cq/tQlABZax7bhwYBjTJyXTmYlzWBNft7UMRWzKe/XZaXHM4g/DpgDADMdOjWksNTJTgsKORG5JhTuO0qCvT0Do7zYXhrKrV7HeeXHElwADjvUacgTt9ejZU0LZizUrmki8YI1mqjtb+N09mlyLzremgi6yRvv8BYseKa5e6nZAlt8LZhKfrO2nw/BXj50HdubQWfqNpkgN6fCMHO5ysqrcpZVLUFXM6o5z3WFef+XwubT5ctcLtdl3aH6Quu7Cko46bIR7A/klC0z+wXQobadPWkATv77bRKPH6rPu3e25f6jW5h11IgfxYrIdcV+iq93FvOv9qH0t9ej9IcdbPrl6TTm4HAmjwwm8eMknj9Ugt1Sm8f+Ek3wBSt0cTK/hBphPgSYoMKJ3Fnr5hSUkv/jfxky/xj5vym1tf7N2qdLyLHn88kHG5nx26tezAF0vpSft5JV+alLc0AIE4eHcmL1LmYfOTdU7KcKyagZSK+GNrxtPrTtVJ+OF4jjC63vKjrBkhQrg2Mb0szHhKVGTe4YdjP/jPZzB2PmqULSU37i79+bGTOyOZ1qeP5nFhG5PC7+uz2NQ1HN+EuLYpZvO8WZiZTZx0pNswkvLzM1avjQun0DOtcEi+VC0wMX+3anc6RxOA+09MXXy0p4qwbE1qlwisCPO9M4FtWER1r7UsMEtpsCuff2KLr6VbB24QkW77UxrF9jfudnArOVqHbN+Gsnf6we2BOeUMUzOhNBrRrRp5YV6+DubBp8dpmL1LXfM2r1QV7fWJNJ98Yy1lTMnh9OcvgCz9lzpF1gfVcJaxZtJ2RIS96c2Bx/exG7f/gvj6/IpJCAs2th19qdzGgUwz+GnuL+fx/juJ4MLCLVyHkyja9/juKvPmksSf91QLIfOciUDf78dXRPRpuL2Z18hE2pRTT09caM/bz12dNSefprb56N68ZqXwcHUo6RetJFRe/tS9P28/gCE3/tG8OyO7ygqIAN639kUWEFK7tKSPjPVgIGtmTyX5oS6OXk+OGjvPtVIaVUkIzVwORyuVwAiYmJhDdrd8kbDp76TWX16bq15InY6u6CiFwDND5Wrksdaw/u3UlMTMwNfAswERG5ISjoRETE0BR0IiJiaAo6ERExNAWdiIgYmoJOREQMTUEnIiKGdsVB53L/Ibi0K0TkVxofK8kVjrVXHHRB/t6/PPj0SmswCBdg+mV/iIig8bFSXMVYe8VBN/nOdgT6e+OqwkctXItcJgj092bynZd+VxkRMTaNj553NWPtFd8CTERE5FqmW4CJiMgNQUEnIiKGpqATERFDU9CJiIihKehERMTQFHQiImJoCjoRETE0d9BZLJbq7IeIiIhHnck1d9DVqlWr2jojIiLiaWdyzX1nFLvdzsGDB8nOzsbhcFRr50RERK6UxWKhVq1ahIeH4+Xl9WvQiYiIGNH/A7fl2uxnuN8JAAAAAElFTkSuQmCC;" vertex="1" parent="1">
          <mxGeometry x="84.48" y="561.75" width="211.04" height="238.25" as="geometry" />
        </mxCell>
        <mxCell id="NHgpnorcBEsm9mYt4aco-96" value="" style="shape=image;verticalLabelPosition=bottom;labelBackgroundColor=#ffffff;verticalAlign=top;aspect=fixed;imageAspect=0;image=data:image/png,iVBORw0KGgoAAAANSUhEUgAAAXYAAAFHCAYAAAC1eGdtAAAABHNCSVQICAgIfAhkiAAAABl0RVh0U29mdHdhcmUAZ25vbWUtc2NyZWVuc2hvdO8Dvz4AAAAldEVYdENyZWF0aW9uIFRpbWUARG8gMDkgU2VwIDIwMjEgMTg6MDQ6MjOk02cHAAAgAElEQVR4nOy9fXhjV33v+yGJdpurHVoJikSJVE5k+ljtiUWJ1RLrXLDvzchPbHHJuM1Yt8z4krGfMHYz1pSxTxn7tPbQY89p5SnRBKw5HDuhHkrtUGRykcNjPWktOJXgIqetHC4yjRUOFiUSBYletk7IVjJz/5BfJL+N7fHMZJT1eZ55nvHWXnu97u/6rd9ae623XLly5QoCgUAgqBhuu9kJEAgEAsHBIoRdIBAIKgwh7AKBQFBhCGEXCASCCkMIu0AgEFQYQtgFAoGgwhDCLhAIKprXL1++2Uk4cC5f3nmV+h03KB0CgUBwwyi8fpkvfP2fCca+h/KKyg9/otzsJB0ov/q2u7jrTgmX/d38/gd+nTtuL7fR3yI+UBIIBJVE4fXLHB6e4Qe5V7lNI3HbHdLNTtJ14fJrKpcLr2LW/yLTfc3cftu6uAtXjEAgqCim/v5FfpB7lTvulCtW1AFuu0Pijjvv4of/9ipfiibLf7tJaRIIBILrwkzse9ymqVxB38jl2yS+/M2Xyq4JYRcIBBXD65cv82//U61oS30jt90h8f+98mrZJLEQdoFAUDHcfttt/MuPf3azk3HDSf3rz4SPXSAQCCoZIewCgUBQYQhhFwgEggpDfKD0hkNFVYv/k6Q3zwSQQCA4OK6vsKtpYsFLTAZjJFI5CoBGZ8La0sd5d1Xxnmyc4MQkwfkEyUwe0KA1WHD2nqfLdgsLm6qi7vZeSUICiHl5qC9EfuWypraHp881Il+XBAq2Q1maZeJSkGg8SSZfAI0Wg9lB53AvDv3NTp1AcHWuIuwKy5EgU8EI8USSbL5AAQ1agxmLtRZnSwuN1m1aurrE5OkexhfzZZcLuRS51a9707Oc6R5hPld2B/lMhjy3rqjHHz9Cz0zu6jeuoaN55GlOXbcU3TjUleHGrTrayEaG6B4Mkym9WMiTWVZQRQ8ruEXYXtizMUYHhpjeIMxF4U2ykEmyEA5wqa6LwX4XVRve43TIz8SmsAAaDBYjoDDn928Q9VUMWAx7y4jgZhNhoGmQaGHlT00dg8+exXFT07RH1DgTvg2ivoregOnW7KsEb0K2FvZsBG/3IKEtW3gpBTJRH92nFc6fd2Nda/gqiUiCQsmdutpW2uotaAp59FYZiDMfLxV+LdXNHbhsGgp5mRrjfrN0C2Oqw92qY227IovlFh633IIsx1goNTQ0Fpwdh6nVFshL1ZhvWsIEN4q31b2f2WZ4wvtN/vKnW9zwy7/GU71WmP3vPPL1rQzXNwZbCHuWOa93g6jrsNTX47SZkdQ0iUiYuYXMmnAXFscZGrXy5CkbEqCqWXJKmaxT527DaV0doquoShal1AmtsdHS4cQhSVzbKH518vFan3NwWJp7OGbfaRwvYbIAsgN3h32bydM3Xr5KUZXNMwqqoqLK0nrntKt5h4PI337KSkXN5SjbA9Dqot3VgFz6nNU8SFJZp6sqadKqHrP++lVO0c11s8pHAMDPf8qXvvYSUurV3d1/h5GRT7yXX1/4Fr/3f2d3P+92jWwW9qUAl+ZLeiKNieazFzhVIkyuljZagwP0+OZZNXAyoTGC7rNI3lZ8CxsfmmOmp5kZAMPvcG/2/+GFwoZbClGGDzcDoK0f5sv99rWftp7MslLrctPmsrHm5Y8/zpGembU0VbcP45bCBNYmbzXoTDbqWtrocFm3nJTcdVx7QGt14HDswkG73eTpteZLWWJucopANE5ydRJba8BsteFsOYbLbtxiZJAlMTvJZHCeRDJFrhioWBZON+4WG8VBVYShpkHC29anhrrBZ2mJHqEntLt5B61zmC/3rte/uhwhMBUkHE+wnMmvT8Lb6nC1ummoKsnxfsoq7uVIT4hNqVvw0drsA6C2ZxpPvodj/tXNlgw09xxDCk8RiqfIF6DaM8UTLj2gko4FmQzMMZ9YaUcriwJsdY243S62nJpSEgTHJghE46RyBdDosNjrOey2Mn9mmPBKwzC1+nmyo6okoMpyZIJLgSjxRLGuVuu3vuUYLaX1ewDvyJuan/8bwdC/3exUXJVNwr4UjpIq+VvX0EnXJmtTwuzqpT1ylJH5lTe6sMjc/E9pPNDkqSwFBujzz5e/dIU8meQ8M755wrOtnDvXgXWLFrg43sdg2ZUCudQ8M74484mzXOy1lzTca4vrRrKXfKlLAQb6Ns9lFPIZkvMh/PNzBJ29DPc2sOb9UuKM9gwwncxvDFQsC/88oVAzZ4dPYb+uq0RUlmeH6PNFyWzoOAq5FAvhKRbCIUKeEc66zFu6rfbWBvZChpmRkZK/tRgNeiBLxNvDUChFeZIL5DOLRKcXiYZmaT93DndpQ9pqIUEhRzI6zUh0eod0LDM71IcvnCmLb7V+k/NzhJrPMnLKvqVRcv3Kp0LZ5Iq5g39f95ucrns7v67TwCsK315YYvjZNC+/x8bs0XdyF8Dv/DbR3/kp573f5K9/CnAnH3T+Biffp+fdd8GP/zVLaPY7/EXilQNJ5oYPlFRSyXTJ31psdbZt/Lx6HPXWsiupxP84kEStkp0b2iy0G8gvTjHgjbC3bfQLZEI+xhLrA6PrFxdQUFHVbf7t9Vk7R1SeLzXB2OB2E9TrYVIhL0OB1XrPMje0hahvDJWcYci3j7LYBXqdrvifpQkGRzaLejk55n3DTCztNZbNbeDa0GPQwXJgYAtR30B+kfGhMeJrUS8xNui7Sj1thULM28fIBlEvp0BqZoChYHrbO7YLd7DlU5nI1t9kpPntsPACH3viG/R9/RXe+Tv3Mlx3F+qLL/Ah7wtEC/DDf/gHGv90ni/9FOAO7vs/7mP4t3+BF/7ueT568R/57Mt38rutv8X/dUBzixssdoW8WtpEZHQ7+AxlvR4trLkOVOUXqO+/RK2aIzzUzfji6p06nIMXOGYBJAlZVVHUeXztPuZXb9HU0nPRg00CSdaDEsPvj5YIrQZDbQvHnBbIRJmaCJNaSWoueongsgP3phTqqDncSYfLik5NEvR7mVpYTW2G6GyCU1bb/uLaw0zagq+VlRH9FlTjmXoC154s313mKxEkXDpXYqjH09tKja5AYsqLb02ACiyGwqRb3BiVGMF4uSuuvqsTl0UiG59kfHx+bdVIPhYkopzF8/lLtCvz+E74mF9bFVOL56KHWklC1gOGXgbrNoiEmiLoHy8TNI2lld62opshEQyXjR61Na142hzo1WXmxn3MJFcjSxIOJeioKjc0dl1WXZ1cvHQMNTHOieHwWnumuh1/fz0yIOtllODGZ2sw1DiwmbRopCoc5mWiI4slIqvB0uyhvdEM6TkmfdOsRx0mGO/CZpdQ5i4RTJa+d1qqnW5cNTK5hVkCocWtDY7EBL6yyTAdNYfbcNm05KJTTISSK3kpsDA5ScJ1is0ltMu2JNiSu3R38nZeIbjwI76dBtIvoPzsXfz6zy/Da5dRlNdRXwMKr/Gzn79WNOTkd/Lo+2RejkY4+63ihmXffuZ71FvvxVlzF3+ZvvZNzA74AyUVSW/EiIRc1h9IaPRGjCW9kYwOSQPrb4GMbDauuQOUuQCRktasq+vlwtmGleFkAxYlSefU6mufJLaQxW3akJyaNvq7VsMY6WiLEirxpeZSKbLYkGL7iMt8E79U2WW+9IpSZlFrTbXU2arQA+bOVsJzI+tCrK7eK2OyVK+PJMwtdLpWhvFWA5nwMcZX3cyFDKm0hFxlRNbrNozsJHQl9UmVHUepWxiVxOg48VLF0tbQ0dextrpKYzZRXa1be56jo4MGK4AVK/OE+9ZFOJtKo2LdPLrcTVlJNvRGGTLFCdE1YZd0GI3GNVfExtGJznmWJ3vtJXGmWTZVU61Z/dtKW1cjdgmwWpETUbqn17pF0ikF7DLxcIzS8ZGh+RznT63kpdGFTXu0JNx6+cWCpUsztdR0jnC+ZcXicFhh+Rj+VeMqs0Bkic3Cvtu2tDGcAICXF17iS++7l/+z4z9w7/eyvPDijwl953v89Q5DWemdv8yvaeDtH3Qw/8Hy3354l6a4AOUa0/WG3VIgGU+WDS9z0WGONvmQZAlZkpHU8qFlZjkDG4V9I1odMqxbP/miKyS1n7jeSE19m3xhsWEhyuq7nZ8f4eiRaWy2aiw2G+6L05wzb/Cgyg5OPeEAZZlYJERkPsTQySlyeRVQUcqKQkXd0eewPUrMx9B0qctCR52nn5aSkVBVyzmeaIFsYo7w3DzxsZOcyOeLKzqULOXOomKer7rIY7uy2geybmNnZqSx/wkaUViKhAlHY0yePsH4ShxqNlt2dwEVWCZeZq2bqHeVd1BavQybVtenSSZKe8U8C/52msa0SLKMLEtQFl2WTI6rF9ABls+bAuVHnPv01/jCewzUv+ft1NXdy0ebXuUrU9/i7I5urNd5fuZbnH+p/KDtV5X8gZT3AQv7Qa2dUlFym7u8QiFPIZcnv8XAVN1XaaioNyAuS3Mf7duuipExHfjs1MrLaHTR1Rri9NR6x1XIJZkPJ5kPzzCFBl11A21dnbhKJvLSkccZ9M5wFTf7/snOMuQNlUmVwdlLb8OGzlJJEBgaYmx+Jx/ytXKwwqUuz+Id9BFO7TbFOcqan8aAZVduvhzpLazCtXa7qdmuLHHc8ysqhH17buPf1/0mvytn+HToX/jLF/+Fv3z2Lh475eCjH3gnn018n5e3CKW+/FO+X3gX73z77fyP6L9dl/LdIOwy2jL/iEIuu31rULLlVpMkSwcm7eVoMFgs6CiQVxVURUVRFdR84Tq88Acfl9Zqx77jOvbrhYS14wIXrROMXwoS3aTUBXKLIXzdcRKDF+h16FETY/QNzbBrXdozywQGfJv86v2ejasvssx5z+Cff+N+BLIJJYavb6R8XuOqqBvG3ft8hzQ6LBYDFPLrbVZRyReuX5dYudzG23Rafm3jDORP8/yk7Mpl1Du0OD9o5W0/h7/851d49VfexX0y/PjlV1buVfnJz+Ft5ndw/78r8O3v/YyfKC/zhRfu4fz7foOBHy/y1y+9yi/o9Dh/+6288MwLBLf6MGqPbEi6hMlihPlVf3KeeDSO6rBvuc45Ek6UXTFZLdeeopV0yLqyASGmw+c417iVOKooigrIkJy9cXHdAqjpBImMCrKdls562nV5UgsJYrEY87GFktUmGULjkxx2dJALBstEXVvTSn+vG7tRBrIETrau+233niISY4OMLZZFUOZXXyMdJhDdMInr6aOzoQq9xKY1/28ElEiAubK5zFo6z/bisuqRgKWx4yVzNavISKXNr5AtWvBX9fTpkMvCGXD2P0HLVqsq1KLQIwGJLX4XbOCt/H7H/8rvl10rMPv5Ofo3mOD//PU4Pb9YzWN19/JfGzW8+sor/POLCXqe+VGxv34tyxe+nuE+57s5/xEtw48/T0B5ja89M0/fK9U8+oHf4nPNt/PqzxS+/eL3+crPDyYHm1wxVfV1mKam1lYj5EJ+RustnCpbsKyyPOtlfL7kBdVU01h7cH5ni82CZmZ+bdXG/KUx4o5T2Mo0VWFpNkzO7rqm9dQ3Mq4bh0rEf5rhtc1bDBz2f54ulw2Hyw3ZOQaOD7OmnekUSUWhkC6VSh31bR3Y12a0kyT3siRvw2BPifkYmtrZr75GZrncq2xtobOxakXvVJZTy284F0E6Ve4yMjnbaVn7EilLMpndIpQJqwnWv91KMhtO4ypR6Hx2q5k4IzarlqnUan0tMjkeob7fUd4nqMtEQilMLofYEmEX/CT6TWqjO93xfR7p/37J36/wjdA/8o3QDiG+9Y/83rc2XHwtT+jZ5wk9u/+07sRmH3tVC8fqggyvvfEpZvpOsFiypcBSLExog9/T4OzAeYD7u8h2Fw7t/NrXdmRmGOjO42qpw6JVyWcSREJh5lN5DM0Wnjy1xYqIN0hcuYUIEXlnK19vdWyxFO1akDAZ9KxPumUI+R7H0taIRQe5hWi5D12SkSUZVS51xeWIToxhdZkoZBaYDcyxuK2wyxssyATBiQApVcXkduNgDu8Gv7rGYsdOgkhkY9INWHVy+SReIsh4QEOtNk8iGiQUvcpa8ZuA3qgt+zsVvsSkqR5dIcl8MEh4y0kLPbWOajQLi+tLT8d6OL3soqFKRknMEthy0yYJm6seQ2hmrUxz4SG6FRfueitaKU8uESMUjpLM6ajX2ejfzdfPgopgi8lTPQ2efuaTA4Qy6y94MjyNP7z1QzTV7fR3bfch0z6RHbR31hIbmV8bbudTYaZ8mxORCU0w13Zu/1+97ieuPVjtqdAIgzv06Kuf3Z894AmKqhY3NSHf2trp/OIMI30zW96rczixSxJKnRVNdGFd2hemGNm0RcQqKvk1s9lCjUVDaH69zcxP+ZlHh9PRAkEf0Y1fvyZD+Ia3KBitk+Evu6gxTJHKrN1MyD/CdsVYUAo33YLX1ziwsMjqalAyUcZHtjf/1BVL3OhsoyHQt74/UyHDwsw42xb7CpK1g07nPIPrAcnMT+Ob3/ilao7IpSDLDrew2t8kbH00nt5O74VztNbotvx5HQ2Geg8XynZ2PDiMjWcZ6axl51Ro0NlsmK8x/hsZ1w3D6OLs2VaqtTvfpq1p52xncR5F3+Cho2a7AFq0ZT/lWE6tuhdkGtzOLVac5kinMijZvXrDrXR4nBg0W/+q0ekoS0omwUbv9Q3H3IKn1cI2SUanKy/XdCq18sGKHc9g+1XraTMyDs8wPfWGbeMsosVSY7lFZoYEB8H2yx31NjrOfx5nLEggOMdCIkVayVNAi05vxGKrpd61w0EbB4JEVcs5Pl9bsglUNk+hoEGrM2Ky1tLY0oLTttUmVm/kuG4csq2DJ550MBsIEIrGSaZz5AsaNFp9cZMo52FcDVXrL71kpuXcRUyBcSZDcRLpHKDDaLXjch+jXvFzdDi6ZtEn52JkXY3oAcl2ipERM/6xALFkhjxaDBYb9n1uZC7be7l4voaxiWnmE8tk8qA1mLHVHeZYm4Vwdydrc5G5OJEE3NxvJFdWIVkmGA+Eia+Ugc5spc7VRlttkoFjvrXvCgrxKDG1AYcEUpWbJ560EhifJBRLsJzLg9aAxVaHjShT0RJ3TOnXf5KZxv4nsTmDTAbnmE+kyObyFDRadEYTlpoGWlpc2G8Za0RwELzlypUrV252IgQCgcJSLIXebt2wICZL8PRRfAtrezVQ0/M057dctSUAsHX/FZq73nazk3FDKfzsJ8QvfGTt7zfsl6cCwZsKJcL4wAjzkokamxWTQYdRUknGw0RKl4dixn6ztxcVvOERwi4QvAFQ4/MkCkAhxUI0te3Eqa7+GC4xAyq4CltPngoEghtKMp64ysdWGnS1nQz3OsQk6A5cvnyFu9/+1pudjBvO3W9/K69fXt93RljsAsEbAGvXRcbtYUKhCPOJJMvZ4mlGWtmIyVpDg7MFp8MsRP0q3HbbW/il/0Xi5fyr3HbHm2PC+PJrKr+s/wVuv23dTheTpwKBoKL466//M+e/8gJIe14/emvyqsJ/PGzjiOM9a5eEK0YgEFQUDzuqeNcv/wK3F/Jcfu1mf7Z2/bj8msodr/1P3qX7RX7v/rLDDoTFLhAIKo/XL1/mq89/n6f//kX+9Wc/54c/vvZTid5IvOttd/Erv3QnR/5DFQ++793cdttbyn4Xwi4QCCqa1y9fLvM/VwJXy5MQdoFAIKgwKqsbEwgEAoEQdoFAIKg0hLALBAJBhSGEXSAQCCoMIewCgUBQYQhhFwgEggpDCLtAIBBUGELYBQKBoMIQwi4QCAQVhhB2gUAgqDCEsAsEAkGFIYRdIBAIKgwh7AKBQFBhCGEXCASCCkMIu0AgEFQYQtgFAoGgwhDCLhAIBBWGEHaBQCCoMISwCwQCQYUhhF0gEAgqDCHsAoFAUGEIYRcIBIIKQwi7QCAQVBhC2AUCgaDCEMIuEAgEFYYQdoFAIKgwhLALBAJBhSGEXSAQCCoMIewCgUBQYQhhFwgEggpDCLtAIBBUGELYBQKBoMIQwi4QCAQVhhB2gUAgqDCEsAsEAkGFIYRdIBAIKgwh7AKBQFBhCGEXCASCCkMIu0AgEFQYQtgFAoGgwhDCLhAIBBWGEHaBQCCoMISwCwQCQYUhhF0g2Bcq6bRysxMhEGxJ5Qt74nGOHjrEmdmb+RJGGGo6xENDsZuYhuvAG6JsbwYKsdFuTnjDZA/wmbOnD3Ho6CiJXYep0HYluGZ2FPblyRMcOnSEx+PqjUrPwaOzUVtfj90s3cREGLA11OOw6W5YjBVRd29Q0sEBhkI6Ontd6G9qSm58uxLcGuwg7EsEg0kgRzQY55aVB2MDp/r7abHeGGFX5wZoOnQEb7z0ahWu3n56XVU3JA23ft0tMXb8EIdOBw/QIj4gsrP4xhJYOjw0Gm92YvbXruLeIxxqGiCyx9i2btuCa2G/dXE1thV2NR4knNFRXW0gFwsSe7ONtm9hRN1dPxKTl5iXGnA7b7qqCwTbso2wq8SDYXKGOjo89ZjyMYIb1EGdG6CpaYBgbJKBE0doamrioaMn8c4ul1iIS4wdb+LEWITZx09z9KEmDjU9xPEzY8SyG5516ARjkSBDJ47QdORxikZBltjkACeONNF0qImHjp7GG1xiNSVqvOjjPfp4Yi1OJTLEkUNNnBhbKl7Y4Adei2suiPfkUR5qaqLpyAmGgkso2TiBgRMcaWqi6aHjnJmMsyHXLM0+zunjD9F06BBNR45zZnSOZRVWfaTNw1EK5Aj1HOLQWj7KfaHpwEkOHTrO2HLps7METzdx6PgYS6tXYmMMHD+ykveTDAUSXF2jr153yuwZDh06ymiZMzfB6NFDHDo9ux6HmiYyeobjR5o4tJIGb/AqadgU5jTe2aXyMNkYYwMnONJ0iENND3H05BCT8ZUGkXico4c6mUoBCz5aDx3idLD4W2zoIQ49NESZRzkd4MShQ5yYLBZmsX5PMhmbY/T0UR5qOrRWl+XWv0IiMFRsW00PcfT0KJH4JCebjvL4tk7uOLPhDDp7PbbSAaC6xKz3JEcfaqKp6SgnvbMkgmdoahoqs8TU5TlGTx9fSdNRTntnWbrKcGrnMFv42Hess+L9PaEcFKIMHjpE00BkF3Ht1LY3lmUTR04MMBbb3Vir+C4c2uLfcVaqdFf1XrwWWanzlXc6EGfO+xBNpW2aXbxXO7XP1RwnAiv6cYhDTUc4MVCuaavxnDm+oo3HzzAWizB6tGklzTvXBcoSwZU2dajpCMfPjBJJ76pIge2EXYkQjOUx1DZiq3JSZyoQD24xUVSIMupPYm8f5uKFs7RZcoRGevCWCUmB5JSPkOSif+QiF3qdaBNTDAwEKNM1lgn4glDrpsvjwoJC7PFu+saT6Jwe+od7abPlifi6ORMohpRsHXicBjKhUYJpQE0wMR4mZ3LhadtpeJokMJWgpmOQCxf6cRnShH19nOj2EbO2M3zxPP1OLfHxAbyR9bxk54boGQmRt7bROziIp15LYnqYvtE4KjKOXj8X2msALXWeC/hH2rBuEbuxvpEaTYr5aEkJZKPMJQqY6pxUAUrMS3ffFAldPZ7BfjpqIeY/zUDwKrW727q7Kirx0R4GgylM7l6GB3txW3LM+c7gndvuaQox30qYll4GB3txmVKERvrwrZXjEmM9A0wldDg9gwz3tmErRBg/M0AgDVjaGL7Qh9MAWA4z7Pfjqd+rJzvJpD+EvqWfCxcv0LtSl7659bpMzw5wxh9BsbTg6fVwzJphfGCCZGGHxy7FWMhpMNVYWdd1hYi3j5FQBoOzi97eYzjUaQZG45Q9Kj3LQM8wwYwJd+8gvW028nMj9A3NbV83ew5ztTqz0X7hAp46LVBD+wU/Fzptu4hrp7atkhjt5rQ/hqaui/5+D05tgqmBPlZtq53Q13UxPDy8/q/vMBYNaEy12PYyKFLjPN4zyHRSxtHRS3+nE+2cF+9cvqwerv5eXaV9AqQDnDntJ0ItHf3DDHbZITbFQN/kuqYtTdI3MEUcG22eXjwtJhI+L8HMamp2qAuWCZzpxjeXx9rWy2BvC6ZUkMGex9ntlNkdW13MRkLE8gZcjcWqc9aZmArMEk67aCkrbB0Nnb247MVmbu7vZfl4D6HJMFl7ycRStZvergaMAFVdnM0nOeqbZCreQu9qXpCwe0bod8greQswPpPBcPgCZztWXiS7DZ1ynOGJceacZ2mQZeydndTHBpnwz2G1BQimDDSPdLCzS72Y7kYbQBVdXTGi3TNkTZ1cdNuRgaqONhrCfcyF4qgOBxKQSqpY6rvw9LowAzgs5BPH8M9HSGLDaqzCYpDRICGbrFSZt4leX4fTOspIOMqy24wZUGIREgULbU4zsMSEP0TG0MzIua6ideiwokkdZSQQYMnVxXbd1u7r7mosE1vIgNWDp6UBPWB3GJEGxohlMrDltGGalGKgtq2Dfnexzhw2SB4ZJhZOgMMO2QXiqQKm1k46GosFZLdIqL45sikVjHrMVhM6CdCasVRV7WOCUsLeeRb3arvsaCMa6iMSjaM2OJBYInBpgbyplZFzHcWybGjApj/JMX9u26eqmRRpZGqMckmWQ0yGc+icw5zrshfbaYMDw5kjDK+ZtCqxS+PM5yy0+s/irgJwYFGTtI8HCKcbtqib/YS5Wp1ZMVZZMckSaGRM1qqVdrSbuLZp2+kgo8EUUt0g5045kAGHTSZzdJDgdIy2Xjs7vYqS0Yp9LR9ZIgNeklho77vaO1yOEpkklNFS1zdCb0OxfhwOE4WjfYTW7trFe3XV9imhJNNIViee/lM06AHsGJYTdE6HmU+7MRtVYtMBklTTOdy/Uk8NNFTD8c7plbTI29QFKHN+JhahxjNMv6tYOHZjmuPdISYjHdgaStrfNmxhsaeJBuMUDHU0rJibZqcTS2GRUHh5090aqaT0JRsOm5ZCIkaitGeRpLLK1dc6sJAjmSh9noROXk+wkoiwjIG6hlLrSI+j3oYmn0GotcgAACAASURBVGA+uVo+Djo9dUhRL6fHFtE7e+mwXb1FaEr/0JnRAUaLibUUSAZMeigoubVhmq3jHOf7V0R9JT06vQbU/B4nKPU4XDY0yTBFo10hEo5TqHZSbwbSCyykQFfbgBUVVVVRVRmL1QipFMltfSF7q7udMWOz6iARwDc5R3xZQcVKy9nznHNvNQ4BqFr7fa0GZD16GVRVKZaRvgabCVIhP2OzcZayKphd9J8/T4f9oCa4JbRl7VKHToaCspKG7CKJDJjq6ss6SL1OLm8XG1ByCgVkZO36NTURJ4kOu7NUwGRkfWleksTiObDUUm9erU8Vo8WCjhSJ1Fax7SfMfupsv3GtlEk8RrKgwVZvQ1oJp0oWrCbIJ5N7GimmZ714owrVHX24q/bWFpLzSQoaG/WOEtGTdGhLH7Ob92oX7VN2dHH+fO+KqBfRm7WASlYBWCaeyIGlkfrSzlc2UtJ0tiURTZDHSkOdfq0uMNkwaQqkdqqMEjZb7MthgosFDM12DIpSFDXZRo0JpkMhltwd21qLADqdHgoKORW27ar1OvQaSKTz2z5HyecpIKPfUBKSXkZGQVHWI9A73NQbokxnLLhabVy9P9uAtEMjUkskO5sgODFBcD5JOrsiEoUC7GO1mWx3YtcOE44u49Ynicahuqu+OKpR0ihAbqaH5pmNIbUUtutFrrHuypGw915g2DTORNBLz3gBjc6Co6Wddred7Yx/ZWmWiUtBookUWaWY0EKhtCOtomPkAsaJMQL+HqZGQGuqxXmsk44G847W3TWzWm7ZNHlAZ9zrWGBzwSv5LAX0mHZsAwp5BchM0dk8teE3DaqyVYXuJ8z+6mx3cW1dM0peoUCB6PBhmjf+aFJ2MSe0wnIQr38eanvob9luqLsdKllFAVmHfqcGtKv3ajftM01scpzJUIJkNluUiEIBMK08K09OAY1Jt4/RprqibQv4WpvxbfhVl9+dCblJ2JdCIZIAM320bsp8mFCig6odOv+8ooDGsHPPpORRCiBJ29tHslaLhgzZDdqvZhUUZGR5vQbTsxOEMlq02iSBSxFc/Y69i/tVWWKs5zRTWQuHPf30WAzIkkrU245/d51oObIDp13LUGSeJUOcOFY66laagaxHBqTmQXobNzYNLYZtWstu606S2NEyXceI3d2P3Q1qOkEkOIF/vI+e9AWePGXd/Kqng5zp9pE0O/H0e7AaZCQ1jr97pHziS2/Fdeo8rlMq2aU44Us+xoZ7yElPrrvituLADHoZCYqW0F6CaWQ05FALpdckIEd2x0fJaGXA1Mpw1+a2qTNJbO40dhNmK/ZYZ9cUF8haGQ06HD1n2aTHGgO7k+glJr2jLEh19PU2bu6ArlrvUtE2Uws7j5x3+17t2D4l4t4e+kIqte0eztWZ0EkSueAg3VOrsUtoJEAtdmx70yKpqG0aG53nN8/RaXSWXT1lg7AnCIZTYGmmr72hrPdTlQjjQ9OEg3E6rKuOcZW8WtKbqwki8zkwWjCV5iavlBV4NhYhgQa7dXsbQrbaMTPO/FwC1braIFdcFlobtav5y87i888j1Q8yUheie9iHz2mj337A0p5e8b2199LVsNpcs0j7XiQuYXc6kAdC+INpVFsna3OERhs1BgimFAxWxy57/d3XnaTXI5Mgly2tO4UyYyA7x1D3OErLMOdazEhGKw0dnWSi7YwnE2SxbnoBlUSEZEGHc23+AlDKl5ioscc54UtS1/8EHVYJfZWdFo+bSNRHIp4CR0lT3iC8Op0e8tnicHe1elessD3VttGCRQtzkXmyLetzQdlMjp3mTmWjAZk4mZJyky0WDCywML/MuuM5S7ZM6S3YrVqm4xlUkxXrrhK7jzB7qjOV9Vd3P+krIlttmJknldNibdyrpV1MR2J0mIlFmfrBcvfGKrupd4vVAuE4kbiKfdUVq+aKnoNVdvFeXb19aojEM1Djode9/oxyhTNhM2mYSUSJK42s2Sq5NDm2aquldQGWWiuacIo0ln1/f1Mm7GosSDSjoeZYGw32jdm2oNiCDEeCxD02iu9tnrD3DLr2FuyyQjx4iemMlhqPq3zIn5ygb0jimNMEqTBTE/MUDM207GSdmV20O4P0TQ8xIB3DZZPJRSYZi6pUtx+jOH+QZc43zjw19HQ6MOtNtAVO4Pf5cV7s5UC1XW/CqIVIOMCczYVRTREPTBFIAtK6vSUZDeiJEg9MMqvW4rBXbSs6ks1JndzDzIKGur5SS8mKu72O8LCPnqEcx5wWZDVLMhoiom3jfJdtkxGzl7qzW53YdSHmJseIGFyYCimik+NESsfNeis2QxbfxDBDtFJvklDiQQIpMB3eLOoAstGEnnkWQrPEtRbILBCanCSWZ62AJIsNkzpDwDsArU5sepVkcJIEOhrsq721EZNOA4k5JoI6GmsbsBqhqr4O01SAKf8c5lYLmswCU+MhsuxR2CU7h90W5sZH6RlSaK0zUEiGCQSSgGH7cBYrFs0MqcQyOFZaeFUL7poQvok+zihunBYNmeg0k/Ol/icJ+7EOamI+vGe05FocGGSFTDzKbMKC57x7CxfZPsLsss50Jj0UkgQnZpEcdhxW/a7i2rJtm120Nwfpm+hjQDmG06aHbIpYaI58y1n6HXqWxk7QEzLh+Xw/DRsarhofZWg6BdWt1EtJ4iUfP2lNVqr00q7q3eh0Uzc5yMzQGaQ2F1ZNjnhwknCOdQ/Jbt6rq7ZPBYup2DYDEQv1eoXkXICpUBrWSljG4XZi6JnBe8ZLxlWLrpAgOBkkQ3lb3aou9A3ttEx3MzVwBtpasBtAycQJz2aw95/FtYtFECXCrhALRshpHXgcW/VlMo4WB9q+4rroorDrqG9xkJv2MZDMgc5CXWc/vRtjrnbRooswPpQgo0oYrM309Z5i5zlOuegv1PkYD/kYnAKtwYLDc57OlS/tlIgff1TB0t5JcWRlxtXlItg9jW/MyZOnNgvgvpHsdPa3oviDeLtDSAYLDrcHj26AwVCJNWF10+lcwDc3gT+jYLFXbe/Xlmw01hmYCVtwbuiF9A39XJAm8F0K4O3LgUaH0VZH62HLFnnaW93ZHTY8wx7UkQmGOqfBUE2DuxO30sf4WhgjrrMXwO8nMOElnC/6a+2tw3R2bOOLs7bR35nBN+mjJwQ6iwN3Zz86Xw9TuRxZwKhvoH8ExvyXCPkGmSpo0JlsuPo6SyZPZRo6OggPjREa9ZPvtdNvlKGqjcE+Be+4l+4Q6Cx23J0dqGd8ZHauvU1UuYc5q3jxhyYYiUgYrPUca6lhZCqzfZuR7dRbNYzEF0hTtfIaG3GdPYfq8zEZ8DGMjuqGNtx1Y4zHS7wIZhfnRjSM+qeY8M6QQ4vBbKOutW57d8Wew+yuzsyuTlpjQwSmfPiVc9iteqTdxLVl25axn7rAiNHPWNDP0FQedCasdhdt1mJbzOey5FXTluW6HFso1t3iFIN95f796s5LPNFi3F29yw76h3vw+S4R8g0T1Fmwt7hx5vyESiK+6nt11fapp9HTS8I7TnCom4Bkwuo8Rl+nRPdInMzK5KJkO8XIoITXH2JsZA7JZMPldpH3TVPqW9qyLqQqOkbOY/SPMTk2xHS+qH12Vxu1u13ZdmWfvPp3f3LlwQcevvKpf9rprhev/LdHHrjywMe/cuUn+41IILhBfP+/PXLlgQceu/Kll7e/59Vv/fmVhx/4yJXPfOfVHZ70kytf+fiDVx74yGeuvHjgqbzVePnKlx578MpHPvOdKzuV2HXhZ3935U8+/MCVD//5t250zFvy6j996srDDzx45RN/97PrHteW69gFgsonQcAbJGuyYtJpyCfDBIIptLU91O1gFUn2djrrjuMdC9Fy3lW02pdneXwqidFiRqeF1HyQ4AJY2l17WIVUoagJ4hkr7rPbTdweHNnIKP64HqtZh5YcC7OTRPMGDrtsVw984KjEJr1EFCtVJi3kEswFZsjp6nEd9PzfFghhF7w5UQB1mWhgjlSugEZnwur0MNixxaqMMvQ09PYzf2KIwVELI11WJBUK6XkCc9PkCprisLnzHJ17XrZXgUgNnH264YZEpaoqykKQiWCGPFoMFhutw5103KANAMtRQFFJhicIZfKg1WG2Hqavs4OdphYPirdcuXLlyvWPRiCoMLIxJsPgarFfh6W1AsG1IYRdIBAIKozKP0FJIBAI3mQIYRcIBIIKQwi7QCAQVBhC2AUCgaDCEMIuqFyUNGlxLKDgTcgNFnaVuYGmDcdq3QqoLM96OXmkeLTfmdk33BHLB8AWx6zd4qiJcbpPDDG3hyPFBIJKQHygtBuWJhgcCZGtOUyPy4bZtvddlm8midGjdE9vt5uKhfbxi7jNBmwN9UjWfWwuv6v4ofnC5zllzRI42Yo/Wcfgs2dxHHhs60h2D722EwwMjmG60MEez24QCG5ZhLDvguxighQGDnd00bjTQTQHyhJjxzuZ0nmYOu/ax4b9G7FweLBzi6/etBiKZxbi6u3Hdc3xbEZnraM+BzYdgITF4aTebC3bR1GdG+Ch4QQNI0+XHJd4rcjYO9uxH/UyEnBy0S2+BBW8ORDCvgvUlc2SN57mdEuh0WG12bDdhM8kjQ1d9K99VS5jc/dyw3bvkBtwO8fpnrxExNV/Qz7nFghuNpsO2hg92k3Q1MPT5xrX97SfPcPhkdTKUBri3iP0xOsZ9EgE/SHiKQXJYMXZ2UuXo2SnDWWJoG+EicgyiqTHWn8M6y4OplASAfyjASLJDHl0WOxO2j0drG4zvuv40xFGvX5CiSyqbMbh7qQuOYA33cnT59fzl42N4fOHiKUUJIMFe0sXnhYrMstMnmhnfOV81fH2Q4xr6hl8th/73AAPDWdoGXSRuTRBJFvHuadPYUNlaXYU/1SYRKq4hamt/hidHQ2YS1wB2dgYXn+IeFpBMtpwdbpQfUMsuC5y0RbgaPdMcUvSlI/WQz5qPFOcdxULQF2eY8x3iVAihSoZsDqO0elpvEZXQ4ShpkFijmG+3G+HbJCTraPInvPUJ0a5FEmSUWUsjjY8HlfJYQwr+b0UJpFZ2bK17hiertL8pomM+bgUipPMgdZgxXGsk87GKmQUZk8fZmSheGeo5xAhXTMjT5/CEDjJMf/iFmk10T7+JEUDXCER8OGbjLCsgGy242z30FGyJ73VWYdpOkgopuDYxUHAAsGtzv4t9kwQ/6SLds8wndocUf8Q40NDmJ98YmUj+Cxz3h58UYmaw124rBoy4Skm5q9yRmg6wJnTflKWZjr6HehyYS6NTjHQJ3Pxont9b+irxa/GebxnkBnFgrOjnTpdjljAizeZp1DiTlFiXrr7Qqg1h/G02yjEJhnzn2ZAepLzLjPOPj+m4DCD0yrOvn4Om3Qlm0QtE/AFcTjddFlrsADZuSF6RmIYnR30thtQ45P4p4fpU/Xr+8MvTdI3MMWysZ42Tx2GQoKgz0siUyjmz9LG8AUbU0PDhOTDDPc4Mayez5meZaBnhLhUR1tvO4ZclKmxEfoUiYtnG7Z32RRAXT2pZQ1px+NeoUB8zIfc1s5gq458Yhqfz8eAZOLzvcW8KGv57aK/XocSDzI+NUxPQebzvXYkFGLeHgbnoK6tl2MmSAT9TI30ocrFo/AcvX7MYT/d40nqPOc4VrNypFpdF8OmkmUtSoxx7zTLxlpsRiievtPN6eksluYu+u0aEoFxpgb64MJFOla3VjTbsWinic0noMG+U4YFgopg/8KusXHsbBerBpC5w0mwO8hcXMFllGE5xFQ0j6H5LOdWT/xpsCOfbMW3w6kISjKNZHXi6T+1ckyWHcNygs7pMPNpN+ZVVb1K/EpkklBGS13fCL0rNzkcJgpH+witxbbEhD9ExtDMyLmu4sEfDiua1FFGAgGWXF1UmauwGIs+GJPFunb6WVEfJeyekbJzOuNJFUt9F55eV1GcHBbyiWP45yMksWFFJTYdIEk1ncP9tBgBGmiohuOd08WHSHrMVhM6CdCasVRVrQi2SuzSOPM5C63+s7irABxY1CTt4wHC6YaV523FPCOHmxnZcLV0JLAVeqeH/paVntDcSWt4jpH43EpeIDEfJ6+xc8zjwiEBdjt6zjCZyZAGzKRJKQZq2zrodxe3bnXYIHlkmFg4AQ47srEKi0FGg4RsWi9jjFbsa/nJEhnwksRCe18HVglIBxkNppDqBjl3qngClcMmkzk6SHA6RluvvdjuJAMWI4SXU2SxH8B8hUDwxuYafOwSctkZT0Z0FMjnikcJKck4y+hwNpSeYiSj1WvY6bgb2dHF+Q1LJfRmLZAvnlK0y/iT80kKGhv1pU5VSYe21EJNL7CQAl1zA9Y1a1bGYjXCVIqkAlU7jtwldHL5DbaOc5wvTz06vQYy+ZXOYJl4IgeWNupLRVg2ooUdz9yEJLF4DixO6s3r1rfRYkFHhEQKtt9ztprWka6i+JagNe0sc3LZxIKMXi9BIr92+ryl1oY2FOOSLwCuOmxWI/aO86zbxVW0nD1PS/lD0cugqsWTInfjQUrPevFGFao7R3Cv+JyUeIxkQYO93oakqsXylSxYTRBOJsliXykOGVkL5LJkQQi7oOK5DpOnRbVRcgoF9Bj3vHouTWxynMlQgmQ2WxSvQoGSgwt3Eb9KVlFA1pUd6ryJlQNxczM9NM9s/FFLYT8HVWcTBCcmCM4nSWdXjrgtlLqf8uQU0Jh0+xAYhbwCZKbobJ7a8JsGVdlBJjUyFsveDireFnX9jNfVo8bGJycZ6vZT0BioaWiho72FlZPRUJZmmbgUJJpIkVWKIQulR4JejeUgXv881PbQX7LHuZJXKFAgOnyY5o1hTArrdoBUjEvdT4UKBLceG4S9+KrtbDXuDkmSgDzKnt4llbi3h76QSm27h3N1JnSSRC44SPfUXh604jtWC+wYStYjA1LzIL2NG2VWi2HPyrvEWM9pprIWDnv66bEYkCWVqLcdf2o9bRoJUJWyU9Z3h4xWBkytDHc5NoXVmW7GQm0Js6ODs44OUNLEIwHG/H5OJ9XinEg6yJluH0mzE0+/B6tBRlLj+LtH2N2nUEtMekdZkOro6y0/BEPWymjQ4eg5y6YzLTSGknNBFfIqIOuv+yk+AsEbgQ3CrsdsAFYOHl5bFZPf+3fZeosFA0ESi1moWlVIFVXZqdtYJhLPQI2HXrdjzaJVdpbnLbFYLRCOE4mr2FdPzVZz5EofZbRRY4BgSsFgdVz7ED29QDxVwNTeS1fDqqxkkcqSb8Jm0jCTiBJXGteX3+XS5NhC6MusTAt2q5bpeAbVdEDW9zWxTOBMHwG5nQv9DehlI7bGLjoSYXpCcRKKG30iQrKgw9nZS+PqGkclscvnqyRGh5lYlKkf7F2Zc1lHttowM08qp8XauNMa9RzpHGgshqucjiQQVAabhL22oQaNL8h40Ep7jZZcIsjYZJI9eyatLlqqg/gnhhjTdeA0QSo0xvgCO6yK0WMxaSAxRyBioV6vkJwLMBVKs4PzeEuMTjd1k4PMDJ1BanNh1eSIBycJ5yjx6lhxt9cRHvbRM5TjmNOCrGZJRkNEtG2c77LtzcLTmzBqIRIOMGdzYVRTxANTBJKAtOq+kHG4nRh6ZvCe8ZJx1aIrJAhOBslQKuxGTLpiWUwEdTTWNmA1StiPdVAT8+E9oyXX4sAgK2TiUWYTFjzn3dufsVnIkYjH0W/qDCR0FivmfXUSZmosMmNTPga0OVocJqRMhMlwDo3FjlUG2WhCzzwLoVniWgtkFghNThLLQ2l/LRkN6IkSD0wyq9bisFchxUcZmk5BdSv1UpJ4yT4UWpOVKrOL9uYgfRN9DCjHcNr0kE0RC82RbzlLv2OlzWaXSWbB7LIIi13wpmCTj93o6qd/eQj/2BnaVQmTzUV7ZwO+4b3u7mKm5ew5VJ+fwFA3U+iwONy0H84zEt4ujJ5GTy8J7zjBoW4Ckgmr8xh9nRLdI3Eyud1OtQGyg/7hHny+S4R8wwR1Fuwtbpw5P6GSR6z6iH2XAnj7cqDRYbTV0Xp4HyIg2ensb0XxB/F2h5AMFhxuDx7dAIOhbHHyVwbJdoqRQQmvP8TYyBySyYbL7SLvmy7Jn0xDRwfhoTFCo37yvXb6jTKYXZwb0TDqn2LCO0MOLQazjbrWOnb+rjLJ9GAP05uu62geeZpT+/xiqKpjmHN6P2OBCbwzedAasNg7OdfZUkyPtY3+zgy+SR89IdBZHLg7+9H5ephaGRkaAaxuOp0L+OYm8GcULPYqiC0U59kXpxjsK59TqO68xBMtRuynLjBi9DMW9DM0tbKO3u6izbpuiCjxKImChbY68eWp4M3Bm+toPGWOgaPDxB3DfLn3jbWeWY0/ztGeEJa+pzknPqI5QLIETx9lTPLw5LlGsSJG8KagorcUyEZG8cf1WM06tORYmJ0kmjdw2HXDPmjfBpXYpJeIYqXKpIVcgrnADDldPS67EPWDRImNM5mw0HZRiLrgzUNFC7uqqigLQSaCGfJoMVhstA530mG92Z5WBRSVZHiCUCYPWh1m62H6OjvEXiYHSXqWIW8Mk+fC5lUzAkEF8+ZyxQjeXCSCjKVraGswi0lTwZsKIewCgUBQYYij8QQCgaDCKPOxq+KTa4FAILglkUq2ahUWu0AgEFQYQtgFAoGgwhDCLhAIBBWGEHaBQCCoMISwCwQCQYUhhF0gEAgqDCHsAoFAUGEIYRcIBIIKQwi7QCAQVBhC2AUCgaDCEMIuEAgEFYYQdoFAIKgwhLALBAJBhSGEXSAQCCoMIexb8hJPfayZ5k88S+5mJ0UgEAj2yD7PPFV46bnP8dSXv8F3f/BT8mh5xz338YGHP8pH7jeIY8iuETX1NT77mS/w9cUfoErv4O57P8Ajjz7CfYb1ezLf+DR/9unn+G5e4u57H+YP/+hhqsV5qQKBgH1Z7CqLT32Cj3/q6+TveZg/+KNP8sk/epQP6F7imf98kj99LnPwqcw9y8ebm/nYUy8d/LPfaOS+xp994s95LvMOHnzsP/FHj34A3eLf8Cef+AueV1buUb7GZz/1PIZHn2L68/+FB/Jf5M++sLj6IwtffopvXIdqEAgEtwZ7F3b1G3zxme8hfeAP+eTHH+KD99/Hffc/wCN//F947H3wD0/9Fc+Lg5j2zeIXP8c38/+Oj3zyT3nkgfu5/4FH+OM//jDv+NHf8tRqp5n7ERn1bt5/vw5Jvof336sjl8qgAurC5/jMMzkk7U3NhkAguIns3RWTz5MvgFaro3zkr+P9D3+UDz8vUaopueef4tOffY7nf5BHesc93PfhR/mDh6qLYXPP8vFH/oq7H3sM3dc+x3MvZMhLOqofeJQ/fPR+DEDqi49x4nPfKz7sb07S/Dd389GL/5WHTQAKi1/+DJ/+4jf4QR60d9/HA488xiP36QBQv/anHPnzDB/+j03knvki33wph6q9m/s/8nH+4H6F5z79Wb74/A/ISwbuffgP+KOHazbkKcPCU3/MF776AhlVwnDvgzz68UdYeXwxjtTX+NxnvsBzK26T6vd/hEcfe4B7JCj66k/y1Xv+kD96x3N8+quL6H7rnXz372/noxc/vZKH8vgWF38Ed3+U95f8JlW/n/t++Rmee34R9SEDku4d6KSX+OY3Mtx/X57nv5tDd48BSV3ks595nnsefYL7hFtGIHjTcvvg4ODg6h+vv/761UPc+VbUF54l/K1FMu+s5t5369Z86pLhPdz3W/fw9tuLfyvP/wWn/mSGzK818rFHW7iX7/DVqS/ygq6BB94jw89fZPZv/juxF1L82u928rFjH+K9v/QSz01NEcnfR+N9b0f/q/dy/3tvZ3Huu0j/+3/kkx//MDW/+kvcebvK4mdP8YkvvMTbG9p59OH7eev3nuNvAt9A/e0mfksHr3//63wx8m2++8O38qH2j/H7H3ovb/nO3xL66tf4+t/Hyd/fwccfbeK9l18gMBXk+/c8yAdNEpDjn4Jf5TtLL/Li7bW0/H4L91sKfOe5r/Ls8xKOpt/klwAyzzHYe57Iz38Dd+dHeeA9Kv/0zBd49qW7+d8++G7uXHlOfPEFXpTuo/FDjfyO+S7eIv0K995/H6Y7NxZujhe+EuSfJDstjdUlnUye/zf0Vb7Ne/lQ43u4U3o3v/mOl5n97AU+8/k5fnD3g/xh5wfJB/+Up5Qj/HFbNZseLRAIKprbb7997f/7mDw10PSfPkn+zz7FX/35Sb7+mbupvu8+3v+BB3ngflOJGL3EFz77t/zoHQ9y7pOPUiMB91cj/eARPvXMM7zU9Cj3rNx594Mf57EH/v/27j+sretM9P03sSSTSImlMUU0EY1RfA7qBFESuY106wGfx7q1we5ATiDxY9wppA7JHMhpbafBuWO4je1OTG5spif4uQ1OBzpjfJ2BzMCUgjsVd4yuW+R7LOogOhW9jkwGpYMYUinJVgZv4fr+IWF+/zDGdiyvz/P4Sdjae+21t6R3r/2upb2ifxlTKsD7DAcdTXRvryRbl4LRaEAFRHQpmIyxpmygnbp2PyrrPvaX29AANrOa4WcO0tHipmi3JVa6lqzS3dgzAIyUlrrp3tNB0FDKG4UWNICxuIisriqcDg+yzTbR+WvIo/JQSayeNszKAM8da6HJncduC7gb6+kJpVLwRiWFxug6xoiP5xta6Qpkkz/e2anPYd+BEsYb4V+1z31uDXolePrxSaC/ejJlIjKgnshx6bPLOZJdPrHpYAu7WzQUHbGjQxCEO9nShjtqMig8UM/xN/ZRbDeCz0HDwed5pvzIRKddoJdeP2gtWZiQkWUZWVZjTNODfxCfNFGcUqOcXDjmrDSUYS8e/9xVkDxufBEl5iwzKjlWvspImgHCPt+UYYpTRunoDOgAvXHSRUiVRIoOIuEg4Snr6qcESX12FkZC9PcGAB9uTwhSLWQbxo9PRm80osVPv39qOYvLjKiw5GaRFHZSZLyrzgAAIABJREFUd9SBLyghBbw4jtTQPjzfdgHajzZBYTEGZyUlT+WT/1Q51Y5BRHeHINx5ljjcMUpjtJFfaiMfCHqbqD7QQPWBFN6oLSQlPEwYCHW8zBMd07dUI0fmKVenQ02Y4DyDyMNSmAgRXK89zRPTXzRIhGH2lqtqnsGY8gJhUK1Hp4RAOAhEkMLAcDMvPNE8bUUlsrS0kKqylFNZFqa6roYXnNGykh7Lwpzkp2eOugcdtTRKdipTHFRXR8g7fJzs4An2VlXTmjZbLl8QhHh2zYFd9rbT4JSxbs8nY1IzVGcqpCy/i+cbunAFCklR61ADhpx97LJPD7Fq9DqY69c/cjhMGBXqeWKwWqNGiRbbrkryDNNeVOmZvmhZyGHkCKhUKkCFRg0YCthfamP6IBSdYamj+VUYcyt50y4R8A8jq5NI0fs4UtSJMnZOpwh2UVs/THZlJWrPboLGfOwpGjQpdqz6dnp9MoUp4pcFgnAnWcKoGC9drU58xmwypgRsmXAgDEp9NCDrzGQkQbs/jN5kmzfvGw5OToBIuJ1eIkojJuOcm6BJy8BAD4NBNSb77E3S605DBPwEZNDF4qLk7qYfJWlpBkCFxaSmtXcY2WBa/lEoKg16Y7RQ2e3AE1Jitpmm/fhLoruuAZ9tFxUmFQHPMtdBEITb0jUHdpWliBKrm5ra3ez15pFjSUGDxKC7laaOYZI2lpKlAzBRWGyl67Va9lYH2W43opGD+LoddGu2c6g042qQGm6v5oCyCHuGmqC7iUZnCG1WeawcQK1Dr4ZuVxMtxhwstgxSUnIoyWmnqrGKA1IR9gwdBAdxO5yE8yqpsC1DF2LQQXWVTF6OGU3QTfsJF+GkHApt0YBr2V6M2X2Umio1wTwbeo1EoNeFo99I+aFCZrsuBd311DkiZJWWMlcVB7uacGMgRaNCGuyi9UQnwdRiKrOmbSD78Mo2ysui51KfZkLd5MA5aCUr7MAdMJBtFK11QbjTLGlUjL2yFkN7I43trRx1DBNGiVZvwvLsq5TkT4wF12VXcETVSG1jCzVVIVBq0ZttFOYbp7Q8DfY8DL4malv9hEgibeMuymMjXQBQ2dhemoWvrpuGo0FUpgxS9Bos5Ud4VV9HQ3sd1c1h0BowWXLYblqOcSFKknJ3Ua5sp+6oA7+sIsmUw0tlsRE+ACm57D+koq6uicaaDkKoSTKYsRVa50wFyYNunE4wbmeOTgCZoM9Nh6OJQCh2TFm7OFI8PjZ+ElUGJZUZk/4spiLnIDUvPE2dyoCltII8kV8XhDvOXVeuXLky/oe8UOfhcgu2s3vHUeTiH1IrevgEQRCWTDVpcIV4uqMgCEKcEYFdEAQhztzaVIwgCIKwLEQqRhAEIY6JwC4IghBnRGAXBEGIMyKwC4IgxBkR2AVBEOKMCOyCIAhxRgR2QRCEOCMCuyAIQpwRgV0QBCHOiMAuCIIQZ0RgFwRBiDNTnhUjCIIg3P5Ei10QBCHOiMAuCIIQZ0RgFwRBiDMisAuCIMSZhSezjnzMb/7194x8dBnuvR/jFz7Hg/fehJoJgiAISzJnYL/0b/3UNp2l5VdBRqa8oiI1/Y8pL7SS+4WVN7yCgiAIwrWZdbjjB2c7ePat33JxLPq36v77SFQCkU/53ceXY2vdx8Y/y+fwf/kjRHgXBEH47JgR2D/2/BPbjvyGi1eX3MfOV55hzxeAkf/Jtu/+knevvnYvOS9s58hj6htfU/8p/upHZ/no6oIVrFyVjGn9ZjavM5AAwBCnat+kz/BNXsxfc+PrdB0utByi0b+O58rtJN+E7W6o0SHOnTqFy+vnw0uwclUia9LtbLavRQvciPdloOV1fuxP57nyzSSHXLz1AweaJ/eyLX3h7OLyukDzoUZ+fWmWl1ak8fTebaz1Huf774yyZc9O1mlucvVuptEBzjS3cWbgQ8YSN7Lz+fWfnc/oHWbqtyDybxz98eSgHiVHxl+HqZ/fT+n4sZMnzDn8ifLGVXKCmkee3IndAIyNMuR10PbT4zQrytmRqQG0mNZvIlGjja0v4XrrMD9LeJK/2JEeO9jZlt18iel2Nq1JZrymQ45a3jxv4Jsv5rNmfKWBFl7/sZ/M58qxJ8++3a03guv4WzhGTWwu2MkarYLRofM4TjXyVuhpygtMJMx4X5aZZg3WTXYUybfq3YTVliJ2rE+ctjQBjQIUyevYtGkMQ8JNqsxYH8e//w6jm/aw03rzriRDp9voHFDweMG3yExOFEH9FpryTfjYc45/+HD6Kp/wNwdrOakAxi4jT3/54/f4m7Nh/mT9TWi1AwkaLdpYfNCuz0fyHuZU3wVGMzNJIIE1mdaJwPgZpl27DutN3O6GGTrPuQ8UmIryWbc29nFKtLNtbIjX21z0SSbWaW7w+6JIJt16i8NIghatdo4LV6IJ6/SYH4dCkgTadawzGbgDDvczbUpg9/YM8cmUV5PZ+eeP85Xx1viIh+/9jY/fTSniMu/2DHFp/cO3INeuQKGAy2OxzoDJt/xbJY5//x3eA+Advv/Kab76rQ0M/Wjasqut4RDeUy2cOu/nozEFqwzp2LduJj1xtlbgGCN9bbSc6uODUQWr1mSyPtHPKX865TutaK+2mL7NTmvsyz56nuPVrYxtqaB4XcKklIqVgbcO87MPAD7kx6+8y4Nb9rA11MCbv4heZX/x5iu40p5k77Z0BmakYuap95iXk4feZtS6hcSB05wfTWdn+WaS59vG38ZfNfhJ35rOyBkXFz4cRbF6DevzC1g/W5NTkYCCMaSQBJPuIxLSt1KcOIo2Ydr7Mp6KkQY409aG68KHjCpWkWxaz9at65i90T3tfBsyMU1eb5ZUzKjfRVvbGbyBMKj1rLVuJn/9mljKbhS/q4W2MxcIhImm9DbkszUzMfaFGGPkfBstp/v44CNQr15D5uZ87GuX1vod65ucihnlXMPrODR2Nif0cfr8B3yEmgfTN1OQnx47gwvVL4TX0Ybj/AAfhmHlKgPp9ny2pmtjd3nvEgb42WFeOfMlvvliPgmnannz7IxWGw+Ot+qlAc60ncJ1IUD48kpWPWhi/datrEtWAAvVOfr+Rov/BUdf+QUPbvo2Ow1n+Ksf+TFtWcPQmXOMrNnGi/lrF9gXMOrH1dLCmQsfMpqgZ+16K9pzbfit32FnLJc19/u7mPMb/yaNY7/EyEefTn117BIjI59y38Nr+BPzGv7EnMznZinkk48+5uMbWs3ZjBG6cBqXX03aOhMzQo4inW0VZWx8EHg4jz0Vz7PBMMuyZIBRLrQ08HYfrMvfSdnOAtLpo+WkA/9se/Y7OPlOH6Nrt/Kt53dSkD7GuXMfcHmWdRemwVpcwTcfXw0rH+HpigqK12lI3vA8FU8/gprVPP7NCl4smC1ttLh6v3++D8W6fHYUrCdxMdtcDnD+/CjrdpSzt2InGzR+OptnPxckZrL+kQTe/+lbvNXios8fYgxAocVgSEYz63VxCMfx45yR1rK5uIyd26wkXPgpx9suMDbb6uPne81mvrmzmK3po1wYCM99SkPnOHncwVCynR3PlbHDnsjI6ZM0n5eiZ83bwvGfDaHdUExZWTFbTWP0tR7HETtAqa+ZhrYBNNYdPFdWzOY1Eq6TJ3GF5t7ltbnMJe85Lhi2snNvBd8uMDH6bgst5xZXv5EzJ2l2SazdXExZ2U7yTWOcbznJmRFgzVa+syePh4EHN5ZR8Z2trAGSN+zg29/+dvRf2bfY8vBKWPkwmSYNIHG+5TinR5Kx7yij7LkC1iku8NOTpya95/PVORn783t4Mm0FrH6cb1VUUDzeoCHA+XNjpG/ewbYNaxaxr1H6Wo7zs4EE0vO/xc5tGzBcOM25Dyd9uxZ4fxc6v3eCSV+7FaBcAVPCU5CW/8tFoumPyfzCPKUoV9yg6k0Xxv3jV3BPWqJOy2ObafaWlCIhIXaAChISFNH/n22Z1MeZPomHt+5kfawsuz2Tvh956fNvxmCYWq7/XB8fqtP55tZMDAogcTPr+9y8M7rEw1IkkKAAFAoSxuuniNZv/DgSZguQC9U7lp1YnbmVzZmxm2Pp3PzbAKDGtMHOWi1AMuvWrcHxjp+BEBhmNHk0pBc8j3aNA8eZ07zz7s9gpZ60dZM7T6cau3Cac4FE1n97M+lagES2rj/PD06fZ4C1rJ22/vj5LspfxxoFkJzPZv8FGme90sDAmdO8n7COb+VnRo8neSvr+16nLZayGx0JcWlFIqZ0A4kJkLi5gITEAcYSxoAQrtP9jJmepsC6BgWQvNmOt6+R894QVuvsbb4Pf3GUV34xeclKHnn6RQpMs96CgMHK1szkaIPEZMW02s25gSFYt3aB+inQrttBeWYC2thVM3FDJoazP2XAP8b6RAWK8Q+LIoEERez/E7SxuyeQ+k5x+j0FaU/ms04bfQ9N+eWsVWjRJETfD6vVwOm3h/BPfs/nqbNCkYBCoSD6vUqYFFjUmDZvZd2a8b8X2Jeij3MXLqG3F7A5+uEguWCUC9WtVy/687+/pgXreidQTP5f0+fvh18Fr7mQBz7/R7O25JefmrS8HdgNsRtmyY+rrY23mhU8vy2dJXcTjfgZuXyZcOthXmmd/MJKpBnBWmJoJMyK5LUYbl1fXdQi661IuIZtEgAUUz8ZCQoUjDE6W3MaAA2GdfkUr4PR0AAXzrk47WrkrZEnZ31fRvwjXOJDOn/wCp3TypGisWuS6PkmeU00qI/Xaa6qIDE0FIaPzvKjV85OfUk/yiigzdzAl84301b7Q/rWrmHt2nTSM9dF7y7GhhgKwaUP3+b7v566+app6abJVlueZtu0RHqCdrEfEAUJChgbG2VsofoBCkbwnnLgujCEdOny1abYQ8w4eTOFztPS1o/iS0Xkp0+8MwppAMepM3j9IUYvj5epn/UOarY6z73XaLp0ypL59jXiZ+TyKtKntSAUEKvLwu/v0usaP6Yco/Hxh0ltPzcxKkbxEIdf30ruqtjfiV/mx0f/iO+93EbL1dzLfdjX37yOK402mcTx709iIlvtXg69fYa+UDpzNKYWSc0jT+5gw5Qkr4KEGWWOsZhPh+Jm3cQsut6L3GZons1m+ZaPhYYYGk0gOVmLAkjQriHdvoY1icf5q9YznB9JZ8ZgEYAVD7Nl5+YpwRoSmBkLo+d7heIah5Q8uJFv5U9L0Sk00bCsMZFf/iLrL3jxXrhAn6MBh8NEfnEB47FutaWIbdM+UIr5RvUkJJKYuExdhvPVTxvi3Mnj/GxkLXnFL5KZnACj52mobl24XEZwNbcxoHmcHVvXTpybUS/NDa0MJG9kx3fWY9DAmLeZQ2+PzFfY0iy0rzEYm+ViMMN8768wLTx9IZPdj/bywq9iY1/Gfk/7T8/ym8lDGSO/xzspFX9f2jp2Pnwrr4HRdMrYHE2L2Wo2Y1miAe2KdwlJCSQmLvTR0KDVruDyyBAjpM8+pCuWWhmZ1tyfu/VzbetctVC9Zyvsmo51YZK3jR85EnjyxR2kT/qWJWg0KBiJtsCnVyE5kRWXRxghkXULxsLY+Q6NEIJFjLbQkJyohgsjjGoTZ72rGjrXxjky2bwuk/VrM1m/oY+Tr7/Dmb4NpK9PJFkLAyEJTeLamX03N8G89bOOMOC/zGrrhmhQBxiVuHqzNacxhhzNOIYS2bDTPvWCOnKBoUtqTBuigRZgbHSpecUFLLQvbSJa+hgaGoXx42Ns0kd5off3BtX7NjPtIWBq7DtzeHr1+N+f0Pnzc7zVPunfz314x8/yaiN/+ecZNykNEzUqhQiFov+GBs7T5vByafVa1s76jU8gIWEFjHjp848gzbVMk856k5oPTjdzyutnZGSIgT4HzS3nmNlfpmDtunTUH56j7ZSXoZER/OfbODMweR0Da9esJOQ9z4A0xpg0xPlTZ2bvfIzRaBIgPITX6yc0/tlM0JBAiIELFxgKzfKBvaZ6X8c289BmrucRzQBtx9s4f2GIkdAIQxdctJzqY0yfTuYsVz6FaT3rVoc419LCef8IIyN+vK5mms8MzXItip3vgItT54aQxsYIDZzhtHfuztM1663oR/toaz7HwNAII0MXONd2EsdAtHTFqJ/zp9poOz/A0MgIA31ehi6vRKvVAMmsW/8wivccNJ+5wNDICEMD5zl1so2++freRic+lxP/pGu7UI8f8Xz1UySi1UJo4AJ+SSLkP09b8xkCUwrQoFFD6IKXgaFoHcYGTtH8ixG06+ykJ0gTdRwdA20y2hWjDHkHCEkSQ14HJx0D0RTJUg5gPgvtKzGdzAfhPUczZ7x+hvxezjSf5v1JRSz0/i5obIi+M2fw3oAbks+Kme2Ze9fwvconefD/7KC2/9OZ49ZjEo2Z/OV/z+ZPVs2xwg0R5tfv/ICrqc+VavRrrBRtnutXmApMGzbw0MnTtB4PsWnnTqyJsy1LwJRfzJOn2jjd0sDZS7EhZtbNs7aCFGu3smPLGC2nm3nzrIJVD2eyJplJX64E0rcW4G9u4/jhs6DWk75hHSavg7ligyZzA5bzzZx/+zhS3nfYlpkAyevY8IiXts6THB/Zxnfyp3f8XFu9l77NPBJMFOzcgctxmjMtb/Fh+DIr1KsxrLVTvNk6xx2Ngc3F21C0nMLRcJQwK1mVuIZ1ds3sd1hrt7JjSwstp9/i8E9B/WA61nQ9/oE56pS4nuIdCtpOneb4m2Eur1CjX5POBu34yzvYNtqCw3GcN8OXWaHWs3bjNvJjtxzazG0Uj7XRdqaZtzovgXo1BtN6Muc5QR+6G/mBe/rSh9iyp5jM+c7frNWfr34JrM/fyFDLGRoOnyZh9Vqsm+2knfwpIyMS0Xa7gfUbHmbg1E853jxCcflmxvq8fMhlONvIDyanph9+kr/YkcnWzQM0nz7OD84pWL0mkw32dEZaLxCSWMxt0uJpFtqXFuu2bUgtpzjT/CNOK1azdt1aHnzv3YnPxgLv74JG/bg6O0nQWjHNOpz59jfP1HhjfOD9F07+8285816QkU/H4N77SX3YQO56M0+YxTNiJozRd/z7vDO6iW/vtIo8nyAsp9AZfviD02ie3MuOm/7IiNvTPGdJwYOmDPaYMthz8+ojCMKdTrqA67yE1qBFg4T3tIvAyjVY14igvljiTAmC8NkihfB7z3Dm9EfRNF3yWjbt2EpmPD9AbZnNk4oRBEEQbkdiajxBEIQ4IwK7IAhCnBGBXRAEIc6IwC4IghBnRGAXBEGIMyKwC4IgxBkR2AVBEOKMCOyCIAhxRgR2QRCEOCMCuyAIQpwRgV0QBCHOiMAuCIIQZ0RgFwRBiDMisAuCIMQZEdgFQRDijAjsgiAIcUYEdkEQhDgjArsgCEKcEYFdEAQhzojALgiCEGdEYBcEQYgzIrALgiDEGRHYBUEQ4owI7IIgCHFGBHZBEIQ4IwK7IAhCnBGBXRAEIc6IwC4IghBnRGAXBEGIMyKwC4IgxBkR2AVBEOKMCOyCIAhxRgR2QRCEOCMCuyAIQpxRTP5DluVbVQ9BEAThOqhUqqv/L1rsgiAIcUYEdkEQhDgjArsgCEKcEYFdEAQhzojALgiCEGdEYBcEQYgzIrALgiDEGRHYBUEQ4owI7IIgCHFGBHZBEIQ4IwK7IAhCnFEsvIpwp1q5UrXwSsvg0iXxjCJBWE4isAvzSj4JqrQbU/bY7+B3W25M2YLwWfXpP+7k7P+RwBebaklOnv7qKME3Cjn/T1lkNn0XXcLS9iECuzAvRTIov3CrayEI1yvCb89f5FeaFJ5ee88tq8Wn/7iT7h1/y39cgp6vw2M/mRzco0H97Iv/xBj/xNmvw+M/WVpwFzl2QRDi3GV+e+Zdylv9/KDxV1T1/cctqUWka8/VoA7wh95j9Hy9nKEhmBrUo8ac+zhbWIe0hH0tocU+SFP58zRcnFiiVGrRmzKwFxaTZ9Gz3JlZedBB3dEmnF4/sioJoyWP0rJ8TJpJK0k+2utqaXL5GJZVJBkt5BWXkp+hu2VlB7rrqWt04vEPE0ZLqtlOSXkJFv3ktYL0NtVS1+LGHwK1wUz29lKKs1MmnccgvS11NLS68Q2HQW3AlLWdstJsUsZXGnRQfbSdwWCQ4cAwsqmM+kO5zF9DQbgTrODzyRo+v+Jj/r/Lozje+RUqhYV9ppXLU3zkl9T+5td85YvP8hXl3Ksp076GLu0Y/9F76eqyaHAfJfVrAd5/fSKoR+lZ9fXHWcr9xYrvfe973xv/4/Lly4vY5GP+pb2N85qN7HqxlLyvZfOVTAMr3v8Ff3+iFbds5quPJi5fcA86+N4LNfQov0zxn5dgz0jgws+Oc/IXKr6S+0gscA3SUvUSP3SvwPKNUr6x6RH4lw7e/vtfEM7chCVxxU0vO9hdzbcPOhg1Pcmf/dl/xf4I9Hf+I82uMJZNFqKbyXjr9vAXb4/w0NadlGz7Kg8FXTSdaMdv3MT6FBUg0Vv7Har+fgTDphJKttl59J736Wr7Bxz/ZmTT+tgFYDTISBB0hvsZvXiRYd1X+K/2/7SkD8W4gwdXcH8xKPQLrrokf/gIPnoTKisX87kThGsV4bdnfs0Phu/lv6Q/yKYHLnH2Xz7h91dAY0hmi2EZolTkl1R2P8P+4Z/xD/++kqwHvsKDc4QbNGv5/J8+hvR//z2fBCY+81cCvQR/+R5/mLKyHu3rP8H6377EXMVNt2LFxJpLz7GrjZgtGUS/8xZs2XastXt4ubmaBsublGcsT2j3tTTRI5spO7CbXF10XxZdkJKqJpq686iwqZDdJzjhkXls1yEq7NFwbDPrCD93kPZGJ9sP2NHc1LIHcTQ6CaUWc6iykJTYOTKrAuyocdDqKcVkAaRuGtv96HJepbIkIxqgLSYIPMexxg622wpJCTo54RhGZz9MZYkpto4FnVRClbMdl2TDrgH0FvJLLICPelcn/cty9qMuDYD8Llz+N1A8CPdkw4r7J61wBT79Z5B/C8r/BAlfgbsUnzL6m18TcZ/lyuVYOyThHu7WrWaFPhnlAwaIPADLfn8nCBAN6u9S3vkxEiE+GXuUQ1YTtTsU/GhEz5+vUy/DLn5J5ZlnOBz+GICPPv5L8rqh1VY+d8s9eROP/aQJ/tdCfvfbS3OsFA3qthcWH9SnW8bOUw0ZxcVYnQdxtropzbBFv7KSl5ajdbS6ry2NERXE6/GDwY550uoqswWjshOvxwc2E363jzAmsq2TVtJYyDIpcXp66ceO5aaWHUFttLLRZI0F9dhmhhR0eJAkCdCAz40voiTDYpoU3vRkmPXQ2ku/VEiKrMZgycJqn7yOCkOKDiJhpHC0qBvpkhc+egvkX4LyS6BdCfdthLvGP3VXQHoHPjkJ6oJocL/73jDhrk4+fn0/jMZymur7uDv5ARSpD5OQ8SjKtV8DvnpjKy/cgSYHdYAxzv7sV+zlUQ5Z1/KdNcuxi6lBfdxoZJDQZWCelAzJm3js528RyfoG//7+9BdXoj54fUEdlntUjMaExQguvxc/Noyyj/q9e2keNpJXXIFFF8Td2sixqr0MH3qDUtNCrbUggTCgU0+NXSoNGhWEpTAQm6tVqUQ5pTgVarUa5DCSzCwNwxtZtpHc3ZXkTlsa8HoZRk+uMbpHORwmjBqlemoBap1yImjrsymvzJ5Rd0+vH7R2jDcoTTKXsX+FT96BhHRQPbC4be5OSkbxQAp333MPf/g0zJjnV3xyrpu7TReBDODeG1ll4Y4yPajfiF3MHtRX3vMN3v5qNV9bcBTLKMGmvyU4I6gDXOI//u4Y//6N2YZCLt4yj4pRo1YqQQ4jA0FnPa0X1WRV7Kc014bFlkvp/t1sVPtpb3AQvN7dRaL/0Rv1KCN+PL7JL8qEIxFgiT9+We6yAw5qT/SjtRaTM96Mn3fzuV8MdtdR36PCXFRIxuJrMHMPsjzp3yI2uAe4Em25f9IKf7gEV64svJlq42Y+V1vP5//+5yTW1nPvnxZwJRTksuufgYHrOAJBmGyuoK7g8U2Pcsh6H4vvLh1laHR0lsW/5LvXGdQ/mjb6Zbqpo2WW5oYOd/S5+4moM8gyT2oTqyzYLVoiXje9y/SDQ50tB4t6GEdtLd2DEpIUoLelmjpn+LNRttRL3YFaetQb2b3Ldl2ZE9nXwoEaJ1jL2JV7Hc11by3PPfEET4z/q2pf8EKr+CKs/FNAA5+8AaO9cOUSLCK2w11wl1KJMvkBlJ9/cNILc+UZBeFaLGdQ/whnbwGPni7i9Q8/mlg8+ku+2/0MR68nqNcV0j0jqK9CoZ9au+sN7sv8A6VwtCWrUqNCwi/JoNahm5aq0Og0EAkTDnN9fWfjeSxdNrv2D1Nd3cjB5zuiLxmyyDKr6fSqlraL5SpbHqTl4EFah02UHd6NZXJUn3fjWV4MdFFdeQyfoYBDFdlcVxbGWETlYfvEfYHasODQyBX3wb1fhXvSIfi/w0gtJH8flIu8Zbwiy8jvX0S++F5syd3A55ZUfUGYsNxBvYin/7WHj4Cqs0XweCMvqn99nUEdIv9YTvcLM4c0al//CY8XDuGZ1qH6h95j9BQ+xFf/n++yatH1j1rewC55cftAaTZhQENAo4JwkPC0PLQUlEBpQL1gx7QOvRqQwkgwEXhkCUkGtWaiAI2pkAP1eQQH/QTRYUhR033gKTpnubDc+LLHBemqqeKYN4mCQ/vJTZn6qkqtRk2YyLQTFA5GQKlDM/n8SG5qq2pwazZSub+EBbsnFqLSYTRd4yj3K6DQwcovw3/0wGgzfGyDVU/Mv9lo8wl+95N3uOvuu7ly+TJXZJkVDxm5J++7SP/jIUAMdxSWajmDOoQ+2Ms3Y0EdgD/0UHV2K81KP72Xpt5dXktQB1B+7Vkeyvon3nMGYksmj375Eo/9vAm+Xsjvxse5r/zPJH/3G9cc1GFZUzESvQ0NuMJasnItqACTJQ1luBeHZ9Ipl3txekIojZZFBCcdJlMS+N14JuUJZI8bX0RA5aJDAAAbaUlEQVSNyWyctr4KXYoRY4oOVbAbpyeCOsPG9LVufNmx81G3l5pu2Fh5gJLZDtZowaiM4HV7J2XUA/R6AmDIIG28dS/7aKqqpkOysGv/tFb/zXZ39DED2iIgCT4+AqPdcHm+nqqIzBXpE658To9yYw73V3yPz73x12gLtsN19f0Ld7pL/vfYu0xBHUD74P/G/9A/PHW7P7x33UEdgITH+eJPmng4Sw/oWT19SGNsKOQDGSth5X/mgeM/57E/XVoP6tJb7GEfHncvAWWESDCA29FEe0+Q1Lz9lFqiQUyXVURey16ajxxEV5SHRRfG3VpPR9BA3i57NJUgdXHguaME7IeoLZkZJo2FRTzmqKGh8ggUZaML99Je30k4tYBCy0SwlL0OWn1KjHoNSD4cJxpxYaas2BJrC8t4m2poClgoLreTckPLlvG1HORgqx9dVhk2fLjdkw5KbcBs0qPS2CjKNbC3tYYD6iJyM5QEuppo6FdjfckeGyoZwFFdSUO/kseK7Wj8btz+iaKUSWlkpNzcSH+XElaaQPsCfFwNH3fAWADm+jWUauNm7st7mpVffIS777uPu++7nxX3r+Lyv4vRMMJSXeZD6Q+sNjzMoY3SpBb70oN6VApf//IJ/uZ/bufPAu/N2gO08p5v8LbtGoP6uITH+eJPfo6uCz63KW1msyZ5E4/95Ofo+x/iweylD4tZemD3d1JT1QlMPFKgaN928myTfgqvMlFy6BC6o3W0NlTTKqtIMlgo3l9K4fgPmCJhwqEwaOYY+KmzU3kI6uoaaajujP4031bM/tJCjJMaweGgl+6mbhqDIUCLwZzLS/uKyb6aiJbx93bj8qspxH6Dyw7gdngIA2HnUQ46px1TajE/rC0kBRWm0kNU6mqpb6nlYDOoDSbsL1VQmh1Lk0geHK4QAD0NB+mZVpQ25zCN5ab53qlld9fdsGIV3J8Pl/pA/n/hcoA5B/LcnZTMyse+TILpEe66a2L55btmX18QFjQ6wms/fJ+HCh7lv63/ErW8S3nnpzyy5VEOrVtqUB83d3C/GtSvp02SkEbypnleT36cB69jqCPAXVeuTAxYkxc15m15ye5qdhwIUlp/CLt4sMlnysqVKgyn4dIH8NFRuEsBq/47aDYAV+CuuyB8Fn6/H+QeIBL9gdIf/QXcfe+/E/zbH/Hx6/tJeOJpVpe/SILpkSnlR/4V/vVR8Tx24dp94u3lybdHkFZo2FH8KP/NcDfvD8kkJ99znUF9skF+Mim4L0tQv4FUqonW6C1/uqO/14favp0sEdRvL3dF/91jhntzQfHQtW2u5AqrFzdQUhCmifCr86Fo6uWyxPGTv8EpreChZQ3qcLXlrn+YVfd8g7/5DAf16W7589iNJW9Sf6srIcxL9RDc96fA3aAyMCWdcrca7suHFffC2AVQZcLd98Fdqnu459F13LWzDIX5UVboVs8o95a3KoTb09jvcfgVPJKWRG7m58lau4rVNyySpfD1L/+ci5cTSLiN+vlveSpG+OwaT8WsNN+Y8kUqRliSsQifoOS+W94s/WyZnIoRp0YQhNuLQsl9t7oOn3HiblgQBCHOiBa7MK+xIbh7KT99W0zZv7sx5QrCnU7k2IU5rVx5cybBEDl2Qbh+IscuLIoIuIJwexI5dkEQhDgjArsgCEKcEakYYZn4aDlQj1tWYSmqJP/mPr7mpvG1V1PfLaGyFFEZrwcp3PbukMDuo/65F2jWlXH8UO6CE0pcu26q8w/itu3n7yosgIRj79PUBPI4XF/KbfH1l3tpqm6aNquVCpVGh8Fsw263kDJvX2qAfncPPRElqlzIv7G1vWUkby89PSGU8XyQwm1vCYF9kKby52m4OGmRUolWb8KSV0xprmn2qd96ayl5uQNVwQ95syRl5utygO6GWhq7PFwMRVBqUzFnF1FebEO/mMEZC5V/Q+kxZ2WhvNaJKz5L5GHcrh48s73m7KC1KYtdhyomPdFyuug5IKLEvJwTbEtu6mta8Ml67OXl8+z/5po8AkEQPmuW3mI3bGRXqZ0kJUTCQXzOJpqO7sUXODLLc9Vl3I5uhgGcHXhLprdig3TX7OZgtwprUTlFRjXh3nYamw+yV9rPG7stC8wTulD5i7XUlr2R3N0V5C5pn581WqzP7ibPqAQihIfdtNa34hl2crTWSsaB7DnOyw06B5EAHlcP/RhICUP2cpe/VHM8ZVoQPguWHtjVRsyWjKvzblpsGSgDOzjmdOArKZ06s5Dkpt0VwpCWhtTfjaO3FFPG1Ndbu0Mk5R6msjAWki0W1P4dHHQ56MeCZb66LFS+cA1U6EwWMq5eGS2YlQGeec1F2OPEK2ejd1RT3y2Tkp2HOejE6Q1jzNuCsvXtqzl2k7eaRreEKqOQisKMq8/ov5qjNuazq8SCBglftwNHt4dAWIXOYCEr306GDoLddRxpdROdVyRAd20lg0Y7OQYnHW4ZjaWEivzoJ01y11PT4kOdXcpue2yKkq5aah0BVCm5lJfa0AFBrwOHw403KKPSmbDm5pBtnNpsCHq7cDhcV9ex2O3Yp92NKZHoddTjdEenSzRn5ZE7eS4CAMlHV0c7Lm8wOrmKPZ/cjNv4rk64bSxjjl2JTq2EoDxjvoWgqx13OJWi8iIClVV0O9yUZlgmvgSaLPYdt6JSTZ3pWa1WggzytDlTp1uw/KsC9NZXcqLDQ0BWoTfnULq7BIsO8NZSsqcj2ur3H2XHlqOYy45zKDf6RQy666mtc+D2h1ElGbHklVKWP552mp5jn8ld/RRVbgv7/65i4iIVaKH8mWNQ/ENqC1OQuw7w1GtBivbnEWxqwOEdRlYZMBeWsbswY1JLWcLbcpTapm78YRU6k53S7TqaqtoxHqpnuefd0Oj1qIFwJExYnsgz9/S4aAVAiWz/X1BNyrHbdTL9PT2E+zW48zKwqQC8OJqc9AwrSbOUoyFA14HdvBabSCTKSUdHO88eOoTF30uPZ3y6qAjD/T0Mh408aQzj6fEQGTZSmG/EiIS7pRVXTwSCLgrtKaQg4XE46OmJkJRShA6ZwZYq9hyLToAS5cLZ0YJj1xEO2PWAjK+lir0z1mnC8ewh9udPNFdCna/xcudErV1OB87iIxwpjK0z2E7l3qP0TDo0Z2cHjmcPcSjfeF1zuAvCQpY+3FGOIMty7F8QX1cdJzwqzHl5M9MsDg+R1GysRgtZNi0hlwP3lEkKVWg0GsbTlrIsEfS20OQKk2TPwbLAhNELlx/jaaWhP4W8sgrKiyzgaeZAZRODAMYi9h9+iY1JQGoe+994g7LYQ+Il9xF2VzXj1WVTvq+CYgu4j+3lYHtglp1cLx9NdQ50eRUcfuMwu+xqPA0Hqe2aOKCA4yBVx7oJG/Mo31VGUVqAhoON+CI3oDpIeB3u6AUvyYBhSuNWizmnmLKyXRSap7YRNDY7FjUQduN0xy71PifuYUBpwp6tR+5u4KgrBCRhffYl9r30LNYkINxPQ2M3OnsFb+zPIxWAJLJeOswb+/L5Y7MFA4DfQ28AkD04+2MHf7EbdwCQ++ntj0TraDVB0Eldg4cwSlI3lrFv30sUmLVAiJ76xmin8WArR6at8+zGVJSE8TTU4Zjydmsx55Tx0r5dsXIi9Dc1ET1UH/XVdfSEQJlk5dmX9lGWEy2nv6EORxBBuKGW3mK/2MDzTzRMWZRk3UVZ7rSOy0EH7Z4IqcVWUoCULBvaDgftbglb9vTMuZe6kj20Dkf/Upuf5VBpxvytm2sp35BH5aGSWJrIhlkZ4LljLTS589ht0ZFiSkGnAjQGjEZjrIXs40RdJ8NJOby6v5QMFWAzofKXUNPaii+3dJ4JrZdChaW08uqcqynFRbgcVXS7PMjZNlT4aG30EDYUcOhA7FiyszHrdvPMseWIGEG6a/fij506Oeij3x8GlKTFLtq9sTWVj5Wyvzw79v50x1rv44dhwW7V4uwM4XZ6kG0W/F3RtIrSZMemAxkdRrMZDDmU50dz98agA9exi0T8PoZ12RiNhlj5KnQpJowpABYyDA1c9PtweyVyNU48V5vY/TjdQfJNvfSHAbUJmwkIgs5kxkwaheW5WFRg0/Xj3NPKcMiPPwyaDgcXI0BqERW7c6Nzztp0+N0v0xHy4vERvaBMO/ZswyCu55vxhwfxBcASbMdxMQLKVPIqK8k3Atk6/O49tA57cbolcu23ckZyId5dR+dpDvt22a+mB8KBbprqathzQOaNA7lXc+8+h4OLpPJsVizgZ2Rh03bg6HARzLZP64gzUlh5mCxZJuhz0FjXwIHalHk7T6+pfJ1+yt/67CyMx47R3xsAyxwjaQK99PpBm5OFCTmaFkKNMU0PzYP4JDAu63dUiVo56VKm0qFTQ0QKIwOqoBfvMBgKsqdcUHQ6NUqWI7BHCF30MDk5gtqAdfsuduVPO0fzXnFVmO0WtJ2dhNwOPHISPrcfUGLOsUbfB1sph8w+up1dNB5xEY6ANBi7qsvz3X4YsZq1tPpD9Ls9eOglDKSa0/B7+vE5u/HKnuhFJM2GWQXo7ew+ZMHb1UV33REc4Qiy5LuacpFlmcHBaJNcbUxj4kgzKD7yQ/JkFRo9DHbPcuyaaKoKIkgRCPr9sfMXxlNfSaVKhQoIyNF1goPDsMBwAEG4HtfReWrAaDJdDeCYTKThY8drjTT15lKeAeCl3emH1AJMaglJAkjBYtHS4WynK2Anf8rwNRU6oyn6pTdloA/080JrE84SC7mz9jlda/nTj0GPTgmBcBCYI7CHhwkDoY6XeaJjRgHzx5/lNL6fYIAwoNPfqE44LdaySqKpYhUqtY6kFN2SwpAqIxdbUicdw7042pMYvAioLdgt0dKk3nr2HmzmYnj+cmZjsmWg7nAS9jTRKIeAVLKL8/DufQ2X10EjPgCMllijINjNkb3VdPrnesPkq6dYOe2CpdGnXD3+wQXqFWHSw/Qiw/T3DM/c0836zAh3rGX9gZImJQU9PfiHJUCD7G6nexigmT1PN09bO4TDOUh+YQpIPtzuQZSmbDImBeKkFB1EggSCMNsYu0WXPxc5jBxZYEyyWocaMOTsY9eM2bbVLDq+LtfwOKUGJTfySZzRi6tpWTpgTeTakuhoHcZ5LPr+qC12bBqAAI6GaFBXpuZQXp5Hmk5FuP0Ae5ovzlsqgCrNilnpxDXcTz+AIRuryYLOrMTV00+PByAVmyWWUGtqiAZ1dRp5u0rJMerA30RVVazDHA1JOjUQIhwYJvoJBgjSXV9Pd1BFRmE5SYs4ap1ehxKIaHN4tbGcDFlGksNEwtH/ojEsWIYgXI9lDeySb5AAaow6FSDhdrgIKdMoqCiOdqSNiwzjqKuh0+HAV1iCMeKl8bWjhAtSePPqGHgZnzcASj0ps36brqH88eUBPwGZaB4dkNzd9KMkLW3aF21y0NSbyUiCdn8Yvcm25F+t6nQ6CAcJTkSMq3cD6nm2m0FvxKgGp8tNMH9irH1wOMhnsSFotGdhaG2ODVlUY7GPj1YKMxzLHBmyC7Gb9BDspd4zs4UbXV9CCkpIkgqNRgWaDCwmJS5P9KgNFgspaNDYTCh7PNFzkZSBOXZdD0rRnSnTctluM6GRA3Q3eackr0zZGWg7nYQ8TTS4LZRbdATdjTS0duKPJKHJZVGBXWXOwqJ24Qo5aai3U1liQqeSGex30OQ2UFq6vL0ygjDd0gN72IfH3UtACUQiBAe7aDrRA4Y88swqkLpp7w6jthVSaMuYcSuvz2nHecyJw1tCqclGnrWB11oPcEBTjN2oiv5AyTFMUlY51tnyAJL7GsqPLQw6qK6Sycsxowm6aT/hIpyUQ6FtfOskUnRK8DppbNdht2Rj0psoLLbS9Vote6uDbLcb0chBfN0OujXbF+7cjTFmWzE0t9JU14Wh0Ihq2ENTvYMg1xjYVRbyC1NxNtSxtzpMoTUJ2eektfUiiws7N5nRjj21OfpLZa2VHPP42TJgMWtp7QxxseE5nmpRIYfCExcnOTZsVmfEmASe4RCdVU/TmVbG8SO56NBhsRrAEz1uS1Y0WOpsWRjrPPRHQGu2Xh2hlWYxo+50Ee6pYUdRPapwiPDEzojIoLIUU/KYm5oePx1VO5icedM+VkSeCQLtizhmTTbFxR14jnrob97Djik3kwZ0dhszfsMnCMto6cMd/Z3UVL3Myy+/zMtVVdSc8KCxPsv+Q6WYVBB0duCJJJGVM3vHpz47F7NymC5HLzI6sisO81KugUBLDQerqqlzBjEW7efIHB2n11Y+gJKk3F2UpwXoOFpDTYOLoDGHl8ZHugCgIau4mMd0Phx1dbR6o0MMddkVHNmXR9JgCzVVVRyorscRNJBrv4bxyMYi9r1kR+2pYc/zL1BZ7yattBjLElI0xsIDVBaYobeRmpqjNPXrKMyLzjj92RsfnUKWPQ2AJJt90rlWYSk9QFlWGklqCIdBl7aRZwus0Qtd2I8/CGBi+65iHktSo1SqMehVV38noc+IDXvUWrCOR3CdhWiMV5Nhm8gnabJ3sa/YSqpWSSQUBr2ZnLI8zEqAYXx+GdBjrzzMvjwrqVo1SkCpTcVasI8jlXau5WkGKbn7ObyvAGuqFrUSUKpJSsuieP9+ikRQF24wMYNSnBisf47nm9U8+9dH5u8wFgQhLokZlG57XlqOtBNMMZGiUyH5umht96N+bBc2EdQF4Y4nAvvtSAIiflwtTppDEZRaAyZ7GaXF15YuEAQhPolUjCAIQhyYnIoRU+MJgiDEGRHYBUEQ4owI7IIgCHFGBHZBEIQ4IwK7IAhCnBGBXRAEIc7cIYHdR/1zW9iyt31Znlg+UzfV+Vt4qtod+1vCsXcLW0rq8N6Q/QmCIMxtCT9QGqSp/PnoQ53GKZVo9SYsecWU5ppmf3Z3by0lL3egKvghb5bM8ihdOUB3Qy2NXR4uhiIotamYs4soL7ahX8wDUBYq/4bSY87KQmkSExULgnDrLb3FbtjIrv2v8uqrr7K/Yhf5RgnX0b3srffNsrKM29HNMOB3dszSig3SXbObg+1+9Pnl7Nu/j3K7Dn/rQfbWuplt+tJrK3+xltqyN5K7u4LdueLpToIg3HpLD+xqI2ZLBhkZGVhs2RRWHGB7WoSLTgczQrvkpt0VwpCWhna4G0fvzNdbu0Mk5VZQWWjHZrFhL6mk1Kpm2OWITqQwn4XKFwRBuIMsY45diU6tBGSmP5gg6GrHHU7FXl6ETTtMt8M9dR1NFvuOv82bxZOn7VGhVitBnjrvxWwWLP+qAL31lTz3VD75+U/xXGU97vGmubeWki0v0OwHPEfZsWULe9sn2u1Bdz0Hnisif0s+T5XsprrFO+lOYnqOfSZ39VNseaqaKWsEWijfsoXypuiEa3LXAfK37KbJ3UXd3hKeyt9C/lPPUdnUO+0OQsLbUk15UfQ4SvbW0d3bxO78EmpFUl8Q7nhLD+xyBFmWY/+C+LrqOOFRYY7NZD8hSLfDQyQ1G6vRQpZNS8jlwD0lv6JCo9Ew/qgDWZYIeltocoVJsudgmTfHvpjyYzytNPSnkFdWQXmRBTzNHKhsis5jaSxi/+GX2JgEpOax/403KMuK5swl9xF2VzXj1WVTvq+CYgu4j+3lYHtgqWdvHj6a6hzo8io4/MZhdtnVeBoOUts1cUABx0GqjnUTNuZRvquMorQADQcb8X0Wp1ASBOGmW/rTHS828PwTDVMWJVl3UZY7reNy0EG7J0JqsZUUICXLhrbDQbtbwpY9vZvVS13JHlpjs6Opzc8uPEPRtZRvyKPy0PhUeTbMygDPHWuhyZ3HbouOFFNKdNo8jQGj0Ribds7HibpOhpNyeHV8Ug6bCZW/hJrWVny5pSxvZl2FpbSSwtjVLKW4CJejim6XBznbhgofrY0ewoYCDh2IHUt2Nmbdbp45dmPG/AiCcHu5js7THPYdPszh2L/9LxWg99aw50A7k9uxPoeDi6Riz4oF/IwsbNoIng7XLB2URgorD3P48KvsK9tIkreBAwt0nl5T+Tr9lDlL9dlZGAnR3ztPyzvQS68ftJYsTIzfoagxpunBP4hv4Z7da6RErZx0KVPp0KkhIoWj6aWgF+8wGKzZUy4oOp162ebLFgTh9rb0FrvagNFkmnj+t8lEGj52vNZIU28u5RkAXtqdfkgtwKSWkCSAFCwWLR3OdroC9mmz/ajQGU3R4GvKQB/o54XWJpwlFnJnHUl4reVPPwY9OiUEwkFgjiGSsQmnQx0v80TH9BfVyDcr/TG+n2CAMKDTi6GVgiDMblkn2tCkpKCnB/+wBGiQ3e10DwM0s+fp5mlrh3A4B8kvTAHJh9s9iNKUTcakQJyUooNIkEAQmCWOLbr8uchh5MjU5xjPoNahBgw5+9hln14JNYuOr8vVnFZqUCKenS8IwtyWNbBLvkECqDHqVICE2+EipEyjoKIYi3rSipFhHHU1dDoc+ApLMEa8NL52lHBBCm9enb5dxucNgFJPStKse1t8+ePLA34CMtE8OiC5u+lHSVqaYWrRk4Om3kxGErT7w+hNttmuL4ui0+kgHCQYveZFxe4G1PNsN4PeiFENTpebYH7u1foEh4OIvlNBEOB6AnvYh8fdS0AJRCIEB7toOtEDhjzyzCqQumnvDqO2FVJoy5jxa1R9TjvOY04c3hJKTTbyrA281nqAA5pi7EYV4d52Gh3DJGWVY53tp6yS+xrKjy0MOqiuksnLMaMJumk/4SKclEOhbXzrJFJ0SvA6aWzXYbdkY9KbKCy20vVaLXurg2y3G9HIQXzdDro12xfu3I0xZlsxNLfSVNeFodCIathDU72DINcY2FUW8gtTcTbUsbc6TKE1CdnnpLX1IjDrFVAQhDvM0gO7v5Oaqs6rfyrVSZisz7K/JB+TCoKODjyRJOw5llkfMaDPzsXcUEOXo5diUwbZFYehoY6mlhoOhkCdZMBctJ/ywtm3DzqvpXwNoCQpdxflynbqjjrwyyqSTDm8VBYb6QKAhqziYrqqG3DU1RHeZcGk16DLruCIqpHaxhZqqkKg1KI32yjMNy4qqANgLGLfS2FqGmrY0wnaVAuFpcXIVUe51kGTxsIDVEpHqHM0UtOtIsmURVGemZrmwOLrIwhC3BJznsaJwfrneL5ZzbN/fWT+DmNBEOLS5L7CZc2xCzeLl5Yj7QRTTKToVEi+Llrb/agf24VNBHVBuOOJwH47koCIH1eLk+ZQBKXWgMleRmmxHRHXBUEQqRhBEIQ4MDkVc4dMtCEIgnDnEIFdEAQhzojALgiCEGdEYBcEQYgzIrALgiDEGRHYBUEQ4owI7IIgCHFGBHZBEIQ4IwK7IAhCnBGBXRAEIc6IwC4IghBnpjwrRhAEQbj9iRa7IAhCnBGBXRAEIc78/zdDUi7jYVAuAAAAAElFTkSuQmCC;" vertex="1" parent="1">
          <mxGeometry x="132.5" y="340" width="174" height="152.13" as="geometry" />
        </mxCell>
        <mxCell id="NHgpnorcBEsm9mYt4aco-98" value="" style="edgeStyle=elbowEdgeStyle;elbow=vertical;strokeWidth=2;startArrow=none;startFill=0;endArrow=classic;endFill=1;" edge="1" parent="1">
          <mxGeometry width="100" height="100" relative="1" as="geometry">
            <mxPoint x="360" y="750" as="sourcePoint" />
            <mxPoint x="310.0000000000002" y="750" as="targetPoint" />
            <Array as="points">
              <mxPoint x="340" y="750" />
            </Array>
          </mxGeometry>
        </mxCell>
        <mxCell id="NHgpnorcBEsm9mYt4aco-99" value="Anfrage" style="edgeLabel;html=1;align=center;verticalAlign=middle;resizable=0;points=[];" vertex="1" connectable="0" parent="NHgpnorcBEsm9mYt4aco-98">
          <mxGeometry x="0.2974" relative="1" as="geometry">
            <mxPoint x="12" y="-30" as="offset" />
          </mxGeometry>
        </mxCell>
        <mxCell id="NHgpnorcBEsm9mYt4aco-104" value="" style="edgeStyle=elbowEdgeStyle;strokeColor=#990000;strokeWidth=2;dashed=1;" edge="1" parent="1">
          <mxGeometry width="100" height="100" relative="1" as="geometry">
            <mxPoint x="380" y="290" as="sourcePoint" />
            <mxPoint x="179.5" y="240" as="targetPoint" />
          </mxGeometry>
        </mxCell>
        <mxCell id="NHgpnorcBEsm9mYt4aco-109" value="" style="edgeStyle=elbowEdgeStyle;strokeColor=#990000;strokeWidth=2;dashed=1;" edge="1" parent="1">
          <mxGeometry x="0.0099" y="19" width="100" height="100" relative="1" as="geometry">
            <mxPoint x="380" y="440" as="sourcePoint" />
            <mxPoint x="380" y="737" as="targetPoint" />
            <Array as="points">
              <mxPoint x="380" y="590" />
            </Array>
            <mxPoint as="offset" />
          </mxGeometry>
        </mxCell>
        <mxCell id="NHgpnorcBEsm9mYt4aco-110" value="" style="edgeStyle=elbowEdgeStyle;strokeColor=#990000;strokeWidth=2;dashed=1;entryX=0.127;entryY=-0.056;entryDx=0;entryDy=0;entryPerimeter=0;" edge="1" parent="1">
          <mxGeometry width="100" height="100" relative="1" as="geometry">
            <mxPoint x="440" y="443.36" as="sourcePoint" />
            <mxPoint x="440.43000000000006" y="740.0000000000003" as="targetPoint" />
          </mxGeometry>
        </mxCell>
        <mxCell id="NHgpnorcBEsm9mYt4aco-111" value="" style="edgeStyle=elbowEdgeStyle;strokeColor=#990000;strokeWidth=2;dashed=1;entryX=0;entryY=0.5;entryDx=0;entryDy=0;" edge="1" parent="1" target="6pbGGfXBaGJGcjd1V0Mg-117">
          <mxGeometry width="100" height="100" relative="1" as="geometry">
            <mxPoint x="440" y="290" as="sourcePoint" />
            <mxPoint x="630.0000000000002" y="170" as="targetPoint" />
          </mxGeometry>
        </mxCell>
        <mxCell id="NHgpnorcBEsm9mYt4aco-114" value="&lt;p style=&quot;margin: 0px ; margin-top: 4px ; text-align: center ; text-decoration: underline&quot;&gt;&lt;strong&gt;&lt;strong&gt;Für Agentur freigeben&lt;/strong&gt;&lt;br&gt;&lt;/strong&gt;&lt;/p&gt;&lt;hr&gt;&lt;p style=&quot;margin: 0px ; margin-left: 8px&quot;&gt;&lt;br&gt;&lt;/p&gt;" style="verticalAlign=middle;align=center;overflow=fill;fontSize=12;fontFamily=Helvetica;html=1;rounded=1;fontStyle=1;strokeWidth=3;fillColor=#dae8fc;strokeColor=#6c8ebf;" vertex="1" parent="1">
          <mxGeometry x="790" y="660.39" width="190" height="139.87" as="geometry" />
        </mxCell>
        <mxCell id="NHgpnorcBEsm9mYt4aco-112" value="" style="shape=image;verticalLabelPosition=bottom;labelBackgroundColor=#ffffff;verticalAlign=top;aspect=fixed;imageAspect=0;image=data:image/png,iVBORw0KGgoAAAANSUhEUgAAAVEAAAC4CAYAAABaSt+8AAAABHNCSVQICAgIfAhkiAAAABl0RVh0U29mdHdhcmUAZ25vbWUtc2NyZWVuc2hvdO8Dvz4AAAAldEVYdENyZWF0aW9uIFRpbWUARG8gMDkgU2VwIDIwMjEgMTc6Mjc6NTGboRyLAAAgAElEQVR4nOzdd1xV5R/A8c+9ly1LlgTiRByIExyoCE7cudIsd9NBOXJmaqbmSm24UitHloKihqmpuE0QcaHiQlGRvTfce35/EPcXAXLhUmg979dLXvKcZ51znvu9zxmcI5MkSUIQBEGoEHlVd0AQBOFlJoKoIAiCFkQQFQRB0EKFguiPP/5I9+7d6d+/PwDBwcEMGjQId3d3Hj9+XKkdrExRUVG4urpy8ODBqu6KIAj/ErK/XliKiopi5cqVBAcHI5PJaNOmDVOnTsXOzg6A2NhY+vbtS48ePRg8eDAtW7Zk0KBB6OvrM3HiRNq2bYuurm6VrMz58+fx8fEBQCaTYW1tTc+ePXn//ffR09MjKyuLwMBAmjdvjr29faW3f//+fY4fP87rr7+OiYlJpdcvCMKLp8hMNCcnhwkTJvDo0SNmz57NrFmzePjwIW+99RYpKSkAREdHo1KpGDBgAC1btgQKAm/nzp3p2LFjlQXQP5s3bx4bNmxg+PDh7Nmzh1mzZgFgaGhI7969/5YACgVBdNOmTaSlpf0t9QuC8AKS/sTX11dydXWVHj16pE57+vSp1KZNG2nr1q3SpUuXpNatW6v/LV68uMjvgwYNkiRJklJSUqTZs2dLnTt3lgYNGiSdPHlSkiRJ2rx5s9S1a1dp69atUufOnaU+ffpIZ8+eVbd17949aezYsVKnTp2kcePGSQ8ePJAkSZLef/99ycfHR5ozZ47k7u4ujRw5Unr8+LH0V+fOnZNat24thYWFqdP8/PzUaU+fPpVat24tHThw4Ln9DA0NlVq3bi1t375d6t27t+Tl5SVt3ry5SJ19+vSROnbsKL3//vvSkydPpICAgCLbIjAwsEjfUlNTpdatW0s///xzsX4LgvDyKjITvXfvHlZWVtSqVUudZmdnh729Pffu3aNp06YsWbIEgEWLFvH++++zb98+5HI5w4YN45tvvlEvCwoKYu7cuTRr1ozZs2cTGxsLQHJyMpIksXnzZuzs7NT1ZWdnM3nyZFQqFZ999hn5+fnMmTMH6Y+zDaGhoXTt2pUNGzYQHR3Npk2bNPqS6NChAwB37twptux5/QQICwtj9erV9O3blw0bNvDkyRMiIiJYunQpvXv3Zt26dcTHx7NkyRI8PT2ZNm0aAJs2baJt27ZF2tLX12fSpEk0a9ZMo34LgvByKBJEs7Ky0NfXL5bJwMCAvLw89PX1sbGxAcDGxobq1avj4OAAgJmZGba2tqSmphIYGMjrr79O9+7dmTJlCrm5uQQHB6vrGz16NI6OjnTt2pWYmBgyMzO5cOECsbGxfPjhh3h4eDB69Gju3r1LTEwMAA0aNKBLly64uLjQokULIiIiNFpBIyMjAHJzc4uka9LPgQMH4uTkRP/+/ZEkiYiICPLy8pAkCR0dHWrXrs26deuYOXMmRkZGWFpaAmBra4uhoWGR9vT09BgzZgyNGjXSqN+CILwcdP78i6GhITk5OcUyZWdna3yuszDoffvtt2zZskWdHh8fX7xxnYLmc3Nz1eUmTJgAgEqlem65kvpZkszMTKAgiGnaz7+eM/1zP52cnPjkk0/4/vvv2bx5My1atGDq1Kka9UUQhH+fIkHU0dERX19fIiMj1Yf0UVFRPH36lL59+2pUYY0aNQAYM2YM3t7e6nQLCwv27NlTarnCGe6yZcvUs1tAfVdARZ07dw4AJycnjfv54MGDUut79uwZdnZ27N27l8jISBYsWMDs2bPZt2+fVv0UBOHlVORwvk+fPrzyyitMmTKFQ4cOcejQIXx8fKhevTqDBg3SqEJTU1M6depEQEAA9+/f5/Hjx/j7+5d4muDP2rVrh5WVFT/++CNRUVHcuXOHEydOFJtBauLu3buEhISwbds2Vq9ejYeHB02aNKmUfkZERPDee++xd+9esrKy0NPTU8/SzczMAAgICCApKalIudzcXLZs2cLNmzfLvT6CILy4isxEDQwMWLduHatWrWLp0qUAuLm5MWXKFMzNzTWudMGCBaxYsYLFixejp6dH27Ztyzz8NjIy4quvvmL58uXMnDkTKysrevXqVYFVKrhgJJPJsLKyYsiQIbz//vuV1k93d3emTJnCli1bSE5OpmHDhnz22WcAtG7dmrZt2/Ldd9/h7OyMu7u7ulxOTg7r16/HxMSkWEAXBOHlVexme0EQBEFz4m/nBUEQtCCCqCAIghZEEBUEQdCCCKKCIAhaEEFUEARBCyKICoIgaEEEUUEQBC2IICoIgqAFEUQFQRC0IIKoIAiCFkQQFQRB0IIIooIgCFoQQVQQBEELIogKgiBoQQRRQRAELYgg+ifLly9n3rx5lV7v9evXcXV1rfR6hZfH8ePH6d27t1Z1DB48mIMHD1ZSj4TKUmVB9PHjx7i6uqr/eXp6MmHChBJfbXzw4EHc3Nx4/PhxsWX+/v4MGjSITp06MWLECM6fP19m2wsWLKBfv37ql+Fp6sSJE+p3NpVlz549+Pj4lKv+v9OOHTvo378/nTt3ZsKECUXelhoeHs64cePw8PBg0KBBHD9+vNR6IiMjmTx5Mp6envTr14/vvvuOPz/X+8iRIwwePJhOnToxbtw47t27V2pd/v7+6rxDhw7l6NGj6mWZmZksWbKEHj160L17dxYuXEhaWppGZQESExP56aefGD16NBcuXNBoG/Xu3bvEfTZy5Ei2b9+uUR0Vdfv27ee+g+yvZs+ezQ8//PA39uj54/2vn9/27dszaNAgfvjhByRJ4vr167Rt21b9okiA/fv34+HhQV5enjpt/fr1vP3223/revzdqnwm6ufnx/nz59m7dy8ODg7qd7f/NY+JiQl79+4tkh4UFMTatWv57LPPOHXqFGPGjGHGjBkkJyeX2l5qaiq//fYbGRkZGgXcPwsMDNQ4iHbt2pVJkyaVq/6/y9GjR9m6dSsrVqzgt99+w9HRkQ8++ACVSkV2djYffvghnp6eHDt2jEmTJjF37txSX9Y3bdo07O3tOXLkCKtXr2bXrl3q2dHt27f59NNPmTVrFsePH6dFixZ8+OGHRT40hc6fP8/atWtZuHAhp06d4t1332XevHk8evQIgLVr13Lnzh1++ukn9uzZw5MnT1i5cqVGZU+dOsWwYcO4c+cO9+7dozwvbzh//ny5glllKW8Qfeuttyr8+hxNaTLe/f39uXjxIoGBgXz88cfs3LmTn376CWdnZwwMDLh27Zo67+nTp8nOziY0NFSdFhoa+tIfpVV5ENXV1UVPTw8LCwsGDBjAs2fPisw47t69S3h4OLNnz+bgwYNF3h+vr6/P3LlzadKkCXK5nO7du5Ofn8/Dhw9LbS8gIID69eszZMgQ/Pz8ii1PSEjggw8+wMPDg+HDh3P58mUA9QztwIEDvPHGG+r8e/bsoV+/fnTp0oVp06apX1B34MAB9Yf+r/W7uroSGxurTpswYYL6tc3Lly9n6tSpfPTRRwwcOJCBAwcSFBSkznvv3j3GjBmDh4eHOngsWLDgudv47NmzdOvWjYYNG6Knp8e7775LVFQUDx484Pr16+Tl5TFy5Ej09PTo0qUL7du359dffy1Wz5MnT4iIiODtt99GX18fR0dHvL29OXv2LAAnT56kQ4cOuLm5oaenx8SJE8nMzCQkJKRYXY8fP2bkyJE0bdoUuVxOt27dsLS0VO+7M2fOMGLECCwsLDA3N2fkyJGcOXNGo7ItW7bk119/5ZNPPtH4Vd+FPDw8WLt2LZGRkSUuV6lUbNiwgd69e9O5c2d8fHyK7MsTJ04wePBgOnTowIgRI4rsO5VKxcaNG/H29qZbt27s3LkTgIULF7J69WoePXpEjx49iIqKAuDYsWMMHDgQLy8vFi5cWOT9X2vWrMHf31/9e2nj8Pjx4/Tv358vvviC4cOH07NnT3W7UPClMWzYMDp27Mhrr72m3saljfe/ksvlKBQKDAwMaNWqFV27duXy5cvI5XJatmyp/vzk5uYSFBREjx491OMlLy+PsLAw3NzcNNgzL64qD6KF0tPT8fX1xdnZGRMTE3W6r68vHTt2pGvXrujp6RU51GzevDndunUDCnbS7t27sbS0pGHDhqW2s3fvXnr37k2fPn04d+4c0dHRRZbfunWLcePGcfjwYbp378706dPJzMxk7969dO3alf79+6sH4eHDh9m0aROrVq3i0KFDGBkZsWTJEq23xdWrV5kwYQL79u2jf//+fP755wDk5+czdepUnJ2dCQgIYNq0aVy6dKnM+uLj47G1tVX/Xq1aNapVq0ZcXBw5OTnFZmr29vY8ffq0xHoUCgWWlpbqNFtbW+Li4gCKveRPoVBQo0YNdVD4s2HDhjFu3Dj17xEREaSnp+Pi4qJuq/C11lDwiuvU1FRyc3PLLGtqaoqOTpF3MGrMy8uLrl27Mm/ePJRKZbHlvr6+HDt2jG3btnH48GFUKhWrV68GCoL7xx9/zAcffMCZM2cYP34806dPJyEhQb1OhoaG7N+/nzlz5rB27VpiY2OZP38+U6ZMoXbt2hw9ehQ7OzsePnzI3Llzeeedd9Sns+Lj40vsc1nj8NmzZzRt2pSffvqJFStWqNvNyspi+vTpjB8/ntOnTzNmzBhmzpxJampqieP9efLz87l9+zZnz55Vv4jRzc1N/QUaHByMnZ0dQ4cOVQfRW7duAdC0aVNNd88LqcqD6ODBg3F3d8fLy4tjx44xZcoU9bLMzEx+/fVX+vTpg1wux9vbu8TZ46xZs+jYsSNr1qxh1qxZGBoaltjW5cuXiYyMpGfPntSuXZvGjRsXe198x44dad68OUZGRowdOxa5XF5kNvFnfn5+DBkyBCcnJwwMDBg7diynTp0q8fC1PNzd3albty5Q8AbRJ0+eoFKpCAsLIyEhAR8fH0xMTHBycqJTp05l1pefn49cXnRX6+jokJ+fT/PmzVEqlezYsYPc3FxCQkI4fPgwBgYGxepRKpUoFIoS6wHo0KEDZ8+e5dKlS+Tm5uLn58e9e/fKfA11amoqM2bMYPr06VhYWAAFs7Y/97kwKBa29byy2poxYwaJiYnqo4M/8/T0ZP369VhZWWFoaIiXl5f6/PKhQ4do1aoVHh4eyOVyunbtygcffEB2djYANjY2jBo1Cn19fby8vJDL5Tx58qTEPvz22280b96cXr16YWxsTO/evbG3ty8xb1nj0Nramh49egDQrFkzdbtyuRxdXV2ioqJIT0+nV69e+Pr6lvr5KUn//v1xdXWlY8eOzJgxA29vb0aNGgUUBNGbN2+Sk5PDqVOn8PT0xMXFhdTUVCIjIwkNDaV58+YVei36i6RiX9eVyM/PDzs7O/Ly8jhy5Ag+Pj74+flhbW3N4cOH0dXVpWPHjgD07duXbdu28eDBA+rVq6eu4/PPPycvL49Tp04xd+5ctm/fTu3atUtsq0OHDlSvXh2APn36sHXrVt55551iwQEKDlVsbW1LnQHExMSwfft2du3apU7T0dEpNX9FyGQyVCoVkiQRFxeHlZVVmUHpr/4c6Arl5+ejq6uLiYkJy5cvZ+XKlWzatAk3NzcaNGiAlZVVqfVIkoRMJitSD4CrqyuTJk1i3rx55OTkMGDAAMzMzLC2ti61b+np6UycOBFPT0/69++vTlcoFEX6XPj/Px+el1ZWW9WqVWPhwoVMnDhRPfYKGRsbs3HjRoKCgsjNzSU9PR0zMzOgYDzY2dkVyT948GCg4Jznn8lkMuRyebH9UiguLo6aNWtq1N/yjsPCdvX19fn222/54YcfGDx4MA4ODowdO7bYOjzPgQMHSs3foEEDjIyMuHr1KmfPnmXVqlXI5XL1l+2/4XwovABBtJCuri59+/Zl2bJlhIWF4enpyd69e0lJSaFdu3ZF8vr6+jJjxgyuXLlCXl4ebm5u6Orq0q1bN9avX8+1a9eKBdHk5GQCAwPJzc0ttuNOnTpFly5divVJpVIRExNTahCwtrZm+PDhjBgxolzrCcVnVJqwsbEhISGB3Nzccn17W1tb8+zZM/XvqampZGRkqANlmzZt2L17N1BwWmTAgAGMGTOmxHpUKhVxcXHY2NgAEBUVVSTgjhgxQr097t+/z+7du3F2di6xX5mZmUyePBlXV1cmTpxYYp9btmypbsfU1FS9/Z5XtjK0atWKYcOGMW/evCJfsKtXryYlJYUtW7ZgZGSEv78/P/74I1BwyiEsLKxIPdeuXaNWrVrlbt/a2lp9PlGTvKWNw5s3b5ZaLiUlBYDFixejUqk4e/Ys06dPx8/PT+MA/jwymYzWrVvj7++PTCajcePGQMF5Z39/f27fvs348eO1bqeqVfnhfKGcnBx2795Nfn4+Tk5O3Lx5k/DwcHbv3s2lS5fU/+bNm8ehQ4fIzs7m8ePHzJ8/nwcPHqBSqbh48SLR0dElfmgPHDiAubk5v//+e5H6evfuja+vrzrfmTNnCA0NJTMzk61btyJJkvrEt6Ghofo8IsCAAQPYsWMH4eHhqFQqQkJCWL58+XPX09TUlOrVq3Ps2DEyMzM5efIkV69e1WgbOTs7Y2lpybp160hLS+PatWucOnWqzHKdO3fm+PHj3Lx5k9zcXDZv3oy9vX2R2Xx2dja3b99m5syZ1KtXj7Zt2wIQGxur/jDb2dnh6OjIpk2byM7O5t69exw5cgQPD48i7aWnp3PhwgU++ugjxo8fT7Vq1YCCD3ThFfSsrCx8fHxo0aIFH3zwQYl93rVrF/Hx8SQnJ7Nz5046d+6sUdnKMmHCBHR0dIrcqZCYmIhKpSI3N5dHjx5x5MgR9bnTXr16cenSJc6ePYtKpeL8+fNMnjy52LnikhgZGZGamkp6ejoqlYqePXty5coVjh49SkZGBgEBAaUe+ldkHELBOdoxY8Zw6dIlZDIZlpaWSJKkvvXvr+O9IlxdXQkMDFTvO4D27dtz9epVcnJy1OdPX2ZVPhMtPAzT19enfv36rFy5Ejs7O7Zs2YK7u3uRDzoUDNR169Zx5MgRBgwYQFJSEh9++CGJiYk4ODiwaNGiYmUkSWLfvn0MHz682AWHN998kzfeeEN9NbZ9+/b88MMPXL58GXt7e7744guMjIyAgtMJM2bMYOjQoRw4cID+/fuTnZ3N7NmziY2NpVatWhrdGzp//nxWrFjB5s2bad26NU5OThptK4VCwRdffMGiRYvo06cPjRs3pkGDBurlc+bMwc7OrtitVV26dCE2NpZZs2aRkpJCkyZNWLNmTZFzjl27dsXW1pZu3boxduxYdfrp06cJCAjgu+++A2DVqlUsW7YMb29vjI2NGTFiBH369FHnv3z5MlOmTKFu3bqMGTOmyGH2jh07sLW1xcfHh3379nHlyhVu3rzJzz//rM7TqFEjtm7dyqRJk1i7di0jRoxApVLRqVMnpk6dClBm2ed5+PAhQ4YM4fz582XO5vX09Fi0aBGjR49Wp/n4+LBw4UL69u1L3bp18fT05PDhwyiVSmrVqsXKlSv5+uuvmTNnDg4ODqxcuZIaNWpw48aN57bVrl07LCws8Pb2ZseOHdSpU4fPPvuMr7/+mqVLl+Lh4aE+T/5XFR2H9evXZ8GCBXz++edER0djZWXFxx9/rJ45/3W8V4Sbmxt5eXl4enqq04yMjHBxcUFXV7fE02gvG5lUnpvohCr31wsu06ZNo1atWnzwwQe88847dOnSheHDh1dhD19sISEhfPTRR5w4caKquyL8S7wwh/OCZiZNmsS5c+eQJIng4GAuXLhAhw4diI6OJiYmRus/Lfy3O3ToUJHbowRBW2Im+pK5cOEC69evJyIiAmtr6yKHzGlpaUXusRWKS09Px9jYuKq7IfyLiCAqCIKgBXE4LwiCoIUil6oj4tKZuDWYmNQcZOWsSAJqmOrzzTg36lqXfbiUk59DWEwYcelxSIjJsPBikCHD2tga5xrO6OuU748ahP+mIjPRiVuDiU3NQVaBmCaTIDY1h4lbgzXKHxYTRmx6rAigwgtFQiI2PZawmLCyMwsCfwmiMak5BVPK8k5D+aOM9EcdGohLj6tAI4LwzxDjU9BUkSAqU/+oIJnmxcUMVHiRifEpaEpcWBIEQdCC1kHUwdKIjW+1QUehzRRWEATh5aRVEHWwNGLj+DacuR1LvlIc/giC8N9T4SBaGEB/PP+QHWcfVmKXBEEQXh4VCqK1/jiE33lOBFBBEP7bSgyiretaMM6zfokFalkaseGtNuw8+5Cd5x7+nX0TBEF44ZUYRB/FZ9C3pR2TexZ9zmVhAN0hAqggCAJQShCNT8vh3S1BeDWpgU/Pgjdn1rKqxsa32rLj7EN+fIECqCRJnNh3gsz0zL+1HZ/+Pty5dqfMfKlJqUzoNYGEmIS/tT9V6fG9x6yZuYZ5Y+YRH132+6Q03XZ/l5/X/cx3y7+rsvaFf7dSz4nGpebwzuYgOjex4eOBTdk4vg3bz0S8cAH0xy9/5NTBU6iUqlLzJcQkMLHPRO5dv1ds2cZPN7Jp0aZytbtl6RaO7j5a6XlfFtu+2EbNejWZsmIK1a2rV1k//o3bVnj5PPfCUnxaQSB1cTAvCKDnH/5D3SqbJEnsXLuTO1fvMGX5FIzNSn/oiWUNSxo1b8TFExeLpKenpnMj6AYdvDuUq+1eI3rRpkubSs9bSFK9mLeLFT41MToymhYdWmBhbfG3vd5Bkyc0VmTbCkJlK/MdSwlpOQz78uw/0ReNSZLEjjU7uHf9HlOWT8HcyrzMMh16dWDn2p289v5r6OoVvDHy0qlLmFmY0aR1wcuyLp+5zC87fiEpLglrO2uGvjuUBi4NitW199u91G1clz5v9EFSSRzcfpDzh88jV8hx7exaal6A07+c5uieo2RnZtPApQFvfPAGxmbG/LzuZ6IeRpGTnUNuTi4ffv4hs0bMYsn2Jer1Wzt7LU7NnOj1ei9+XvczibGJyBVyoiKiABjhM4KGLQpOv0Q9jGLH2h08e/SM2g1qY2ZphkKhYNS0UcXW5861O/h960fsk1hsa9ny+uTXqeVYi4zUDD4a9hEdvDsQejaUV8e9yi/bfkGpVLLx0404ujjy7rx3ycvNY/93+wk5E4IyX0njVo0Z+t5QjE2Lf7Flpmeyc+1ObofexszSjGbtmnHp5CU+++EzQs+Gsnv9buo1qceNoBt8+t2nGBkbsW/zPoICg9DT18O1sysDxg1AoVAU3Q+SxKGdhzhz6Aw52TnUb1Kf4ZOGY2Vb8CbSrIwsti7bSlhwGMamxkW2lSBoo8hMVFL/qCBJu+KF0lPTS29CJbFjdfkCKEDz9s1R6Ci4fvG6Ou3isYu079kemVzGkwdP2LZqGyOnjOQL3y9o1rYZm5dsLrPe80fOc+7wOd5b8B5z1s157t9cB58M5pcdv/DeJ++xZMcS9Az02PnlTvXymMcxjPAZweyvZmu0ThG3IhgwegALty7E3dudXV8XvHdcqVSyYeEG6jjVYcm2JQx5dwh3r90tsY64Z3Gs+2Qd3Qd3Z+WelbTr1o7189eTn/f/VzrrGeix6PtFtO/Rns93fY5cIee9+e/x7rx3AfD71o+H4Q+ZuWYmCzcvJD8vv9Rt9/O6n0lJTGHehnl8+PmHPAp/VGR5alIqLTu2ZPnPyzGtbsruDbuJvB/J/G/nM/PLmYSFhHH6l9PF6g06HsSZgDNMXTmVlbtX8krtV9i8+P99uHvtbkH/d35Os/bN1NtKELRVJIjWMNVXP42p3P54+lMNU+2ewZialMq80fO4EVT87YiS6o8Z6I3yBVAAhY6Cdl3bcfFYwSF99ONoIu9F0r5HewAsbSyZs24OdRvVRSaX4erpSlpyGhlpGc+t99KpS3j09aBOwzoYmxrTfUj3UvOeCTiDR18PataviZ6+Ht7DvLn2+zWU+QWv3G3YsiG1HGupZ8plady6Mba1bAFwbOpI3LM4JJXEo/BHpCSlMHDcQAyNDalZryYubV1KrOPisYvUcqqFq6crCh0FHn09UKlU3Lvx//PHnv09MaxmWOKhu1Kp5Nzhcwx6axDmVuYYGhsyfOJw7ly9Q/Tj6CJ5JZVE6NlQ+o/uj7mVOabVTYudSjG1MMW1syv6Bvrk5+Xz+2+/029UP0zMTTCzMKNz386EnA4p1o9zR8/hNdALGzsbFDoK+rzRh1adWqlfZ9ysfTMat2yMrr4uLdxbqLeVIGiryOH8N+PcKv5QZtn/H8qsDdPqpoycOpLNSzYzfvZ49YdfmwBayN3bncXvLyY9JZ3fj/1Ok1ZNsLC2AMDQ2JCLgRf5fsX3ZGdkk5//x0ysjM9ZUnyS+pCxLElxSRzzPUagf6A6TaFQkJKYUu51+Su5XI6kklBJKpITkjGzMENXv+xgnBSXRMStCKYNmaZOy8/PJyUxBYf6DmWWT0tKQ5mvxNrOWp1mYm6CkbERCdEJ2DrYqtMz0jLIz8vH+hXrkqoqXndyQd0bP92ITFYwIlUqFWYWZsXyJsclY2ljqf7dwMiAHq/1KLFeueL/20rBy//KXqFqFQmida2NOTTTq6r6otaqUyug4OrruFnjcGnjwvbV27kfdr/CARTA1sGWOo3qEBQYRHBgMEPfG6peFnwymBP7TjB1+VTMrcyJexbH/HHzy6yzulV1jW9nMrM0w2uAF10Gdikzr0Kn4MNdOJMqDzNLM1ITU8nLzStzVmtmaYazqzPvzX+v2LKM1OfPwgFMqpug0FEQGxWLiXnBS/LSU9PJysjCsoZlkbzVTKqho6tDQkyCRlf1TaubIlfImbJsCg6Ozw/o5tbmJMYmqn/Pz8vn3o17ODVzek4pQdDeC/sovFadWjFq2ii2fL6FL+d+qXUALdTBuwMBOwPIz8svcoiblpQGUsGHLzUplZMHTgJlBzE3LzfOBJwh8l4kGakZz73lpoN3B37z+43H9x6jUqq4c+0Ou9ftLjFvNZNqGJsZE3I6hOysbK6ev8qDWw80Wsc6DetgamHKwR8OkpWexYNbD7h64WqJed7pTUEAACAASURBVNt0acPt0NtcPnMZlVJFbFQs21dv1yiAQsFM2r2HO/u27CM5IZmsjCx2r9uNY1NH9amGQjK5jNYerfll+y8kJyQTHx3P6UPFz28W0tHVwc3LDb/NfqQmpZKXk8f5I+c5E3CmWN723dsTuD+QuKg4lEolR3YfwXejL3LFCzvEhX+JMq/OV6VWnVohk8k4uudopQTQwjr3bNhDu27tipzj69i7IxHhESyeuBgTcxM69+2M1StWJCckY1rdtNT62ndvT0JMAt/M+waFQkHHXh2fmzcnO4ctS7eQnJCMjb0NA8cPLDX/qKmj2L1hN7/u+hUnFydq1q2p0ToqFArem/8eO9bsYM7IOdR2qo19XfsS89o62DJh4QT2bd3H9tXbqWZcjS4Du1DNtJrGgXTIO0PY//1+ln2wjPy8fBq3aszbc98uMe9r773GjrU7+PSdTzG3Mqduo7okxiSWmBdg2IRhHPj+AJ9P/pyszCzqN6nPsAnDiuVr160daclpfPXxV6SnpFPfuT7vLSg+uxaEylZlr0w+HH64Kpr9z1ApVUVmYRs/3Yi1nTWD3hpUhb0q3q8T+04QFBjErC9nVWGvSubd0LuquyC8BMSxzr/U1/O+Jiw4DEmSuHP1DmGXwnB2c67qbnFg2wGO7D6CUqksOJz/5XSpdw4IwstAzET/pW6G3OTgtoNER0ZjZmFGz2E91bdzVaXYqFj8Nvlx78a9gpvnPV15deyr6gtpLxIxExU0IYKoIJRCBFFBE+JwXhAEQQsiiAqCIGhBBFFBEAQtiCAqCIKgBRFEBUEQtFBlQVRW7kecCMI/R4xPQVNVFkStjTV7ko8gVAUxPgVNVdnfzjvXKPjrmbj0uOc+yFgQ/kkyZFgbW6vHpyCUpcputhcEQfg3EBeWBEEQtCCCqCAIghZEEBUEQdCCCKKCIAhaEEFUEARBCyKICoIgaEEEUUEQBC2IICoIgqAFEUQFQRC0IIKoIAiCFkQQFQRB0IIIooIgCFoQQVQQBEELIogKgiBoQQRRQRAELYggKgiCoAURRAVBELRQZa8H+Sel56o4eCuDOwm5iOf4C4JQFpkMnCz16Ne4GsZ6z59r/idmogdvZRAeLwKoIAiakSQIj8/l4K2MMvP+J4LonYTcqu6CIAgvIU1ix38iiIoZqCAIFaFJ7PhPBFFBEIS/iwiigiAIWhBBVBAEQQsiiAqCIGhBBFFBEAQtVNnN9hFx6UzcGkxMag6ycpaVgBqm+nwzzo261saV0yFJ4vHV0zy+corUmMcgAzPbOtRu3QU75/aV04YgCP86VTYTnbg1mNjUHGQVuP1IJkFsag4TtwZXSl/SYp/wy+JR/L5zGQamFjT0GkpDzyHo6BtxZvMnHFnxLlkpCZXS1osiJz2ZM9/OZe/sV3kYfLSquyP8g+IeXGfb224VKpsYGc7Rle+xd/YA0uOfVnLPNPMo5Dh7PupdJW2XpMpmojGFAbS801D+KCMV1KGt9PgoDi0dS712vWk1aCIKXT31srptetJywLtc3LWCXz8fT5+536NvbP7c+u6e8efCtsUF3VToYGpdE8eO/WnSfQQyuQKA0xvnYFGrIU17jda6/6WJDA1EoaOPvYt7icuv/bKFjMRYuk/5GgNTCwCOrppA3TY9cOzYn72zBtDprUXYNGhRrnbPfbeQ6PAQBi31Ryb7+7+jczJSuH1iN849R6KjZ1ApdUaHhxC6bz2JkbfQNTTGtqErrkM/wKi6TaXU/zI7991CbBu50mHcAgzNrMpVNjEynBNfTeHVxXsrbV+9CKpsJipT/6h4BdoUL3TuuwXUce2G27Ap6gAaHxFG8tN7AOgYGNFh7Hws6zTmwrYlGtVZzfIV3txwgeFrjtFmxEfcPbufs1sXqJc36zeeeu16VULvS/co5ARPrp8tdXnyswjsnNtiYlMTXQMjAFoP8aFWS09kMjmd3lqERe1GxQs+5+7j3IxUHl76jbzsDKJuXNB6HTSRm5HG1QObUOZml7usJKmKpcXdv8bxtT7UcevGkOUB9PvkRxS6ehz/8kMkZb7W9b/skp9FULtVF6pZ2CJXFJ2DlbW+5nb16PT2Z/+qAAr/kQeQlCbmTijJURF0nbymSHpk6En0jEwwt3dUp7UZPp19c14lOeoB5nb1yqxbrtBBrtDhlcZt8Hx/OQcXjqBx1+FY1XXm0u61WNd3oXm/twEIP+nLjcPbyMvOoEaDlriP/hh9Y3MehRwnxPcrHFp48OxWMDnpSTj3HEmT7m8A8PT6OUJ8vyI9/inGVna0GjyZms064v/xYDISo5HJ5MTdv0bfeTuK9O3wsreJjwgj7v41bgfu4bVVR/h9x1JUSiXuoz8uyCSDXZM9Gbnxdx6FHCdo10psHJvz5NoZBi3dX+Is5P6FAMxfqYdd0/aEn/TF3qWDepkkqbjiv4G7Z/cjV+jQyGsol/etY9ASf4yt7MhIjOb3HUuJuROKoZkVzfqMo757XwD2zx+GXeM2JETeJi3uKcaWdni88xlRYb9zee83BXk+eQ234dOwbejKnuneDFkeoJ45Hl01AdtGrWnWZzz75w+jur0jcfevYd+0Pe1GzimyDtcCtlLHrQeNuw5Xp7V9YyZ+M/oS9+AGNg1akPj4DsE/rSQx8g561Uxx6TUap86D1X39a/3R4SFc2r2a1JhIzF6pS/s3Z2NRu1HB/vX7Cpv6zYi7fw2VSkVT71E09Byibru0sQFw5/Q+bh7dQVZKAha1GtLm9elUr9lA3Q/rei4kPrpFZko8Fg4NcR8zDyNz62L77XnbvlBOejL75w9DUuYT+M10bJxa4jVhRYnrW1qfEyJvc2TFu4z6tuA0XPLTe5zftpjkqAdY1W6Mobk1coUOHcbOL3PdJZWS4J9W8eDiYXT0DHDu+SaNugwDQJmXS4jv2oJluvrUadODVoMmIVfolDqWqlnYFtsumnqprs57NLZh7qvOlVZfZOhJarfugs4fM7FCzfu+hXP3EUXSDM0ssWvqzpOrp8vdjrldPUxtHIgODym2LCLoCFf2b8Rr4kqGLA9AR9+Q83+cDgBIT4jCul5T+i/Yhef7ywnZ8yWZSbHk52Rxcv0MXPqM4/WvT9G01xhObZhJbkYqr37mR61WXajfoV+xAArgPfNbbBq0oGmv0by26ohG65CVmkDtVl0YtvoYhqaWJea5c3of9dr3pn673jy9cYGMxGj1sntnD3D3jD9dJn3BgE/3kJORop7VSiolx9b4YGLtwLDVx+g4fiEXdy4j6fFddfn4iDC6+axlyLKD6BlV43rAVhp0epXes78DYMCnu6nbpqdm65ISR69ZW2g7YkaxZfERYdg2ci2SpqNnwLA1x7Bp0AKVMp/ja32o1aoLw788gfuoufy+cxnJUQ9KrD8t9gknvvwQ556jGL72OI7ufTn+1RRU+XkAZCbG4tihPwOX+NP53aUE//wFcQ+uA88fG48uHeOK/3o6jv+U1744Ss1mnTi6akLBdv1DdloivWZtZcjyAHQNq3H++0XF1leTbQ+gb2zOa6uOIJMr8Jq0Eq8JK0pc37LGs7pdZT4nvp6OVR1nhiz7Bbdh04j50+ejrHqy05Iwta3D4GUHaffmbC7tWUvsvSsABO1aQcKjcF5d5Eufj7cRdeMC4Sd9i+zjv44lbbw0QdSjsQ0LBrvw65VnlVZnWmwk1Ws6FUu/vG8d13/9vli6hUMDUmIiK9SWobkVuZlpxdLDT/rSyGsoFg5O6OgZ4NJ7LE+unEalLPiQGZpZUcetBwDW9ZuBXE5a3BNkMjlyhS4Zic/Iy0ynXltvBny6Bx0Dwwr1r8z+m1lRp00PdPQNC54T9hcxd0JJjYmkXltvTG1rY1m7EXdP+6uXPwz+jYZeQ7Gq64yugRFNur9ZpGxa3BNaD56MQlcP63ou2DfryMOQY+o8jh37o2NghEyuwMaxBakV3A8A9dr1xqi6DTJF8QOx/JxM9KuZlVpWBnSf+g0NPYcgk8l5pUlbDEyqkxrzqMT6718IwLJOY+q26YFcoUtDzyFIKiUxd0MB0DcxVwdtq7rO2Lt04FHIceD5YyP8lJ/6yEahq4dzzzcxNLXgYfD/t5lDcw8UevrIFTo06zOOqLAL5GVnFlkfTbZ9ebZnWeO5UPzDMLJS42k9eDJ6RiZUd2hAzead1Ms1+Vw09ByMjp4B9i7uf2y3Eyjzcrl/PoCWr76HgUn1gnxeQ4tsl8ocS/CSHM53bmzD/MEuTN8RyuWHiZVWryRJyEoICMq8bPJzdYsXkMkqfB42MzkOPSOT4ulJsYQd2c7NY7v+34xCQVZyfIn1yGQyVMp8FHr6eM/4luuHv2ffx4MxrVELl95jMbayq2APtRN+yhd7F3f14Vb99n24FrCVZv3eQq7QISslHhMr+xLLZiRGIymV7J7urU6TVEr0DEu+fU0ml6PML9/5SU3pG5sXmc0Va1uhQ2ZSHME/ryYzKRZJUpGTnoKkKvl8YGZSDHH3b7DLx0udplLmkZUcj0JPv1h+Ywtb9b5/3thIT3iGSQ2HImVNatQiIyGqxH5Uq14DgOzUoneZlHfbl0XT8ZyZFIeRmVWJ26A89RQysbInMymW7NQEVMo8Ar+Zrv6ylyQVRqVcBKuMsfTCB9G/K4ACmNo4kPTHBSRNJD99gLl92edDi5WLuk9azGNsnVoVW2ZoZk3jrsNo3G1EsWXxD2+WWmdOejISEh5vL0aSVDy9do7Ab6bz6iJfTGxqlruPcoUuyryKPTIwJz2ZyMuBqPLzit068+TqaWq16oKhuTXppXzAjarboGtkzLAvjqrvYKgouU7BkFaV8yJQIcvajYkOD6F++z7qtPzcbPznDqLze0sxql6DE19NpedH67Gu3xzgubfbGJpbY+/SHq+Jq4otK5xx/llqbKT6nPvzxoax5SukxT4pkpYW+wR753Yl9iMtriCvgakl2enJ6vTK3PZl9Tkz5f8B0NDcmqyUBJR5uUXuiNGknpI+F+nxUVSztMXQzAqZXEHPjzZiUauhlmujmSo/nH/dvTadGhU/2Q3g2aTG3xZAARxaePDo0jHyNbiym5OezJNrZ3Bo7qFx/fnZmTy7eZHAbz6iTpseWNVrWiyPU6cB3Diyg8TIcCSVkujwEIJ2rSihtqKyUhM4tGQM0bcvIUOmvk2p4E8RQNfAiMzkOJS5mt0GZvZKHWLuhJKZFEt6fBQ3j+7UeD3vnTuIvrE5IzdcYNS3wep/9dr1IvykHwB12/Qg/KQfCY9uk5OezI3DP6jL12jQEgNjc0L8vkKZm0NOejIhvl8Sd/9amW3r6BecvshIiEZS5qNfzQx9Y3MeXjpGXnYmkaEniXtQdj2Fmvd/h4dBR7h7xp+8rHSyUuK5+ONy9KqZYVXHmZyMVCSVEmV+PrmZadw//wvZqYmolMoS66vXrhfPbgbx6NIxJJWStNjHnP9+ETl/BLLs1EQiLh5GlZ/Hk2tniQq7SO3W3YDnjw0nj4HcOv4TCQ9vosrP49bxn8hKjqN2667qth/8fojMpFhyMlII9V+PvYu7+k6Mytj2JdF0PFvVdcbQzJJQ/3XkZqYRd/8aj6+c0rierOQ4wgP3oMzN4en18zy5dpa6bj2Q6+hSr603l/asKQjSuTncO7ufO6f8KrQ+mqjymWh4VBor32zJAr/rnL4Vq073bFKDTwY1ZdqOy4Q+TPpb2rZt5IaxlR1X9m/AdeiH6vRXGrmho190sAXvXk0Np1bqq5/Pk5HwjG1vuyFX6GJawwEnj0E06f56iXnrd+hHXk4WpzbOJis5DpMaDrQe7FNmG+Z29ekwdgEXdy4jIzEaAzNL2o+ag4lNwSFevXa9ObVhFvvnv8agpfvLrM+xQ3+iw0PwnzcEAxMLHFpo+GUhSdw5vZcm3V4vdo7RucdIDi56g7TYx9R370ta3FOOr/VBrtChTpse6nxyHV26ffglQT+twndGwQywtmtXjba1oZklddt68+uy8bQdMQPHjgPoOG4BQbtWcC1gC7ZOrbAo4bx3aSwcnPCauIpQ//Vc/HE5+tXMsG3Ymm4frEWm0MHCwYnmA97h1IZZQMGXg12TtuSWcgrAzLYOXSavJsTvK879sAh9I1OadH9dfdpDz8ikIED8tAodPQPavP4RVnULLp4+b2zUcetBTkYaZzbP++PquxPdp60rch9zNQtbjq39gPSEKGzqN8N99Lxi/dNm25dE0/EsV+jgNWkV53/4DN8ZfbCq06RIm2XVY/ZKXVJjIvGd2RcdPQPchk9TT1LajJhB6L51BHw2ktzsDGzqNy/xImJlkUlS1Tyy2HXuYfX/W9WxYOWbLfl07w1O3owpVwC9tNj7ucsBFhwv/a+NUqMfcWjpWBp5vUbzfm8VCwTKvFwu7V5NZOhJ+ny8rcRbRATNSCql+pAx8fEdfln0JiO+PFns7oj/ikchxwn6aRVDVxyq9Lr3zx9Gk26v06DTq5Ved2X583gACPxmOqY1HGg95IMq7FVxC7qWfDdKoSqfiQJcfpjI9B2hrHyzJc1rmTPAtSZTt1/myqO/Zwb6Z6a2tek1czOnNs7mQdBh6rfvU/CNKEkkRoZz7/xBDM2s6DVriwigWogKu8Cd0/64j5qLXKHD1YPfUqNBy/9sABXg2BofmnR/A/um7YkOD+HpjfM07vplVXer3F6IIAoFgXTajsssfq35PxZAC5nZ1aPf/B95eOk4kZdP8Dj0JMhkmNrWps3rH1GrRecSb+sRNGfj2ILI0FPsn/8ayvw8aji1otNbxe9bFP47nHu+Saj/Bk5tnIWhmRXt3pxV7B7dl8ELcTivDW0P5wVBEJ6nrMP5Krs6L6l/VLwC8f45QRCqWpUF0Rqm+uqnMZXbH09/qmFa8o26giAI/5QqC6LfjHPDxlQfqQKnGiUZ2PzxUGZBEISqVGUXlupaG3NoplfZGQVBEF5gVf4XS4IgCC+z/0QQFXcnCYJQEZrEjv9EEHWyLP6AA0EQhLJoEjv+E0G0X+NqNLTSEzNSQRA0IpNBQys9+jWuVnbeqrrZXhAE4d/gPzETFQRB+LuIICoIgqAFEUQFQRC0IIKoIAiCFkQQFQRB0IIIooIgCFoQQVQQBEELIogKgiBoQQRRQRAELYggKgiCoAURRAVBELQggqggCIIWRBAVBEHQggiigiAIWhBBVBAEQQsiiAqCIGhBBFFBEAQtVNkrk/9J6bkqDt7K4E5CLuI5/oIglIdMVvCupX6Nq2GsV3ze+Z+YiR68lUF4vAiggiCUnyRBeHwuB29llLj8PxFE7yTkVnUXBEF4yZUWR/4TQVTMQAVB0FZpceQ/EUQFQRD+LiKICoIgaEEEUUEQBC2IICoIgqAFEUQFQRC0IIKoIAiCFqrsL5Yi4tKZuDWYmNQcZOUsKwE1TPX5Zpwbda2NK6dDksTjq6d5fOUUqTGPQQZmtnWo3boLds7tK6cNQRD+dapsJjpxazCxqTnIKnAPp0yC2NQcJm4NrpS+pMU+4ZfFo/h95zIMTC1o6DWUhp5D0NE34szmTziy4l2yUhIqpa0XRU56Mme+ncve2a/yMPhoVXfnX+HYGh+uHvwWgEchx9nzUe8q7lFxEUFH8ZvVX/uKJInLfl+zb+4ggn/+Qvv6Kmj//GHcPeNfZe1DFQbRmNScgilleaeh/FFG+qMOLaXHR3Fo6VhqNGjFoCX+tBo0ibptelC3TU/chk1h8NL9GFvZ8evn48lJTy6zvrtn/Nn2thvb3nZj+3vt2T9vKGFHtiOplOo8pzfO4cavP2jd9+eJDA3k6fXzpS6/9ssWMhJj6T7la+xdOgJwdNUE7p7xR5JU+M3sR+zdK+Vu99x3C/Gb1R9JUlW47+WRk5HC1YPfkp+bXSn15WdnErRrBXs+6s2PEztxcOEIIoL+2S+Zkvbd2S2fcD1gKwC/LHqTyNBArdtJjAzH96PeFdp2kaEnuXt2P53fWUKzPuPKXf6f+Az8U6rscF6m/lHxCrQpXujcdwuo49oNt2FT1GnxEWHo6Oljbu+IjoERHcbO59TG2VzYtgTPCcvLrLOa5SsMXLwXZV4O8RFhXPxxOYmP79DprUUANOs3Hj1Dk0rofekehZxAz8gEexf3EpcnP4vAzrktJjY11Wmth/hgbGmLTCan01uLsKjdqHhBSSp4IkMJcjNSeXjpNxS6+kTduIC9S4dKWZfnyc1I4+qBTTTyGoqOnkG5ykqSCpms6Dzi/PbFZCXH4T3jW4zMrIh7cJ2TG2aio2eAQwuPyux6qUrady69x6JrUA2Adm/MwtS2ttbtmNvVo9Pbn5V7uwGkRD+kek3Hco+RQv/EZ+Cf8lI9xcmjsQ2dGlqz2D+sUuqLuRNKclQEXSevKZIeGXoSPSMTzO0d1Wlthk9n35xXSY56gLldvTLrlit0kCt0eKVxGzzfX87BhSNo3HU4VnWdubR7Ldb1XWje720Awk/6cuPwNvKyM6jRoCXuoz9G39icRyHHCfH9CocWHjy7FUxOehLOPUfSpPsbADy9fo4Q369Ij3+KsZUdrQZPpmazjvh/PJiMxGhkMjlx96/Rd96OIn07vOxt4iPCiLt/jduBe3ht1RF+37EUlVKJ++iPCzLJYNdkT0Zu/J1HIccJ2rUSG8fmPLl2hkFL92NoZlVsne9fCMD8lXrYNW1P+EnfIkFUklRc8d/A3bP7kSt0aOQ1lMv71jFoiT/GVnZkJEbz+46lxNwJxdDMimZ9xlHfvS9QcMhm17gNCZG3SYt7irGlHR7vfEZU2O9c3vtNQZ5PXsNt+DRsG7qyZ7o3Q5YHYFTdBiiYYds2ak2zPuPZP38Y1e0dibt/Dfum7Wk3ck6RdYiPCMO5x0hMrO0BsG3kSssB75GZFAOAMi+XEN+1PLh4GB1dfeq06UGrQZOQK4p/lCSVkuCfVhXk1TPAueebNOoyDIC02Mdc2L6E+Ic30TWoRiOvobj0HlvivpMkFRFBR7l7dj/52ZnYODan/ai56BmZlDlGcjNSubBjKVFhv2Nkbo11/Wbq/iVE3ubIincZ9W3BabHkp/c4v20xyVEPsKrdGENza+QKHTqMnV9kvS77fcXtwD2o8vPZPa0nnu8vJyslvtgYUSnzS92nf/4MaDM2CvdZeOAeUuOeYF3PhQ5jPlHv++jwEC7tXk1qTCRmr9Sl/ZuzsajdqMztVh4vzdV5j8Y2LBjswq9XnlVanZGhJ6ndugs6BkZF0pv3fQvn7iOKpBmaWWLX1J0nV0+Xux1zu3qY2jgQHR5SbFlE0BGu7N+I18SVDFkegI6+Iee3LVYvT0+IwrpeU/ov2IXn+8sJ2fMlmUmx5OdkcXL9DFz6jOP1r0/RtNcYTm2YSW5GKq9+5ketVl2o36FfsQAK4D3zW2watKBpr9G8tuqIRuuQlZpA7VZdGLb6GIamliXmuXN6H/Xa96Z+u948vXGBjMRo9bJ7Zw9w94w/XSZ9wYBP95CTkaL+Y2RJpeTYGh9MrB0YtvoYHccv5OLOZSQ9vqsuHx8RRjeftQxZdhA9o2pcD9hKg06v0nv2dwAM+HQ3ddv01GxdUuLoNWsLbUfMKLbMsUM/rv2ymfsXAsjLLnhqT0OvoTT0GgpA0K4VJDwK59VFvvT5eBtRNy4QftK3xHay05Iwta3D4GUHaffmbC7tWUvsvYJTJOe+/xSzV+oyfM1xun/4JTcOb+Pp9XMl7rvwQF8eXTpG34+3MXTlr0iSiku7///FX9oYAbj443Iyk+IYsPBnuvqsIT3uSYl9lZT5nPh6OlZ1nBmy7Bfchk0jpoTxCtBq8GSa9hqNTYMWvLbqCDaOzQu265/GiIGxeZn7tJC2YyPh0S28Jq1i8NL96Ojpc3brAqDgWseJLz/Euecohq89jqN7X45/NQVVfl6Z2608Xoog2vmPADp9RyiXHyZWWr1psZFUr+lULP3yvnVc//X7YukWDg1IiYmsUFuG5lbkZqYVSw8/6Usjr6FYODiho2eAS++xPLlyGpWyYEcbmllRx60HQMEsQi4nLe4JMpkcuUKXjMRn5GWmU6+tNwM+3YOOgWGF+ldm/82sqNOmBzr6hiUeqsXcCSU1JpJ6bb0xta2NZe1G3D39/xP+D4N/o6HXUKzqOqNrYEST7m8WKZsW94TWgyej0NXDup4L9s068jDkmDqPY8f+6BgYIZMrsHFsQWoF9wNAvXa9Mapug6yE2WOzPuNxH/0xD4OOsmd6L058PVUd+JR5udw/H0DLV9/DwKQ6hmZWNPQaysPgY8XqKdxmDT0Ho6NngL2LO/YuHXgUcgIAhY4eOWnJZCbFYm7vyKuL9mDToEWJ9dRq6Un3aeswNLNCR98QhxaeJD+LKNJOSWNEUil5GHKclgPfx6i6DcZWdjTwGFRiG/EPw8hKjaf14MnoGZlQ3aEBNZt30nyjUnSMxNy9UuY+LaTt2GjoOYRqFrboG5vTYsB7RN8OJjczjfsXArCs05i6bXogV+jS0HMIkkpJzN3Q52638nrhD+c7N7Zh/t8QQAEkSUJWQkBQ5mWTn6tbvIBMVuHzsJnJcegZFT8HlJkUS9iR7dw8tuv/zSgUZCXHl1iPTCZDpcxHoaeP94xvuX74e/Z9PBjTGrVw6T0WYyu7CvZQO+GnfLF3cUff2ByA+u37cC1gK836vYVcoUNWSjwmVvYlls1IjEZSKtk93VudJqmU6BmWfPuaTC5HmZ9f+SvxB3uXDti7dCA3I5WIoCMcW+NTcI7YwQmVMo/Ab6arv0gkSYVRCac2SmJiZa+e6Xi8s5hrAVs5umoCMrkcJ4+BOPd4s8RyuobGXD2wiWe3glDm55KXlY5eNbNS2ykcI9lpSUjKfEz/dN67NJlJcRiZWaHQ09doXcpSnn1amWOjsJ6slHgyk2KIu3+DXT5e6uUqZR5ZyfElrmfhdiuvKg+ir7vX5kliJmduxxVb5tmkBp8Mavq3BFAAxhWBUwAAB0NJREFUUxsHkp7e0zh/8tMHmNuXfT60WLmo+6TFPMbWqVWxZYZm1jTuOozG3UYUWxb/8GapdeakJyMh4fH2YiRJxdNr5wj8ZjqvLvItcrFIU3KFLsq8ij13NSc9mcjLgajy89j2tluRZU+unqZWqy4YmluTnhBVYnmj6jboGhkz7IujyOSKCvWhkFynYEhX5MOQmRRL0E+raD9yNvrG5uhVM6Wh11ASH98hIugo9k3dkckV9PxoIxa1Gpa7/vT4KKpZ2iIp80mNfUzrIZNxGzaVlKgH/LZmMvrG5jh26Fes3KXdq8lJT8F75mZ0DYy4e8a/yJduafSNzZErdEmPf4ZR9RrPzWtobk1WSgLKvFwUunrlXre/Ks8+rcyxUViPkbk1hubW2Lu0x2viqmL5HoUc12AtNFPlh/PhUWksHNIMj8Y2RdILA+i0HZf/lgAK4NDCg0eXjml0i0dOejJPrp3BobnmV2jzszN5dvMigd98RJ02Pf7X3t3HNHnEARz/FopFwRYRKagoKKKim0NBVNyL7zplZr5lODXq3H/TmanodGZGncao8S0SjHPxdRoVkTidbjrK4kvEQpEpAaITimi1gsirLZTuD7SbUtZCdcVxnwQS6OUuPHf99Z57fnfg061vvTIh707kxrmDFGtzMNea0OWkkXp4o826q0qLOLNuNrpsNRIkuMu9n71St5bk5t6GyhI9JqN9aWAK/0Ae5GqofPyQ8kf3yPrlkN1/561Lp5B5ejEz/gqzdl+zfHUbNI4cVQIAQQNHk6NKoCg/G0N5CTfO/p3eouwRhrunF2kJOzAZDRjKS0g7vh397UybbUtldcsXFUU6zKYaZB4KZJ5e5KnPU/20Eq1Ghf5P2/UAuMu9eaLL4+rhjZTpC6mtqaY4P5t7WVfxDuiBi9SNbpFjUR/bWhdwjAZuXUwiNyXBan1VJXpyko9hMhoo/OMydzMvEhQxGiQSVHGxZP36I2ZTDa08FLi6yeBZWtjLffe07DFgprbGSKkunzup515ImWuIi6uUwIiRZCTFU1mip/xRIbkp1tdvfYL60FrRHs3JOIyVZehvZ1KQkWLXdbOmMX3q6NjITj5KRdF9DOUlpCfG0anvENxae9Jt0DjuZ6WSrz6PudZE2cMCLu9dY1eqYmM4fSaanlfM4oMaNs0IY/WJG6iyHrwQQDV5j19b2369IvD06UhGUjzhUxdafu/fKwKp7MWHTdeObkEZ0p92nXvYrLei6D77P4/AxdUNuTKAkPcmEToqxmrZ7lHRVBuqSNn1NVUletoqAxgweYHNNrw6didqziquHtpARbEOd0V7Bs9aTlvfAKBu3S8lfhlJ305j0vokm/UFR32ELieNkyun4N7W2/50HrOZ3N9PEDoypt4aY5/RMzm15lPKHhbQfcgEyvSFXNi2oO7NPXC0pZyL1I2RC7eTemQzx2PHA9A1fIRd17q1oj1BkWP5ecNnRE6PJXjoRIbOXUXq4Y1knt6DX0h/vK2se1vj4iplzOJ4NIlxnN0wD0P5Ezy8fQmOiqbPmJkADJweiyYxjtNrZ2J8WoFv935WH1ABKPyDKH2g5fjSCUhbuRPxySLLB+nw+Vu4dmQzmad/QOomIyhyrOWJ88t9N2DyfC7tXU3C0mjk/oF0CfuAO1fP2TXbHhizhCsH1pG0cipt2vnSsc9gyot09cq5uEoZ9sVmLu9by/HY8fgEhtp1/RvSmD51dGx06juE5LgllD7Q4hvcz5JNoPALZPj8LaQl7ODSvjXI2sgJHRVjWXJ6VSRms3POfQ9fcfaFn/sHerNpRhhJ6rtMDO/MVwfSyci3HUDV3421WWbVhYZ3G5Xq8jmzfg69hk2jX/S8eoHAVG1EfXQLWo2K8d/sp41XB5vtCdaZa02WW7Liglx+WjOD6dtV9bIjBOf4Z/8AJO9cjFwZwIApX/6nbTfnsbFqRP3MFKffzj+XnlfMooPpjHnb3+4A+irI/boybun3aDXJJK6cwvVTu9FqVGjTk8k4GU/iio95lJfFuGV7RAB1wL2bV0jZtRxjRSk1Tyu5fmo3yh5hze5N0pKd37qgbqeU2YwuW03hjct06vv6N0y86WOj2cxEm8rRmehz5loTeeoLaNN/o+xhAUgkyP26Ehg+ii7vvG9zB4bw72oMVaiPbaMgQ4WpphplSH8iY5ZYkqIF57t38wqak/E8uX+H1gof3vpwNsFRr2CfvQ1v0tiwNhMVQVQQBMFOzep23mz51vQKxD/xFATB2ZwWRJVymeU0pkZ7dvqTUv5qEoMFQRCaymlBdOfcCHzlMsxNWGo0S8D32aHMgiAIzuS0PNGgDp6cWTrMdkFBEIRmrNmkOAmCILyJWkQQFdlJgiA4qqE40iKCaEh7xw9UEAShZWsojrSIIBrd24OePq3EjFQQhEaTSKCnTyuie3tYf91ZyfaCIAj/By1iJioIgvC6iCAqCILgABFEBUEQHCCCqCAIggP+ApLQWv3Z7+cxAAAAAElFTkSuQmCC;" vertex="1" parent="1">
          <mxGeometry x="796.5" y="692.01" width="177" height="96.64" as="geometry" />
        </mxCell>
        <mxCell id="NHgpnorcBEsm9mYt4aco-115" value="" style="edgeStyle=elbowEdgeStyle;elbow=vertical;strokeWidth=2;startArrow=classic;startFill=1;endArrow=none;endFill=0;" edge="1" parent="1">
          <mxGeometry width="100" height="100" relative="1" as="geometry">
            <mxPoint x="790.0000000000002" y="740" as="sourcePoint" />
            <mxPoint x="740.0000000000002" y="740" as="targetPoint" />
            <Array as="points">
              <mxPoint x="760" y="740" />
            </Array>
          </mxGeometry>
        </mxCell>
        <mxCell id="NHgpnorcBEsm9mYt4aco-116" value="&amp;nbsp; &amp;nbsp; Angebot&amp;nbsp;" style="edgeLabel;html=1;align=center;verticalAlign=middle;resizable=0;points=[];labelBackgroundColor=none;" vertex="1" connectable="0" parent="NHgpnorcBEsm9mYt4aco-115">
          <mxGeometry x="0.2974" relative="1" as="geometry">
            <mxPoint x="2" y="-20" as="offset" />
          </mxGeometry>
        </mxCell>
        <mxCell id="NHgpnorcBEsm9mYt4aco-118" value="Personal-agentur" style="whiteSpace=wrap;align=center;verticalAlign=middle;fontStyle=1;strokeWidth=3;fillColor=#FFFFCC" vertex="1" parent="1">
          <mxGeometry x="840" y="479.9999999999999" width="90" height="60" as="geometry" />
        </mxCell>
        <mxCell id="NHgpnorcBEsm9mYt4aco-119" value="" style="edgeStyle=elbowEdgeStyle;elbow=vertical;strokeColor=#990000;strokeWidth=2;" edge="1" parent="1">
          <mxGeometry width="100" height="100" relative="1" as="geometry">
            <mxPoint x="886" y="660.39" as="sourcePoint" />
            <mxPoint x="886" y="540" as="targetPoint" />
          </mxGeometry>
        </mxCell>
        <mxCell id="NHgpnorcBEsm9mYt4aco-120" value="Email: &lt;br&gt;Pool Hirslanden&lt;br&gt;Zürich sucht &lt;br&gt;nach Mitarbeitern" style="edgeLabel;html=1;align=center;verticalAlign=middle;resizable=0;points=[];labelBackgroundColor=#F8CECC;rotation=0;" vertex="1" connectable="0" parent="NHgpnorcBEsm9mYt4aco-119">
          <mxGeometry x="0.1625" y="2" relative="1" as="geometry">
            <mxPoint x="1" y="9" as="offset" />
          </mxGeometry>
        </mxCell>
        <mxCell id="NHgpnorcBEsm9mYt4aco-121" value="" style="edgeStyle=elbowEdgeStyle;strokeColor=#990000;strokeWidth=2;dashed=1;entryX=0.081;entryY=-0.056;entryDx=0;entryDy=0;entryPerimeter=0;elbow=vertical;" edge="1" parent="1" target="14">
          <mxGeometry x="0.0099" y="19" width="100" height="100" relative="1" as="geometry">
            <mxPoint x="100" y="520" as="sourcePoint" />
            <mxPoint x="390.0000000000002" y="746.9999999999998" as="targetPoint" />
            <Array as="points">
              <mxPoint x="250" y="520" />
            </Array>
            <mxPoint as="offset" />
          </mxGeometry>
        </mxCell>
        <mxCell id="NHgpnorcBEsm9mYt4aco-124" value="&lt;font style=&quot;font-size: 24px&quot;&gt;Prozess Nacht/Wochenende&lt;/font&gt;" style="text;html=1;strokeColor=none;fillColor=none;align=left;verticalAlign=middle;whiteSpace=wrap;rounded=0;labelBackgroundColor=none;" vertex="1" parent="1">
          <mxGeometry x="740" y="223" width="90" height="38" as="geometry" />
        </mxCell>
      </root>
    </mxGraphModel>
  </diagram>
</mxfile>
